G04 #@! TF.GenerationSoftware,KiCad,Pcbnew,(5.0.1)-3*
G04 #@! TF.CreationDate,2019-11-14T23:00:07-05:00*
G04 #@! TF.ProjectId,pcb_draft1,7063625F6472616674312E6B69636164,rev?*
G04 #@! TF.SameCoordinates,Original*
G04 #@! TF.FileFunction,Paste,Top*
G04 #@! TF.FilePolarity,Positive*
%FSLAX46Y46*%
G04 Gerber Fmt 4.6, Leading zero omitted, Abs format (unit mm)*
G04 Created by KiCad (PCBNEW (5.0.1)-3) date 11/14/2019 11:00:07 PM*
%MOMM*%
%LPD*%
G01*
G04 APERTURE LIST*
%ADD10C,0.100000*%
%ADD11C,0.318000*%
%ADD12R,5.000000X3.500000*%
%ADD13R,1.000000X2.700000*%
%ADD14C,0.875000*%
%ADD15C,0.590000*%
%ADD16R,2.000000X1.500000*%
%ADD17R,2.000000X3.800000*%
G04 APERTURE END LIST*
D10*
G04 #@! TO.C,C3*
G36*
X29542292Y-44020383D02*
X29550010Y-44021528D01*
X29557578Y-44023423D01*
X29564923Y-44026052D01*
X29571976Y-44029387D01*
X29578668Y-44033398D01*
X29584934Y-44038046D01*
X29590715Y-44043285D01*
X29595954Y-44049066D01*
X29600602Y-44055332D01*
X29604613Y-44062024D01*
X29607948Y-44069077D01*
X29610577Y-44076422D01*
X29612472Y-44083990D01*
X29613617Y-44091708D01*
X29614000Y-44099500D01*
X29614000Y-44300500D01*
X29613617Y-44308292D01*
X29612472Y-44316010D01*
X29610577Y-44323578D01*
X29607948Y-44330923D01*
X29604613Y-44337976D01*
X29600602Y-44344668D01*
X29595954Y-44350934D01*
X29590715Y-44356715D01*
X29584934Y-44361954D01*
X29578668Y-44366602D01*
X29571976Y-44370613D01*
X29564923Y-44373948D01*
X29557578Y-44376577D01*
X29550010Y-44378472D01*
X29542292Y-44379617D01*
X29534500Y-44380000D01*
X29375500Y-44380000D01*
X29367708Y-44379617D01*
X29359990Y-44378472D01*
X29352422Y-44376577D01*
X29345077Y-44373948D01*
X29338024Y-44370613D01*
X29331332Y-44366602D01*
X29325066Y-44361954D01*
X29319285Y-44356715D01*
X29314046Y-44350934D01*
X29309398Y-44344668D01*
X29305387Y-44337976D01*
X29302052Y-44330923D01*
X29299423Y-44323578D01*
X29297528Y-44316010D01*
X29296383Y-44308292D01*
X29296000Y-44300500D01*
X29296000Y-44099500D01*
X29296383Y-44091708D01*
X29297528Y-44083990D01*
X29299423Y-44076422D01*
X29302052Y-44069077D01*
X29305387Y-44062024D01*
X29309398Y-44055332D01*
X29314046Y-44049066D01*
X29319285Y-44043285D01*
X29325066Y-44038046D01*
X29331332Y-44033398D01*
X29338024Y-44029387D01*
X29345077Y-44026052D01*
X29352422Y-44023423D01*
X29359990Y-44021528D01*
X29367708Y-44020383D01*
X29375500Y-44020000D01*
X29534500Y-44020000D01*
X29542292Y-44020383D01*
X29542292Y-44020383D01*
G37*
D11*
X29455000Y-44200000D03*
D10*
G36*
X30232292Y-44020383D02*
X30240010Y-44021528D01*
X30247578Y-44023423D01*
X30254923Y-44026052D01*
X30261976Y-44029387D01*
X30268668Y-44033398D01*
X30274934Y-44038046D01*
X30280715Y-44043285D01*
X30285954Y-44049066D01*
X30290602Y-44055332D01*
X30294613Y-44062024D01*
X30297948Y-44069077D01*
X30300577Y-44076422D01*
X30302472Y-44083990D01*
X30303617Y-44091708D01*
X30304000Y-44099500D01*
X30304000Y-44300500D01*
X30303617Y-44308292D01*
X30302472Y-44316010D01*
X30300577Y-44323578D01*
X30297948Y-44330923D01*
X30294613Y-44337976D01*
X30290602Y-44344668D01*
X30285954Y-44350934D01*
X30280715Y-44356715D01*
X30274934Y-44361954D01*
X30268668Y-44366602D01*
X30261976Y-44370613D01*
X30254923Y-44373948D01*
X30247578Y-44376577D01*
X30240010Y-44378472D01*
X30232292Y-44379617D01*
X30224500Y-44380000D01*
X30065500Y-44380000D01*
X30057708Y-44379617D01*
X30049990Y-44378472D01*
X30042422Y-44376577D01*
X30035077Y-44373948D01*
X30028024Y-44370613D01*
X30021332Y-44366602D01*
X30015066Y-44361954D01*
X30009285Y-44356715D01*
X30004046Y-44350934D01*
X29999398Y-44344668D01*
X29995387Y-44337976D01*
X29992052Y-44330923D01*
X29989423Y-44323578D01*
X29987528Y-44316010D01*
X29986383Y-44308292D01*
X29986000Y-44300500D01*
X29986000Y-44099500D01*
X29986383Y-44091708D01*
X29987528Y-44083990D01*
X29989423Y-44076422D01*
X29992052Y-44069077D01*
X29995387Y-44062024D01*
X29999398Y-44055332D01*
X30004046Y-44049066D01*
X30009285Y-44043285D01*
X30015066Y-44038046D01*
X30021332Y-44033398D01*
X30028024Y-44029387D01*
X30035077Y-44026052D01*
X30042422Y-44023423D01*
X30049990Y-44021528D01*
X30057708Y-44020383D01*
X30065500Y-44020000D01*
X30224500Y-44020000D01*
X30232292Y-44020383D01*
X30232292Y-44020383D01*
G37*
D11*
X30145000Y-44200000D03*
G04 #@! TD*
D12*
G04 #@! TO.C,Q12*
X99000000Y-107000000D03*
D13*
X96700000Y-100700000D03*
X101300000Y-100700000D03*
G04 #@! TD*
D12*
G04 #@! TO.C,Q14*
X69000000Y-107000000D03*
D13*
X66700000Y-100700000D03*
X71300000Y-100700000D03*
G04 #@! TD*
D12*
G04 #@! TO.C,Q10*
X84000000Y-91672000D03*
D13*
X81700000Y-85372000D03*
X86300000Y-85372000D03*
G04 #@! TD*
D12*
G04 #@! TO.C,Q4*
X84000000Y-63000000D03*
D13*
X81700000Y-56700000D03*
X86300000Y-56700000D03*
G04 #@! TD*
D12*
G04 #@! TO.C,Q6*
X99000000Y-77000000D03*
D13*
X96700000Y-70700000D03*
X101300000Y-70700000D03*
G04 #@! TD*
G04 #@! TO.C,Q8*
X71300000Y-70700000D03*
X66700000Y-70700000D03*
D12*
X69000000Y-77000000D03*
G04 #@! TD*
G04 #@! TO.C,Q2*
X112000000Y-58000000D03*
D13*
X109700000Y-51700000D03*
X114300000Y-51700000D03*
G04 #@! TD*
G04 #@! TO.C,Q11*
X71300000Y-85700000D03*
X66700000Y-85700000D03*
D12*
X69000000Y-92000000D03*
G04 #@! TD*
D13*
G04 #@! TO.C,Q13*
X86300000Y-100700000D03*
X81700000Y-100700000D03*
D12*
X84000000Y-107000000D03*
G04 #@! TD*
G04 #@! TO.C,Q9*
X99000000Y-92000000D03*
D13*
X96700000Y-85700000D03*
X101300000Y-85700000D03*
G04 #@! TD*
D12*
G04 #@! TO.C,Q3*
X99000000Y-63000000D03*
D13*
X96700000Y-56700000D03*
X101300000Y-56700000D03*
G04 #@! TD*
G04 #@! TO.C,Q5*
X71300000Y-56700000D03*
X66700000Y-56700000D03*
D12*
X69000000Y-63000000D03*
G04 #@! TD*
D13*
G04 #@! TO.C,Q7*
X86300000Y-70700000D03*
X81700000Y-70700000D03*
D12*
X84000000Y-77000000D03*
G04 #@! TD*
D13*
G04 #@! TO.C,Q1*
X114300000Y-37850000D03*
X109700000Y-37850000D03*
D12*
X112000000Y-44150000D03*
G04 #@! TD*
D13*
G04 #@! TO.C,Q15*
X86300000Y-37700000D03*
X81700000Y-37700000D03*
D12*
X84000000Y-44000000D03*
G04 #@! TD*
D10*
G04 #@! TO.C,R26*
G36*
X96665191Y-97526053D02*
X96686426Y-97529203D01*
X96707250Y-97534419D01*
X96727462Y-97541651D01*
X96746868Y-97550830D01*
X96765281Y-97561866D01*
X96782524Y-97574654D01*
X96798430Y-97589070D01*
X96812846Y-97604976D01*
X96825634Y-97622219D01*
X96836670Y-97640632D01*
X96845849Y-97660038D01*
X96853081Y-97680250D01*
X96858297Y-97701074D01*
X96861447Y-97722309D01*
X96862500Y-97743750D01*
X96862500Y-98256250D01*
X96861447Y-98277691D01*
X96858297Y-98298926D01*
X96853081Y-98319750D01*
X96845849Y-98339962D01*
X96836670Y-98359368D01*
X96825634Y-98377781D01*
X96812846Y-98395024D01*
X96798430Y-98410930D01*
X96782524Y-98425346D01*
X96765281Y-98438134D01*
X96746868Y-98449170D01*
X96727462Y-98458349D01*
X96707250Y-98465581D01*
X96686426Y-98470797D01*
X96665191Y-98473947D01*
X96643750Y-98475000D01*
X96206250Y-98475000D01*
X96184809Y-98473947D01*
X96163574Y-98470797D01*
X96142750Y-98465581D01*
X96122538Y-98458349D01*
X96103132Y-98449170D01*
X96084719Y-98438134D01*
X96067476Y-98425346D01*
X96051570Y-98410930D01*
X96037154Y-98395024D01*
X96024366Y-98377781D01*
X96013330Y-98359368D01*
X96004151Y-98339962D01*
X95996919Y-98319750D01*
X95991703Y-98298926D01*
X95988553Y-98277691D01*
X95987500Y-98256250D01*
X95987500Y-97743750D01*
X95988553Y-97722309D01*
X95991703Y-97701074D01*
X95996919Y-97680250D01*
X96004151Y-97660038D01*
X96013330Y-97640632D01*
X96024366Y-97622219D01*
X96037154Y-97604976D01*
X96051570Y-97589070D01*
X96067476Y-97574654D01*
X96084719Y-97561866D01*
X96103132Y-97550830D01*
X96122538Y-97541651D01*
X96142750Y-97534419D01*
X96163574Y-97529203D01*
X96184809Y-97526053D01*
X96206250Y-97525000D01*
X96643750Y-97525000D01*
X96665191Y-97526053D01*
X96665191Y-97526053D01*
G37*
D14*
X96425000Y-98000000D03*
D10*
G36*
X98240191Y-97526053D02*
X98261426Y-97529203D01*
X98282250Y-97534419D01*
X98302462Y-97541651D01*
X98321868Y-97550830D01*
X98340281Y-97561866D01*
X98357524Y-97574654D01*
X98373430Y-97589070D01*
X98387846Y-97604976D01*
X98400634Y-97622219D01*
X98411670Y-97640632D01*
X98420849Y-97660038D01*
X98428081Y-97680250D01*
X98433297Y-97701074D01*
X98436447Y-97722309D01*
X98437500Y-97743750D01*
X98437500Y-98256250D01*
X98436447Y-98277691D01*
X98433297Y-98298926D01*
X98428081Y-98319750D01*
X98420849Y-98339962D01*
X98411670Y-98359368D01*
X98400634Y-98377781D01*
X98387846Y-98395024D01*
X98373430Y-98410930D01*
X98357524Y-98425346D01*
X98340281Y-98438134D01*
X98321868Y-98449170D01*
X98302462Y-98458349D01*
X98282250Y-98465581D01*
X98261426Y-98470797D01*
X98240191Y-98473947D01*
X98218750Y-98475000D01*
X97781250Y-98475000D01*
X97759809Y-98473947D01*
X97738574Y-98470797D01*
X97717750Y-98465581D01*
X97697538Y-98458349D01*
X97678132Y-98449170D01*
X97659719Y-98438134D01*
X97642476Y-98425346D01*
X97626570Y-98410930D01*
X97612154Y-98395024D01*
X97599366Y-98377781D01*
X97588330Y-98359368D01*
X97579151Y-98339962D01*
X97571919Y-98319750D01*
X97566703Y-98298926D01*
X97563553Y-98277691D01*
X97562500Y-98256250D01*
X97562500Y-97743750D01*
X97563553Y-97722309D01*
X97566703Y-97701074D01*
X97571919Y-97680250D01*
X97579151Y-97660038D01*
X97588330Y-97640632D01*
X97599366Y-97622219D01*
X97612154Y-97604976D01*
X97626570Y-97589070D01*
X97642476Y-97574654D01*
X97659719Y-97561866D01*
X97678132Y-97550830D01*
X97697538Y-97541651D01*
X97717750Y-97534419D01*
X97738574Y-97529203D01*
X97759809Y-97526053D01*
X97781250Y-97525000D01*
X98218750Y-97525000D01*
X98240191Y-97526053D01*
X98240191Y-97526053D01*
G37*
D14*
X98000000Y-98000000D03*
G04 #@! TD*
D10*
G04 #@! TO.C,R28*
G36*
X70240191Y-97526053D02*
X70261426Y-97529203D01*
X70282250Y-97534419D01*
X70302462Y-97541651D01*
X70321868Y-97550830D01*
X70340281Y-97561866D01*
X70357524Y-97574654D01*
X70373430Y-97589070D01*
X70387846Y-97604976D01*
X70400634Y-97622219D01*
X70411670Y-97640632D01*
X70420849Y-97660038D01*
X70428081Y-97680250D01*
X70433297Y-97701074D01*
X70436447Y-97722309D01*
X70437500Y-97743750D01*
X70437500Y-98256250D01*
X70436447Y-98277691D01*
X70433297Y-98298926D01*
X70428081Y-98319750D01*
X70420849Y-98339962D01*
X70411670Y-98359368D01*
X70400634Y-98377781D01*
X70387846Y-98395024D01*
X70373430Y-98410930D01*
X70357524Y-98425346D01*
X70340281Y-98438134D01*
X70321868Y-98449170D01*
X70302462Y-98458349D01*
X70282250Y-98465581D01*
X70261426Y-98470797D01*
X70240191Y-98473947D01*
X70218750Y-98475000D01*
X69781250Y-98475000D01*
X69759809Y-98473947D01*
X69738574Y-98470797D01*
X69717750Y-98465581D01*
X69697538Y-98458349D01*
X69678132Y-98449170D01*
X69659719Y-98438134D01*
X69642476Y-98425346D01*
X69626570Y-98410930D01*
X69612154Y-98395024D01*
X69599366Y-98377781D01*
X69588330Y-98359368D01*
X69579151Y-98339962D01*
X69571919Y-98319750D01*
X69566703Y-98298926D01*
X69563553Y-98277691D01*
X69562500Y-98256250D01*
X69562500Y-97743750D01*
X69563553Y-97722309D01*
X69566703Y-97701074D01*
X69571919Y-97680250D01*
X69579151Y-97660038D01*
X69588330Y-97640632D01*
X69599366Y-97622219D01*
X69612154Y-97604976D01*
X69626570Y-97589070D01*
X69642476Y-97574654D01*
X69659719Y-97561866D01*
X69678132Y-97550830D01*
X69697538Y-97541651D01*
X69717750Y-97534419D01*
X69738574Y-97529203D01*
X69759809Y-97526053D01*
X69781250Y-97525000D01*
X70218750Y-97525000D01*
X70240191Y-97526053D01*
X70240191Y-97526053D01*
G37*
D14*
X70000000Y-98000000D03*
D10*
G36*
X68665191Y-97526053D02*
X68686426Y-97529203D01*
X68707250Y-97534419D01*
X68727462Y-97541651D01*
X68746868Y-97550830D01*
X68765281Y-97561866D01*
X68782524Y-97574654D01*
X68798430Y-97589070D01*
X68812846Y-97604976D01*
X68825634Y-97622219D01*
X68836670Y-97640632D01*
X68845849Y-97660038D01*
X68853081Y-97680250D01*
X68858297Y-97701074D01*
X68861447Y-97722309D01*
X68862500Y-97743750D01*
X68862500Y-98256250D01*
X68861447Y-98277691D01*
X68858297Y-98298926D01*
X68853081Y-98319750D01*
X68845849Y-98339962D01*
X68836670Y-98359368D01*
X68825634Y-98377781D01*
X68812846Y-98395024D01*
X68798430Y-98410930D01*
X68782524Y-98425346D01*
X68765281Y-98438134D01*
X68746868Y-98449170D01*
X68727462Y-98458349D01*
X68707250Y-98465581D01*
X68686426Y-98470797D01*
X68665191Y-98473947D01*
X68643750Y-98475000D01*
X68206250Y-98475000D01*
X68184809Y-98473947D01*
X68163574Y-98470797D01*
X68142750Y-98465581D01*
X68122538Y-98458349D01*
X68103132Y-98449170D01*
X68084719Y-98438134D01*
X68067476Y-98425346D01*
X68051570Y-98410930D01*
X68037154Y-98395024D01*
X68024366Y-98377781D01*
X68013330Y-98359368D01*
X68004151Y-98339962D01*
X67996919Y-98319750D01*
X67991703Y-98298926D01*
X67988553Y-98277691D01*
X67987500Y-98256250D01*
X67987500Y-97743750D01*
X67988553Y-97722309D01*
X67991703Y-97701074D01*
X67996919Y-97680250D01*
X68004151Y-97660038D01*
X68013330Y-97640632D01*
X68024366Y-97622219D01*
X68037154Y-97604976D01*
X68051570Y-97589070D01*
X68067476Y-97574654D01*
X68084719Y-97561866D01*
X68103132Y-97550830D01*
X68122538Y-97541651D01*
X68142750Y-97534419D01*
X68163574Y-97529203D01*
X68184809Y-97526053D01*
X68206250Y-97525000D01*
X68643750Y-97525000D01*
X68665191Y-97526053D01*
X68665191Y-97526053D01*
G37*
D14*
X68425000Y-98000000D03*
G04 #@! TD*
D10*
G04 #@! TO.C,R24*
G36*
X83240191Y-82526053D02*
X83261426Y-82529203D01*
X83282250Y-82534419D01*
X83302462Y-82541651D01*
X83321868Y-82550830D01*
X83340281Y-82561866D01*
X83357524Y-82574654D01*
X83373430Y-82589070D01*
X83387846Y-82604976D01*
X83400634Y-82622219D01*
X83411670Y-82640632D01*
X83420849Y-82660038D01*
X83428081Y-82680250D01*
X83433297Y-82701074D01*
X83436447Y-82722309D01*
X83437500Y-82743750D01*
X83437500Y-83256250D01*
X83436447Y-83277691D01*
X83433297Y-83298926D01*
X83428081Y-83319750D01*
X83420849Y-83339962D01*
X83411670Y-83359368D01*
X83400634Y-83377781D01*
X83387846Y-83395024D01*
X83373430Y-83410930D01*
X83357524Y-83425346D01*
X83340281Y-83438134D01*
X83321868Y-83449170D01*
X83302462Y-83458349D01*
X83282250Y-83465581D01*
X83261426Y-83470797D01*
X83240191Y-83473947D01*
X83218750Y-83475000D01*
X82781250Y-83475000D01*
X82759809Y-83473947D01*
X82738574Y-83470797D01*
X82717750Y-83465581D01*
X82697538Y-83458349D01*
X82678132Y-83449170D01*
X82659719Y-83438134D01*
X82642476Y-83425346D01*
X82626570Y-83410930D01*
X82612154Y-83395024D01*
X82599366Y-83377781D01*
X82588330Y-83359368D01*
X82579151Y-83339962D01*
X82571919Y-83319750D01*
X82566703Y-83298926D01*
X82563553Y-83277691D01*
X82562500Y-83256250D01*
X82562500Y-82743750D01*
X82563553Y-82722309D01*
X82566703Y-82701074D01*
X82571919Y-82680250D01*
X82579151Y-82660038D01*
X82588330Y-82640632D01*
X82599366Y-82622219D01*
X82612154Y-82604976D01*
X82626570Y-82589070D01*
X82642476Y-82574654D01*
X82659719Y-82561866D01*
X82678132Y-82550830D01*
X82697538Y-82541651D01*
X82717750Y-82534419D01*
X82738574Y-82529203D01*
X82759809Y-82526053D01*
X82781250Y-82525000D01*
X83218750Y-82525000D01*
X83240191Y-82526053D01*
X83240191Y-82526053D01*
G37*
D14*
X83000000Y-83000000D03*
D10*
G36*
X81665191Y-82526053D02*
X81686426Y-82529203D01*
X81707250Y-82534419D01*
X81727462Y-82541651D01*
X81746868Y-82550830D01*
X81765281Y-82561866D01*
X81782524Y-82574654D01*
X81798430Y-82589070D01*
X81812846Y-82604976D01*
X81825634Y-82622219D01*
X81836670Y-82640632D01*
X81845849Y-82660038D01*
X81853081Y-82680250D01*
X81858297Y-82701074D01*
X81861447Y-82722309D01*
X81862500Y-82743750D01*
X81862500Y-83256250D01*
X81861447Y-83277691D01*
X81858297Y-83298926D01*
X81853081Y-83319750D01*
X81845849Y-83339962D01*
X81836670Y-83359368D01*
X81825634Y-83377781D01*
X81812846Y-83395024D01*
X81798430Y-83410930D01*
X81782524Y-83425346D01*
X81765281Y-83438134D01*
X81746868Y-83449170D01*
X81727462Y-83458349D01*
X81707250Y-83465581D01*
X81686426Y-83470797D01*
X81665191Y-83473947D01*
X81643750Y-83475000D01*
X81206250Y-83475000D01*
X81184809Y-83473947D01*
X81163574Y-83470797D01*
X81142750Y-83465581D01*
X81122538Y-83458349D01*
X81103132Y-83449170D01*
X81084719Y-83438134D01*
X81067476Y-83425346D01*
X81051570Y-83410930D01*
X81037154Y-83395024D01*
X81024366Y-83377781D01*
X81013330Y-83359368D01*
X81004151Y-83339962D01*
X80996919Y-83319750D01*
X80991703Y-83298926D01*
X80988553Y-83277691D01*
X80987500Y-83256250D01*
X80987500Y-82743750D01*
X80988553Y-82722309D01*
X80991703Y-82701074D01*
X80996919Y-82680250D01*
X81004151Y-82660038D01*
X81013330Y-82640632D01*
X81024366Y-82622219D01*
X81037154Y-82604976D01*
X81051570Y-82589070D01*
X81067476Y-82574654D01*
X81084719Y-82561866D01*
X81103132Y-82550830D01*
X81122538Y-82541651D01*
X81142750Y-82534419D01*
X81163574Y-82529203D01*
X81184809Y-82526053D01*
X81206250Y-82525000D01*
X81643750Y-82525000D01*
X81665191Y-82526053D01*
X81665191Y-82526053D01*
G37*
D14*
X81425000Y-83000000D03*
G04 #@! TD*
D10*
G04 #@! TO.C,R18*
G36*
X81665191Y-53526053D02*
X81686426Y-53529203D01*
X81707250Y-53534419D01*
X81727462Y-53541651D01*
X81746868Y-53550830D01*
X81765281Y-53561866D01*
X81782524Y-53574654D01*
X81798430Y-53589070D01*
X81812846Y-53604976D01*
X81825634Y-53622219D01*
X81836670Y-53640632D01*
X81845849Y-53660038D01*
X81853081Y-53680250D01*
X81858297Y-53701074D01*
X81861447Y-53722309D01*
X81862500Y-53743750D01*
X81862500Y-54256250D01*
X81861447Y-54277691D01*
X81858297Y-54298926D01*
X81853081Y-54319750D01*
X81845849Y-54339962D01*
X81836670Y-54359368D01*
X81825634Y-54377781D01*
X81812846Y-54395024D01*
X81798430Y-54410930D01*
X81782524Y-54425346D01*
X81765281Y-54438134D01*
X81746868Y-54449170D01*
X81727462Y-54458349D01*
X81707250Y-54465581D01*
X81686426Y-54470797D01*
X81665191Y-54473947D01*
X81643750Y-54475000D01*
X81206250Y-54475000D01*
X81184809Y-54473947D01*
X81163574Y-54470797D01*
X81142750Y-54465581D01*
X81122538Y-54458349D01*
X81103132Y-54449170D01*
X81084719Y-54438134D01*
X81067476Y-54425346D01*
X81051570Y-54410930D01*
X81037154Y-54395024D01*
X81024366Y-54377781D01*
X81013330Y-54359368D01*
X81004151Y-54339962D01*
X80996919Y-54319750D01*
X80991703Y-54298926D01*
X80988553Y-54277691D01*
X80987500Y-54256250D01*
X80987500Y-53743750D01*
X80988553Y-53722309D01*
X80991703Y-53701074D01*
X80996919Y-53680250D01*
X81004151Y-53660038D01*
X81013330Y-53640632D01*
X81024366Y-53622219D01*
X81037154Y-53604976D01*
X81051570Y-53589070D01*
X81067476Y-53574654D01*
X81084719Y-53561866D01*
X81103132Y-53550830D01*
X81122538Y-53541651D01*
X81142750Y-53534419D01*
X81163574Y-53529203D01*
X81184809Y-53526053D01*
X81206250Y-53525000D01*
X81643750Y-53525000D01*
X81665191Y-53526053D01*
X81665191Y-53526053D01*
G37*
D14*
X81425000Y-54000000D03*
D10*
G36*
X83240191Y-53526053D02*
X83261426Y-53529203D01*
X83282250Y-53534419D01*
X83302462Y-53541651D01*
X83321868Y-53550830D01*
X83340281Y-53561866D01*
X83357524Y-53574654D01*
X83373430Y-53589070D01*
X83387846Y-53604976D01*
X83400634Y-53622219D01*
X83411670Y-53640632D01*
X83420849Y-53660038D01*
X83428081Y-53680250D01*
X83433297Y-53701074D01*
X83436447Y-53722309D01*
X83437500Y-53743750D01*
X83437500Y-54256250D01*
X83436447Y-54277691D01*
X83433297Y-54298926D01*
X83428081Y-54319750D01*
X83420849Y-54339962D01*
X83411670Y-54359368D01*
X83400634Y-54377781D01*
X83387846Y-54395024D01*
X83373430Y-54410930D01*
X83357524Y-54425346D01*
X83340281Y-54438134D01*
X83321868Y-54449170D01*
X83302462Y-54458349D01*
X83282250Y-54465581D01*
X83261426Y-54470797D01*
X83240191Y-54473947D01*
X83218750Y-54475000D01*
X82781250Y-54475000D01*
X82759809Y-54473947D01*
X82738574Y-54470797D01*
X82717750Y-54465581D01*
X82697538Y-54458349D01*
X82678132Y-54449170D01*
X82659719Y-54438134D01*
X82642476Y-54425346D01*
X82626570Y-54410930D01*
X82612154Y-54395024D01*
X82599366Y-54377781D01*
X82588330Y-54359368D01*
X82579151Y-54339962D01*
X82571919Y-54319750D01*
X82566703Y-54298926D01*
X82563553Y-54277691D01*
X82562500Y-54256250D01*
X82562500Y-53743750D01*
X82563553Y-53722309D01*
X82566703Y-53701074D01*
X82571919Y-53680250D01*
X82579151Y-53660038D01*
X82588330Y-53640632D01*
X82599366Y-53622219D01*
X82612154Y-53604976D01*
X82626570Y-53589070D01*
X82642476Y-53574654D01*
X82659719Y-53561866D01*
X82678132Y-53550830D01*
X82697538Y-53541651D01*
X82717750Y-53534419D01*
X82738574Y-53529203D01*
X82759809Y-53526053D01*
X82781250Y-53525000D01*
X83218750Y-53525000D01*
X83240191Y-53526053D01*
X83240191Y-53526053D01*
G37*
D14*
X83000000Y-54000000D03*
G04 #@! TD*
D10*
G04 #@! TO.C,R20*
G36*
X98240191Y-67526053D02*
X98261426Y-67529203D01*
X98282250Y-67534419D01*
X98302462Y-67541651D01*
X98321868Y-67550830D01*
X98340281Y-67561866D01*
X98357524Y-67574654D01*
X98373430Y-67589070D01*
X98387846Y-67604976D01*
X98400634Y-67622219D01*
X98411670Y-67640632D01*
X98420849Y-67660038D01*
X98428081Y-67680250D01*
X98433297Y-67701074D01*
X98436447Y-67722309D01*
X98437500Y-67743750D01*
X98437500Y-68256250D01*
X98436447Y-68277691D01*
X98433297Y-68298926D01*
X98428081Y-68319750D01*
X98420849Y-68339962D01*
X98411670Y-68359368D01*
X98400634Y-68377781D01*
X98387846Y-68395024D01*
X98373430Y-68410930D01*
X98357524Y-68425346D01*
X98340281Y-68438134D01*
X98321868Y-68449170D01*
X98302462Y-68458349D01*
X98282250Y-68465581D01*
X98261426Y-68470797D01*
X98240191Y-68473947D01*
X98218750Y-68475000D01*
X97781250Y-68475000D01*
X97759809Y-68473947D01*
X97738574Y-68470797D01*
X97717750Y-68465581D01*
X97697538Y-68458349D01*
X97678132Y-68449170D01*
X97659719Y-68438134D01*
X97642476Y-68425346D01*
X97626570Y-68410930D01*
X97612154Y-68395024D01*
X97599366Y-68377781D01*
X97588330Y-68359368D01*
X97579151Y-68339962D01*
X97571919Y-68319750D01*
X97566703Y-68298926D01*
X97563553Y-68277691D01*
X97562500Y-68256250D01*
X97562500Y-67743750D01*
X97563553Y-67722309D01*
X97566703Y-67701074D01*
X97571919Y-67680250D01*
X97579151Y-67660038D01*
X97588330Y-67640632D01*
X97599366Y-67622219D01*
X97612154Y-67604976D01*
X97626570Y-67589070D01*
X97642476Y-67574654D01*
X97659719Y-67561866D01*
X97678132Y-67550830D01*
X97697538Y-67541651D01*
X97717750Y-67534419D01*
X97738574Y-67529203D01*
X97759809Y-67526053D01*
X97781250Y-67525000D01*
X98218750Y-67525000D01*
X98240191Y-67526053D01*
X98240191Y-67526053D01*
G37*
D14*
X98000000Y-68000000D03*
D10*
G36*
X96665191Y-67526053D02*
X96686426Y-67529203D01*
X96707250Y-67534419D01*
X96727462Y-67541651D01*
X96746868Y-67550830D01*
X96765281Y-67561866D01*
X96782524Y-67574654D01*
X96798430Y-67589070D01*
X96812846Y-67604976D01*
X96825634Y-67622219D01*
X96836670Y-67640632D01*
X96845849Y-67660038D01*
X96853081Y-67680250D01*
X96858297Y-67701074D01*
X96861447Y-67722309D01*
X96862500Y-67743750D01*
X96862500Y-68256250D01*
X96861447Y-68277691D01*
X96858297Y-68298926D01*
X96853081Y-68319750D01*
X96845849Y-68339962D01*
X96836670Y-68359368D01*
X96825634Y-68377781D01*
X96812846Y-68395024D01*
X96798430Y-68410930D01*
X96782524Y-68425346D01*
X96765281Y-68438134D01*
X96746868Y-68449170D01*
X96727462Y-68458349D01*
X96707250Y-68465581D01*
X96686426Y-68470797D01*
X96665191Y-68473947D01*
X96643750Y-68475000D01*
X96206250Y-68475000D01*
X96184809Y-68473947D01*
X96163574Y-68470797D01*
X96142750Y-68465581D01*
X96122538Y-68458349D01*
X96103132Y-68449170D01*
X96084719Y-68438134D01*
X96067476Y-68425346D01*
X96051570Y-68410930D01*
X96037154Y-68395024D01*
X96024366Y-68377781D01*
X96013330Y-68359368D01*
X96004151Y-68339962D01*
X95996919Y-68319750D01*
X95991703Y-68298926D01*
X95988553Y-68277691D01*
X95987500Y-68256250D01*
X95987500Y-67743750D01*
X95988553Y-67722309D01*
X95991703Y-67701074D01*
X95996919Y-67680250D01*
X96004151Y-67660038D01*
X96013330Y-67640632D01*
X96024366Y-67622219D01*
X96037154Y-67604976D01*
X96051570Y-67589070D01*
X96067476Y-67574654D01*
X96084719Y-67561866D01*
X96103132Y-67550830D01*
X96122538Y-67541651D01*
X96142750Y-67534419D01*
X96163574Y-67529203D01*
X96184809Y-67526053D01*
X96206250Y-67525000D01*
X96643750Y-67525000D01*
X96665191Y-67526053D01*
X96665191Y-67526053D01*
G37*
D14*
X96425000Y-68000000D03*
G04 #@! TD*
D10*
G04 #@! TO.C,R22*
G36*
X68240191Y-67526053D02*
X68261426Y-67529203D01*
X68282250Y-67534419D01*
X68302462Y-67541651D01*
X68321868Y-67550830D01*
X68340281Y-67561866D01*
X68357524Y-67574654D01*
X68373430Y-67589070D01*
X68387846Y-67604976D01*
X68400634Y-67622219D01*
X68411670Y-67640632D01*
X68420849Y-67660038D01*
X68428081Y-67680250D01*
X68433297Y-67701074D01*
X68436447Y-67722309D01*
X68437500Y-67743750D01*
X68437500Y-68256250D01*
X68436447Y-68277691D01*
X68433297Y-68298926D01*
X68428081Y-68319750D01*
X68420849Y-68339962D01*
X68411670Y-68359368D01*
X68400634Y-68377781D01*
X68387846Y-68395024D01*
X68373430Y-68410930D01*
X68357524Y-68425346D01*
X68340281Y-68438134D01*
X68321868Y-68449170D01*
X68302462Y-68458349D01*
X68282250Y-68465581D01*
X68261426Y-68470797D01*
X68240191Y-68473947D01*
X68218750Y-68475000D01*
X67781250Y-68475000D01*
X67759809Y-68473947D01*
X67738574Y-68470797D01*
X67717750Y-68465581D01*
X67697538Y-68458349D01*
X67678132Y-68449170D01*
X67659719Y-68438134D01*
X67642476Y-68425346D01*
X67626570Y-68410930D01*
X67612154Y-68395024D01*
X67599366Y-68377781D01*
X67588330Y-68359368D01*
X67579151Y-68339962D01*
X67571919Y-68319750D01*
X67566703Y-68298926D01*
X67563553Y-68277691D01*
X67562500Y-68256250D01*
X67562500Y-67743750D01*
X67563553Y-67722309D01*
X67566703Y-67701074D01*
X67571919Y-67680250D01*
X67579151Y-67660038D01*
X67588330Y-67640632D01*
X67599366Y-67622219D01*
X67612154Y-67604976D01*
X67626570Y-67589070D01*
X67642476Y-67574654D01*
X67659719Y-67561866D01*
X67678132Y-67550830D01*
X67697538Y-67541651D01*
X67717750Y-67534419D01*
X67738574Y-67529203D01*
X67759809Y-67526053D01*
X67781250Y-67525000D01*
X68218750Y-67525000D01*
X68240191Y-67526053D01*
X68240191Y-67526053D01*
G37*
D14*
X68000000Y-68000000D03*
D10*
G36*
X66665191Y-67526053D02*
X66686426Y-67529203D01*
X66707250Y-67534419D01*
X66727462Y-67541651D01*
X66746868Y-67550830D01*
X66765281Y-67561866D01*
X66782524Y-67574654D01*
X66798430Y-67589070D01*
X66812846Y-67604976D01*
X66825634Y-67622219D01*
X66836670Y-67640632D01*
X66845849Y-67660038D01*
X66853081Y-67680250D01*
X66858297Y-67701074D01*
X66861447Y-67722309D01*
X66862500Y-67743750D01*
X66862500Y-68256250D01*
X66861447Y-68277691D01*
X66858297Y-68298926D01*
X66853081Y-68319750D01*
X66845849Y-68339962D01*
X66836670Y-68359368D01*
X66825634Y-68377781D01*
X66812846Y-68395024D01*
X66798430Y-68410930D01*
X66782524Y-68425346D01*
X66765281Y-68438134D01*
X66746868Y-68449170D01*
X66727462Y-68458349D01*
X66707250Y-68465581D01*
X66686426Y-68470797D01*
X66665191Y-68473947D01*
X66643750Y-68475000D01*
X66206250Y-68475000D01*
X66184809Y-68473947D01*
X66163574Y-68470797D01*
X66142750Y-68465581D01*
X66122538Y-68458349D01*
X66103132Y-68449170D01*
X66084719Y-68438134D01*
X66067476Y-68425346D01*
X66051570Y-68410930D01*
X66037154Y-68395024D01*
X66024366Y-68377781D01*
X66013330Y-68359368D01*
X66004151Y-68339962D01*
X65996919Y-68319750D01*
X65991703Y-68298926D01*
X65988553Y-68277691D01*
X65987500Y-68256250D01*
X65987500Y-67743750D01*
X65988553Y-67722309D01*
X65991703Y-67701074D01*
X65996919Y-67680250D01*
X66004151Y-67660038D01*
X66013330Y-67640632D01*
X66024366Y-67622219D01*
X66037154Y-67604976D01*
X66051570Y-67589070D01*
X66067476Y-67574654D01*
X66084719Y-67561866D01*
X66103132Y-67550830D01*
X66122538Y-67541651D01*
X66142750Y-67534419D01*
X66163574Y-67529203D01*
X66184809Y-67526053D01*
X66206250Y-67525000D01*
X66643750Y-67525000D01*
X66665191Y-67526053D01*
X66665191Y-67526053D01*
G37*
D14*
X66425000Y-68000000D03*
G04 #@! TD*
D10*
G04 #@! TO.C,R16*
G36*
X109665191Y-48526053D02*
X109686426Y-48529203D01*
X109707250Y-48534419D01*
X109727462Y-48541651D01*
X109746868Y-48550830D01*
X109765281Y-48561866D01*
X109782524Y-48574654D01*
X109798430Y-48589070D01*
X109812846Y-48604976D01*
X109825634Y-48622219D01*
X109836670Y-48640632D01*
X109845849Y-48660038D01*
X109853081Y-48680250D01*
X109858297Y-48701074D01*
X109861447Y-48722309D01*
X109862500Y-48743750D01*
X109862500Y-49256250D01*
X109861447Y-49277691D01*
X109858297Y-49298926D01*
X109853081Y-49319750D01*
X109845849Y-49339962D01*
X109836670Y-49359368D01*
X109825634Y-49377781D01*
X109812846Y-49395024D01*
X109798430Y-49410930D01*
X109782524Y-49425346D01*
X109765281Y-49438134D01*
X109746868Y-49449170D01*
X109727462Y-49458349D01*
X109707250Y-49465581D01*
X109686426Y-49470797D01*
X109665191Y-49473947D01*
X109643750Y-49475000D01*
X109206250Y-49475000D01*
X109184809Y-49473947D01*
X109163574Y-49470797D01*
X109142750Y-49465581D01*
X109122538Y-49458349D01*
X109103132Y-49449170D01*
X109084719Y-49438134D01*
X109067476Y-49425346D01*
X109051570Y-49410930D01*
X109037154Y-49395024D01*
X109024366Y-49377781D01*
X109013330Y-49359368D01*
X109004151Y-49339962D01*
X108996919Y-49319750D01*
X108991703Y-49298926D01*
X108988553Y-49277691D01*
X108987500Y-49256250D01*
X108987500Y-48743750D01*
X108988553Y-48722309D01*
X108991703Y-48701074D01*
X108996919Y-48680250D01*
X109004151Y-48660038D01*
X109013330Y-48640632D01*
X109024366Y-48622219D01*
X109037154Y-48604976D01*
X109051570Y-48589070D01*
X109067476Y-48574654D01*
X109084719Y-48561866D01*
X109103132Y-48550830D01*
X109122538Y-48541651D01*
X109142750Y-48534419D01*
X109163574Y-48529203D01*
X109184809Y-48526053D01*
X109206250Y-48525000D01*
X109643750Y-48525000D01*
X109665191Y-48526053D01*
X109665191Y-48526053D01*
G37*
D14*
X109425000Y-49000000D03*
D10*
G36*
X111240191Y-48526053D02*
X111261426Y-48529203D01*
X111282250Y-48534419D01*
X111302462Y-48541651D01*
X111321868Y-48550830D01*
X111340281Y-48561866D01*
X111357524Y-48574654D01*
X111373430Y-48589070D01*
X111387846Y-48604976D01*
X111400634Y-48622219D01*
X111411670Y-48640632D01*
X111420849Y-48660038D01*
X111428081Y-48680250D01*
X111433297Y-48701074D01*
X111436447Y-48722309D01*
X111437500Y-48743750D01*
X111437500Y-49256250D01*
X111436447Y-49277691D01*
X111433297Y-49298926D01*
X111428081Y-49319750D01*
X111420849Y-49339962D01*
X111411670Y-49359368D01*
X111400634Y-49377781D01*
X111387846Y-49395024D01*
X111373430Y-49410930D01*
X111357524Y-49425346D01*
X111340281Y-49438134D01*
X111321868Y-49449170D01*
X111302462Y-49458349D01*
X111282250Y-49465581D01*
X111261426Y-49470797D01*
X111240191Y-49473947D01*
X111218750Y-49475000D01*
X110781250Y-49475000D01*
X110759809Y-49473947D01*
X110738574Y-49470797D01*
X110717750Y-49465581D01*
X110697538Y-49458349D01*
X110678132Y-49449170D01*
X110659719Y-49438134D01*
X110642476Y-49425346D01*
X110626570Y-49410930D01*
X110612154Y-49395024D01*
X110599366Y-49377781D01*
X110588330Y-49359368D01*
X110579151Y-49339962D01*
X110571919Y-49319750D01*
X110566703Y-49298926D01*
X110563553Y-49277691D01*
X110562500Y-49256250D01*
X110562500Y-48743750D01*
X110563553Y-48722309D01*
X110566703Y-48701074D01*
X110571919Y-48680250D01*
X110579151Y-48660038D01*
X110588330Y-48640632D01*
X110599366Y-48622219D01*
X110612154Y-48604976D01*
X110626570Y-48589070D01*
X110642476Y-48574654D01*
X110659719Y-48561866D01*
X110678132Y-48550830D01*
X110697538Y-48541651D01*
X110717750Y-48534419D01*
X110738574Y-48529203D01*
X110759809Y-48526053D01*
X110781250Y-48525000D01*
X111218750Y-48525000D01*
X111240191Y-48526053D01*
X111240191Y-48526053D01*
G37*
D14*
X111000000Y-49000000D03*
G04 #@! TD*
D10*
G04 #@! TO.C,R25*
G36*
X68240191Y-82526053D02*
X68261426Y-82529203D01*
X68282250Y-82534419D01*
X68302462Y-82541651D01*
X68321868Y-82550830D01*
X68340281Y-82561866D01*
X68357524Y-82574654D01*
X68373430Y-82589070D01*
X68387846Y-82604976D01*
X68400634Y-82622219D01*
X68411670Y-82640632D01*
X68420849Y-82660038D01*
X68428081Y-82680250D01*
X68433297Y-82701074D01*
X68436447Y-82722309D01*
X68437500Y-82743750D01*
X68437500Y-83256250D01*
X68436447Y-83277691D01*
X68433297Y-83298926D01*
X68428081Y-83319750D01*
X68420849Y-83339962D01*
X68411670Y-83359368D01*
X68400634Y-83377781D01*
X68387846Y-83395024D01*
X68373430Y-83410930D01*
X68357524Y-83425346D01*
X68340281Y-83438134D01*
X68321868Y-83449170D01*
X68302462Y-83458349D01*
X68282250Y-83465581D01*
X68261426Y-83470797D01*
X68240191Y-83473947D01*
X68218750Y-83475000D01*
X67781250Y-83475000D01*
X67759809Y-83473947D01*
X67738574Y-83470797D01*
X67717750Y-83465581D01*
X67697538Y-83458349D01*
X67678132Y-83449170D01*
X67659719Y-83438134D01*
X67642476Y-83425346D01*
X67626570Y-83410930D01*
X67612154Y-83395024D01*
X67599366Y-83377781D01*
X67588330Y-83359368D01*
X67579151Y-83339962D01*
X67571919Y-83319750D01*
X67566703Y-83298926D01*
X67563553Y-83277691D01*
X67562500Y-83256250D01*
X67562500Y-82743750D01*
X67563553Y-82722309D01*
X67566703Y-82701074D01*
X67571919Y-82680250D01*
X67579151Y-82660038D01*
X67588330Y-82640632D01*
X67599366Y-82622219D01*
X67612154Y-82604976D01*
X67626570Y-82589070D01*
X67642476Y-82574654D01*
X67659719Y-82561866D01*
X67678132Y-82550830D01*
X67697538Y-82541651D01*
X67717750Y-82534419D01*
X67738574Y-82529203D01*
X67759809Y-82526053D01*
X67781250Y-82525000D01*
X68218750Y-82525000D01*
X68240191Y-82526053D01*
X68240191Y-82526053D01*
G37*
D14*
X68000000Y-83000000D03*
D10*
G36*
X66665191Y-82526053D02*
X66686426Y-82529203D01*
X66707250Y-82534419D01*
X66727462Y-82541651D01*
X66746868Y-82550830D01*
X66765281Y-82561866D01*
X66782524Y-82574654D01*
X66798430Y-82589070D01*
X66812846Y-82604976D01*
X66825634Y-82622219D01*
X66836670Y-82640632D01*
X66845849Y-82660038D01*
X66853081Y-82680250D01*
X66858297Y-82701074D01*
X66861447Y-82722309D01*
X66862500Y-82743750D01*
X66862500Y-83256250D01*
X66861447Y-83277691D01*
X66858297Y-83298926D01*
X66853081Y-83319750D01*
X66845849Y-83339962D01*
X66836670Y-83359368D01*
X66825634Y-83377781D01*
X66812846Y-83395024D01*
X66798430Y-83410930D01*
X66782524Y-83425346D01*
X66765281Y-83438134D01*
X66746868Y-83449170D01*
X66727462Y-83458349D01*
X66707250Y-83465581D01*
X66686426Y-83470797D01*
X66665191Y-83473947D01*
X66643750Y-83475000D01*
X66206250Y-83475000D01*
X66184809Y-83473947D01*
X66163574Y-83470797D01*
X66142750Y-83465581D01*
X66122538Y-83458349D01*
X66103132Y-83449170D01*
X66084719Y-83438134D01*
X66067476Y-83425346D01*
X66051570Y-83410930D01*
X66037154Y-83395024D01*
X66024366Y-83377781D01*
X66013330Y-83359368D01*
X66004151Y-83339962D01*
X65996919Y-83319750D01*
X65991703Y-83298926D01*
X65988553Y-83277691D01*
X65987500Y-83256250D01*
X65987500Y-82743750D01*
X65988553Y-82722309D01*
X65991703Y-82701074D01*
X65996919Y-82680250D01*
X66004151Y-82660038D01*
X66013330Y-82640632D01*
X66024366Y-82622219D01*
X66037154Y-82604976D01*
X66051570Y-82589070D01*
X66067476Y-82574654D01*
X66084719Y-82561866D01*
X66103132Y-82550830D01*
X66122538Y-82541651D01*
X66142750Y-82534419D01*
X66163574Y-82529203D01*
X66184809Y-82526053D01*
X66206250Y-82525000D01*
X66643750Y-82525000D01*
X66665191Y-82526053D01*
X66665191Y-82526053D01*
G37*
D14*
X66425000Y-83000000D03*
G04 #@! TD*
D10*
G04 #@! TO.C,R27*
G36*
X83240191Y-97526053D02*
X83261426Y-97529203D01*
X83282250Y-97534419D01*
X83302462Y-97541651D01*
X83321868Y-97550830D01*
X83340281Y-97561866D01*
X83357524Y-97574654D01*
X83373430Y-97589070D01*
X83387846Y-97604976D01*
X83400634Y-97622219D01*
X83411670Y-97640632D01*
X83420849Y-97660038D01*
X83428081Y-97680250D01*
X83433297Y-97701074D01*
X83436447Y-97722309D01*
X83437500Y-97743750D01*
X83437500Y-98256250D01*
X83436447Y-98277691D01*
X83433297Y-98298926D01*
X83428081Y-98319750D01*
X83420849Y-98339962D01*
X83411670Y-98359368D01*
X83400634Y-98377781D01*
X83387846Y-98395024D01*
X83373430Y-98410930D01*
X83357524Y-98425346D01*
X83340281Y-98438134D01*
X83321868Y-98449170D01*
X83302462Y-98458349D01*
X83282250Y-98465581D01*
X83261426Y-98470797D01*
X83240191Y-98473947D01*
X83218750Y-98475000D01*
X82781250Y-98475000D01*
X82759809Y-98473947D01*
X82738574Y-98470797D01*
X82717750Y-98465581D01*
X82697538Y-98458349D01*
X82678132Y-98449170D01*
X82659719Y-98438134D01*
X82642476Y-98425346D01*
X82626570Y-98410930D01*
X82612154Y-98395024D01*
X82599366Y-98377781D01*
X82588330Y-98359368D01*
X82579151Y-98339962D01*
X82571919Y-98319750D01*
X82566703Y-98298926D01*
X82563553Y-98277691D01*
X82562500Y-98256250D01*
X82562500Y-97743750D01*
X82563553Y-97722309D01*
X82566703Y-97701074D01*
X82571919Y-97680250D01*
X82579151Y-97660038D01*
X82588330Y-97640632D01*
X82599366Y-97622219D01*
X82612154Y-97604976D01*
X82626570Y-97589070D01*
X82642476Y-97574654D01*
X82659719Y-97561866D01*
X82678132Y-97550830D01*
X82697538Y-97541651D01*
X82717750Y-97534419D01*
X82738574Y-97529203D01*
X82759809Y-97526053D01*
X82781250Y-97525000D01*
X83218750Y-97525000D01*
X83240191Y-97526053D01*
X83240191Y-97526053D01*
G37*
D14*
X83000000Y-98000000D03*
D10*
G36*
X81665191Y-97526053D02*
X81686426Y-97529203D01*
X81707250Y-97534419D01*
X81727462Y-97541651D01*
X81746868Y-97550830D01*
X81765281Y-97561866D01*
X81782524Y-97574654D01*
X81798430Y-97589070D01*
X81812846Y-97604976D01*
X81825634Y-97622219D01*
X81836670Y-97640632D01*
X81845849Y-97660038D01*
X81853081Y-97680250D01*
X81858297Y-97701074D01*
X81861447Y-97722309D01*
X81862500Y-97743750D01*
X81862500Y-98256250D01*
X81861447Y-98277691D01*
X81858297Y-98298926D01*
X81853081Y-98319750D01*
X81845849Y-98339962D01*
X81836670Y-98359368D01*
X81825634Y-98377781D01*
X81812846Y-98395024D01*
X81798430Y-98410930D01*
X81782524Y-98425346D01*
X81765281Y-98438134D01*
X81746868Y-98449170D01*
X81727462Y-98458349D01*
X81707250Y-98465581D01*
X81686426Y-98470797D01*
X81665191Y-98473947D01*
X81643750Y-98475000D01*
X81206250Y-98475000D01*
X81184809Y-98473947D01*
X81163574Y-98470797D01*
X81142750Y-98465581D01*
X81122538Y-98458349D01*
X81103132Y-98449170D01*
X81084719Y-98438134D01*
X81067476Y-98425346D01*
X81051570Y-98410930D01*
X81037154Y-98395024D01*
X81024366Y-98377781D01*
X81013330Y-98359368D01*
X81004151Y-98339962D01*
X80996919Y-98319750D01*
X80991703Y-98298926D01*
X80988553Y-98277691D01*
X80987500Y-98256250D01*
X80987500Y-97743750D01*
X80988553Y-97722309D01*
X80991703Y-97701074D01*
X80996919Y-97680250D01*
X81004151Y-97660038D01*
X81013330Y-97640632D01*
X81024366Y-97622219D01*
X81037154Y-97604976D01*
X81051570Y-97589070D01*
X81067476Y-97574654D01*
X81084719Y-97561866D01*
X81103132Y-97550830D01*
X81122538Y-97541651D01*
X81142750Y-97534419D01*
X81163574Y-97529203D01*
X81184809Y-97526053D01*
X81206250Y-97525000D01*
X81643750Y-97525000D01*
X81665191Y-97526053D01*
X81665191Y-97526053D01*
G37*
D14*
X81425000Y-98000000D03*
G04 #@! TD*
D10*
G04 #@! TO.C,R23*
G36*
X96665191Y-82526053D02*
X96686426Y-82529203D01*
X96707250Y-82534419D01*
X96727462Y-82541651D01*
X96746868Y-82550830D01*
X96765281Y-82561866D01*
X96782524Y-82574654D01*
X96798430Y-82589070D01*
X96812846Y-82604976D01*
X96825634Y-82622219D01*
X96836670Y-82640632D01*
X96845849Y-82660038D01*
X96853081Y-82680250D01*
X96858297Y-82701074D01*
X96861447Y-82722309D01*
X96862500Y-82743750D01*
X96862500Y-83256250D01*
X96861447Y-83277691D01*
X96858297Y-83298926D01*
X96853081Y-83319750D01*
X96845849Y-83339962D01*
X96836670Y-83359368D01*
X96825634Y-83377781D01*
X96812846Y-83395024D01*
X96798430Y-83410930D01*
X96782524Y-83425346D01*
X96765281Y-83438134D01*
X96746868Y-83449170D01*
X96727462Y-83458349D01*
X96707250Y-83465581D01*
X96686426Y-83470797D01*
X96665191Y-83473947D01*
X96643750Y-83475000D01*
X96206250Y-83475000D01*
X96184809Y-83473947D01*
X96163574Y-83470797D01*
X96142750Y-83465581D01*
X96122538Y-83458349D01*
X96103132Y-83449170D01*
X96084719Y-83438134D01*
X96067476Y-83425346D01*
X96051570Y-83410930D01*
X96037154Y-83395024D01*
X96024366Y-83377781D01*
X96013330Y-83359368D01*
X96004151Y-83339962D01*
X95996919Y-83319750D01*
X95991703Y-83298926D01*
X95988553Y-83277691D01*
X95987500Y-83256250D01*
X95987500Y-82743750D01*
X95988553Y-82722309D01*
X95991703Y-82701074D01*
X95996919Y-82680250D01*
X96004151Y-82660038D01*
X96013330Y-82640632D01*
X96024366Y-82622219D01*
X96037154Y-82604976D01*
X96051570Y-82589070D01*
X96067476Y-82574654D01*
X96084719Y-82561866D01*
X96103132Y-82550830D01*
X96122538Y-82541651D01*
X96142750Y-82534419D01*
X96163574Y-82529203D01*
X96184809Y-82526053D01*
X96206250Y-82525000D01*
X96643750Y-82525000D01*
X96665191Y-82526053D01*
X96665191Y-82526053D01*
G37*
D14*
X96425000Y-83000000D03*
D10*
G36*
X98240191Y-82526053D02*
X98261426Y-82529203D01*
X98282250Y-82534419D01*
X98302462Y-82541651D01*
X98321868Y-82550830D01*
X98340281Y-82561866D01*
X98357524Y-82574654D01*
X98373430Y-82589070D01*
X98387846Y-82604976D01*
X98400634Y-82622219D01*
X98411670Y-82640632D01*
X98420849Y-82660038D01*
X98428081Y-82680250D01*
X98433297Y-82701074D01*
X98436447Y-82722309D01*
X98437500Y-82743750D01*
X98437500Y-83256250D01*
X98436447Y-83277691D01*
X98433297Y-83298926D01*
X98428081Y-83319750D01*
X98420849Y-83339962D01*
X98411670Y-83359368D01*
X98400634Y-83377781D01*
X98387846Y-83395024D01*
X98373430Y-83410930D01*
X98357524Y-83425346D01*
X98340281Y-83438134D01*
X98321868Y-83449170D01*
X98302462Y-83458349D01*
X98282250Y-83465581D01*
X98261426Y-83470797D01*
X98240191Y-83473947D01*
X98218750Y-83475000D01*
X97781250Y-83475000D01*
X97759809Y-83473947D01*
X97738574Y-83470797D01*
X97717750Y-83465581D01*
X97697538Y-83458349D01*
X97678132Y-83449170D01*
X97659719Y-83438134D01*
X97642476Y-83425346D01*
X97626570Y-83410930D01*
X97612154Y-83395024D01*
X97599366Y-83377781D01*
X97588330Y-83359368D01*
X97579151Y-83339962D01*
X97571919Y-83319750D01*
X97566703Y-83298926D01*
X97563553Y-83277691D01*
X97562500Y-83256250D01*
X97562500Y-82743750D01*
X97563553Y-82722309D01*
X97566703Y-82701074D01*
X97571919Y-82680250D01*
X97579151Y-82660038D01*
X97588330Y-82640632D01*
X97599366Y-82622219D01*
X97612154Y-82604976D01*
X97626570Y-82589070D01*
X97642476Y-82574654D01*
X97659719Y-82561866D01*
X97678132Y-82550830D01*
X97697538Y-82541651D01*
X97717750Y-82534419D01*
X97738574Y-82529203D01*
X97759809Y-82526053D01*
X97781250Y-82525000D01*
X98218750Y-82525000D01*
X98240191Y-82526053D01*
X98240191Y-82526053D01*
G37*
D14*
X98000000Y-83000000D03*
G04 #@! TD*
D10*
G04 #@! TO.C,R17*
G36*
X96665191Y-53526053D02*
X96686426Y-53529203D01*
X96707250Y-53534419D01*
X96727462Y-53541651D01*
X96746868Y-53550830D01*
X96765281Y-53561866D01*
X96782524Y-53574654D01*
X96798430Y-53589070D01*
X96812846Y-53604976D01*
X96825634Y-53622219D01*
X96836670Y-53640632D01*
X96845849Y-53660038D01*
X96853081Y-53680250D01*
X96858297Y-53701074D01*
X96861447Y-53722309D01*
X96862500Y-53743750D01*
X96862500Y-54256250D01*
X96861447Y-54277691D01*
X96858297Y-54298926D01*
X96853081Y-54319750D01*
X96845849Y-54339962D01*
X96836670Y-54359368D01*
X96825634Y-54377781D01*
X96812846Y-54395024D01*
X96798430Y-54410930D01*
X96782524Y-54425346D01*
X96765281Y-54438134D01*
X96746868Y-54449170D01*
X96727462Y-54458349D01*
X96707250Y-54465581D01*
X96686426Y-54470797D01*
X96665191Y-54473947D01*
X96643750Y-54475000D01*
X96206250Y-54475000D01*
X96184809Y-54473947D01*
X96163574Y-54470797D01*
X96142750Y-54465581D01*
X96122538Y-54458349D01*
X96103132Y-54449170D01*
X96084719Y-54438134D01*
X96067476Y-54425346D01*
X96051570Y-54410930D01*
X96037154Y-54395024D01*
X96024366Y-54377781D01*
X96013330Y-54359368D01*
X96004151Y-54339962D01*
X95996919Y-54319750D01*
X95991703Y-54298926D01*
X95988553Y-54277691D01*
X95987500Y-54256250D01*
X95987500Y-53743750D01*
X95988553Y-53722309D01*
X95991703Y-53701074D01*
X95996919Y-53680250D01*
X96004151Y-53660038D01*
X96013330Y-53640632D01*
X96024366Y-53622219D01*
X96037154Y-53604976D01*
X96051570Y-53589070D01*
X96067476Y-53574654D01*
X96084719Y-53561866D01*
X96103132Y-53550830D01*
X96122538Y-53541651D01*
X96142750Y-53534419D01*
X96163574Y-53529203D01*
X96184809Y-53526053D01*
X96206250Y-53525000D01*
X96643750Y-53525000D01*
X96665191Y-53526053D01*
X96665191Y-53526053D01*
G37*
D14*
X96425000Y-54000000D03*
D10*
G36*
X98240191Y-53526053D02*
X98261426Y-53529203D01*
X98282250Y-53534419D01*
X98302462Y-53541651D01*
X98321868Y-53550830D01*
X98340281Y-53561866D01*
X98357524Y-53574654D01*
X98373430Y-53589070D01*
X98387846Y-53604976D01*
X98400634Y-53622219D01*
X98411670Y-53640632D01*
X98420849Y-53660038D01*
X98428081Y-53680250D01*
X98433297Y-53701074D01*
X98436447Y-53722309D01*
X98437500Y-53743750D01*
X98437500Y-54256250D01*
X98436447Y-54277691D01*
X98433297Y-54298926D01*
X98428081Y-54319750D01*
X98420849Y-54339962D01*
X98411670Y-54359368D01*
X98400634Y-54377781D01*
X98387846Y-54395024D01*
X98373430Y-54410930D01*
X98357524Y-54425346D01*
X98340281Y-54438134D01*
X98321868Y-54449170D01*
X98302462Y-54458349D01*
X98282250Y-54465581D01*
X98261426Y-54470797D01*
X98240191Y-54473947D01*
X98218750Y-54475000D01*
X97781250Y-54475000D01*
X97759809Y-54473947D01*
X97738574Y-54470797D01*
X97717750Y-54465581D01*
X97697538Y-54458349D01*
X97678132Y-54449170D01*
X97659719Y-54438134D01*
X97642476Y-54425346D01*
X97626570Y-54410930D01*
X97612154Y-54395024D01*
X97599366Y-54377781D01*
X97588330Y-54359368D01*
X97579151Y-54339962D01*
X97571919Y-54319750D01*
X97566703Y-54298926D01*
X97563553Y-54277691D01*
X97562500Y-54256250D01*
X97562500Y-53743750D01*
X97563553Y-53722309D01*
X97566703Y-53701074D01*
X97571919Y-53680250D01*
X97579151Y-53660038D01*
X97588330Y-53640632D01*
X97599366Y-53622219D01*
X97612154Y-53604976D01*
X97626570Y-53589070D01*
X97642476Y-53574654D01*
X97659719Y-53561866D01*
X97678132Y-53550830D01*
X97697538Y-53541651D01*
X97717750Y-53534419D01*
X97738574Y-53529203D01*
X97759809Y-53526053D01*
X97781250Y-53525000D01*
X98218750Y-53525000D01*
X98240191Y-53526053D01*
X98240191Y-53526053D01*
G37*
D14*
X98000000Y-54000000D03*
G04 #@! TD*
D10*
G04 #@! TO.C,R19*
G36*
X66452691Y-53526053D02*
X66473926Y-53529203D01*
X66494750Y-53534419D01*
X66514962Y-53541651D01*
X66534368Y-53550830D01*
X66552781Y-53561866D01*
X66570024Y-53574654D01*
X66585930Y-53589070D01*
X66600346Y-53604976D01*
X66613134Y-53622219D01*
X66624170Y-53640632D01*
X66633349Y-53660038D01*
X66640581Y-53680250D01*
X66645797Y-53701074D01*
X66648947Y-53722309D01*
X66650000Y-53743750D01*
X66650000Y-54256250D01*
X66648947Y-54277691D01*
X66645797Y-54298926D01*
X66640581Y-54319750D01*
X66633349Y-54339962D01*
X66624170Y-54359368D01*
X66613134Y-54377781D01*
X66600346Y-54395024D01*
X66585930Y-54410930D01*
X66570024Y-54425346D01*
X66552781Y-54438134D01*
X66534368Y-54449170D01*
X66514962Y-54458349D01*
X66494750Y-54465581D01*
X66473926Y-54470797D01*
X66452691Y-54473947D01*
X66431250Y-54475000D01*
X65993750Y-54475000D01*
X65972309Y-54473947D01*
X65951074Y-54470797D01*
X65930250Y-54465581D01*
X65910038Y-54458349D01*
X65890632Y-54449170D01*
X65872219Y-54438134D01*
X65854976Y-54425346D01*
X65839070Y-54410930D01*
X65824654Y-54395024D01*
X65811866Y-54377781D01*
X65800830Y-54359368D01*
X65791651Y-54339962D01*
X65784419Y-54319750D01*
X65779203Y-54298926D01*
X65776053Y-54277691D01*
X65775000Y-54256250D01*
X65775000Y-53743750D01*
X65776053Y-53722309D01*
X65779203Y-53701074D01*
X65784419Y-53680250D01*
X65791651Y-53660038D01*
X65800830Y-53640632D01*
X65811866Y-53622219D01*
X65824654Y-53604976D01*
X65839070Y-53589070D01*
X65854976Y-53574654D01*
X65872219Y-53561866D01*
X65890632Y-53550830D01*
X65910038Y-53541651D01*
X65930250Y-53534419D01*
X65951074Y-53529203D01*
X65972309Y-53526053D01*
X65993750Y-53525000D01*
X66431250Y-53525000D01*
X66452691Y-53526053D01*
X66452691Y-53526053D01*
G37*
D14*
X66212500Y-54000000D03*
D10*
G36*
X68027691Y-53526053D02*
X68048926Y-53529203D01*
X68069750Y-53534419D01*
X68089962Y-53541651D01*
X68109368Y-53550830D01*
X68127781Y-53561866D01*
X68145024Y-53574654D01*
X68160930Y-53589070D01*
X68175346Y-53604976D01*
X68188134Y-53622219D01*
X68199170Y-53640632D01*
X68208349Y-53660038D01*
X68215581Y-53680250D01*
X68220797Y-53701074D01*
X68223947Y-53722309D01*
X68225000Y-53743750D01*
X68225000Y-54256250D01*
X68223947Y-54277691D01*
X68220797Y-54298926D01*
X68215581Y-54319750D01*
X68208349Y-54339962D01*
X68199170Y-54359368D01*
X68188134Y-54377781D01*
X68175346Y-54395024D01*
X68160930Y-54410930D01*
X68145024Y-54425346D01*
X68127781Y-54438134D01*
X68109368Y-54449170D01*
X68089962Y-54458349D01*
X68069750Y-54465581D01*
X68048926Y-54470797D01*
X68027691Y-54473947D01*
X68006250Y-54475000D01*
X67568750Y-54475000D01*
X67547309Y-54473947D01*
X67526074Y-54470797D01*
X67505250Y-54465581D01*
X67485038Y-54458349D01*
X67465632Y-54449170D01*
X67447219Y-54438134D01*
X67429976Y-54425346D01*
X67414070Y-54410930D01*
X67399654Y-54395024D01*
X67386866Y-54377781D01*
X67375830Y-54359368D01*
X67366651Y-54339962D01*
X67359419Y-54319750D01*
X67354203Y-54298926D01*
X67351053Y-54277691D01*
X67350000Y-54256250D01*
X67350000Y-53743750D01*
X67351053Y-53722309D01*
X67354203Y-53701074D01*
X67359419Y-53680250D01*
X67366651Y-53660038D01*
X67375830Y-53640632D01*
X67386866Y-53622219D01*
X67399654Y-53604976D01*
X67414070Y-53589070D01*
X67429976Y-53574654D01*
X67447219Y-53561866D01*
X67465632Y-53550830D01*
X67485038Y-53541651D01*
X67505250Y-53534419D01*
X67526074Y-53529203D01*
X67547309Y-53526053D01*
X67568750Y-53525000D01*
X68006250Y-53525000D01*
X68027691Y-53526053D01*
X68027691Y-53526053D01*
G37*
D14*
X67787500Y-54000000D03*
G04 #@! TD*
D10*
G04 #@! TO.C,R21*
G36*
X81665191Y-67526053D02*
X81686426Y-67529203D01*
X81707250Y-67534419D01*
X81727462Y-67541651D01*
X81746868Y-67550830D01*
X81765281Y-67561866D01*
X81782524Y-67574654D01*
X81798430Y-67589070D01*
X81812846Y-67604976D01*
X81825634Y-67622219D01*
X81836670Y-67640632D01*
X81845849Y-67660038D01*
X81853081Y-67680250D01*
X81858297Y-67701074D01*
X81861447Y-67722309D01*
X81862500Y-67743750D01*
X81862500Y-68256250D01*
X81861447Y-68277691D01*
X81858297Y-68298926D01*
X81853081Y-68319750D01*
X81845849Y-68339962D01*
X81836670Y-68359368D01*
X81825634Y-68377781D01*
X81812846Y-68395024D01*
X81798430Y-68410930D01*
X81782524Y-68425346D01*
X81765281Y-68438134D01*
X81746868Y-68449170D01*
X81727462Y-68458349D01*
X81707250Y-68465581D01*
X81686426Y-68470797D01*
X81665191Y-68473947D01*
X81643750Y-68475000D01*
X81206250Y-68475000D01*
X81184809Y-68473947D01*
X81163574Y-68470797D01*
X81142750Y-68465581D01*
X81122538Y-68458349D01*
X81103132Y-68449170D01*
X81084719Y-68438134D01*
X81067476Y-68425346D01*
X81051570Y-68410930D01*
X81037154Y-68395024D01*
X81024366Y-68377781D01*
X81013330Y-68359368D01*
X81004151Y-68339962D01*
X80996919Y-68319750D01*
X80991703Y-68298926D01*
X80988553Y-68277691D01*
X80987500Y-68256250D01*
X80987500Y-67743750D01*
X80988553Y-67722309D01*
X80991703Y-67701074D01*
X80996919Y-67680250D01*
X81004151Y-67660038D01*
X81013330Y-67640632D01*
X81024366Y-67622219D01*
X81037154Y-67604976D01*
X81051570Y-67589070D01*
X81067476Y-67574654D01*
X81084719Y-67561866D01*
X81103132Y-67550830D01*
X81122538Y-67541651D01*
X81142750Y-67534419D01*
X81163574Y-67529203D01*
X81184809Y-67526053D01*
X81206250Y-67525000D01*
X81643750Y-67525000D01*
X81665191Y-67526053D01*
X81665191Y-67526053D01*
G37*
D14*
X81425000Y-68000000D03*
D10*
G36*
X83240191Y-67526053D02*
X83261426Y-67529203D01*
X83282250Y-67534419D01*
X83302462Y-67541651D01*
X83321868Y-67550830D01*
X83340281Y-67561866D01*
X83357524Y-67574654D01*
X83373430Y-67589070D01*
X83387846Y-67604976D01*
X83400634Y-67622219D01*
X83411670Y-67640632D01*
X83420849Y-67660038D01*
X83428081Y-67680250D01*
X83433297Y-67701074D01*
X83436447Y-67722309D01*
X83437500Y-67743750D01*
X83437500Y-68256250D01*
X83436447Y-68277691D01*
X83433297Y-68298926D01*
X83428081Y-68319750D01*
X83420849Y-68339962D01*
X83411670Y-68359368D01*
X83400634Y-68377781D01*
X83387846Y-68395024D01*
X83373430Y-68410930D01*
X83357524Y-68425346D01*
X83340281Y-68438134D01*
X83321868Y-68449170D01*
X83302462Y-68458349D01*
X83282250Y-68465581D01*
X83261426Y-68470797D01*
X83240191Y-68473947D01*
X83218750Y-68475000D01*
X82781250Y-68475000D01*
X82759809Y-68473947D01*
X82738574Y-68470797D01*
X82717750Y-68465581D01*
X82697538Y-68458349D01*
X82678132Y-68449170D01*
X82659719Y-68438134D01*
X82642476Y-68425346D01*
X82626570Y-68410930D01*
X82612154Y-68395024D01*
X82599366Y-68377781D01*
X82588330Y-68359368D01*
X82579151Y-68339962D01*
X82571919Y-68319750D01*
X82566703Y-68298926D01*
X82563553Y-68277691D01*
X82562500Y-68256250D01*
X82562500Y-67743750D01*
X82563553Y-67722309D01*
X82566703Y-67701074D01*
X82571919Y-67680250D01*
X82579151Y-67660038D01*
X82588330Y-67640632D01*
X82599366Y-67622219D01*
X82612154Y-67604976D01*
X82626570Y-67589070D01*
X82642476Y-67574654D01*
X82659719Y-67561866D01*
X82678132Y-67550830D01*
X82697538Y-67541651D01*
X82717750Y-67534419D01*
X82738574Y-67529203D01*
X82759809Y-67526053D01*
X82781250Y-67525000D01*
X83218750Y-67525000D01*
X83240191Y-67526053D01*
X83240191Y-67526053D01*
G37*
D14*
X83000000Y-68000000D03*
G04 #@! TD*
D10*
G04 #@! TO.C,R15*
G36*
X109665191Y-34526053D02*
X109686426Y-34529203D01*
X109707250Y-34534419D01*
X109727462Y-34541651D01*
X109746868Y-34550830D01*
X109765281Y-34561866D01*
X109782524Y-34574654D01*
X109798430Y-34589070D01*
X109812846Y-34604976D01*
X109825634Y-34622219D01*
X109836670Y-34640632D01*
X109845849Y-34660038D01*
X109853081Y-34680250D01*
X109858297Y-34701074D01*
X109861447Y-34722309D01*
X109862500Y-34743750D01*
X109862500Y-35256250D01*
X109861447Y-35277691D01*
X109858297Y-35298926D01*
X109853081Y-35319750D01*
X109845849Y-35339962D01*
X109836670Y-35359368D01*
X109825634Y-35377781D01*
X109812846Y-35395024D01*
X109798430Y-35410930D01*
X109782524Y-35425346D01*
X109765281Y-35438134D01*
X109746868Y-35449170D01*
X109727462Y-35458349D01*
X109707250Y-35465581D01*
X109686426Y-35470797D01*
X109665191Y-35473947D01*
X109643750Y-35475000D01*
X109206250Y-35475000D01*
X109184809Y-35473947D01*
X109163574Y-35470797D01*
X109142750Y-35465581D01*
X109122538Y-35458349D01*
X109103132Y-35449170D01*
X109084719Y-35438134D01*
X109067476Y-35425346D01*
X109051570Y-35410930D01*
X109037154Y-35395024D01*
X109024366Y-35377781D01*
X109013330Y-35359368D01*
X109004151Y-35339962D01*
X108996919Y-35319750D01*
X108991703Y-35298926D01*
X108988553Y-35277691D01*
X108987500Y-35256250D01*
X108987500Y-34743750D01*
X108988553Y-34722309D01*
X108991703Y-34701074D01*
X108996919Y-34680250D01*
X109004151Y-34660038D01*
X109013330Y-34640632D01*
X109024366Y-34622219D01*
X109037154Y-34604976D01*
X109051570Y-34589070D01*
X109067476Y-34574654D01*
X109084719Y-34561866D01*
X109103132Y-34550830D01*
X109122538Y-34541651D01*
X109142750Y-34534419D01*
X109163574Y-34529203D01*
X109184809Y-34526053D01*
X109206250Y-34525000D01*
X109643750Y-34525000D01*
X109665191Y-34526053D01*
X109665191Y-34526053D01*
G37*
D14*
X109425000Y-35000000D03*
D10*
G36*
X111240191Y-34526053D02*
X111261426Y-34529203D01*
X111282250Y-34534419D01*
X111302462Y-34541651D01*
X111321868Y-34550830D01*
X111340281Y-34561866D01*
X111357524Y-34574654D01*
X111373430Y-34589070D01*
X111387846Y-34604976D01*
X111400634Y-34622219D01*
X111411670Y-34640632D01*
X111420849Y-34660038D01*
X111428081Y-34680250D01*
X111433297Y-34701074D01*
X111436447Y-34722309D01*
X111437500Y-34743750D01*
X111437500Y-35256250D01*
X111436447Y-35277691D01*
X111433297Y-35298926D01*
X111428081Y-35319750D01*
X111420849Y-35339962D01*
X111411670Y-35359368D01*
X111400634Y-35377781D01*
X111387846Y-35395024D01*
X111373430Y-35410930D01*
X111357524Y-35425346D01*
X111340281Y-35438134D01*
X111321868Y-35449170D01*
X111302462Y-35458349D01*
X111282250Y-35465581D01*
X111261426Y-35470797D01*
X111240191Y-35473947D01*
X111218750Y-35475000D01*
X110781250Y-35475000D01*
X110759809Y-35473947D01*
X110738574Y-35470797D01*
X110717750Y-35465581D01*
X110697538Y-35458349D01*
X110678132Y-35449170D01*
X110659719Y-35438134D01*
X110642476Y-35425346D01*
X110626570Y-35410930D01*
X110612154Y-35395024D01*
X110599366Y-35377781D01*
X110588330Y-35359368D01*
X110579151Y-35339962D01*
X110571919Y-35319750D01*
X110566703Y-35298926D01*
X110563553Y-35277691D01*
X110562500Y-35256250D01*
X110562500Y-34743750D01*
X110563553Y-34722309D01*
X110566703Y-34701074D01*
X110571919Y-34680250D01*
X110579151Y-34660038D01*
X110588330Y-34640632D01*
X110599366Y-34622219D01*
X110612154Y-34604976D01*
X110626570Y-34589070D01*
X110642476Y-34574654D01*
X110659719Y-34561866D01*
X110678132Y-34550830D01*
X110697538Y-34541651D01*
X110717750Y-34534419D01*
X110738574Y-34529203D01*
X110759809Y-34526053D01*
X110781250Y-34525000D01*
X111218750Y-34525000D01*
X111240191Y-34526053D01*
X111240191Y-34526053D01*
G37*
D14*
X111000000Y-35000000D03*
G04 #@! TD*
D10*
G04 #@! TO.C,R30*
G36*
X83240191Y-34526053D02*
X83261426Y-34529203D01*
X83282250Y-34534419D01*
X83302462Y-34541651D01*
X83321868Y-34550830D01*
X83340281Y-34561866D01*
X83357524Y-34574654D01*
X83373430Y-34589070D01*
X83387846Y-34604976D01*
X83400634Y-34622219D01*
X83411670Y-34640632D01*
X83420849Y-34660038D01*
X83428081Y-34680250D01*
X83433297Y-34701074D01*
X83436447Y-34722309D01*
X83437500Y-34743750D01*
X83437500Y-35256250D01*
X83436447Y-35277691D01*
X83433297Y-35298926D01*
X83428081Y-35319750D01*
X83420849Y-35339962D01*
X83411670Y-35359368D01*
X83400634Y-35377781D01*
X83387846Y-35395024D01*
X83373430Y-35410930D01*
X83357524Y-35425346D01*
X83340281Y-35438134D01*
X83321868Y-35449170D01*
X83302462Y-35458349D01*
X83282250Y-35465581D01*
X83261426Y-35470797D01*
X83240191Y-35473947D01*
X83218750Y-35475000D01*
X82781250Y-35475000D01*
X82759809Y-35473947D01*
X82738574Y-35470797D01*
X82717750Y-35465581D01*
X82697538Y-35458349D01*
X82678132Y-35449170D01*
X82659719Y-35438134D01*
X82642476Y-35425346D01*
X82626570Y-35410930D01*
X82612154Y-35395024D01*
X82599366Y-35377781D01*
X82588330Y-35359368D01*
X82579151Y-35339962D01*
X82571919Y-35319750D01*
X82566703Y-35298926D01*
X82563553Y-35277691D01*
X82562500Y-35256250D01*
X82562500Y-34743750D01*
X82563553Y-34722309D01*
X82566703Y-34701074D01*
X82571919Y-34680250D01*
X82579151Y-34660038D01*
X82588330Y-34640632D01*
X82599366Y-34622219D01*
X82612154Y-34604976D01*
X82626570Y-34589070D01*
X82642476Y-34574654D01*
X82659719Y-34561866D01*
X82678132Y-34550830D01*
X82697538Y-34541651D01*
X82717750Y-34534419D01*
X82738574Y-34529203D01*
X82759809Y-34526053D01*
X82781250Y-34525000D01*
X83218750Y-34525000D01*
X83240191Y-34526053D01*
X83240191Y-34526053D01*
G37*
D14*
X83000000Y-35000000D03*
D10*
G36*
X81665191Y-34526053D02*
X81686426Y-34529203D01*
X81707250Y-34534419D01*
X81727462Y-34541651D01*
X81746868Y-34550830D01*
X81765281Y-34561866D01*
X81782524Y-34574654D01*
X81798430Y-34589070D01*
X81812846Y-34604976D01*
X81825634Y-34622219D01*
X81836670Y-34640632D01*
X81845849Y-34660038D01*
X81853081Y-34680250D01*
X81858297Y-34701074D01*
X81861447Y-34722309D01*
X81862500Y-34743750D01*
X81862500Y-35256250D01*
X81861447Y-35277691D01*
X81858297Y-35298926D01*
X81853081Y-35319750D01*
X81845849Y-35339962D01*
X81836670Y-35359368D01*
X81825634Y-35377781D01*
X81812846Y-35395024D01*
X81798430Y-35410930D01*
X81782524Y-35425346D01*
X81765281Y-35438134D01*
X81746868Y-35449170D01*
X81727462Y-35458349D01*
X81707250Y-35465581D01*
X81686426Y-35470797D01*
X81665191Y-35473947D01*
X81643750Y-35475000D01*
X81206250Y-35475000D01*
X81184809Y-35473947D01*
X81163574Y-35470797D01*
X81142750Y-35465581D01*
X81122538Y-35458349D01*
X81103132Y-35449170D01*
X81084719Y-35438134D01*
X81067476Y-35425346D01*
X81051570Y-35410930D01*
X81037154Y-35395024D01*
X81024366Y-35377781D01*
X81013330Y-35359368D01*
X81004151Y-35339962D01*
X80996919Y-35319750D01*
X80991703Y-35298926D01*
X80988553Y-35277691D01*
X80987500Y-35256250D01*
X80987500Y-34743750D01*
X80988553Y-34722309D01*
X80991703Y-34701074D01*
X80996919Y-34680250D01*
X81004151Y-34660038D01*
X81013330Y-34640632D01*
X81024366Y-34622219D01*
X81037154Y-34604976D01*
X81051570Y-34589070D01*
X81067476Y-34574654D01*
X81084719Y-34561866D01*
X81103132Y-34550830D01*
X81122538Y-34541651D01*
X81142750Y-34534419D01*
X81163574Y-34529203D01*
X81184809Y-34526053D01*
X81206250Y-34525000D01*
X81643750Y-34525000D01*
X81665191Y-34526053D01*
X81665191Y-34526053D01*
G37*
D14*
X81425000Y-35000000D03*
G04 #@! TD*
D10*
G04 #@! TO.C,R2*
G36*
X114161958Y-48680710D02*
X114176276Y-48682834D01*
X114190317Y-48686351D01*
X114203946Y-48691228D01*
X114217031Y-48697417D01*
X114229447Y-48704858D01*
X114241073Y-48713481D01*
X114251798Y-48723202D01*
X114261519Y-48733927D01*
X114270142Y-48745553D01*
X114277583Y-48757969D01*
X114283772Y-48771054D01*
X114288649Y-48784683D01*
X114292166Y-48798724D01*
X114294290Y-48813042D01*
X114295000Y-48827500D01*
X114295000Y-49172500D01*
X114294290Y-49186958D01*
X114292166Y-49201276D01*
X114288649Y-49215317D01*
X114283772Y-49228946D01*
X114277583Y-49242031D01*
X114270142Y-49254447D01*
X114261519Y-49266073D01*
X114251798Y-49276798D01*
X114241073Y-49286519D01*
X114229447Y-49295142D01*
X114217031Y-49302583D01*
X114203946Y-49308772D01*
X114190317Y-49313649D01*
X114176276Y-49317166D01*
X114161958Y-49319290D01*
X114147500Y-49320000D01*
X113852500Y-49320000D01*
X113838042Y-49319290D01*
X113823724Y-49317166D01*
X113809683Y-49313649D01*
X113796054Y-49308772D01*
X113782969Y-49302583D01*
X113770553Y-49295142D01*
X113758927Y-49286519D01*
X113748202Y-49276798D01*
X113738481Y-49266073D01*
X113729858Y-49254447D01*
X113722417Y-49242031D01*
X113716228Y-49228946D01*
X113711351Y-49215317D01*
X113707834Y-49201276D01*
X113705710Y-49186958D01*
X113705000Y-49172500D01*
X113705000Y-48827500D01*
X113705710Y-48813042D01*
X113707834Y-48798724D01*
X113711351Y-48784683D01*
X113716228Y-48771054D01*
X113722417Y-48757969D01*
X113729858Y-48745553D01*
X113738481Y-48733927D01*
X113748202Y-48723202D01*
X113758927Y-48713481D01*
X113770553Y-48704858D01*
X113782969Y-48697417D01*
X113796054Y-48691228D01*
X113809683Y-48686351D01*
X113823724Y-48682834D01*
X113838042Y-48680710D01*
X113852500Y-48680000D01*
X114147500Y-48680000D01*
X114161958Y-48680710D01*
X114161958Y-48680710D01*
G37*
D15*
X114000000Y-49000000D03*
D10*
G36*
X115131958Y-48680710D02*
X115146276Y-48682834D01*
X115160317Y-48686351D01*
X115173946Y-48691228D01*
X115187031Y-48697417D01*
X115199447Y-48704858D01*
X115211073Y-48713481D01*
X115221798Y-48723202D01*
X115231519Y-48733927D01*
X115240142Y-48745553D01*
X115247583Y-48757969D01*
X115253772Y-48771054D01*
X115258649Y-48784683D01*
X115262166Y-48798724D01*
X115264290Y-48813042D01*
X115265000Y-48827500D01*
X115265000Y-49172500D01*
X115264290Y-49186958D01*
X115262166Y-49201276D01*
X115258649Y-49215317D01*
X115253772Y-49228946D01*
X115247583Y-49242031D01*
X115240142Y-49254447D01*
X115231519Y-49266073D01*
X115221798Y-49276798D01*
X115211073Y-49286519D01*
X115199447Y-49295142D01*
X115187031Y-49302583D01*
X115173946Y-49308772D01*
X115160317Y-49313649D01*
X115146276Y-49317166D01*
X115131958Y-49319290D01*
X115117500Y-49320000D01*
X114822500Y-49320000D01*
X114808042Y-49319290D01*
X114793724Y-49317166D01*
X114779683Y-49313649D01*
X114766054Y-49308772D01*
X114752969Y-49302583D01*
X114740553Y-49295142D01*
X114728927Y-49286519D01*
X114718202Y-49276798D01*
X114708481Y-49266073D01*
X114699858Y-49254447D01*
X114692417Y-49242031D01*
X114686228Y-49228946D01*
X114681351Y-49215317D01*
X114677834Y-49201276D01*
X114675710Y-49186958D01*
X114675000Y-49172500D01*
X114675000Y-48827500D01*
X114675710Y-48813042D01*
X114677834Y-48798724D01*
X114681351Y-48784683D01*
X114686228Y-48771054D01*
X114692417Y-48757969D01*
X114699858Y-48745553D01*
X114708481Y-48733927D01*
X114718202Y-48723202D01*
X114728927Y-48713481D01*
X114740553Y-48704858D01*
X114752969Y-48697417D01*
X114766054Y-48691228D01*
X114779683Y-48686351D01*
X114793724Y-48682834D01*
X114808042Y-48680710D01*
X114822500Y-48680000D01*
X115117500Y-48680000D01*
X115131958Y-48680710D01*
X115131958Y-48680710D01*
G37*
D15*
X114970000Y-49000000D03*
G04 #@! TD*
D10*
G04 #@! TO.C,R12*
G36*
X101191958Y-97680710D02*
X101206276Y-97682834D01*
X101220317Y-97686351D01*
X101233946Y-97691228D01*
X101247031Y-97697417D01*
X101259447Y-97704858D01*
X101271073Y-97713481D01*
X101281798Y-97723202D01*
X101291519Y-97733927D01*
X101300142Y-97745553D01*
X101307583Y-97757969D01*
X101313772Y-97771054D01*
X101318649Y-97784683D01*
X101322166Y-97798724D01*
X101324290Y-97813042D01*
X101325000Y-97827500D01*
X101325000Y-98172500D01*
X101324290Y-98186958D01*
X101322166Y-98201276D01*
X101318649Y-98215317D01*
X101313772Y-98228946D01*
X101307583Y-98242031D01*
X101300142Y-98254447D01*
X101291519Y-98266073D01*
X101281798Y-98276798D01*
X101271073Y-98286519D01*
X101259447Y-98295142D01*
X101247031Y-98302583D01*
X101233946Y-98308772D01*
X101220317Y-98313649D01*
X101206276Y-98317166D01*
X101191958Y-98319290D01*
X101177500Y-98320000D01*
X100882500Y-98320000D01*
X100868042Y-98319290D01*
X100853724Y-98317166D01*
X100839683Y-98313649D01*
X100826054Y-98308772D01*
X100812969Y-98302583D01*
X100800553Y-98295142D01*
X100788927Y-98286519D01*
X100778202Y-98276798D01*
X100768481Y-98266073D01*
X100759858Y-98254447D01*
X100752417Y-98242031D01*
X100746228Y-98228946D01*
X100741351Y-98215317D01*
X100737834Y-98201276D01*
X100735710Y-98186958D01*
X100735000Y-98172500D01*
X100735000Y-97827500D01*
X100735710Y-97813042D01*
X100737834Y-97798724D01*
X100741351Y-97784683D01*
X100746228Y-97771054D01*
X100752417Y-97757969D01*
X100759858Y-97745553D01*
X100768481Y-97733927D01*
X100778202Y-97723202D01*
X100788927Y-97713481D01*
X100800553Y-97704858D01*
X100812969Y-97697417D01*
X100826054Y-97691228D01*
X100839683Y-97686351D01*
X100853724Y-97682834D01*
X100868042Y-97680710D01*
X100882500Y-97680000D01*
X101177500Y-97680000D01*
X101191958Y-97680710D01*
X101191958Y-97680710D01*
G37*
D15*
X101030000Y-98000000D03*
D10*
G36*
X102161958Y-97680710D02*
X102176276Y-97682834D01*
X102190317Y-97686351D01*
X102203946Y-97691228D01*
X102217031Y-97697417D01*
X102229447Y-97704858D01*
X102241073Y-97713481D01*
X102251798Y-97723202D01*
X102261519Y-97733927D01*
X102270142Y-97745553D01*
X102277583Y-97757969D01*
X102283772Y-97771054D01*
X102288649Y-97784683D01*
X102292166Y-97798724D01*
X102294290Y-97813042D01*
X102295000Y-97827500D01*
X102295000Y-98172500D01*
X102294290Y-98186958D01*
X102292166Y-98201276D01*
X102288649Y-98215317D01*
X102283772Y-98228946D01*
X102277583Y-98242031D01*
X102270142Y-98254447D01*
X102261519Y-98266073D01*
X102251798Y-98276798D01*
X102241073Y-98286519D01*
X102229447Y-98295142D01*
X102217031Y-98302583D01*
X102203946Y-98308772D01*
X102190317Y-98313649D01*
X102176276Y-98317166D01*
X102161958Y-98319290D01*
X102147500Y-98320000D01*
X101852500Y-98320000D01*
X101838042Y-98319290D01*
X101823724Y-98317166D01*
X101809683Y-98313649D01*
X101796054Y-98308772D01*
X101782969Y-98302583D01*
X101770553Y-98295142D01*
X101758927Y-98286519D01*
X101748202Y-98276798D01*
X101738481Y-98266073D01*
X101729858Y-98254447D01*
X101722417Y-98242031D01*
X101716228Y-98228946D01*
X101711351Y-98215317D01*
X101707834Y-98201276D01*
X101705710Y-98186958D01*
X101705000Y-98172500D01*
X101705000Y-97827500D01*
X101705710Y-97813042D01*
X101707834Y-97798724D01*
X101711351Y-97784683D01*
X101716228Y-97771054D01*
X101722417Y-97757969D01*
X101729858Y-97745553D01*
X101738481Y-97733927D01*
X101748202Y-97723202D01*
X101758927Y-97713481D01*
X101770553Y-97704858D01*
X101782969Y-97697417D01*
X101796054Y-97691228D01*
X101809683Y-97686351D01*
X101823724Y-97682834D01*
X101838042Y-97680710D01*
X101852500Y-97680000D01*
X102147500Y-97680000D01*
X102161958Y-97680710D01*
X102161958Y-97680710D01*
G37*
D15*
X102000000Y-98000000D03*
G04 #@! TD*
D10*
G04 #@! TO.C,R14*
G36*
X72186958Y-95705710D02*
X72201276Y-95707834D01*
X72215317Y-95711351D01*
X72228946Y-95716228D01*
X72242031Y-95722417D01*
X72254447Y-95729858D01*
X72266073Y-95738481D01*
X72276798Y-95748202D01*
X72286519Y-95758927D01*
X72295142Y-95770553D01*
X72302583Y-95782969D01*
X72308772Y-95796054D01*
X72313649Y-95809683D01*
X72317166Y-95823724D01*
X72319290Y-95838042D01*
X72320000Y-95852500D01*
X72320000Y-96147500D01*
X72319290Y-96161958D01*
X72317166Y-96176276D01*
X72313649Y-96190317D01*
X72308772Y-96203946D01*
X72302583Y-96217031D01*
X72295142Y-96229447D01*
X72286519Y-96241073D01*
X72276798Y-96251798D01*
X72266073Y-96261519D01*
X72254447Y-96270142D01*
X72242031Y-96277583D01*
X72228946Y-96283772D01*
X72215317Y-96288649D01*
X72201276Y-96292166D01*
X72186958Y-96294290D01*
X72172500Y-96295000D01*
X71827500Y-96295000D01*
X71813042Y-96294290D01*
X71798724Y-96292166D01*
X71784683Y-96288649D01*
X71771054Y-96283772D01*
X71757969Y-96277583D01*
X71745553Y-96270142D01*
X71733927Y-96261519D01*
X71723202Y-96251798D01*
X71713481Y-96241073D01*
X71704858Y-96229447D01*
X71697417Y-96217031D01*
X71691228Y-96203946D01*
X71686351Y-96190317D01*
X71682834Y-96176276D01*
X71680710Y-96161958D01*
X71680000Y-96147500D01*
X71680000Y-95852500D01*
X71680710Y-95838042D01*
X71682834Y-95823724D01*
X71686351Y-95809683D01*
X71691228Y-95796054D01*
X71697417Y-95782969D01*
X71704858Y-95770553D01*
X71713481Y-95758927D01*
X71723202Y-95748202D01*
X71733927Y-95738481D01*
X71745553Y-95729858D01*
X71757969Y-95722417D01*
X71771054Y-95716228D01*
X71784683Y-95711351D01*
X71798724Y-95707834D01*
X71813042Y-95705710D01*
X71827500Y-95705000D01*
X72172500Y-95705000D01*
X72186958Y-95705710D01*
X72186958Y-95705710D01*
G37*
D15*
X72000000Y-96000000D03*
D10*
G36*
X72186958Y-96675710D02*
X72201276Y-96677834D01*
X72215317Y-96681351D01*
X72228946Y-96686228D01*
X72242031Y-96692417D01*
X72254447Y-96699858D01*
X72266073Y-96708481D01*
X72276798Y-96718202D01*
X72286519Y-96728927D01*
X72295142Y-96740553D01*
X72302583Y-96752969D01*
X72308772Y-96766054D01*
X72313649Y-96779683D01*
X72317166Y-96793724D01*
X72319290Y-96808042D01*
X72320000Y-96822500D01*
X72320000Y-97117500D01*
X72319290Y-97131958D01*
X72317166Y-97146276D01*
X72313649Y-97160317D01*
X72308772Y-97173946D01*
X72302583Y-97187031D01*
X72295142Y-97199447D01*
X72286519Y-97211073D01*
X72276798Y-97221798D01*
X72266073Y-97231519D01*
X72254447Y-97240142D01*
X72242031Y-97247583D01*
X72228946Y-97253772D01*
X72215317Y-97258649D01*
X72201276Y-97262166D01*
X72186958Y-97264290D01*
X72172500Y-97265000D01*
X71827500Y-97265000D01*
X71813042Y-97264290D01*
X71798724Y-97262166D01*
X71784683Y-97258649D01*
X71771054Y-97253772D01*
X71757969Y-97247583D01*
X71745553Y-97240142D01*
X71733927Y-97231519D01*
X71723202Y-97221798D01*
X71713481Y-97211073D01*
X71704858Y-97199447D01*
X71697417Y-97187031D01*
X71691228Y-97173946D01*
X71686351Y-97160317D01*
X71682834Y-97146276D01*
X71680710Y-97131958D01*
X71680000Y-97117500D01*
X71680000Y-96822500D01*
X71680710Y-96808042D01*
X71682834Y-96793724D01*
X71686351Y-96779683D01*
X71691228Y-96766054D01*
X71697417Y-96752969D01*
X71704858Y-96740553D01*
X71713481Y-96728927D01*
X71723202Y-96718202D01*
X71733927Y-96708481D01*
X71745553Y-96699858D01*
X71757969Y-96692417D01*
X71771054Y-96686228D01*
X71784683Y-96681351D01*
X71798724Y-96677834D01*
X71813042Y-96675710D01*
X71827500Y-96675000D01*
X72172500Y-96675000D01*
X72186958Y-96675710D01*
X72186958Y-96675710D01*
G37*
D15*
X72000000Y-96970000D03*
G04 #@! TD*
D10*
G04 #@! TO.C,R1*
G36*
X115161958Y-34680710D02*
X115176276Y-34682834D01*
X115190317Y-34686351D01*
X115203946Y-34691228D01*
X115217031Y-34697417D01*
X115229447Y-34704858D01*
X115241073Y-34713481D01*
X115251798Y-34723202D01*
X115261519Y-34733927D01*
X115270142Y-34745553D01*
X115277583Y-34757969D01*
X115283772Y-34771054D01*
X115288649Y-34784683D01*
X115292166Y-34798724D01*
X115294290Y-34813042D01*
X115295000Y-34827500D01*
X115295000Y-35172500D01*
X115294290Y-35186958D01*
X115292166Y-35201276D01*
X115288649Y-35215317D01*
X115283772Y-35228946D01*
X115277583Y-35242031D01*
X115270142Y-35254447D01*
X115261519Y-35266073D01*
X115251798Y-35276798D01*
X115241073Y-35286519D01*
X115229447Y-35295142D01*
X115217031Y-35302583D01*
X115203946Y-35308772D01*
X115190317Y-35313649D01*
X115176276Y-35317166D01*
X115161958Y-35319290D01*
X115147500Y-35320000D01*
X114852500Y-35320000D01*
X114838042Y-35319290D01*
X114823724Y-35317166D01*
X114809683Y-35313649D01*
X114796054Y-35308772D01*
X114782969Y-35302583D01*
X114770553Y-35295142D01*
X114758927Y-35286519D01*
X114748202Y-35276798D01*
X114738481Y-35266073D01*
X114729858Y-35254447D01*
X114722417Y-35242031D01*
X114716228Y-35228946D01*
X114711351Y-35215317D01*
X114707834Y-35201276D01*
X114705710Y-35186958D01*
X114705000Y-35172500D01*
X114705000Y-34827500D01*
X114705710Y-34813042D01*
X114707834Y-34798724D01*
X114711351Y-34784683D01*
X114716228Y-34771054D01*
X114722417Y-34757969D01*
X114729858Y-34745553D01*
X114738481Y-34733927D01*
X114748202Y-34723202D01*
X114758927Y-34713481D01*
X114770553Y-34704858D01*
X114782969Y-34697417D01*
X114796054Y-34691228D01*
X114809683Y-34686351D01*
X114823724Y-34682834D01*
X114838042Y-34680710D01*
X114852500Y-34680000D01*
X115147500Y-34680000D01*
X115161958Y-34680710D01*
X115161958Y-34680710D01*
G37*
D15*
X115000000Y-35000000D03*
D10*
G36*
X114191958Y-34680710D02*
X114206276Y-34682834D01*
X114220317Y-34686351D01*
X114233946Y-34691228D01*
X114247031Y-34697417D01*
X114259447Y-34704858D01*
X114271073Y-34713481D01*
X114281798Y-34723202D01*
X114291519Y-34733927D01*
X114300142Y-34745553D01*
X114307583Y-34757969D01*
X114313772Y-34771054D01*
X114318649Y-34784683D01*
X114322166Y-34798724D01*
X114324290Y-34813042D01*
X114325000Y-34827500D01*
X114325000Y-35172500D01*
X114324290Y-35186958D01*
X114322166Y-35201276D01*
X114318649Y-35215317D01*
X114313772Y-35228946D01*
X114307583Y-35242031D01*
X114300142Y-35254447D01*
X114291519Y-35266073D01*
X114281798Y-35276798D01*
X114271073Y-35286519D01*
X114259447Y-35295142D01*
X114247031Y-35302583D01*
X114233946Y-35308772D01*
X114220317Y-35313649D01*
X114206276Y-35317166D01*
X114191958Y-35319290D01*
X114177500Y-35320000D01*
X113882500Y-35320000D01*
X113868042Y-35319290D01*
X113853724Y-35317166D01*
X113839683Y-35313649D01*
X113826054Y-35308772D01*
X113812969Y-35302583D01*
X113800553Y-35295142D01*
X113788927Y-35286519D01*
X113778202Y-35276798D01*
X113768481Y-35266073D01*
X113759858Y-35254447D01*
X113752417Y-35242031D01*
X113746228Y-35228946D01*
X113741351Y-35215317D01*
X113737834Y-35201276D01*
X113735710Y-35186958D01*
X113735000Y-35172500D01*
X113735000Y-34827500D01*
X113735710Y-34813042D01*
X113737834Y-34798724D01*
X113741351Y-34784683D01*
X113746228Y-34771054D01*
X113752417Y-34757969D01*
X113759858Y-34745553D01*
X113768481Y-34733927D01*
X113778202Y-34723202D01*
X113788927Y-34713481D01*
X113800553Y-34704858D01*
X113812969Y-34697417D01*
X113826054Y-34691228D01*
X113839683Y-34686351D01*
X113853724Y-34682834D01*
X113868042Y-34680710D01*
X113882500Y-34680000D01*
X114177500Y-34680000D01*
X114191958Y-34680710D01*
X114191958Y-34680710D01*
G37*
D15*
X114030000Y-35000000D03*
G04 #@! TD*
D10*
G04 #@! TO.C,R3*
G36*
X102161958Y-53680710D02*
X102176276Y-53682834D01*
X102190317Y-53686351D01*
X102203946Y-53691228D01*
X102217031Y-53697417D01*
X102229447Y-53704858D01*
X102241073Y-53713481D01*
X102251798Y-53723202D01*
X102261519Y-53733927D01*
X102270142Y-53745553D01*
X102277583Y-53757969D01*
X102283772Y-53771054D01*
X102288649Y-53784683D01*
X102292166Y-53798724D01*
X102294290Y-53813042D01*
X102295000Y-53827500D01*
X102295000Y-54172500D01*
X102294290Y-54186958D01*
X102292166Y-54201276D01*
X102288649Y-54215317D01*
X102283772Y-54228946D01*
X102277583Y-54242031D01*
X102270142Y-54254447D01*
X102261519Y-54266073D01*
X102251798Y-54276798D01*
X102241073Y-54286519D01*
X102229447Y-54295142D01*
X102217031Y-54302583D01*
X102203946Y-54308772D01*
X102190317Y-54313649D01*
X102176276Y-54317166D01*
X102161958Y-54319290D01*
X102147500Y-54320000D01*
X101852500Y-54320000D01*
X101838042Y-54319290D01*
X101823724Y-54317166D01*
X101809683Y-54313649D01*
X101796054Y-54308772D01*
X101782969Y-54302583D01*
X101770553Y-54295142D01*
X101758927Y-54286519D01*
X101748202Y-54276798D01*
X101738481Y-54266073D01*
X101729858Y-54254447D01*
X101722417Y-54242031D01*
X101716228Y-54228946D01*
X101711351Y-54215317D01*
X101707834Y-54201276D01*
X101705710Y-54186958D01*
X101705000Y-54172500D01*
X101705000Y-53827500D01*
X101705710Y-53813042D01*
X101707834Y-53798724D01*
X101711351Y-53784683D01*
X101716228Y-53771054D01*
X101722417Y-53757969D01*
X101729858Y-53745553D01*
X101738481Y-53733927D01*
X101748202Y-53723202D01*
X101758927Y-53713481D01*
X101770553Y-53704858D01*
X101782969Y-53697417D01*
X101796054Y-53691228D01*
X101809683Y-53686351D01*
X101823724Y-53682834D01*
X101838042Y-53680710D01*
X101852500Y-53680000D01*
X102147500Y-53680000D01*
X102161958Y-53680710D01*
X102161958Y-53680710D01*
G37*
D15*
X102000000Y-54000000D03*
D10*
G36*
X101191958Y-53680710D02*
X101206276Y-53682834D01*
X101220317Y-53686351D01*
X101233946Y-53691228D01*
X101247031Y-53697417D01*
X101259447Y-53704858D01*
X101271073Y-53713481D01*
X101281798Y-53723202D01*
X101291519Y-53733927D01*
X101300142Y-53745553D01*
X101307583Y-53757969D01*
X101313772Y-53771054D01*
X101318649Y-53784683D01*
X101322166Y-53798724D01*
X101324290Y-53813042D01*
X101325000Y-53827500D01*
X101325000Y-54172500D01*
X101324290Y-54186958D01*
X101322166Y-54201276D01*
X101318649Y-54215317D01*
X101313772Y-54228946D01*
X101307583Y-54242031D01*
X101300142Y-54254447D01*
X101291519Y-54266073D01*
X101281798Y-54276798D01*
X101271073Y-54286519D01*
X101259447Y-54295142D01*
X101247031Y-54302583D01*
X101233946Y-54308772D01*
X101220317Y-54313649D01*
X101206276Y-54317166D01*
X101191958Y-54319290D01*
X101177500Y-54320000D01*
X100882500Y-54320000D01*
X100868042Y-54319290D01*
X100853724Y-54317166D01*
X100839683Y-54313649D01*
X100826054Y-54308772D01*
X100812969Y-54302583D01*
X100800553Y-54295142D01*
X100788927Y-54286519D01*
X100778202Y-54276798D01*
X100768481Y-54266073D01*
X100759858Y-54254447D01*
X100752417Y-54242031D01*
X100746228Y-54228946D01*
X100741351Y-54215317D01*
X100737834Y-54201276D01*
X100735710Y-54186958D01*
X100735000Y-54172500D01*
X100735000Y-53827500D01*
X100735710Y-53813042D01*
X100737834Y-53798724D01*
X100741351Y-53784683D01*
X100746228Y-53771054D01*
X100752417Y-53757969D01*
X100759858Y-53745553D01*
X100768481Y-53733927D01*
X100778202Y-53723202D01*
X100788927Y-53713481D01*
X100800553Y-53704858D01*
X100812969Y-53697417D01*
X100826054Y-53691228D01*
X100839683Y-53686351D01*
X100853724Y-53682834D01*
X100868042Y-53680710D01*
X100882500Y-53680000D01*
X101177500Y-53680000D01*
X101191958Y-53680710D01*
X101191958Y-53680710D01*
G37*
D15*
X101030000Y-54000000D03*
G04 #@! TD*
D10*
G04 #@! TO.C,R11*
G36*
X71191958Y-82680710D02*
X71206276Y-82682834D01*
X71220317Y-82686351D01*
X71233946Y-82691228D01*
X71247031Y-82697417D01*
X71259447Y-82704858D01*
X71271073Y-82713481D01*
X71281798Y-82723202D01*
X71291519Y-82733927D01*
X71300142Y-82745553D01*
X71307583Y-82757969D01*
X71313772Y-82771054D01*
X71318649Y-82784683D01*
X71322166Y-82798724D01*
X71324290Y-82813042D01*
X71325000Y-82827500D01*
X71325000Y-83172500D01*
X71324290Y-83186958D01*
X71322166Y-83201276D01*
X71318649Y-83215317D01*
X71313772Y-83228946D01*
X71307583Y-83242031D01*
X71300142Y-83254447D01*
X71291519Y-83266073D01*
X71281798Y-83276798D01*
X71271073Y-83286519D01*
X71259447Y-83295142D01*
X71247031Y-83302583D01*
X71233946Y-83308772D01*
X71220317Y-83313649D01*
X71206276Y-83317166D01*
X71191958Y-83319290D01*
X71177500Y-83320000D01*
X70882500Y-83320000D01*
X70868042Y-83319290D01*
X70853724Y-83317166D01*
X70839683Y-83313649D01*
X70826054Y-83308772D01*
X70812969Y-83302583D01*
X70800553Y-83295142D01*
X70788927Y-83286519D01*
X70778202Y-83276798D01*
X70768481Y-83266073D01*
X70759858Y-83254447D01*
X70752417Y-83242031D01*
X70746228Y-83228946D01*
X70741351Y-83215317D01*
X70737834Y-83201276D01*
X70735710Y-83186958D01*
X70735000Y-83172500D01*
X70735000Y-82827500D01*
X70735710Y-82813042D01*
X70737834Y-82798724D01*
X70741351Y-82784683D01*
X70746228Y-82771054D01*
X70752417Y-82757969D01*
X70759858Y-82745553D01*
X70768481Y-82733927D01*
X70778202Y-82723202D01*
X70788927Y-82713481D01*
X70800553Y-82704858D01*
X70812969Y-82697417D01*
X70826054Y-82691228D01*
X70839683Y-82686351D01*
X70853724Y-82682834D01*
X70868042Y-82680710D01*
X70882500Y-82680000D01*
X71177500Y-82680000D01*
X71191958Y-82680710D01*
X71191958Y-82680710D01*
G37*
D15*
X71030000Y-83000000D03*
D10*
G36*
X72161958Y-82680710D02*
X72176276Y-82682834D01*
X72190317Y-82686351D01*
X72203946Y-82691228D01*
X72217031Y-82697417D01*
X72229447Y-82704858D01*
X72241073Y-82713481D01*
X72251798Y-82723202D01*
X72261519Y-82733927D01*
X72270142Y-82745553D01*
X72277583Y-82757969D01*
X72283772Y-82771054D01*
X72288649Y-82784683D01*
X72292166Y-82798724D01*
X72294290Y-82813042D01*
X72295000Y-82827500D01*
X72295000Y-83172500D01*
X72294290Y-83186958D01*
X72292166Y-83201276D01*
X72288649Y-83215317D01*
X72283772Y-83228946D01*
X72277583Y-83242031D01*
X72270142Y-83254447D01*
X72261519Y-83266073D01*
X72251798Y-83276798D01*
X72241073Y-83286519D01*
X72229447Y-83295142D01*
X72217031Y-83302583D01*
X72203946Y-83308772D01*
X72190317Y-83313649D01*
X72176276Y-83317166D01*
X72161958Y-83319290D01*
X72147500Y-83320000D01*
X71852500Y-83320000D01*
X71838042Y-83319290D01*
X71823724Y-83317166D01*
X71809683Y-83313649D01*
X71796054Y-83308772D01*
X71782969Y-83302583D01*
X71770553Y-83295142D01*
X71758927Y-83286519D01*
X71748202Y-83276798D01*
X71738481Y-83266073D01*
X71729858Y-83254447D01*
X71722417Y-83242031D01*
X71716228Y-83228946D01*
X71711351Y-83215317D01*
X71707834Y-83201276D01*
X71705710Y-83186958D01*
X71705000Y-83172500D01*
X71705000Y-82827500D01*
X71705710Y-82813042D01*
X71707834Y-82798724D01*
X71711351Y-82784683D01*
X71716228Y-82771054D01*
X71722417Y-82757969D01*
X71729858Y-82745553D01*
X71738481Y-82733927D01*
X71748202Y-82723202D01*
X71758927Y-82713481D01*
X71770553Y-82704858D01*
X71782969Y-82697417D01*
X71796054Y-82691228D01*
X71809683Y-82686351D01*
X71823724Y-82682834D01*
X71838042Y-82680710D01*
X71852500Y-82680000D01*
X72147500Y-82680000D01*
X72161958Y-82680710D01*
X72161958Y-82680710D01*
G37*
D15*
X72000000Y-83000000D03*
G04 #@! TD*
D10*
G04 #@! TO.C,R13*
G36*
X87161958Y-97680710D02*
X87176276Y-97682834D01*
X87190317Y-97686351D01*
X87203946Y-97691228D01*
X87217031Y-97697417D01*
X87229447Y-97704858D01*
X87241073Y-97713481D01*
X87251798Y-97723202D01*
X87261519Y-97733927D01*
X87270142Y-97745553D01*
X87277583Y-97757969D01*
X87283772Y-97771054D01*
X87288649Y-97784683D01*
X87292166Y-97798724D01*
X87294290Y-97813042D01*
X87295000Y-97827500D01*
X87295000Y-98172500D01*
X87294290Y-98186958D01*
X87292166Y-98201276D01*
X87288649Y-98215317D01*
X87283772Y-98228946D01*
X87277583Y-98242031D01*
X87270142Y-98254447D01*
X87261519Y-98266073D01*
X87251798Y-98276798D01*
X87241073Y-98286519D01*
X87229447Y-98295142D01*
X87217031Y-98302583D01*
X87203946Y-98308772D01*
X87190317Y-98313649D01*
X87176276Y-98317166D01*
X87161958Y-98319290D01*
X87147500Y-98320000D01*
X86852500Y-98320000D01*
X86838042Y-98319290D01*
X86823724Y-98317166D01*
X86809683Y-98313649D01*
X86796054Y-98308772D01*
X86782969Y-98302583D01*
X86770553Y-98295142D01*
X86758927Y-98286519D01*
X86748202Y-98276798D01*
X86738481Y-98266073D01*
X86729858Y-98254447D01*
X86722417Y-98242031D01*
X86716228Y-98228946D01*
X86711351Y-98215317D01*
X86707834Y-98201276D01*
X86705710Y-98186958D01*
X86705000Y-98172500D01*
X86705000Y-97827500D01*
X86705710Y-97813042D01*
X86707834Y-97798724D01*
X86711351Y-97784683D01*
X86716228Y-97771054D01*
X86722417Y-97757969D01*
X86729858Y-97745553D01*
X86738481Y-97733927D01*
X86748202Y-97723202D01*
X86758927Y-97713481D01*
X86770553Y-97704858D01*
X86782969Y-97697417D01*
X86796054Y-97691228D01*
X86809683Y-97686351D01*
X86823724Y-97682834D01*
X86838042Y-97680710D01*
X86852500Y-97680000D01*
X87147500Y-97680000D01*
X87161958Y-97680710D01*
X87161958Y-97680710D01*
G37*
D15*
X87000000Y-98000000D03*
D10*
G36*
X86191958Y-97680710D02*
X86206276Y-97682834D01*
X86220317Y-97686351D01*
X86233946Y-97691228D01*
X86247031Y-97697417D01*
X86259447Y-97704858D01*
X86271073Y-97713481D01*
X86281798Y-97723202D01*
X86291519Y-97733927D01*
X86300142Y-97745553D01*
X86307583Y-97757969D01*
X86313772Y-97771054D01*
X86318649Y-97784683D01*
X86322166Y-97798724D01*
X86324290Y-97813042D01*
X86325000Y-97827500D01*
X86325000Y-98172500D01*
X86324290Y-98186958D01*
X86322166Y-98201276D01*
X86318649Y-98215317D01*
X86313772Y-98228946D01*
X86307583Y-98242031D01*
X86300142Y-98254447D01*
X86291519Y-98266073D01*
X86281798Y-98276798D01*
X86271073Y-98286519D01*
X86259447Y-98295142D01*
X86247031Y-98302583D01*
X86233946Y-98308772D01*
X86220317Y-98313649D01*
X86206276Y-98317166D01*
X86191958Y-98319290D01*
X86177500Y-98320000D01*
X85882500Y-98320000D01*
X85868042Y-98319290D01*
X85853724Y-98317166D01*
X85839683Y-98313649D01*
X85826054Y-98308772D01*
X85812969Y-98302583D01*
X85800553Y-98295142D01*
X85788927Y-98286519D01*
X85778202Y-98276798D01*
X85768481Y-98266073D01*
X85759858Y-98254447D01*
X85752417Y-98242031D01*
X85746228Y-98228946D01*
X85741351Y-98215317D01*
X85737834Y-98201276D01*
X85735710Y-98186958D01*
X85735000Y-98172500D01*
X85735000Y-97827500D01*
X85735710Y-97813042D01*
X85737834Y-97798724D01*
X85741351Y-97784683D01*
X85746228Y-97771054D01*
X85752417Y-97757969D01*
X85759858Y-97745553D01*
X85768481Y-97733927D01*
X85778202Y-97723202D01*
X85788927Y-97713481D01*
X85800553Y-97704858D01*
X85812969Y-97697417D01*
X85826054Y-97691228D01*
X85839683Y-97686351D01*
X85853724Y-97682834D01*
X85868042Y-97680710D01*
X85882500Y-97680000D01*
X86177500Y-97680000D01*
X86191958Y-97680710D01*
X86191958Y-97680710D01*
G37*
D15*
X86030000Y-98000000D03*
G04 #@! TD*
D10*
G04 #@! TO.C,R4*
G36*
X86191958Y-53680710D02*
X86206276Y-53682834D01*
X86220317Y-53686351D01*
X86233946Y-53691228D01*
X86247031Y-53697417D01*
X86259447Y-53704858D01*
X86271073Y-53713481D01*
X86281798Y-53723202D01*
X86291519Y-53733927D01*
X86300142Y-53745553D01*
X86307583Y-53757969D01*
X86313772Y-53771054D01*
X86318649Y-53784683D01*
X86322166Y-53798724D01*
X86324290Y-53813042D01*
X86325000Y-53827500D01*
X86325000Y-54172500D01*
X86324290Y-54186958D01*
X86322166Y-54201276D01*
X86318649Y-54215317D01*
X86313772Y-54228946D01*
X86307583Y-54242031D01*
X86300142Y-54254447D01*
X86291519Y-54266073D01*
X86281798Y-54276798D01*
X86271073Y-54286519D01*
X86259447Y-54295142D01*
X86247031Y-54302583D01*
X86233946Y-54308772D01*
X86220317Y-54313649D01*
X86206276Y-54317166D01*
X86191958Y-54319290D01*
X86177500Y-54320000D01*
X85882500Y-54320000D01*
X85868042Y-54319290D01*
X85853724Y-54317166D01*
X85839683Y-54313649D01*
X85826054Y-54308772D01*
X85812969Y-54302583D01*
X85800553Y-54295142D01*
X85788927Y-54286519D01*
X85778202Y-54276798D01*
X85768481Y-54266073D01*
X85759858Y-54254447D01*
X85752417Y-54242031D01*
X85746228Y-54228946D01*
X85741351Y-54215317D01*
X85737834Y-54201276D01*
X85735710Y-54186958D01*
X85735000Y-54172500D01*
X85735000Y-53827500D01*
X85735710Y-53813042D01*
X85737834Y-53798724D01*
X85741351Y-53784683D01*
X85746228Y-53771054D01*
X85752417Y-53757969D01*
X85759858Y-53745553D01*
X85768481Y-53733927D01*
X85778202Y-53723202D01*
X85788927Y-53713481D01*
X85800553Y-53704858D01*
X85812969Y-53697417D01*
X85826054Y-53691228D01*
X85839683Y-53686351D01*
X85853724Y-53682834D01*
X85868042Y-53680710D01*
X85882500Y-53680000D01*
X86177500Y-53680000D01*
X86191958Y-53680710D01*
X86191958Y-53680710D01*
G37*
D15*
X86030000Y-54000000D03*
D10*
G36*
X87161958Y-53680710D02*
X87176276Y-53682834D01*
X87190317Y-53686351D01*
X87203946Y-53691228D01*
X87217031Y-53697417D01*
X87229447Y-53704858D01*
X87241073Y-53713481D01*
X87251798Y-53723202D01*
X87261519Y-53733927D01*
X87270142Y-53745553D01*
X87277583Y-53757969D01*
X87283772Y-53771054D01*
X87288649Y-53784683D01*
X87292166Y-53798724D01*
X87294290Y-53813042D01*
X87295000Y-53827500D01*
X87295000Y-54172500D01*
X87294290Y-54186958D01*
X87292166Y-54201276D01*
X87288649Y-54215317D01*
X87283772Y-54228946D01*
X87277583Y-54242031D01*
X87270142Y-54254447D01*
X87261519Y-54266073D01*
X87251798Y-54276798D01*
X87241073Y-54286519D01*
X87229447Y-54295142D01*
X87217031Y-54302583D01*
X87203946Y-54308772D01*
X87190317Y-54313649D01*
X87176276Y-54317166D01*
X87161958Y-54319290D01*
X87147500Y-54320000D01*
X86852500Y-54320000D01*
X86838042Y-54319290D01*
X86823724Y-54317166D01*
X86809683Y-54313649D01*
X86796054Y-54308772D01*
X86782969Y-54302583D01*
X86770553Y-54295142D01*
X86758927Y-54286519D01*
X86748202Y-54276798D01*
X86738481Y-54266073D01*
X86729858Y-54254447D01*
X86722417Y-54242031D01*
X86716228Y-54228946D01*
X86711351Y-54215317D01*
X86707834Y-54201276D01*
X86705710Y-54186958D01*
X86705000Y-54172500D01*
X86705000Y-53827500D01*
X86705710Y-53813042D01*
X86707834Y-53798724D01*
X86711351Y-53784683D01*
X86716228Y-53771054D01*
X86722417Y-53757969D01*
X86729858Y-53745553D01*
X86738481Y-53733927D01*
X86748202Y-53723202D01*
X86758927Y-53713481D01*
X86770553Y-53704858D01*
X86782969Y-53697417D01*
X86796054Y-53691228D01*
X86809683Y-53686351D01*
X86823724Y-53682834D01*
X86838042Y-53680710D01*
X86852500Y-53680000D01*
X87147500Y-53680000D01*
X87161958Y-53680710D01*
X87161958Y-53680710D01*
G37*
D15*
X87000000Y-54000000D03*
G04 #@! TD*
D10*
G04 #@! TO.C,R6*
G36*
X101191958Y-67680710D02*
X101206276Y-67682834D01*
X101220317Y-67686351D01*
X101233946Y-67691228D01*
X101247031Y-67697417D01*
X101259447Y-67704858D01*
X101271073Y-67713481D01*
X101281798Y-67723202D01*
X101291519Y-67733927D01*
X101300142Y-67745553D01*
X101307583Y-67757969D01*
X101313772Y-67771054D01*
X101318649Y-67784683D01*
X101322166Y-67798724D01*
X101324290Y-67813042D01*
X101325000Y-67827500D01*
X101325000Y-68172500D01*
X101324290Y-68186958D01*
X101322166Y-68201276D01*
X101318649Y-68215317D01*
X101313772Y-68228946D01*
X101307583Y-68242031D01*
X101300142Y-68254447D01*
X101291519Y-68266073D01*
X101281798Y-68276798D01*
X101271073Y-68286519D01*
X101259447Y-68295142D01*
X101247031Y-68302583D01*
X101233946Y-68308772D01*
X101220317Y-68313649D01*
X101206276Y-68317166D01*
X101191958Y-68319290D01*
X101177500Y-68320000D01*
X100882500Y-68320000D01*
X100868042Y-68319290D01*
X100853724Y-68317166D01*
X100839683Y-68313649D01*
X100826054Y-68308772D01*
X100812969Y-68302583D01*
X100800553Y-68295142D01*
X100788927Y-68286519D01*
X100778202Y-68276798D01*
X100768481Y-68266073D01*
X100759858Y-68254447D01*
X100752417Y-68242031D01*
X100746228Y-68228946D01*
X100741351Y-68215317D01*
X100737834Y-68201276D01*
X100735710Y-68186958D01*
X100735000Y-68172500D01*
X100735000Y-67827500D01*
X100735710Y-67813042D01*
X100737834Y-67798724D01*
X100741351Y-67784683D01*
X100746228Y-67771054D01*
X100752417Y-67757969D01*
X100759858Y-67745553D01*
X100768481Y-67733927D01*
X100778202Y-67723202D01*
X100788927Y-67713481D01*
X100800553Y-67704858D01*
X100812969Y-67697417D01*
X100826054Y-67691228D01*
X100839683Y-67686351D01*
X100853724Y-67682834D01*
X100868042Y-67680710D01*
X100882500Y-67680000D01*
X101177500Y-67680000D01*
X101191958Y-67680710D01*
X101191958Y-67680710D01*
G37*
D15*
X101030000Y-68000000D03*
D10*
G36*
X102161958Y-67680710D02*
X102176276Y-67682834D01*
X102190317Y-67686351D01*
X102203946Y-67691228D01*
X102217031Y-67697417D01*
X102229447Y-67704858D01*
X102241073Y-67713481D01*
X102251798Y-67723202D01*
X102261519Y-67733927D01*
X102270142Y-67745553D01*
X102277583Y-67757969D01*
X102283772Y-67771054D01*
X102288649Y-67784683D01*
X102292166Y-67798724D01*
X102294290Y-67813042D01*
X102295000Y-67827500D01*
X102295000Y-68172500D01*
X102294290Y-68186958D01*
X102292166Y-68201276D01*
X102288649Y-68215317D01*
X102283772Y-68228946D01*
X102277583Y-68242031D01*
X102270142Y-68254447D01*
X102261519Y-68266073D01*
X102251798Y-68276798D01*
X102241073Y-68286519D01*
X102229447Y-68295142D01*
X102217031Y-68302583D01*
X102203946Y-68308772D01*
X102190317Y-68313649D01*
X102176276Y-68317166D01*
X102161958Y-68319290D01*
X102147500Y-68320000D01*
X101852500Y-68320000D01*
X101838042Y-68319290D01*
X101823724Y-68317166D01*
X101809683Y-68313649D01*
X101796054Y-68308772D01*
X101782969Y-68302583D01*
X101770553Y-68295142D01*
X101758927Y-68286519D01*
X101748202Y-68276798D01*
X101738481Y-68266073D01*
X101729858Y-68254447D01*
X101722417Y-68242031D01*
X101716228Y-68228946D01*
X101711351Y-68215317D01*
X101707834Y-68201276D01*
X101705710Y-68186958D01*
X101705000Y-68172500D01*
X101705000Y-67827500D01*
X101705710Y-67813042D01*
X101707834Y-67798724D01*
X101711351Y-67784683D01*
X101716228Y-67771054D01*
X101722417Y-67757969D01*
X101729858Y-67745553D01*
X101738481Y-67733927D01*
X101748202Y-67723202D01*
X101758927Y-67713481D01*
X101770553Y-67704858D01*
X101782969Y-67697417D01*
X101796054Y-67691228D01*
X101809683Y-67686351D01*
X101823724Y-67682834D01*
X101838042Y-67680710D01*
X101852500Y-67680000D01*
X102147500Y-67680000D01*
X102161958Y-67680710D01*
X102161958Y-67680710D01*
G37*
D15*
X102000000Y-68000000D03*
G04 #@! TD*
D10*
G04 #@! TO.C,R5*
G36*
X72161958Y-53680710D02*
X72176276Y-53682834D01*
X72190317Y-53686351D01*
X72203946Y-53691228D01*
X72217031Y-53697417D01*
X72229447Y-53704858D01*
X72241073Y-53713481D01*
X72251798Y-53723202D01*
X72261519Y-53733927D01*
X72270142Y-53745553D01*
X72277583Y-53757969D01*
X72283772Y-53771054D01*
X72288649Y-53784683D01*
X72292166Y-53798724D01*
X72294290Y-53813042D01*
X72295000Y-53827500D01*
X72295000Y-54172500D01*
X72294290Y-54186958D01*
X72292166Y-54201276D01*
X72288649Y-54215317D01*
X72283772Y-54228946D01*
X72277583Y-54242031D01*
X72270142Y-54254447D01*
X72261519Y-54266073D01*
X72251798Y-54276798D01*
X72241073Y-54286519D01*
X72229447Y-54295142D01*
X72217031Y-54302583D01*
X72203946Y-54308772D01*
X72190317Y-54313649D01*
X72176276Y-54317166D01*
X72161958Y-54319290D01*
X72147500Y-54320000D01*
X71852500Y-54320000D01*
X71838042Y-54319290D01*
X71823724Y-54317166D01*
X71809683Y-54313649D01*
X71796054Y-54308772D01*
X71782969Y-54302583D01*
X71770553Y-54295142D01*
X71758927Y-54286519D01*
X71748202Y-54276798D01*
X71738481Y-54266073D01*
X71729858Y-54254447D01*
X71722417Y-54242031D01*
X71716228Y-54228946D01*
X71711351Y-54215317D01*
X71707834Y-54201276D01*
X71705710Y-54186958D01*
X71705000Y-54172500D01*
X71705000Y-53827500D01*
X71705710Y-53813042D01*
X71707834Y-53798724D01*
X71711351Y-53784683D01*
X71716228Y-53771054D01*
X71722417Y-53757969D01*
X71729858Y-53745553D01*
X71738481Y-53733927D01*
X71748202Y-53723202D01*
X71758927Y-53713481D01*
X71770553Y-53704858D01*
X71782969Y-53697417D01*
X71796054Y-53691228D01*
X71809683Y-53686351D01*
X71823724Y-53682834D01*
X71838042Y-53680710D01*
X71852500Y-53680000D01*
X72147500Y-53680000D01*
X72161958Y-53680710D01*
X72161958Y-53680710D01*
G37*
D15*
X72000000Y-54000000D03*
D10*
G36*
X71191958Y-53680710D02*
X71206276Y-53682834D01*
X71220317Y-53686351D01*
X71233946Y-53691228D01*
X71247031Y-53697417D01*
X71259447Y-53704858D01*
X71271073Y-53713481D01*
X71281798Y-53723202D01*
X71291519Y-53733927D01*
X71300142Y-53745553D01*
X71307583Y-53757969D01*
X71313772Y-53771054D01*
X71318649Y-53784683D01*
X71322166Y-53798724D01*
X71324290Y-53813042D01*
X71325000Y-53827500D01*
X71325000Y-54172500D01*
X71324290Y-54186958D01*
X71322166Y-54201276D01*
X71318649Y-54215317D01*
X71313772Y-54228946D01*
X71307583Y-54242031D01*
X71300142Y-54254447D01*
X71291519Y-54266073D01*
X71281798Y-54276798D01*
X71271073Y-54286519D01*
X71259447Y-54295142D01*
X71247031Y-54302583D01*
X71233946Y-54308772D01*
X71220317Y-54313649D01*
X71206276Y-54317166D01*
X71191958Y-54319290D01*
X71177500Y-54320000D01*
X70882500Y-54320000D01*
X70868042Y-54319290D01*
X70853724Y-54317166D01*
X70839683Y-54313649D01*
X70826054Y-54308772D01*
X70812969Y-54302583D01*
X70800553Y-54295142D01*
X70788927Y-54286519D01*
X70778202Y-54276798D01*
X70768481Y-54266073D01*
X70759858Y-54254447D01*
X70752417Y-54242031D01*
X70746228Y-54228946D01*
X70741351Y-54215317D01*
X70737834Y-54201276D01*
X70735710Y-54186958D01*
X70735000Y-54172500D01*
X70735000Y-53827500D01*
X70735710Y-53813042D01*
X70737834Y-53798724D01*
X70741351Y-53784683D01*
X70746228Y-53771054D01*
X70752417Y-53757969D01*
X70759858Y-53745553D01*
X70768481Y-53733927D01*
X70778202Y-53723202D01*
X70788927Y-53713481D01*
X70800553Y-53704858D01*
X70812969Y-53697417D01*
X70826054Y-53691228D01*
X70839683Y-53686351D01*
X70853724Y-53682834D01*
X70868042Y-53680710D01*
X70882500Y-53680000D01*
X71177500Y-53680000D01*
X71191958Y-53680710D01*
X71191958Y-53680710D01*
G37*
D15*
X71030000Y-54000000D03*
G04 #@! TD*
D10*
G04 #@! TO.C,R9*
G36*
X101191958Y-82680710D02*
X101206276Y-82682834D01*
X101220317Y-82686351D01*
X101233946Y-82691228D01*
X101247031Y-82697417D01*
X101259447Y-82704858D01*
X101271073Y-82713481D01*
X101281798Y-82723202D01*
X101291519Y-82733927D01*
X101300142Y-82745553D01*
X101307583Y-82757969D01*
X101313772Y-82771054D01*
X101318649Y-82784683D01*
X101322166Y-82798724D01*
X101324290Y-82813042D01*
X101325000Y-82827500D01*
X101325000Y-83172500D01*
X101324290Y-83186958D01*
X101322166Y-83201276D01*
X101318649Y-83215317D01*
X101313772Y-83228946D01*
X101307583Y-83242031D01*
X101300142Y-83254447D01*
X101291519Y-83266073D01*
X101281798Y-83276798D01*
X101271073Y-83286519D01*
X101259447Y-83295142D01*
X101247031Y-83302583D01*
X101233946Y-83308772D01*
X101220317Y-83313649D01*
X101206276Y-83317166D01*
X101191958Y-83319290D01*
X101177500Y-83320000D01*
X100882500Y-83320000D01*
X100868042Y-83319290D01*
X100853724Y-83317166D01*
X100839683Y-83313649D01*
X100826054Y-83308772D01*
X100812969Y-83302583D01*
X100800553Y-83295142D01*
X100788927Y-83286519D01*
X100778202Y-83276798D01*
X100768481Y-83266073D01*
X100759858Y-83254447D01*
X100752417Y-83242031D01*
X100746228Y-83228946D01*
X100741351Y-83215317D01*
X100737834Y-83201276D01*
X100735710Y-83186958D01*
X100735000Y-83172500D01*
X100735000Y-82827500D01*
X100735710Y-82813042D01*
X100737834Y-82798724D01*
X100741351Y-82784683D01*
X100746228Y-82771054D01*
X100752417Y-82757969D01*
X100759858Y-82745553D01*
X100768481Y-82733927D01*
X100778202Y-82723202D01*
X100788927Y-82713481D01*
X100800553Y-82704858D01*
X100812969Y-82697417D01*
X100826054Y-82691228D01*
X100839683Y-82686351D01*
X100853724Y-82682834D01*
X100868042Y-82680710D01*
X100882500Y-82680000D01*
X101177500Y-82680000D01*
X101191958Y-82680710D01*
X101191958Y-82680710D01*
G37*
D15*
X101030000Y-83000000D03*
D10*
G36*
X102161958Y-82680710D02*
X102176276Y-82682834D01*
X102190317Y-82686351D01*
X102203946Y-82691228D01*
X102217031Y-82697417D01*
X102229447Y-82704858D01*
X102241073Y-82713481D01*
X102251798Y-82723202D01*
X102261519Y-82733927D01*
X102270142Y-82745553D01*
X102277583Y-82757969D01*
X102283772Y-82771054D01*
X102288649Y-82784683D01*
X102292166Y-82798724D01*
X102294290Y-82813042D01*
X102295000Y-82827500D01*
X102295000Y-83172500D01*
X102294290Y-83186958D01*
X102292166Y-83201276D01*
X102288649Y-83215317D01*
X102283772Y-83228946D01*
X102277583Y-83242031D01*
X102270142Y-83254447D01*
X102261519Y-83266073D01*
X102251798Y-83276798D01*
X102241073Y-83286519D01*
X102229447Y-83295142D01*
X102217031Y-83302583D01*
X102203946Y-83308772D01*
X102190317Y-83313649D01*
X102176276Y-83317166D01*
X102161958Y-83319290D01*
X102147500Y-83320000D01*
X101852500Y-83320000D01*
X101838042Y-83319290D01*
X101823724Y-83317166D01*
X101809683Y-83313649D01*
X101796054Y-83308772D01*
X101782969Y-83302583D01*
X101770553Y-83295142D01*
X101758927Y-83286519D01*
X101748202Y-83276798D01*
X101738481Y-83266073D01*
X101729858Y-83254447D01*
X101722417Y-83242031D01*
X101716228Y-83228946D01*
X101711351Y-83215317D01*
X101707834Y-83201276D01*
X101705710Y-83186958D01*
X101705000Y-83172500D01*
X101705000Y-82827500D01*
X101705710Y-82813042D01*
X101707834Y-82798724D01*
X101711351Y-82784683D01*
X101716228Y-82771054D01*
X101722417Y-82757969D01*
X101729858Y-82745553D01*
X101738481Y-82733927D01*
X101748202Y-82723202D01*
X101758927Y-82713481D01*
X101770553Y-82704858D01*
X101782969Y-82697417D01*
X101796054Y-82691228D01*
X101809683Y-82686351D01*
X101823724Y-82682834D01*
X101838042Y-82680710D01*
X101852500Y-82680000D01*
X102147500Y-82680000D01*
X102161958Y-82680710D01*
X102161958Y-82680710D01*
G37*
D15*
X102000000Y-83000000D03*
G04 #@! TD*
D10*
G04 #@! TO.C,R10*
G36*
X86191958Y-82680710D02*
X86206276Y-82682834D01*
X86220317Y-82686351D01*
X86233946Y-82691228D01*
X86247031Y-82697417D01*
X86259447Y-82704858D01*
X86271073Y-82713481D01*
X86281798Y-82723202D01*
X86291519Y-82733927D01*
X86300142Y-82745553D01*
X86307583Y-82757969D01*
X86313772Y-82771054D01*
X86318649Y-82784683D01*
X86322166Y-82798724D01*
X86324290Y-82813042D01*
X86325000Y-82827500D01*
X86325000Y-83172500D01*
X86324290Y-83186958D01*
X86322166Y-83201276D01*
X86318649Y-83215317D01*
X86313772Y-83228946D01*
X86307583Y-83242031D01*
X86300142Y-83254447D01*
X86291519Y-83266073D01*
X86281798Y-83276798D01*
X86271073Y-83286519D01*
X86259447Y-83295142D01*
X86247031Y-83302583D01*
X86233946Y-83308772D01*
X86220317Y-83313649D01*
X86206276Y-83317166D01*
X86191958Y-83319290D01*
X86177500Y-83320000D01*
X85882500Y-83320000D01*
X85868042Y-83319290D01*
X85853724Y-83317166D01*
X85839683Y-83313649D01*
X85826054Y-83308772D01*
X85812969Y-83302583D01*
X85800553Y-83295142D01*
X85788927Y-83286519D01*
X85778202Y-83276798D01*
X85768481Y-83266073D01*
X85759858Y-83254447D01*
X85752417Y-83242031D01*
X85746228Y-83228946D01*
X85741351Y-83215317D01*
X85737834Y-83201276D01*
X85735710Y-83186958D01*
X85735000Y-83172500D01*
X85735000Y-82827500D01*
X85735710Y-82813042D01*
X85737834Y-82798724D01*
X85741351Y-82784683D01*
X85746228Y-82771054D01*
X85752417Y-82757969D01*
X85759858Y-82745553D01*
X85768481Y-82733927D01*
X85778202Y-82723202D01*
X85788927Y-82713481D01*
X85800553Y-82704858D01*
X85812969Y-82697417D01*
X85826054Y-82691228D01*
X85839683Y-82686351D01*
X85853724Y-82682834D01*
X85868042Y-82680710D01*
X85882500Y-82680000D01*
X86177500Y-82680000D01*
X86191958Y-82680710D01*
X86191958Y-82680710D01*
G37*
D15*
X86030000Y-83000000D03*
D10*
G36*
X87161958Y-82680710D02*
X87176276Y-82682834D01*
X87190317Y-82686351D01*
X87203946Y-82691228D01*
X87217031Y-82697417D01*
X87229447Y-82704858D01*
X87241073Y-82713481D01*
X87251798Y-82723202D01*
X87261519Y-82733927D01*
X87270142Y-82745553D01*
X87277583Y-82757969D01*
X87283772Y-82771054D01*
X87288649Y-82784683D01*
X87292166Y-82798724D01*
X87294290Y-82813042D01*
X87295000Y-82827500D01*
X87295000Y-83172500D01*
X87294290Y-83186958D01*
X87292166Y-83201276D01*
X87288649Y-83215317D01*
X87283772Y-83228946D01*
X87277583Y-83242031D01*
X87270142Y-83254447D01*
X87261519Y-83266073D01*
X87251798Y-83276798D01*
X87241073Y-83286519D01*
X87229447Y-83295142D01*
X87217031Y-83302583D01*
X87203946Y-83308772D01*
X87190317Y-83313649D01*
X87176276Y-83317166D01*
X87161958Y-83319290D01*
X87147500Y-83320000D01*
X86852500Y-83320000D01*
X86838042Y-83319290D01*
X86823724Y-83317166D01*
X86809683Y-83313649D01*
X86796054Y-83308772D01*
X86782969Y-83302583D01*
X86770553Y-83295142D01*
X86758927Y-83286519D01*
X86748202Y-83276798D01*
X86738481Y-83266073D01*
X86729858Y-83254447D01*
X86722417Y-83242031D01*
X86716228Y-83228946D01*
X86711351Y-83215317D01*
X86707834Y-83201276D01*
X86705710Y-83186958D01*
X86705000Y-83172500D01*
X86705000Y-82827500D01*
X86705710Y-82813042D01*
X86707834Y-82798724D01*
X86711351Y-82784683D01*
X86716228Y-82771054D01*
X86722417Y-82757969D01*
X86729858Y-82745553D01*
X86738481Y-82733927D01*
X86748202Y-82723202D01*
X86758927Y-82713481D01*
X86770553Y-82704858D01*
X86782969Y-82697417D01*
X86796054Y-82691228D01*
X86809683Y-82686351D01*
X86823724Y-82682834D01*
X86838042Y-82680710D01*
X86852500Y-82680000D01*
X87147500Y-82680000D01*
X87161958Y-82680710D01*
X87161958Y-82680710D01*
G37*
D15*
X87000000Y-83000000D03*
G04 #@! TD*
D10*
G04 #@! TO.C,R7*
G36*
X87161958Y-67680710D02*
X87176276Y-67682834D01*
X87190317Y-67686351D01*
X87203946Y-67691228D01*
X87217031Y-67697417D01*
X87229447Y-67704858D01*
X87241073Y-67713481D01*
X87251798Y-67723202D01*
X87261519Y-67733927D01*
X87270142Y-67745553D01*
X87277583Y-67757969D01*
X87283772Y-67771054D01*
X87288649Y-67784683D01*
X87292166Y-67798724D01*
X87294290Y-67813042D01*
X87295000Y-67827500D01*
X87295000Y-68172500D01*
X87294290Y-68186958D01*
X87292166Y-68201276D01*
X87288649Y-68215317D01*
X87283772Y-68228946D01*
X87277583Y-68242031D01*
X87270142Y-68254447D01*
X87261519Y-68266073D01*
X87251798Y-68276798D01*
X87241073Y-68286519D01*
X87229447Y-68295142D01*
X87217031Y-68302583D01*
X87203946Y-68308772D01*
X87190317Y-68313649D01*
X87176276Y-68317166D01*
X87161958Y-68319290D01*
X87147500Y-68320000D01*
X86852500Y-68320000D01*
X86838042Y-68319290D01*
X86823724Y-68317166D01*
X86809683Y-68313649D01*
X86796054Y-68308772D01*
X86782969Y-68302583D01*
X86770553Y-68295142D01*
X86758927Y-68286519D01*
X86748202Y-68276798D01*
X86738481Y-68266073D01*
X86729858Y-68254447D01*
X86722417Y-68242031D01*
X86716228Y-68228946D01*
X86711351Y-68215317D01*
X86707834Y-68201276D01*
X86705710Y-68186958D01*
X86705000Y-68172500D01*
X86705000Y-67827500D01*
X86705710Y-67813042D01*
X86707834Y-67798724D01*
X86711351Y-67784683D01*
X86716228Y-67771054D01*
X86722417Y-67757969D01*
X86729858Y-67745553D01*
X86738481Y-67733927D01*
X86748202Y-67723202D01*
X86758927Y-67713481D01*
X86770553Y-67704858D01*
X86782969Y-67697417D01*
X86796054Y-67691228D01*
X86809683Y-67686351D01*
X86823724Y-67682834D01*
X86838042Y-67680710D01*
X86852500Y-67680000D01*
X87147500Y-67680000D01*
X87161958Y-67680710D01*
X87161958Y-67680710D01*
G37*
D15*
X87000000Y-68000000D03*
D10*
G36*
X86191958Y-67680710D02*
X86206276Y-67682834D01*
X86220317Y-67686351D01*
X86233946Y-67691228D01*
X86247031Y-67697417D01*
X86259447Y-67704858D01*
X86271073Y-67713481D01*
X86281798Y-67723202D01*
X86291519Y-67733927D01*
X86300142Y-67745553D01*
X86307583Y-67757969D01*
X86313772Y-67771054D01*
X86318649Y-67784683D01*
X86322166Y-67798724D01*
X86324290Y-67813042D01*
X86325000Y-67827500D01*
X86325000Y-68172500D01*
X86324290Y-68186958D01*
X86322166Y-68201276D01*
X86318649Y-68215317D01*
X86313772Y-68228946D01*
X86307583Y-68242031D01*
X86300142Y-68254447D01*
X86291519Y-68266073D01*
X86281798Y-68276798D01*
X86271073Y-68286519D01*
X86259447Y-68295142D01*
X86247031Y-68302583D01*
X86233946Y-68308772D01*
X86220317Y-68313649D01*
X86206276Y-68317166D01*
X86191958Y-68319290D01*
X86177500Y-68320000D01*
X85882500Y-68320000D01*
X85868042Y-68319290D01*
X85853724Y-68317166D01*
X85839683Y-68313649D01*
X85826054Y-68308772D01*
X85812969Y-68302583D01*
X85800553Y-68295142D01*
X85788927Y-68286519D01*
X85778202Y-68276798D01*
X85768481Y-68266073D01*
X85759858Y-68254447D01*
X85752417Y-68242031D01*
X85746228Y-68228946D01*
X85741351Y-68215317D01*
X85737834Y-68201276D01*
X85735710Y-68186958D01*
X85735000Y-68172500D01*
X85735000Y-67827500D01*
X85735710Y-67813042D01*
X85737834Y-67798724D01*
X85741351Y-67784683D01*
X85746228Y-67771054D01*
X85752417Y-67757969D01*
X85759858Y-67745553D01*
X85768481Y-67733927D01*
X85778202Y-67723202D01*
X85788927Y-67713481D01*
X85800553Y-67704858D01*
X85812969Y-67697417D01*
X85826054Y-67691228D01*
X85839683Y-67686351D01*
X85853724Y-67682834D01*
X85868042Y-67680710D01*
X85882500Y-67680000D01*
X86177500Y-67680000D01*
X86191958Y-67680710D01*
X86191958Y-67680710D01*
G37*
D15*
X86030000Y-68000000D03*
G04 #@! TD*
D10*
G04 #@! TO.C,R8*
G36*
X71191958Y-67680710D02*
X71206276Y-67682834D01*
X71220317Y-67686351D01*
X71233946Y-67691228D01*
X71247031Y-67697417D01*
X71259447Y-67704858D01*
X71271073Y-67713481D01*
X71281798Y-67723202D01*
X71291519Y-67733927D01*
X71300142Y-67745553D01*
X71307583Y-67757969D01*
X71313772Y-67771054D01*
X71318649Y-67784683D01*
X71322166Y-67798724D01*
X71324290Y-67813042D01*
X71325000Y-67827500D01*
X71325000Y-68172500D01*
X71324290Y-68186958D01*
X71322166Y-68201276D01*
X71318649Y-68215317D01*
X71313772Y-68228946D01*
X71307583Y-68242031D01*
X71300142Y-68254447D01*
X71291519Y-68266073D01*
X71281798Y-68276798D01*
X71271073Y-68286519D01*
X71259447Y-68295142D01*
X71247031Y-68302583D01*
X71233946Y-68308772D01*
X71220317Y-68313649D01*
X71206276Y-68317166D01*
X71191958Y-68319290D01*
X71177500Y-68320000D01*
X70882500Y-68320000D01*
X70868042Y-68319290D01*
X70853724Y-68317166D01*
X70839683Y-68313649D01*
X70826054Y-68308772D01*
X70812969Y-68302583D01*
X70800553Y-68295142D01*
X70788927Y-68286519D01*
X70778202Y-68276798D01*
X70768481Y-68266073D01*
X70759858Y-68254447D01*
X70752417Y-68242031D01*
X70746228Y-68228946D01*
X70741351Y-68215317D01*
X70737834Y-68201276D01*
X70735710Y-68186958D01*
X70735000Y-68172500D01*
X70735000Y-67827500D01*
X70735710Y-67813042D01*
X70737834Y-67798724D01*
X70741351Y-67784683D01*
X70746228Y-67771054D01*
X70752417Y-67757969D01*
X70759858Y-67745553D01*
X70768481Y-67733927D01*
X70778202Y-67723202D01*
X70788927Y-67713481D01*
X70800553Y-67704858D01*
X70812969Y-67697417D01*
X70826054Y-67691228D01*
X70839683Y-67686351D01*
X70853724Y-67682834D01*
X70868042Y-67680710D01*
X70882500Y-67680000D01*
X71177500Y-67680000D01*
X71191958Y-67680710D01*
X71191958Y-67680710D01*
G37*
D15*
X71030000Y-68000000D03*
D10*
G36*
X72161958Y-67680710D02*
X72176276Y-67682834D01*
X72190317Y-67686351D01*
X72203946Y-67691228D01*
X72217031Y-67697417D01*
X72229447Y-67704858D01*
X72241073Y-67713481D01*
X72251798Y-67723202D01*
X72261519Y-67733927D01*
X72270142Y-67745553D01*
X72277583Y-67757969D01*
X72283772Y-67771054D01*
X72288649Y-67784683D01*
X72292166Y-67798724D01*
X72294290Y-67813042D01*
X72295000Y-67827500D01*
X72295000Y-68172500D01*
X72294290Y-68186958D01*
X72292166Y-68201276D01*
X72288649Y-68215317D01*
X72283772Y-68228946D01*
X72277583Y-68242031D01*
X72270142Y-68254447D01*
X72261519Y-68266073D01*
X72251798Y-68276798D01*
X72241073Y-68286519D01*
X72229447Y-68295142D01*
X72217031Y-68302583D01*
X72203946Y-68308772D01*
X72190317Y-68313649D01*
X72176276Y-68317166D01*
X72161958Y-68319290D01*
X72147500Y-68320000D01*
X71852500Y-68320000D01*
X71838042Y-68319290D01*
X71823724Y-68317166D01*
X71809683Y-68313649D01*
X71796054Y-68308772D01*
X71782969Y-68302583D01*
X71770553Y-68295142D01*
X71758927Y-68286519D01*
X71748202Y-68276798D01*
X71738481Y-68266073D01*
X71729858Y-68254447D01*
X71722417Y-68242031D01*
X71716228Y-68228946D01*
X71711351Y-68215317D01*
X71707834Y-68201276D01*
X71705710Y-68186958D01*
X71705000Y-68172500D01*
X71705000Y-67827500D01*
X71705710Y-67813042D01*
X71707834Y-67798724D01*
X71711351Y-67784683D01*
X71716228Y-67771054D01*
X71722417Y-67757969D01*
X71729858Y-67745553D01*
X71738481Y-67733927D01*
X71748202Y-67723202D01*
X71758927Y-67713481D01*
X71770553Y-67704858D01*
X71782969Y-67697417D01*
X71796054Y-67691228D01*
X71809683Y-67686351D01*
X71823724Y-67682834D01*
X71838042Y-67680710D01*
X71852500Y-67680000D01*
X72147500Y-67680000D01*
X72161958Y-67680710D01*
X72161958Y-67680710D01*
G37*
D15*
X72000000Y-68000000D03*
G04 #@! TD*
D10*
G04 #@! TO.C,R34*
G36*
X61665191Y-27526053D02*
X61686426Y-27529203D01*
X61707250Y-27534419D01*
X61727462Y-27541651D01*
X61746868Y-27550830D01*
X61765281Y-27561866D01*
X61782524Y-27574654D01*
X61798430Y-27589070D01*
X61812846Y-27604976D01*
X61825634Y-27622219D01*
X61836670Y-27640632D01*
X61845849Y-27660038D01*
X61853081Y-27680250D01*
X61858297Y-27701074D01*
X61861447Y-27722309D01*
X61862500Y-27743750D01*
X61862500Y-28256250D01*
X61861447Y-28277691D01*
X61858297Y-28298926D01*
X61853081Y-28319750D01*
X61845849Y-28339962D01*
X61836670Y-28359368D01*
X61825634Y-28377781D01*
X61812846Y-28395024D01*
X61798430Y-28410930D01*
X61782524Y-28425346D01*
X61765281Y-28438134D01*
X61746868Y-28449170D01*
X61727462Y-28458349D01*
X61707250Y-28465581D01*
X61686426Y-28470797D01*
X61665191Y-28473947D01*
X61643750Y-28475000D01*
X61206250Y-28475000D01*
X61184809Y-28473947D01*
X61163574Y-28470797D01*
X61142750Y-28465581D01*
X61122538Y-28458349D01*
X61103132Y-28449170D01*
X61084719Y-28438134D01*
X61067476Y-28425346D01*
X61051570Y-28410930D01*
X61037154Y-28395024D01*
X61024366Y-28377781D01*
X61013330Y-28359368D01*
X61004151Y-28339962D01*
X60996919Y-28319750D01*
X60991703Y-28298926D01*
X60988553Y-28277691D01*
X60987500Y-28256250D01*
X60987500Y-27743750D01*
X60988553Y-27722309D01*
X60991703Y-27701074D01*
X60996919Y-27680250D01*
X61004151Y-27660038D01*
X61013330Y-27640632D01*
X61024366Y-27622219D01*
X61037154Y-27604976D01*
X61051570Y-27589070D01*
X61067476Y-27574654D01*
X61084719Y-27561866D01*
X61103132Y-27550830D01*
X61122538Y-27541651D01*
X61142750Y-27534419D01*
X61163574Y-27529203D01*
X61184809Y-27526053D01*
X61206250Y-27525000D01*
X61643750Y-27525000D01*
X61665191Y-27526053D01*
X61665191Y-27526053D01*
G37*
D14*
X61425000Y-28000000D03*
D10*
G36*
X63240191Y-27526053D02*
X63261426Y-27529203D01*
X63282250Y-27534419D01*
X63302462Y-27541651D01*
X63321868Y-27550830D01*
X63340281Y-27561866D01*
X63357524Y-27574654D01*
X63373430Y-27589070D01*
X63387846Y-27604976D01*
X63400634Y-27622219D01*
X63411670Y-27640632D01*
X63420849Y-27660038D01*
X63428081Y-27680250D01*
X63433297Y-27701074D01*
X63436447Y-27722309D01*
X63437500Y-27743750D01*
X63437500Y-28256250D01*
X63436447Y-28277691D01*
X63433297Y-28298926D01*
X63428081Y-28319750D01*
X63420849Y-28339962D01*
X63411670Y-28359368D01*
X63400634Y-28377781D01*
X63387846Y-28395024D01*
X63373430Y-28410930D01*
X63357524Y-28425346D01*
X63340281Y-28438134D01*
X63321868Y-28449170D01*
X63302462Y-28458349D01*
X63282250Y-28465581D01*
X63261426Y-28470797D01*
X63240191Y-28473947D01*
X63218750Y-28475000D01*
X62781250Y-28475000D01*
X62759809Y-28473947D01*
X62738574Y-28470797D01*
X62717750Y-28465581D01*
X62697538Y-28458349D01*
X62678132Y-28449170D01*
X62659719Y-28438134D01*
X62642476Y-28425346D01*
X62626570Y-28410930D01*
X62612154Y-28395024D01*
X62599366Y-28377781D01*
X62588330Y-28359368D01*
X62579151Y-28339962D01*
X62571919Y-28319750D01*
X62566703Y-28298926D01*
X62563553Y-28277691D01*
X62562500Y-28256250D01*
X62562500Y-27743750D01*
X62563553Y-27722309D01*
X62566703Y-27701074D01*
X62571919Y-27680250D01*
X62579151Y-27660038D01*
X62588330Y-27640632D01*
X62599366Y-27622219D01*
X62612154Y-27604976D01*
X62626570Y-27589070D01*
X62642476Y-27574654D01*
X62659719Y-27561866D01*
X62678132Y-27550830D01*
X62697538Y-27541651D01*
X62717750Y-27534419D01*
X62738574Y-27529203D01*
X62759809Y-27526053D01*
X62781250Y-27525000D01*
X63218750Y-27525000D01*
X63240191Y-27526053D01*
X63240191Y-27526053D01*
G37*
D14*
X63000000Y-28000000D03*
G04 #@! TD*
D10*
G04 #@! TO.C,R33*
G36*
X68646958Y-26680710D02*
X68661276Y-26682834D01*
X68675317Y-26686351D01*
X68688946Y-26691228D01*
X68702031Y-26697417D01*
X68714447Y-26704858D01*
X68726073Y-26713481D01*
X68736798Y-26723202D01*
X68746519Y-26733927D01*
X68755142Y-26745553D01*
X68762583Y-26757969D01*
X68768772Y-26771054D01*
X68773649Y-26784683D01*
X68777166Y-26798724D01*
X68779290Y-26813042D01*
X68780000Y-26827500D01*
X68780000Y-27172500D01*
X68779290Y-27186958D01*
X68777166Y-27201276D01*
X68773649Y-27215317D01*
X68768772Y-27228946D01*
X68762583Y-27242031D01*
X68755142Y-27254447D01*
X68746519Y-27266073D01*
X68736798Y-27276798D01*
X68726073Y-27286519D01*
X68714447Y-27295142D01*
X68702031Y-27302583D01*
X68688946Y-27308772D01*
X68675317Y-27313649D01*
X68661276Y-27317166D01*
X68646958Y-27319290D01*
X68632500Y-27320000D01*
X68337500Y-27320000D01*
X68323042Y-27319290D01*
X68308724Y-27317166D01*
X68294683Y-27313649D01*
X68281054Y-27308772D01*
X68267969Y-27302583D01*
X68255553Y-27295142D01*
X68243927Y-27286519D01*
X68233202Y-27276798D01*
X68223481Y-27266073D01*
X68214858Y-27254447D01*
X68207417Y-27242031D01*
X68201228Y-27228946D01*
X68196351Y-27215317D01*
X68192834Y-27201276D01*
X68190710Y-27186958D01*
X68190000Y-27172500D01*
X68190000Y-26827500D01*
X68190710Y-26813042D01*
X68192834Y-26798724D01*
X68196351Y-26784683D01*
X68201228Y-26771054D01*
X68207417Y-26757969D01*
X68214858Y-26745553D01*
X68223481Y-26733927D01*
X68233202Y-26723202D01*
X68243927Y-26713481D01*
X68255553Y-26704858D01*
X68267969Y-26697417D01*
X68281054Y-26691228D01*
X68294683Y-26686351D01*
X68308724Y-26682834D01*
X68323042Y-26680710D01*
X68337500Y-26680000D01*
X68632500Y-26680000D01*
X68646958Y-26680710D01*
X68646958Y-26680710D01*
G37*
D15*
X68485000Y-27000000D03*
D10*
G36*
X67676958Y-26680710D02*
X67691276Y-26682834D01*
X67705317Y-26686351D01*
X67718946Y-26691228D01*
X67732031Y-26697417D01*
X67744447Y-26704858D01*
X67756073Y-26713481D01*
X67766798Y-26723202D01*
X67776519Y-26733927D01*
X67785142Y-26745553D01*
X67792583Y-26757969D01*
X67798772Y-26771054D01*
X67803649Y-26784683D01*
X67807166Y-26798724D01*
X67809290Y-26813042D01*
X67810000Y-26827500D01*
X67810000Y-27172500D01*
X67809290Y-27186958D01*
X67807166Y-27201276D01*
X67803649Y-27215317D01*
X67798772Y-27228946D01*
X67792583Y-27242031D01*
X67785142Y-27254447D01*
X67776519Y-27266073D01*
X67766798Y-27276798D01*
X67756073Y-27286519D01*
X67744447Y-27295142D01*
X67732031Y-27302583D01*
X67718946Y-27308772D01*
X67705317Y-27313649D01*
X67691276Y-27317166D01*
X67676958Y-27319290D01*
X67662500Y-27320000D01*
X67367500Y-27320000D01*
X67353042Y-27319290D01*
X67338724Y-27317166D01*
X67324683Y-27313649D01*
X67311054Y-27308772D01*
X67297969Y-27302583D01*
X67285553Y-27295142D01*
X67273927Y-27286519D01*
X67263202Y-27276798D01*
X67253481Y-27266073D01*
X67244858Y-27254447D01*
X67237417Y-27242031D01*
X67231228Y-27228946D01*
X67226351Y-27215317D01*
X67222834Y-27201276D01*
X67220710Y-27186958D01*
X67220000Y-27172500D01*
X67220000Y-26827500D01*
X67220710Y-26813042D01*
X67222834Y-26798724D01*
X67226351Y-26784683D01*
X67231228Y-26771054D01*
X67237417Y-26757969D01*
X67244858Y-26745553D01*
X67253481Y-26733927D01*
X67263202Y-26723202D01*
X67273927Y-26713481D01*
X67285553Y-26704858D01*
X67297969Y-26697417D01*
X67311054Y-26691228D01*
X67324683Y-26686351D01*
X67338724Y-26682834D01*
X67353042Y-26680710D01*
X67367500Y-26680000D01*
X67662500Y-26680000D01*
X67676958Y-26680710D01*
X67676958Y-26680710D01*
G37*
D15*
X67515000Y-27000000D03*
G04 #@! TD*
D10*
G04 #@! TO.C,R29*
G36*
X87161958Y-34680710D02*
X87176276Y-34682834D01*
X87190317Y-34686351D01*
X87203946Y-34691228D01*
X87217031Y-34697417D01*
X87229447Y-34704858D01*
X87241073Y-34713481D01*
X87251798Y-34723202D01*
X87261519Y-34733927D01*
X87270142Y-34745553D01*
X87277583Y-34757969D01*
X87283772Y-34771054D01*
X87288649Y-34784683D01*
X87292166Y-34798724D01*
X87294290Y-34813042D01*
X87295000Y-34827500D01*
X87295000Y-35172500D01*
X87294290Y-35186958D01*
X87292166Y-35201276D01*
X87288649Y-35215317D01*
X87283772Y-35228946D01*
X87277583Y-35242031D01*
X87270142Y-35254447D01*
X87261519Y-35266073D01*
X87251798Y-35276798D01*
X87241073Y-35286519D01*
X87229447Y-35295142D01*
X87217031Y-35302583D01*
X87203946Y-35308772D01*
X87190317Y-35313649D01*
X87176276Y-35317166D01*
X87161958Y-35319290D01*
X87147500Y-35320000D01*
X86852500Y-35320000D01*
X86838042Y-35319290D01*
X86823724Y-35317166D01*
X86809683Y-35313649D01*
X86796054Y-35308772D01*
X86782969Y-35302583D01*
X86770553Y-35295142D01*
X86758927Y-35286519D01*
X86748202Y-35276798D01*
X86738481Y-35266073D01*
X86729858Y-35254447D01*
X86722417Y-35242031D01*
X86716228Y-35228946D01*
X86711351Y-35215317D01*
X86707834Y-35201276D01*
X86705710Y-35186958D01*
X86705000Y-35172500D01*
X86705000Y-34827500D01*
X86705710Y-34813042D01*
X86707834Y-34798724D01*
X86711351Y-34784683D01*
X86716228Y-34771054D01*
X86722417Y-34757969D01*
X86729858Y-34745553D01*
X86738481Y-34733927D01*
X86748202Y-34723202D01*
X86758927Y-34713481D01*
X86770553Y-34704858D01*
X86782969Y-34697417D01*
X86796054Y-34691228D01*
X86809683Y-34686351D01*
X86823724Y-34682834D01*
X86838042Y-34680710D01*
X86852500Y-34680000D01*
X87147500Y-34680000D01*
X87161958Y-34680710D01*
X87161958Y-34680710D01*
G37*
D15*
X87000000Y-35000000D03*
D10*
G36*
X86191958Y-34680710D02*
X86206276Y-34682834D01*
X86220317Y-34686351D01*
X86233946Y-34691228D01*
X86247031Y-34697417D01*
X86259447Y-34704858D01*
X86271073Y-34713481D01*
X86281798Y-34723202D01*
X86291519Y-34733927D01*
X86300142Y-34745553D01*
X86307583Y-34757969D01*
X86313772Y-34771054D01*
X86318649Y-34784683D01*
X86322166Y-34798724D01*
X86324290Y-34813042D01*
X86325000Y-34827500D01*
X86325000Y-35172500D01*
X86324290Y-35186958D01*
X86322166Y-35201276D01*
X86318649Y-35215317D01*
X86313772Y-35228946D01*
X86307583Y-35242031D01*
X86300142Y-35254447D01*
X86291519Y-35266073D01*
X86281798Y-35276798D01*
X86271073Y-35286519D01*
X86259447Y-35295142D01*
X86247031Y-35302583D01*
X86233946Y-35308772D01*
X86220317Y-35313649D01*
X86206276Y-35317166D01*
X86191958Y-35319290D01*
X86177500Y-35320000D01*
X85882500Y-35320000D01*
X85868042Y-35319290D01*
X85853724Y-35317166D01*
X85839683Y-35313649D01*
X85826054Y-35308772D01*
X85812969Y-35302583D01*
X85800553Y-35295142D01*
X85788927Y-35286519D01*
X85778202Y-35276798D01*
X85768481Y-35266073D01*
X85759858Y-35254447D01*
X85752417Y-35242031D01*
X85746228Y-35228946D01*
X85741351Y-35215317D01*
X85737834Y-35201276D01*
X85735710Y-35186958D01*
X85735000Y-35172500D01*
X85735000Y-34827500D01*
X85735710Y-34813042D01*
X85737834Y-34798724D01*
X85741351Y-34784683D01*
X85746228Y-34771054D01*
X85752417Y-34757969D01*
X85759858Y-34745553D01*
X85768481Y-34733927D01*
X85778202Y-34723202D01*
X85788927Y-34713481D01*
X85800553Y-34704858D01*
X85812969Y-34697417D01*
X85826054Y-34691228D01*
X85839683Y-34686351D01*
X85853724Y-34682834D01*
X85868042Y-34680710D01*
X85882500Y-34680000D01*
X86177500Y-34680000D01*
X86191958Y-34680710D01*
X86191958Y-34680710D01*
G37*
D15*
X86030000Y-35000000D03*
G04 #@! TD*
D16*
G04 #@! TO.C,U3*
X32000000Y-36700000D03*
X32000000Y-41300000D03*
X32000000Y-39000000D03*
D17*
X38300000Y-39000000D03*
G04 #@! TD*
G04 #@! TO.C,U4*
X38300000Y-29000000D03*
D16*
X32000000Y-29000000D03*
X32000000Y-31300000D03*
X32000000Y-26700000D03*
G04 #@! TD*
D10*
G04 #@! TO.C,C4*
G36*
X29032292Y-31120383D02*
X29040010Y-31121528D01*
X29047578Y-31123423D01*
X29054923Y-31126052D01*
X29061976Y-31129387D01*
X29068668Y-31133398D01*
X29074934Y-31138046D01*
X29080715Y-31143285D01*
X29085954Y-31149066D01*
X29090602Y-31155332D01*
X29094613Y-31162024D01*
X29097948Y-31169077D01*
X29100577Y-31176422D01*
X29102472Y-31183990D01*
X29103617Y-31191708D01*
X29104000Y-31199500D01*
X29104000Y-31400500D01*
X29103617Y-31408292D01*
X29102472Y-31416010D01*
X29100577Y-31423578D01*
X29097948Y-31430923D01*
X29094613Y-31437976D01*
X29090602Y-31444668D01*
X29085954Y-31450934D01*
X29080715Y-31456715D01*
X29074934Y-31461954D01*
X29068668Y-31466602D01*
X29061976Y-31470613D01*
X29054923Y-31473948D01*
X29047578Y-31476577D01*
X29040010Y-31478472D01*
X29032292Y-31479617D01*
X29024500Y-31480000D01*
X28865500Y-31480000D01*
X28857708Y-31479617D01*
X28849990Y-31478472D01*
X28842422Y-31476577D01*
X28835077Y-31473948D01*
X28828024Y-31470613D01*
X28821332Y-31466602D01*
X28815066Y-31461954D01*
X28809285Y-31456715D01*
X28804046Y-31450934D01*
X28799398Y-31444668D01*
X28795387Y-31437976D01*
X28792052Y-31430923D01*
X28789423Y-31423578D01*
X28787528Y-31416010D01*
X28786383Y-31408292D01*
X28786000Y-31400500D01*
X28786000Y-31199500D01*
X28786383Y-31191708D01*
X28787528Y-31183990D01*
X28789423Y-31176422D01*
X28792052Y-31169077D01*
X28795387Y-31162024D01*
X28799398Y-31155332D01*
X28804046Y-31149066D01*
X28809285Y-31143285D01*
X28815066Y-31138046D01*
X28821332Y-31133398D01*
X28828024Y-31129387D01*
X28835077Y-31126052D01*
X28842422Y-31123423D01*
X28849990Y-31121528D01*
X28857708Y-31120383D01*
X28865500Y-31120000D01*
X29024500Y-31120000D01*
X29032292Y-31120383D01*
X29032292Y-31120383D01*
G37*
D11*
X28945000Y-31300000D03*
D10*
G36*
X28342292Y-31120383D02*
X28350010Y-31121528D01*
X28357578Y-31123423D01*
X28364923Y-31126052D01*
X28371976Y-31129387D01*
X28378668Y-31133398D01*
X28384934Y-31138046D01*
X28390715Y-31143285D01*
X28395954Y-31149066D01*
X28400602Y-31155332D01*
X28404613Y-31162024D01*
X28407948Y-31169077D01*
X28410577Y-31176422D01*
X28412472Y-31183990D01*
X28413617Y-31191708D01*
X28414000Y-31199500D01*
X28414000Y-31400500D01*
X28413617Y-31408292D01*
X28412472Y-31416010D01*
X28410577Y-31423578D01*
X28407948Y-31430923D01*
X28404613Y-31437976D01*
X28400602Y-31444668D01*
X28395954Y-31450934D01*
X28390715Y-31456715D01*
X28384934Y-31461954D01*
X28378668Y-31466602D01*
X28371976Y-31470613D01*
X28364923Y-31473948D01*
X28357578Y-31476577D01*
X28350010Y-31478472D01*
X28342292Y-31479617D01*
X28334500Y-31480000D01*
X28175500Y-31480000D01*
X28167708Y-31479617D01*
X28159990Y-31478472D01*
X28152422Y-31476577D01*
X28145077Y-31473948D01*
X28138024Y-31470613D01*
X28131332Y-31466602D01*
X28125066Y-31461954D01*
X28119285Y-31456715D01*
X28114046Y-31450934D01*
X28109398Y-31444668D01*
X28105387Y-31437976D01*
X28102052Y-31430923D01*
X28099423Y-31423578D01*
X28097528Y-31416010D01*
X28096383Y-31408292D01*
X28096000Y-31400500D01*
X28096000Y-31199500D01*
X28096383Y-31191708D01*
X28097528Y-31183990D01*
X28099423Y-31176422D01*
X28102052Y-31169077D01*
X28105387Y-31162024D01*
X28109398Y-31155332D01*
X28114046Y-31149066D01*
X28119285Y-31143285D01*
X28125066Y-31138046D01*
X28131332Y-31133398D01*
X28138024Y-31129387D01*
X28145077Y-31126052D01*
X28152422Y-31123423D01*
X28159990Y-31121528D01*
X28167708Y-31120383D01*
X28175500Y-31120000D01*
X28334500Y-31120000D01*
X28342292Y-31120383D01*
X28342292Y-31120383D01*
G37*
D11*
X28255000Y-31300000D03*
G04 #@! TD*
M02*
