G04 #@! TF.GenerationSoftware,KiCad,Pcbnew,(5.0.1)-3*
G04 #@! TF.CreationDate,2019-11-14T23:00:07-05:00*
G04 #@! TF.ProjectId,pcb_draft1,7063625F6472616674312E6B69636164,rev?*
G04 #@! TF.SameCoordinates,Original*
G04 #@! TF.FileFunction,Legend,Top*
G04 #@! TF.FilePolarity,Positive*
%FSLAX46Y46*%
G04 Gerber Fmt 4.6, Leading zero omitted, Abs format (unit mm)*
G04 Created by KiCad (PCBNEW (5.0.1)-3) date 11/14/2019 11:00:07 PM*
%MOMM*%
%LPD*%
G01*
G04 APERTURE LIST*
%ADD10C,0.300000*%
%ADD11C,0.250000*%
%ADD12C,0.120000*%
%ADD13C,0.010000*%
%ADD14C,0.150000*%
G04 APERTURE END LIST*
D10*
X31650000Y-106928571D02*
X31650000Y-105428571D01*
X32150000Y-106500000D01*
X32650000Y-105428571D01*
X32650000Y-106928571D01*
X33935714Y-106857142D02*
X33792857Y-106928571D01*
X33507142Y-106928571D01*
X33364285Y-106857142D01*
X33292857Y-106714285D01*
X33292857Y-106142857D01*
X33364285Y-106000000D01*
X33507142Y-105928571D01*
X33792857Y-105928571D01*
X33935714Y-106000000D01*
X34007142Y-106142857D01*
X34007142Y-106285714D01*
X33292857Y-106428571D01*
X35292857Y-105928571D02*
X35292857Y-107142857D01*
X35221428Y-107285714D01*
X35150000Y-107357142D01*
X35007142Y-107428571D01*
X34792857Y-107428571D01*
X34650000Y-107357142D01*
X35292857Y-106857142D02*
X35150000Y-106928571D01*
X34864285Y-106928571D01*
X34721428Y-106857142D01*
X34650000Y-106785714D01*
X34578571Y-106642857D01*
X34578571Y-106214285D01*
X34650000Y-106071428D01*
X34721428Y-106000000D01*
X34864285Y-105928571D01*
X35150000Y-105928571D01*
X35292857Y-106000000D01*
X36650000Y-106928571D02*
X36650000Y-106142857D01*
X36578571Y-106000000D01*
X36435714Y-105928571D01*
X36150000Y-105928571D01*
X36007142Y-106000000D01*
X36650000Y-106857142D02*
X36507142Y-106928571D01*
X36150000Y-106928571D01*
X36007142Y-106857142D01*
X35935714Y-106714285D01*
X35935714Y-106571428D01*
X36007142Y-106428571D01*
X36150000Y-106357142D01*
X36507142Y-106357142D01*
X36650000Y-106285714D01*
X37364285Y-105928571D02*
X37364285Y-106928571D01*
X37364285Y-106071428D02*
X37435714Y-106000000D01*
X37578571Y-105928571D01*
X37792857Y-105928571D01*
X37935714Y-106000000D01*
X38007142Y-106142857D01*
X38007142Y-106928571D01*
X39864285Y-106928571D02*
X39864285Y-105428571D01*
X40721428Y-106928571D02*
X40078571Y-106071428D01*
X40721428Y-105428571D02*
X39864285Y-106285714D01*
X42007142Y-105928571D02*
X42007142Y-106928571D01*
X41364285Y-105928571D02*
X41364285Y-106714285D01*
X41435714Y-106857142D01*
X41578571Y-106928571D01*
X41792857Y-106928571D01*
X41935714Y-106857142D01*
X42007142Y-106785714D01*
X42792857Y-106857142D02*
X42792857Y-106928571D01*
X42721428Y-107071428D01*
X42650000Y-107142857D01*
X45435714Y-106785714D02*
X45364285Y-106857142D01*
X45150000Y-106928571D01*
X45007142Y-106928571D01*
X44792857Y-106857142D01*
X44650000Y-106714285D01*
X44578571Y-106571428D01*
X44507142Y-106285714D01*
X44507142Y-106071428D01*
X44578571Y-105785714D01*
X44650000Y-105642857D01*
X44792857Y-105500000D01*
X45007142Y-105428571D01*
X45150000Y-105428571D01*
X45364285Y-105500000D01*
X45435714Y-105571428D01*
X46292857Y-106928571D02*
X46150000Y-106857142D01*
X46078571Y-106785714D01*
X46007142Y-106642857D01*
X46007142Y-106214285D01*
X46078571Y-106071428D01*
X46150000Y-106000000D01*
X46292857Y-105928571D01*
X46507142Y-105928571D01*
X46650000Y-106000000D01*
X46721428Y-106071428D01*
X46792857Y-106214285D01*
X46792857Y-106642857D01*
X46721428Y-106785714D01*
X46650000Y-106857142D01*
X46507142Y-106928571D01*
X46292857Y-106928571D01*
X47650000Y-106928571D02*
X47507142Y-106857142D01*
X47435714Y-106714285D01*
X47435714Y-105428571D01*
X48221428Y-106928571D02*
X48221428Y-105928571D01*
X48221428Y-105428571D02*
X48150000Y-105500000D01*
X48221428Y-105571428D01*
X48292857Y-105500000D01*
X48221428Y-105428571D01*
X48221428Y-105571428D01*
X48935714Y-105928571D02*
X48935714Y-106928571D01*
X48935714Y-106071428D02*
X49007142Y-106000000D01*
X49150000Y-105928571D01*
X49364285Y-105928571D01*
X49507142Y-106000000D01*
X49578571Y-106142857D01*
X49578571Y-106928571D01*
X51364285Y-106857142D02*
X51578571Y-106928571D01*
X51935714Y-106928571D01*
X52078571Y-106857142D01*
X52150000Y-106785714D01*
X52221428Y-106642857D01*
X52221428Y-106500000D01*
X52150000Y-106357142D01*
X52078571Y-106285714D01*
X51935714Y-106214285D01*
X51650000Y-106142857D01*
X51507142Y-106071428D01*
X51435714Y-106000000D01*
X51364285Y-105857142D01*
X51364285Y-105714285D01*
X51435714Y-105571428D01*
X51507142Y-105500000D01*
X51650000Y-105428571D01*
X52007142Y-105428571D01*
X52221428Y-105500000D01*
X52864285Y-105928571D02*
X52864285Y-106928571D01*
X52864285Y-106071428D02*
X52935714Y-106000000D01*
X53078571Y-105928571D01*
X53292857Y-105928571D01*
X53435714Y-106000000D01*
X53507142Y-106142857D01*
X53507142Y-106928571D01*
X54435714Y-106928571D02*
X54292857Y-106857142D01*
X54221428Y-106785714D01*
X54150000Y-106642857D01*
X54150000Y-106214285D01*
X54221428Y-106071428D01*
X54292857Y-106000000D01*
X54435714Y-105928571D01*
X54650000Y-105928571D01*
X54792857Y-106000000D01*
X54864285Y-106071428D01*
X54935714Y-106214285D01*
X54935714Y-106642857D01*
X54864285Y-106785714D01*
X54792857Y-106857142D01*
X54650000Y-106928571D01*
X54435714Y-106928571D01*
X55435714Y-105928571D02*
X55721428Y-106928571D01*
X56007142Y-106214285D01*
X56292857Y-106928571D01*
X56578571Y-105928571D01*
X57221428Y-106857142D02*
X57221428Y-106928571D01*
X57150000Y-107071428D01*
X57078571Y-107142857D01*
X31435714Y-109478571D02*
X31435714Y-107978571D01*
X32292857Y-109478571D01*
X32292857Y-107978571D01*
X33650000Y-109478571D02*
X33650000Y-108692857D01*
X33578571Y-108550000D01*
X33435714Y-108478571D01*
X33149999Y-108478571D01*
X33007142Y-108550000D01*
X33650000Y-109407142D02*
X33507142Y-109478571D01*
X33149999Y-109478571D01*
X33007142Y-109407142D01*
X32935714Y-109264285D01*
X32935714Y-109121428D01*
X33007142Y-108978571D01*
X33149999Y-108907142D01*
X33507142Y-108907142D01*
X33650000Y-108835714D01*
X34150000Y-108478571D02*
X34721428Y-108478571D01*
X34364285Y-107978571D02*
X34364285Y-109264285D01*
X34435714Y-109407142D01*
X34578571Y-109478571D01*
X34721428Y-109478571D01*
X35221428Y-109478571D02*
X35221428Y-107978571D01*
X35864285Y-109478571D02*
X35864285Y-108692857D01*
X35792857Y-108550000D01*
X35650000Y-108478571D01*
X35435714Y-108478571D01*
X35292857Y-108550000D01*
X35221428Y-108621428D01*
X37221428Y-109478571D02*
X37221428Y-108692857D01*
X37150000Y-108550000D01*
X37007142Y-108478571D01*
X36721428Y-108478571D01*
X36578571Y-108550000D01*
X37221428Y-109407142D02*
X37078571Y-109478571D01*
X36721428Y-109478571D01*
X36578571Y-109407142D01*
X36507142Y-109264285D01*
X36507142Y-109121428D01*
X36578571Y-108978571D01*
X36721428Y-108907142D01*
X37078571Y-108907142D01*
X37221428Y-108835714D01*
X37935714Y-108478571D02*
X37935714Y-109478571D01*
X37935714Y-108621428D02*
X38007142Y-108550000D01*
X38150000Y-108478571D01*
X38364285Y-108478571D01*
X38507142Y-108550000D01*
X38578571Y-108692857D01*
X38578571Y-109478571D01*
X40292857Y-107978571D02*
X40650000Y-109478571D01*
X40935714Y-108407142D01*
X41221428Y-109478571D01*
X41578571Y-107978571D01*
X42721428Y-109407142D02*
X42578571Y-109478571D01*
X42292857Y-109478571D01*
X42150000Y-109407142D01*
X42078571Y-109264285D01*
X42078571Y-108692857D01*
X42150000Y-108550000D01*
X42292857Y-108478571D01*
X42578571Y-108478571D01*
X42721428Y-108550000D01*
X42792857Y-108692857D01*
X42792857Y-108835714D01*
X42078571Y-108978571D01*
X43435714Y-109478571D02*
X43435714Y-108478571D01*
X43435714Y-107978571D02*
X43364285Y-108050000D01*
X43435714Y-108121428D01*
X43507142Y-108050000D01*
X43435714Y-107978571D01*
X43435714Y-108121428D01*
X44364285Y-109478571D02*
X44221428Y-109407142D01*
X44150000Y-109264285D01*
X44150000Y-107978571D01*
X45007142Y-109407142D02*
X45007142Y-109478571D01*
X44935714Y-109621428D01*
X44864285Y-109692857D01*
X46721428Y-109050000D02*
X47435714Y-109050000D01*
X46578571Y-109478571D02*
X47078571Y-107978571D01*
X47578571Y-109478571D01*
X48078571Y-108478571D02*
X48078571Y-109478571D01*
X48078571Y-108621428D02*
X48150000Y-108550000D01*
X48292857Y-108478571D01*
X48507142Y-108478571D01*
X48650000Y-108550000D01*
X48721428Y-108692857D01*
X48721428Y-109478571D01*
X49435714Y-108478571D02*
X49435714Y-109478571D01*
X49435714Y-108621428D02*
X49507142Y-108550000D01*
X49650000Y-108478571D01*
X49864285Y-108478571D01*
X50007142Y-108550000D01*
X50078571Y-108692857D01*
X50078571Y-109478571D01*
X50792857Y-109478571D02*
X50792857Y-108478571D01*
X50792857Y-107978571D02*
X50721428Y-108050000D01*
X50792857Y-108121428D01*
X50864285Y-108050000D01*
X50792857Y-107978571D01*
X50792857Y-108121428D01*
X52078571Y-109407142D02*
X51935714Y-109478571D01*
X51650000Y-109478571D01*
X51507142Y-109407142D01*
X51435714Y-109264285D01*
X51435714Y-108692857D01*
X51507142Y-108550000D01*
X51650000Y-108478571D01*
X51935714Y-108478571D01*
X52078571Y-108550000D01*
X52150000Y-108692857D01*
X52150000Y-108835714D01*
X51435714Y-108978571D01*
X53721428Y-107978571D02*
X54578571Y-107978571D01*
X54150000Y-109478571D02*
X54150000Y-107978571D01*
X55292857Y-109478571D02*
X55150000Y-109407142D01*
X55078571Y-109335714D01*
X55007142Y-109192857D01*
X55007142Y-108764285D01*
X55078571Y-108621428D01*
X55150000Y-108550000D01*
X55292857Y-108478571D01*
X55507142Y-108478571D01*
X55650000Y-108550000D01*
X55721428Y-108621428D01*
X55792857Y-108764285D01*
X55792857Y-109192857D01*
X55721428Y-109335714D01*
X55650000Y-109407142D01*
X55507142Y-109478571D01*
X55292857Y-109478571D01*
X56435714Y-109478571D02*
X56435714Y-108478571D01*
X56435714Y-108764285D02*
X56507142Y-108621428D01*
X56578571Y-108550000D01*
X56721428Y-108478571D01*
X56864285Y-108478571D01*
X57435714Y-109407142D02*
X57435714Y-109478571D01*
X57364285Y-109621428D01*
X57292857Y-109692857D01*
X34221428Y-112028571D02*
X34221428Y-111242857D01*
X34149999Y-111100000D01*
X34007142Y-111028571D01*
X33721428Y-111028571D01*
X33578571Y-111100000D01*
X34221428Y-111957142D02*
X34078571Y-112028571D01*
X33721428Y-112028571D01*
X33578571Y-111957142D01*
X33507142Y-111814285D01*
X33507142Y-111671428D01*
X33578571Y-111528571D01*
X33721428Y-111457142D01*
X34078571Y-111457142D01*
X34221428Y-111385714D01*
X34935714Y-111028571D02*
X34935714Y-112028571D01*
X34935714Y-111171428D02*
X35007142Y-111100000D01*
X35149999Y-111028571D01*
X35364285Y-111028571D01*
X35507142Y-111100000D01*
X35578571Y-111242857D01*
X35578571Y-112028571D01*
X36935714Y-112028571D02*
X36935714Y-110528571D01*
X36935714Y-111957142D02*
X36792857Y-112028571D01*
X36507142Y-112028571D01*
X36364285Y-111957142D01*
X36292857Y-111885714D01*
X36221428Y-111742857D01*
X36221428Y-111314285D01*
X36292857Y-111171428D01*
X36364285Y-111100000D01*
X36507142Y-111028571D01*
X36792857Y-111028571D01*
X36935714Y-111100000D01*
X38792857Y-112028571D02*
X38792857Y-110528571D01*
X39292857Y-111600000D01*
X39792857Y-110528571D01*
X39792857Y-112028571D01*
X41149999Y-112028571D02*
X41149999Y-111242857D01*
X41078571Y-111100000D01*
X40935714Y-111028571D01*
X40649999Y-111028571D01*
X40507142Y-111100000D01*
X41149999Y-111957142D02*
X41007142Y-112028571D01*
X40649999Y-112028571D01*
X40507142Y-111957142D01*
X40435714Y-111814285D01*
X40435714Y-111671428D01*
X40507142Y-111528571D01*
X40649999Y-111457142D01*
X41007142Y-111457142D01*
X41149999Y-111385714D01*
X41864285Y-112028571D02*
X41864285Y-111028571D01*
X41864285Y-110528571D02*
X41792857Y-110600000D01*
X41864285Y-110671428D01*
X41935714Y-110600000D01*
X41864285Y-110528571D01*
X41864285Y-110671428D01*
X43221428Y-112028571D02*
X43221428Y-111242857D01*
X43149999Y-111100000D01*
X43007142Y-111028571D01*
X42721428Y-111028571D01*
X42578571Y-111100000D01*
X43221428Y-111957142D02*
X43078571Y-112028571D01*
X42721428Y-112028571D01*
X42578571Y-111957142D01*
X42507142Y-111814285D01*
X42507142Y-111671428D01*
X42578571Y-111528571D01*
X42721428Y-111457142D01*
X43078571Y-111457142D01*
X43221428Y-111385714D01*
X45078571Y-112028571D02*
X45078571Y-110528571D01*
X45578571Y-111600000D01*
X46078571Y-110528571D01*
X46078571Y-112028571D01*
X47435714Y-112028571D02*
X47435714Y-111242857D01*
X47364285Y-111100000D01*
X47221428Y-111028571D01*
X46935714Y-111028571D01*
X46792857Y-111100000D01*
X47435714Y-111957142D02*
X47292857Y-112028571D01*
X46935714Y-112028571D01*
X46792857Y-111957142D01*
X46721428Y-111814285D01*
X46721428Y-111671428D01*
X46792857Y-111528571D01*
X46935714Y-111457142D01*
X47292857Y-111457142D01*
X47435714Y-111385714D01*
X47935714Y-111028571D02*
X48507142Y-111028571D01*
X48149999Y-110528571D02*
X48149999Y-111814285D01*
X48221428Y-111957142D01*
X48364285Y-112028571D01*
X48507142Y-112028571D01*
X49578571Y-111957142D02*
X49435714Y-112028571D01*
X49149999Y-112028571D01*
X49007142Y-111957142D01*
X48935714Y-111814285D01*
X48935714Y-111242857D01*
X49007142Y-111100000D01*
X49149999Y-111028571D01*
X49435714Y-111028571D01*
X49578571Y-111100000D01*
X49649999Y-111242857D01*
X49649999Y-111385714D01*
X48935714Y-111528571D01*
X50292857Y-112028571D02*
X50292857Y-111028571D01*
X50292857Y-111314285D02*
X50364285Y-111171428D01*
X50435714Y-111100000D01*
X50578571Y-111028571D01*
X50721428Y-111028571D01*
X51221428Y-112028571D02*
X51221428Y-111028571D01*
X51221428Y-111171428D02*
X51292857Y-111100000D01*
X51435714Y-111028571D01*
X51649999Y-111028571D01*
X51792857Y-111100000D01*
X51864285Y-111242857D01*
X51864285Y-112028571D01*
X51864285Y-111242857D02*
X51935714Y-111100000D01*
X52078571Y-111028571D01*
X52292857Y-111028571D01*
X52435714Y-111100000D01*
X52507142Y-111242857D01*
X52507142Y-112028571D01*
X53864285Y-112028571D02*
X53864285Y-111242857D01*
X53792857Y-111100000D01*
X53649999Y-111028571D01*
X53364285Y-111028571D01*
X53221428Y-111100000D01*
X53864285Y-111957142D02*
X53721428Y-112028571D01*
X53364285Y-112028571D01*
X53221428Y-111957142D01*
X53149999Y-111814285D01*
X53149999Y-111671428D01*
X53221428Y-111528571D01*
X53364285Y-111457142D01*
X53721428Y-111457142D01*
X53864285Y-111385714D01*
X54578571Y-111028571D02*
X54578571Y-112028571D01*
X54578571Y-111171428D02*
X54649999Y-111100000D01*
X54792857Y-111028571D01*
X55007142Y-111028571D01*
X55149999Y-111100000D01*
X55221428Y-111242857D01*
X55221428Y-112028571D01*
D11*
X72766666Y-47652380D02*
X72766666Y-47176190D01*
X73052380Y-47747619D02*
X72052380Y-47414285D01*
X73052380Y-47080952D01*
X72385714Y-46747619D02*
X73052380Y-46747619D01*
X72480952Y-46747619D02*
X72433333Y-46699999D01*
X72385714Y-46604761D01*
X72385714Y-46461904D01*
X72433333Y-46366666D01*
X72528571Y-46319047D01*
X73052380Y-46319047D01*
X73052380Y-45414285D02*
X72528571Y-45414285D01*
X72433333Y-45461904D01*
X72385714Y-45557142D01*
X72385714Y-45747619D01*
X72433333Y-45842857D01*
X73004761Y-45414285D02*
X73052380Y-45509523D01*
X73052380Y-45747619D01*
X73004761Y-45842857D01*
X72909523Y-45890476D01*
X72814285Y-45890476D01*
X72719047Y-45842857D01*
X72671428Y-45747619D01*
X72671428Y-45509523D01*
X72623809Y-45414285D01*
X73052380Y-44795238D02*
X73004761Y-44890476D01*
X72909523Y-44938095D01*
X72052380Y-44938095D01*
X73052380Y-44271428D02*
X73004761Y-44366666D01*
X72957142Y-44414285D01*
X72861904Y-44461904D01*
X72576190Y-44461904D01*
X72480952Y-44414285D01*
X72433333Y-44366666D01*
X72385714Y-44271428D01*
X72385714Y-44128571D01*
X72433333Y-44033333D01*
X72480952Y-43985714D01*
X72576190Y-43938095D01*
X72861904Y-43938095D01*
X72957142Y-43985714D01*
X73004761Y-44033333D01*
X73052380Y-44128571D01*
X73052380Y-44271428D01*
X72385714Y-43080952D02*
X73195238Y-43080952D01*
X73290476Y-43128571D01*
X73338095Y-43176190D01*
X73385714Y-43271428D01*
X73385714Y-43414285D01*
X73338095Y-43509523D01*
X73004761Y-43080952D02*
X73052380Y-43176190D01*
X73052380Y-43366666D01*
X73004761Y-43461904D01*
X72957142Y-43509523D01*
X72861904Y-43557142D01*
X72576190Y-43557142D01*
X72480952Y-43509523D01*
X72433333Y-43461904D01*
X72385714Y-43366666D01*
X72385714Y-43176190D01*
X72433333Y-43080952D01*
X72052380Y-41652380D02*
X72052380Y-41461904D01*
X72100000Y-41366666D01*
X72195238Y-41271428D01*
X72385714Y-41223809D01*
X72719047Y-41223809D01*
X72909523Y-41271428D01*
X73004761Y-41366666D01*
X73052380Y-41461904D01*
X73052380Y-41652380D01*
X73004761Y-41747619D01*
X72909523Y-41842857D01*
X72719047Y-41890476D01*
X72385714Y-41890476D01*
X72195238Y-41842857D01*
X72100000Y-41747619D01*
X72052380Y-41652380D01*
X72385714Y-40366666D02*
X73052380Y-40366666D01*
X72385714Y-40795238D02*
X72909523Y-40795238D01*
X73004761Y-40747619D01*
X73052380Y-40652380D01*
X73052380Y-40509523D01*
X73004761Y-40414285D01*
X72957142Y-40366666D01*
X72385714Y-40033333D02*
X72385714Y-39652380D01*
X72052380Y-39890476D02*
X72909523Y-39890476D01*
X73004761Y-39842857D01*
X73052380Y-39747619D01*
X73052380Y-39652380D01*
D10*
X74257142Y-39778571D02*
X75114285Y-39778571D01*
X74685714Y-41278571D02*
X74685714Y-39778571D01*
X75542857Y-39921428D02*
X75614285Y-39850000D01*
X75757142Y-39778571D01*
X76114285Y-39778571D01*
X76257142Y-39850000D01*
X76328571Y-39921428D01*
X76400000Y-40064285D01*
X76400000Y-40207142D01*
X76328571Y-40421428D01*
X75471428Y-41278571D01*
X76400000Y-41278571D01*
X68657142Y-39778571D02*
X69514285Y-39778571D01*
X69085714Y-41278571D02*
X69085714Y-39778571D01*
X70800000Y-41278571D02*
X69942857Y-41278571D01*
X70371428Y-41278571D02*
X70371428Y-39778571D01*
X70228571Y-39992857D01*
X70085714Y-40135714D01*
X69942857Y-40207142D01*
X104871428Y-40078571D02*
X104014285Y-40078571D01*
X104442857Y-40078571D02*
X104442857Y-38578571D01*
X104300000Y-38792857D01*
X104157142Y-38935714D01*
X104014285Y-39007142D01*
X105442857Y-38721428D02*
X105514285Y-38650000D01*
X105657142Y-38578571D01*
X106014285Y-38578571D01*
X106157142Y-38650000D01*
X106228571Y-38721428D01*
X106300000Y-38864285D01*
X106300000Y-39007142D01*
X106228571Y-39221428D01*
X105371428Y-40078571D01*
X106300000Y-40078571D01*
X106728571Y-38578571D02*
X107228571Y-40078571D01*
X107728571Y-38578571D01*
X97157142Y-45892857D02*
X96657142Y-45892857D01*
X96657142Y-46678571D02*
X96657142Y-45178571D01*
X97371428Y-45178571D01*
X98585714Y-46678571D02*
X98585714Y-45892857D01*
X98514285Y-45750000D01*
X98371428Y-45678571D01*
X98085714Y-45678571D01*
X97942857Y-45750000D01*
X98585714Y-46607142D02*
X98442857Y-46678571D01*
X98085714Y-46678571D01*
X97942857Y-46607142D01*
X97871428Y-46464285D01*
X97871428Y-46321428D01*
X97942857Y-46178571D01*
X98085714Y-46107142D01*
X98442857Y-46107142D01*
X98585714Y-46035714D01*
X99300000Y-45678571D02*
X99300000Y-46678571D01*
X99300000Y-45821428D02*
X99371428Y-45750000D01*
X99514285Y-45678571D01*
X99728571Y-45678571D01*
X99871428Y-45750000D01*
X99942857Y-45892857D01*
X99942857Y-46678571D01*
X54350000Y-24978571D02*
X54350000Y-23478571D01*
X54350000Y-24192857D02*
X55207142Y-24192857D01*
X55207142Y-24978571D02*
X55207142Y-23478571D01*
X56135714Y-24978571D02*
X55992857Y-24907142D01*
X55921428Y-24835714D01*
X55850000Y-24692857D01*
X55850000Y-24264285D01*
X55921428Y-24121428D01*
X55992857Y-24050000D01*
X56135714Y-23978571D01*
X56350000Y-23978571D01*
X56492857Y-24050000D01*
X56564285Y-24121428D01*
X56635714Y-24264285D01*
X56635714Y-24692857D01*
X56564285Y-24835714D01*
X56492857Y-24907142D01*
X56350000Y-24978571D01*
X56135714Y-24978571D01*
X57278571Y-24978571D02*
X57278571Y-23978571D01*
X57278571Y-24121428D02*
X57350000Y-24050000D01*
X57492857Y-23978571D01*
X57707142Y-23978571D01*
X57850000Y-24050000D01*
X57921428Y-24192857D01*
X57921428Y-24978571D01*
X57921428Y-24192857D02*
X57992857Y-24050000D01*
X58135714Y-23978571D01*
X58350000Y-23978571D01*
X58492857Y-24050000D01*
X58564285Y-24192857D01*
X58564285Y-24978571D01*
X59850000Y-24907142D02*
X59707142Y-24978571D01*
X59421428Y-24978571D01*
X59278571Y-24907142D01*
X59207142Y-24764285D01*
X59207142Y-24192857D01*
X59278571Y-24050000D01*
X59421428Y-23978571D01*
X59707142Y-23978571D01*
X59850000Y-24050000D01*
X59921428Y-24192857D01*
X59921428Y-24335714D01*
X59207142Y-24478571D01*
X65250000Y-24978571D02*
X65250000Y-23478571D01*
X65250000Y-24192857D02*
X66107142Y-24192857D01*
X66107142Y-24978571D02*
X66107142Y-23478571D01*
X67035714Y-24978571D02*
X66892857Y-24907142D01*
X66821428Y-24835714D01*
X66750000Y-24692857D01*
X66750000Y-24264285D01*
X66821428Y-24121428D01*
X66892857Y-24050000D01*
X67035714Y-23978571D01*
X67250000Y-23978571D01*
X67392857Y-24050000D01*
X67464285Y-24121428D01*
X67535714Y-24264285D01*
X67535714Y-24692857D01*
X67464285Y-24835714D01*
X67392857Y-24907142D01*
X67250000Y-24978571D01*
X67035714Y-24978571D01*
X68178571Y-24978571D02*
X68178571Y-23978571D01*
X68178571Y-24121428D02*
X68250000Y-24050000D01*
X68392857Y-23978571D01*
X68607142Y-23978571D01*
X68750000Y-24050000D01*
X68821428Y-24192857D01*
X68821428Y-24978571D01*
X68821428Y-24192857D02*
X68892857Y-24050000D01*
X69035714Y-23978571D01*
X69250000Y-23978571D01*
X69392857Y-24050000D01*
X69464285Y-24192857D01*
X69464285Y-24978571D01*
X70750000Y-24907142D02*
X70607142Y-24978571D01*
X70321428Y-24978571D01*
X70178571Y-24907142D01*
X70107142Y-24764285D01*
X70107142Y-24192857D01*
X70178571Y-24050000D01*
X70321428Y-23978571D01*
X70607142Y-23978571D01*
X70750000Y-24050000D01*
X70821428Y-24192857D01*
X70821428Y-24335714D01*
X70107142Y-24478571D01*
D11*
X61500000Y-16304761D02*
X61642857Y-16352380D01*
X61880952Y-16352380D01*
X61976190Y-16304761D01*
X62023809Y-16257142D01*
X62071428Y-16161904D01*
X62071428Y-16066666D01*
X62023809Y-15971428D01*
X61976190Y-15923809D01*
X61880952Y-15876190D01*
X61690476Y-15828571D01*
X61595238Y-15780952D01*
X61547619Y-15733333D01*
X61500000Y-15638095D01*
X61500000Y-15542857D01*
X61547619Y-15447619D01*
X61595238Y-15400000D01*
X61690476Y-15352380D01*
X61928571Y-15352380D01*
X62071428Y-15400000D01*
X62357142Y-15685714D02*
X62738095Y-15685714D01*
X62500000Y-15352380D02*
X62500000Y-16209523D01*
X62547619Y-16304761D01*
X62642857Y-16352380D01*
X62738095Y-16352380D01*
X63452380Y-16304761D02*
X63357142Y-16352380D01*
X63166666Y-16352380D01*
X63071428Y-16304761D01*
X63023809Y-16209523D01*
X63023809Y-15828571D01*
X63071428Y-15733333D01*
X63166666Y-15685714D01*
X63357142Y-15685714D01*
X63452380Y-15733333D01*
X63500000Y-15828571D01*
X63500000Y-15923809D01*
X63023809Y-16019047D01*
X63928571Y-15685714D02*
X63928571Y-16685714D01*
X63928571Y-15733333D02*
X64023809Y-15685714D01*
X64214285Y-15685714D01*
X64309523Y-15733333D01*
X64357142Y-15780952D01*
X64404761Y-15876190D01*
X64404761Y-16161904D01*
X64357142Y-16257142D01*
X64309523Y-16304761D01*
X64214285Y-16352380D01*
X64023809Y-16352380D01*
X63928571Y-16304761D01*
X64833333Y-15685714D02*
X64833333Y-16685714D01*
X64833333Y-15733333D02*
X64928571Y-15685714D01*
X65119047Y-15685714D01*
X65214285Y-15733333D01*
X65261904Y-15780952D01*
X65309523Y-15876190D01*
X65309523Y-16161904D01*
X65261904Y-16257142D01*
X65214285Y-16304761D01*
X65119047Y-16352380D01*
X64928571Y-16352380D01*
X64833333Y-16304761D01*
X66119047Y-16304761D02*
X66023809Y-16352380D01*
X65833333Y-16352380D01*
X65738095Y-16304761D01*
X65690476Y-16209523D01*
X65690476Y-15828571D01*
X65738095Y-15733333D01*
X65833333Y-15685714D01*
X66023809Y-15685714D01*
X66119047Y-15733333D01*
X66166666Y-15828571D01*
X66166666Y-15923809D01*
X65690476Y-16019047D01*
X66595238Y-16352380D02*
X66595238Y-15685714D01*
X66595238Y-15876190D02*
X66642857Y-15780952D01*
X66690476Y-15733333D01*
X66785714Y-15685714D01*
X66880952Y-15685714D01*
X67928571Y-15447619D02*
X67976190Y-15400000D01*
X68071428Y-15352380D01*
X68309523Y-15352380D01*
X68404761Y-15400000D01*
X68452380Y-15447619D01*
X68500000Y-15542857D01*
X68500000Y-15638095D01*
X68452380Y-15780952D01*
X67880952Y-16352380D01*
X68500000Y-16352380D01*
X49800000Y-16304761D02*
X49942857Y-16352380D01*
X50180952Y-16352380D01*
X50276190Y-16304761D01*
X50323809Y-16257142D01*
X50371428Y-16161904D01*
X50371428Y-16066666D01*
X50323809Y-15971428D01*
X50276190Y-15923809D01*
X50180952Y-15876190D01*
X49990476Y-15828571D01*
X49895238Y-15780952D01*
X49847619Y-15733333D01*
X49800000Y-15638095D01*
X49800000Y-15542857D01*
X49847619Y-15447619D01*
X49895238Y-15400000D01*
X49990476Y-15352380D01*
X50228571Y-15352380D01*
X50371428Y-15400000D01*
X50657142Y-15685714D02*
X51038095Y-15685714D01*
X50800000Y-15352380D02*
X50800000Y-16209523D01*
X50847619Y-16304761D01*
X50942857Y-16352380D01*
X51038095Y-16352380D01*
X51752380Y-16304761D02*
X51657142Y-16352380D01*
X51466666Y-16352380D01*
X51371428Y-16304761D01*
X51323809Y-16209523D01*
X51323809Y-15828571D01*
X51371428Y-15733333D01*
X51466666Y-15685714D01*
X51657142Y-15685714D01*
X51752380Y-15733333D01*
X51800000Y-15828571D01*
X51800000Y-15923809D01*
X51323809Y-16019047D01*
X52228571Y-15685714D02*
X52228571Y-16685714D01*
X52228571Y-15733333D02*
X52323809Y-15685714D01*
X52514285Y-15685714D01*
X52609523Y-15733333D01*
X52657142Y-15780952D01*
X52704761Y-15876190D01*
X52704761Y-16161904D01*
X52657142Y-16257142D01*
X52609523Y-16304761D01*
X52514285Y-16352380D01*
X52323809Y-16352380D01*
X52228571Y-16304761D01*
X53133333Y-15685714D02*
X53133333Y-16685714D01*
X53133333Y-15733333D02*
X53228571Y-15685714D01*
X53419047Y-15685714D01*
X53514285Y-15733333D01*
X53561904Y-15780952D01*
X53609523Y-15876190D01*
X53609523Y-16161904D01*
X53561904Y-16257142D01*
X53514285Y-16304761D01*
X53419047Y-16352380D01*
X53228571Y-16352380D01*
X53133333Y-16304761D01*
X54419047Y-16304761D02*
X54323809Y-16352380D01*
X54133333Y-16352380D01*
X54038095Y-16304761D01*
X53990476Y-16209523D01*
X53990476Y-15828571D01*
X54038095Y-15733333D01*
X54133333Y-15685714D01*
X54323809Y-15685714D01*
X54419047Y-15733333D01*
X54466666Y-15828571D01*
X54466666Y-15923809D01*
X53990476Y-16019047D01*
X54895238Y-16352380D02*
X54895238Y-15685714D01*
X54895238Y-15876190D02*
X54942857Y-15780952D01*
X54990476Y-15733333D01*
X55085714Y-15685714D01*
X55180952Y-15685714D01*
X56800000Y-16352380D02*
X56228571Y-16352380D01*
X56514285Y-16352380D02*
X56514285Y-15352380D01*
X56419047Y-15495238D01*
X56323809Y-15590476D01*
X56228571Y-15638095D01*
D10*
X119457142Y-17050000D02*
X119314285Y-16978571D01*
X119100000Y-16978571D01*
X118885714Y-17050000D01*
X118742857Y-17192857D01*
X118671428Y-17335714D01*
X118600000Y-17621428D01*
X118600000Y-17835714D01*
X118671428Y-18121428D01*
X118742857Y-18264285D01*
X118885714Y-18407142D01*
X119100000Y-18478571D01*
X119242857Y-18478571D01*
X119457142Y-18407142D01*
X119528571Y-18335714D01*
X119528571Y-17835714D01*
X119242857Y-17835714D01*
X120171428Y-18478571D02*
X120171428Y-16978571D01*
X121028571Y-18478571D01*
X121028571Y-16978571D01*
X121742857Y-18478571D02*
X121742857Y-16978571D01*
X122100000Y-16978571D01*
X122314285Y-17050000D01*
X122457142Y-17192857D01*
X122528571Y-17335714D01*
X122600000Y-17621428D01*
X122600000Y-17835714D01*
X122528571Y-18121428D01*
X122457142Y-18264285D01*
X122314285Y-18407142D01*
X122100000Y-18478571D01*
X121742857Y-18478571D01*
X77014285Y-16778571D02*
X76300000Y-16778571D01*
X76228571Y-17492857D01*
X76300000Y-17421428D01*
X76442857Y-17350000D01*
X76800000Y-17350000D01*
X76942857Y-17421428D01*
X77014285Y-17492857D01*
X77085714Y-17635714D01*
X77085714Y-17992857D01*
X77014285Y-18135714D01*
X76942857Y-18207142D01*
X76800000Y-18278571D01*
X76442857Y-18278571D01*
X76300000Y-18207142D01*
X76228571Y-18135714D01*
X77514285Y-16778571D02*
X78014285Y-18278571D01*
X78514285Y-16778571D01*
X94600000Y-27050000D02*
X95314285Y-27050000D01*
X94457142Y-27478571D02*
X94957142Y-25978571D01*
X95457142Y-27478571D01*
X95957142Y-27478571D02*
X95957142Y-26478571D01*
X95957142Y-26764285D02*
X96028571Y-26621428D01*
X96100000Y-26550000D01*
X96242857Y-26478571D01*
X96385714Y-26478571D01*
X97528571Y-27478571D02*
X97528571Y-25978571D01*
X97528571Y-27407142D02*
X97385714Y-27478571D01*
X97100000Y-27478571D01*
X96957142Y-27407142D01*
X96885714Y-27335714D01*
X96814285Y-27192857D01*
X96814285Y-26764285D01*
X96885714Y-26621428D01*
X96957142Y-26550000D01*
X97100000Y-26478571D01*
X97385714Y-26478571D01*
X97528571Y-26550000D01*
X98885714Y-26478571D02*
X98885714Y-27478571D01*
X98242857Y-26478571D02*
X98242857Y-27264285D01*
X98314285Y-27407142D01*
X98457142Y-27478571D01*
X98671428Y-27478571D01*
X98814285Y-27407142D01*
X98885714Y-27335714D01*
X99600000Y-27478571D02*
X99600000Y-26478571D01*
X99600000Y-25978571D02*
X99528571Y-26050000D01*
X99600000Y-26121428D01*
X99671428Y-26050000D01*
X99600000Y-25978571D01*
X99600000Y-26121428D01*
X100314285Y-26478571D02*
X100314285Y-27478571D01*
X100314285Y-26621428D02*
X100385714Y-26550000D01*
X100528571Y-26478571D01*
X100742857Y-26478571D01*
X100885714Y-26550000D01*
X100957142Y-26692857D01*
X100957142Y-27478571D01*
X101885714Y-27478571D02*
X101742857Y-27407142D01*
X101671428Y-27335714D01*
X101600000Y-27192857D01*
X101600000Y-26764285D01*
X101671428Y-26621428D01*
X101742857Y-26550000D01*
X101885714Y-26478571D01*
X102100000Y-26478571D01*
X102242857Y-26550000D01*
X102314285Y-26621428D01*
X102385714Y-26764285D01*
X102385714Y-27192857D01*
X102314285Y-27335714D01*
X102242857Y-27407142D01*
X102100000Y-27478571D01*
X101885714Y-27478571D01*
X104171428Y-27478571D02*
X104171428Y-25978571D01*
X104885714Y-26478571D02*
X104885714Y-27478571D01*
X104885714Y-26621428D02*
X104957142Y-26550000D01*
X105100000Y-26478571D01*
X105314285Y-26478571D01*
X105457142Y-26550000D01*
X105528571Y-26692857D01*
X105528571Y-27478571D01*
D11*
X42714285Y-16404761D02*
X42857142Y-16452380D01*
X43095238Y-16452380D01*
X43190476Y-16404761D01*
X43238095Y-16357142D01*
X43285714Y-16261904D01*
X43285714Y-16166666D01*
X43238095Y-16071428D01*
X43190476Y-16023809D01*
X43095238Y-15976190D01*
X42904761Y-15928571D01*
X42809523Y-15880952D01*
X42761904Y-15833333D01*
X42714285Y-15738095D01*
X42714285Y-15642857D01*
X42761904Y-15547619D01*
X42809523Y-15500000D01*
X42904761Y-15452380D01*
X43142857Y-15452380D01*
X43285714Y-15500000D01*
X40119047Y-15871428D02*
X40880952Y-15871428D01*
X40500000Y-16252380D02*
X40500000Y-15490476D01*
X38161904Y-15500000D02*
X38066666Y-15452380D01*
X37923809Y-15452380D01*
X37780952Y-15500000D01*
X37685714Y-15595238D01*
X37638095Y-15690476D01*
X37590476Y-15880952D01*
X37590476Y-16023809D01*
X37638095Y-16214285D01*
X37685714Y-16309523D01*
X37780952Y-16404761D01*
X37923809Y-16452380D01*
X38019047Y-16452380D01*
X38161904Y-16404761D01*
X38209523Y-16357142D01*
X38209523Y-16023809D01*
X38019047Y-16023809D01*
D10*
X36814285Y-23907142D02*
X37028571Y-23978571D01*
X37385714Y-23978571D01*
X37528571Y-23907142D01*
X37600000Y-23835714D01*
X37671428Y-23692857D01*
X37671428Y-23550000D01*
X37600000Y-23407142D01*
X37528571Y-23335714D01*
X37385714Y-23264285D01*
X37100000Y-23192857D01*
X36957142Y-23121428D01*
X36885714Y-23050000D01*
X36814285Y-22907142D01*
X36814285Y-22764285D01*
X36885714Y-22621428D01*
X36957142Y-22550000D01*
X37100000Y-22478571D01*
X37457142Y-22478571D01*
X37671428Y-22550000D01*
X38314285Y-23192857D02*
X38814285Y-23192857D01*
X39028571Y-23978571D02*
X38314285Y-23978571D01*
X38314285Y-22478571D01*
X39028571Y-22478571D01*
X40528571Y-23978571D02*
X40028571Y-23264285D01*
X39671428Y-23978571D02*
X39671428Y-22478571D01*
X40242857Y-22478571D01*
X40385714Y-22550000D01*
X40457142Y-22621428D01*
X40528571Y-22764285D01*
X40528571Y-22978571D01*
X40457142Y-23121428D01*
X40385714Y-23192857D01*
X40242857Y-23264285D01*
X39671428Y-23264285D01*
X40957142Y-22478571D02*
X41457142Y-23978571D01*
X41957142Y-22478571D01*
X42742857Y-22478571D02*
X43028571Y-22478571D01*
X43171428Y-22550000D01*
X43314285Y-22692857D01*
X43385714Y-22978571D01*
X43385714Y-23478571D01*
X43314285Y-23764285D01*
X43171428Y-23907142D01*
X43028571Y-23978571D01*
X42742857Y-23978571D01*
X42600000Y-23907142D01*
X42457142Y-23764285D01*
X42385714Y-23478571D01*
X42385714Y-22978571D01*
X42457142Y-22692857D01*
X42600000Y-22550000D01*
X42742857Y-22478571D01*
X26457142Y-19750000D02*
X26314285Y-19678571D01*
X26100000Y-19678571D01*
X25885714Y-19750000D01*
X25742857Y-19892857D01*
X25671428Y-20035714D01*
X25600000Y-20321428D01*
X25600000Y-20535714D01*
X25671428Y-20821428D01*
X25742857Y-20964285D01*
X25885714Y-21107142D01*
X26100000Y-21178571D01*
X26242857Y-21178571D01*
X26457142Y-21107142D01*
X26528571Y-21035714D01*
X26528571Y-20535714D01*
X26242857Y-20535714D01*
X27171428Y-21178571D02*
X27171428Y-19678571D01*
X28028571Y-21178571D01*
X28028571Y-19678571D01*
X28742857Y-21178571D02*
X28742857Y-19678571D01*
X29100000Y-19678571D01*
X29314285Y-19750000D01*
X29457142Y-19892857D01*
X29528571Y-20035714D01*
X29600000Y-20321428D01*
X29600000Y-20535714D01*
X29528571Y-20821428D01*
X29457142Y-20964285D01*
X29314285Y-21107142D01*
X29100000Y-21178571D01*
X28742857Y-21178571D01*
X27214285Y-16978571D02*
X26500000Y-16978571D01*
X26428571Y-17692857D01*
X26500000Y-17621428D01*
X26642857Y-17550000D01*
X27000000Y-17550000D01*
X27142857Y-17621428D01*
X27214285Y-17692857D01*
X27285714Y-17835714D01*
X27285714Y-18192857D01*
X27214285Y-18335714D01*
X27142857Y-18407142D01*
X27000000Y-18478571D01*
X26642857Y-18478571D01*
X26500000Y-18407142D01*
X26428571Y-18335714D01*
X27714285Y-16978571D02*
X28214285Y-18478571D01*
X28714285Y-16978571D01*
X49371428Y-30407142D02*
X49585714Y-30478571D01*
X49942857Y-30478571D01*
X50085714Y-30407142D01*
X50157142Y-30335714D01*
X50228571Y-30192857D01*
X50228571Y-30050000D01*
X50157142Y-29907142D01*
X50085714Y-29835714D01*
X49942857Y-29764285D01*
X49657142Y-29692857D01*
X49514285Y-29621428D01*
X49442857Y-29550000D01*
X49371428Y-29407142D01*
X49371428Y-29264285D01*
X49442857Y-29121428D01*
X49514285Y-29050000D01*
X49657142Y-28978571D01*
X50014285Y-28978571D01*
X50228571Y-29050000D01*
X50657142Y-28978571D02*
X51514285Y-28978571D01*
X51085714Y-30478571D02*
X51085714Y-28978571D01*
X52014285Y-29692857D02*
X52514285Y-29692857D01*
X52728571Y-30478571D02*
X52014285Y-30478571D01*
X52014285Y-28978571D01*
X52728571Y-28978571D01*
X53371428Y-30478571D02*
X53371428Y-28978571D01*
X53942857Y-28978571D01*
X54085714Y-29050000D01*
X54157142Y-29121428D01*
X54228571Y-29264285D01*
X54228571Y-29478571D01*
X54157142Y-29621428D01*
X54085714Y-29692857D01*
X53942857Y-29764285D01*
X53371428Y-29764285D01*
X51000000Y-27678571D02*
X51000000Y-26178571D01*
X51357142Y-26178571D01*
X51571428Y-26250000D01*
X51714285Y-26392857D01*
X51785714Y-26535714D01*
X51857142Y-26821428D01*
X51857142Y-27035714D01*
X51785714Y-27321428D01*
X51714285Y-27464285D01*
X51571428Y-27607142D01*
X51357142Y-27678571D01*
X51000000Y-27678571D01*
X52500000Y-27678571D02*
X52500000Y-26178571D01*
X54071428Y-27678571D02*
X53571428Y-26964285D01*
X53214285Y-27678571D02*
X53214285Y-26178571D01*
X53785714Y-26178571D01*
X53928571Y-26250000D01*
X54000000Y-26321428D01*
X54071428Y-26464285D01*
X54071428Y-26678571D01*
X54000000Y-26821428D01*
X53928571Y-26892857D01*
X53785714Y-26964285D01*
X53214285Y-26964285D01*
X58271428Y-51707142D02*
X58485714Y-51778571D01*
X58842857Y-51778571D01*
X58985714Y-51707142D01*
X59057142Y-51635714D01*
X59128571Y-51492857D01*
X59128571Y-51350000D01*
X59057142Y-51207142D01*
X58985714Y-51135714D01*
X58842857Y-51064285D01*
X58557142Y-50992857D01*
X58414285Y-50921428D01*
X58342857Y-50850000D01*
X58271428Y-50707142D01*
X58271428Y-50564285D01*
X58342857Y-50421428D01*
X58414285Y-50350000D01*
X58557142Y-50278571D01*
X58914285Y-50278571D01*
X59128571Y-50350000D01*
X59557142Y-50278571D02*
X60414285Y-50278571D01*
X59985714Y-51778571D02*
X59985714Y-50278571D01*
X60914285Y-50992857D02*
X61414285Y-50992857D01*
X61628571Y-51778571D02*
X60914285Y-51778571D01*
X60914285Y-50278571D01*
X61628571Y-50278571D01*
X62271428Y-51778571D02*
X62271428Y-50278571D01*
X62842857Y-50278571D01*
X62985714Y-50350000D01*
X63057142Y-50421428D01*
X63128571Y-50564285D01*
X63128571Y-50778571D01*
X63057142Y-50921428D01*
X62985714Y-50992857D01*
X62842857Y-51064285D01*
X62271428Y-51064285D01*
X58300000Y-49378571D02*
X58300000Y-47878571D01*
X58657142Y-47878571D01*
X58871428Y-47950000D01*
X59014285Y-48092857D01*
X59085714Y-48235714D01*
X59157142Y-48521428D01*
X59157142Y-48735714D01*
X59085714Y-49021428D01*
X59014285Y-49164285D01*
X58871428Y-49307142D01*
X58657142Y-49378571D01*
X58300000Y-49378571D01*
X59800000Y-49378571D02*
X59800000Y-47878571D01*
X61371428Y-49378571D02*
X60871428Y-48664285D01*
X60514285Y-49378571D02*
X60514285Y-47878571D01*
X61085714Y-47878571D01*
X61228571Y-47950000D01*
X61300000Y-48021428D01*
X61371428Y-48164285D01*
X61371428Y-48378571D01*
X61300000Y-48521428D01*
X61228571Y-48592857D01*
X61085714Y-48664285D01*
X60514285Y-48664285D01*
X108057142Y-97650000D02*
X107914285Y-97578571D01*
X107700000Y-97578571D01*
X107485714Y-97650000D01*
X107342857Y-97792857D01*
X107271428Y-97935714D01*
X107200000Y-98221428D01*
X107200000Y-98435714D01*
X107271428Y-98721428D01*
X107342857Y-98864285D01*
X107485714Y-99007142D01*
X107700000Y-99078571D01*
X107842857Y-99078571D01*
X108057142Y-99007142D01*
X108128571Y-98935714D01*
X108128571Y-98435714D01*
X107842857Y-98435714D01*
X108771428Y-99078571D02*
X108771428Y-97578571D01*
X109628571Y-99078571D01*
X109628571Y-97578571D01*
X110342857Y-99078571D02*
X110342857Y-97578571D01*
X110700000Y-97578571D01*
X110914285Y-97650000D01*
X111057142Y-97792857D01*
X111128571Y-97935714D01*
X111200000Y-98221428D01*
X111200000Y-98435714D01*
X111128571Y-98721428D01*
X111057142Y-98864285D01*
X110914285Y-99007142D01*
X110700000Y-99078571D01*
X110342857Y-99078571D01*
X116771428Y-96778571D02*
X115914285Y-96778571D01*
X116342857Y-96778571D02*
X116342857Y-95278571D01*
X116200000Y-95492857D01*
X116057142Y-95635714D01*
X115914285Y-95707142D01*
X117342857Y-95421428D02*
X117414285Y-95350000D01*
X117557142Y-95278571D01*
X117914285Y-95278571D01*
X118057142Y-95350000D01*
X118128571Y-95421428D01*
X118200000Y-95564285D01*
X118200000Y-95707142D01*
X118128571Y-95921428D01*
X117271428Y-96778571D01*
X118200000Y-96778571D01*
X118628571Y-95278571D02*
X119128571Y-96778571D01*
X119628571Y-95278571D01*
X120807142Y-86000000D02*
X120878571Y-85785714D01*
X120878571Y-85428571D01*
X120807142Y-85285714D01*
X120735714Y-85214285D01*
X120592857Y-85142857D01*
X120450000Y-85142857D01*
X120307142Y-85214285D01*
X120235714Y-85285714D01*
X120164285Y-85428571D01*
X120092857Y-85714285D01*
X120021428Y-85857142D01*
X119950000Y-85928571D01*
X119807142Y-86000000D01*
X119664285Y-86000000D01*
X119521428Y-85928571D01*
X119450000Y-85857142D01*
X119378571Y-85714285D01*
X119378571Y-85357142D01*
X119450000Y-85142857D01*
X120878571Y-84285714D02*
X120807142Y-84428571D01*
X120735714Y-84500000D01*
X120592857Y-84571428D01*
X120164285Y-84571428D01*
X120021428Y-84500000D01*
X119950000Y-84428571D01*
X119878571Y-84285714D01*
X119878571Y-84071428D01*
X119950000Y-83928571D01*
X120021428Y-83857142D01*
X120164285Y-83785714D01*
X120592857Y-83785714D01*
X120735714Y-83857142D01*
X120807142Y-83928571D01*
X120878571Y-84071428D01*
X120878571Y-84285714D01*
X120878571Y-82928571D02*
X120807142Y-83071428D01*
X120664285Y-83142857D01*
X119378571Y-83142857D01*
X120807142Y-81785714D02*
X120878571Y-81928571D01*
X120878571Y-82214285D01*
X120807142Y-82357142D01*
X120664285Y-82428571D01*
X120092857Y-82428571D01*
X119950000Y-82357142D01*
X119878571Y-82214285D01*
X119878571Y-81928571D01*
X119950000Y-81785714D01*
X120092857Y-81714285D01*
X120235714Y-81714285D01*
X120378571Y-82428571D01*
X119878571Y-81071428D02*
X120878571Y-81071428D01*
X120021428Y-81071428D02*
X119950000Y-81000000D01*
X119878571Y-80857142D01*
X119878571Y-80642857D01*
X119950000Y-80500000D01*
X120092857Y-80428571D01*
X120878571Y-80428571D01*
X120878571Y-79500000D02*
X120807142Y-79642857D01*
X120735714Y-79714285D01*
X120592857Y-79785714D01*
X120164285Y-79785714D01*
X120021428Y-79714285D01*
X119950000Y-79642857D01*
X119878571Y-79500000D01*
X119878571Y-79285714D01*
X119950000Y-79142857D01*
X120021428Y-79071428D01*
X120164285Y-79000000D01*
X120592857Y-79000000D01*
X120735714Y-79071428D01*
X120807142Y-79142857D01*
X120878571Y-79285714D01*
X120878571Y-79500000D01*
X120878571Y-78357142D02*
X119878571Y-78357142D01*
X119378571Y-78357142D02*
X119450000Y-78428571D01*
X119521428Y-78357142D01*
X119450000Y-78285714D01*
X119378571Y-78357142D01*
X119521428Y-78357142D01*
X120878571Y-77000000D02*
X119378571Y-77000000D01*
X120807142Y-77000000D02*
X120878571Y-77142857D01*
X120878571Y-77428571D01*
X120807142Y-77571428D01*
X120735714Y-77642857D01*
X120592857Y-77714285D01*
X120164285Y-77714285D01*
X120021428Y-77642857D01*
X119950000Y-77571428D01*
X119878571Y-77428571D01*
X119878571Y-77142857D01*
X119950000Y-77000000D01*
X119378571Y-74857142D02*
X119378571Y-74571428D01*
X119450000Y-74428571D01*
X119592857Y-74285714D01*
X119878571Y-74214285D01*
X120378571Y-74214285D01*
X120664285Y-74285714D01*
X120807142Y-74428571D01*
X120878571Y-74571428D01*
X120878571Y-74857142D01*
X120807142Y-75000000D01*
X120664285Y-75142857D01*
X120378571Y-75214285D01*
X119878571Y-75214285D01*
X119592857Y-75142857D01*
X119450000Y-75000000D01*
X119378571Y-74857142D01*
X119878571Y-72928571D02*
X120878571Y-72928571D01*
X119878571Y-73571428D02*
X120664285Y-73571428D01*
X120807142Y-73500000D01*
X120878571Y-73357142D01*
X120878571Y-73142857D01*
X120807142Y-73000000D01*
X120735714Y-72928571D01*
X119878571Y-72428571D02*
X119878571Y-71857142D01*
X119378571Y-72214285D02*
X120664285Y-72214285D01*
X120807142Y-72142857D01*
X120878571Y-72000000D01*
X120878571Y-71857142D01*
D12*
G04 #@! TO.C,F1*
X96683318Y-41534756D02*
G75*
G02X96000000Y-41680000I-683318J1534756D01*
G01*
X97535426Y-39316958D02*
G75*
G02X97535000Y-40684000I-1535426J-683042D01*
G01*
X95316958Y-38464574D02*
G75*
G02X96684000Y-38465000I683042J-1535426D01*
G01*
X94464574Y-40683042D02*
G75*
G02X94465000Y-39316000I1535426J683042D01*
G01*
X96028805Y-41680253D02*
G75*
G02X95316000Y-41535000I-28805J1680253D01*
G01*
X102680000Y-40000000D02*
G75*
G03X102680000Y-40000000I-1680000J0D01*
G01*
X93440000Y-44100000D02*
X103560000Y-44100000D01*
X93440000Y-42600000D02*
X103560000Y-42600000D01*
X93440000Y-37699000D02*
X103560000Y-37699000D01*
X93440000Y-34739000D02*
X103560000Y-34739000D01*
X93440000Y-44660000D02*
X103560000Y-44660000D01*
X93440000Y-34739000D02*
X93440000Y-44660000D01*
X103560000Y-34739000D02*
X103560000Y-44660000D01*
X102275000Y-38931000D02*
X102228000Y-38977000D01*
X99966000Y-41239000D02*
X99931000Y-41274000D01*
X102070000Y-38725000D02*
X102035000Y-38761000D01*
X99773000Y-41023000D02*
X99726000Y-41069000D01*
X93200000Y-44160000D02*
X93200000Y-44900000D01*
X93200000Y-44900000D02*
X93700000Y-44900000D01*
G04 #@! TO.C,S2*
X58330000Y-16670000D02*
X58330000Y-18000000D01*
X57000000Y-16670000D02*
X58330000Y-16670000D01*
X55730000Y-16670000D02*
X55730000Y-19330000D01*
X55730000Y-19330000D02*
X48050000Y-19330000D01*
X55730000Y-16670000D02*
X48050000Y-16670000D01*
X48050000Y-16670000D02*
X48050000Y-19330000D01*
G04 #@! TO.C,C1*
X32740302Y-58285000D02*
X32740302Y-59085000D01*
X32340302Y-58685000D02*
X33140302Y-58685000D01*
X40831000Y-60467000D02*
X40831000Y-61533000D01*
X40791000Y-60232000D02*
X40791000Y-61768000D01*
X40751000Y-60052000D02*
X40751000Y-61948000D01*
X40711000Y-59902000D02*
X40711000Y-62098000D01*
X40671000Y-59771000D02*
X40671000Y-62229000D01*
X40631000Y-59654000D02*
X40631000Y-62346000D01*
X40591000Y-59547000D02*
X40591000Y-62453000D01*
X40551000Y-59448000D02*
X40551000Y-62552000D01*
X40511000Y-59355000D02*
X40511000Y-62645000D01*
X40471000Y-59269000D02*
X40471000Y-62731000D01*
X40431000Y-59187000D02*
X40431000Y-62813000D01*
X40391000Y-59110000D02*
X40391000Y-62890000D01*
X40351000Y-59036000D02*
X40351000Y-62964000D01*
X40311000Y-58966000D02*
X40311000Y-63034000D01*
X40271000Y-58898000D02*
X40271000Y-63102000D01*
X40231000Y-58834000D02*
X40231000Y-63166000D01*
X40191000Y-58772000D02*
X40191000Y-63228000D01*
X40151000Y-58713000D02*
X40151000Y-63287000D01*
X40111000Y-58655000D02*
X40111000Y-63345000D01*
X40071000Y-58600000D02*
X40071000Y-63400000D01*
X40031000Y-58546000D02*
X40031000Y-63454000D01*
X39991000Y-58495000D02*
X39991000Y-63505000D01*
X39951000Y-58444000D02*
X39951000Y-63556000D01*
X39911000Y-58396000D02*
X39911000Y-63604000D01*
X39871000Y-58349000D02*
X39871000Y-63651000D01*
X39831000Y-58303000D02*
X39831000Y-63697000D01*
X39791000Y-58259000D02*
X39791000Y-63741000D01*
X39751000Y-58216000D02*
X39751000Y-63784000D01*
X39711000Y-58174000D02*
X39711000Y-63826000D01*
X39671000Y-58133000D02*
X39671000Y-63867000D01*
X39631000Y-58093000D02*
X39631000Y-63907000D01*
X39591000Y-58055000D02*
X39591000Y-63945000D01*
X39551000Y-58017000D02*
X39551000Y-63983000D01*
X39511000Y-62040000D02*
X39511000Y-64019000D01*
X39511000Y-57981000D02*
X39511000Y-59960000D01*
X39471000Y-62040000D02*
X39471000Y-64055000D01*
X39471000Y-57945000D02*
X39471000Y-59960000D01*
X39431000Y-62040000D02*
X39431000Y-64090000D01*
X39431000Y-57910000D02*
X39431000Y-59960000D01*
X39391000Y-62040000D02*
X39391000Y-64124000D01*
X39391000Y-57876000D02*
X39391000Y-59960000D01*
X39351000Y-62040000D02*
X39351000Y-64156000D01*
X39351000Y-57844000D02*
X39351000Y-59960000D01*
X39311000Y-62040000D02*
X39311000Y-64189000D01*
X39311000Y-57811000D02*
X39311000Y-59960000D01*
X39271000Y-62040000D02*
X39271000Y-64220000D01*
X39271000Y-57780000D02*
X39271000Y-59960000D01*
X39231000Y-62040000D02*
X39231000Y-64250000D01*
X39231000Y-57750000D02*
X39231000Y-59960000D01*
X39191000Y-62040000D02*
X39191000Y-64280000D01*
X39191000Y-57720000D02*
X39191000Y-59960000D01*
X39151000Y-62040000D02*
X39151000Y-64309000D01*
X39151000Y-57691000D02*
X39151000Y-59960000D01*
X39111000Y-62040000D02*
X39111000Y-64338000D01*
X39111000Y-57662000D02*
X39111000Y-59960000D01*
X39071000Y-62040000D02*
X39071000Y-64365000D01*
X39071000Y-57635000D02*
X39071000Y-59960000D01*
X39031000Y-62040000D02*
X39031000Y-64392000D01*
X39031000Y-57608000D02*
X39031000Y-59960000D01*
X38991000Y-62040000D02*
X38991000Y-64418000D01*
X38991000Y-57582000D02*
X38991000Y-59960000D01*
X38951000Y-62040000D02*
X38951000Y-64444000D01*
X38951000Y-57556000D02*
X38951000Y-59960000D01*
X38911000Y-62040000D02*
X38911000Y-64469000D01*
X38911000Y-57531000D02*
X38911000Y-59960000D01*
X38871000Y-62040000D02*
X38871000Y-64493000D01*
X38871000Y-57507000D02*
X38871000Y-59960000D01*
X38831000Y-62040000D02*
X38831000Y-64517000D01*
X38831000Y-57483000D02*
X38831000Y-59960000D01*
X38791000Y-62040000D02*
X38791000Y-64540000D01*
X38791000Y-57460000D02*
X38791000Y-59960000D01*
X38751000Y-62040000D02*
X38751000Y-64562000D01*
X38751000Y-57438000D02*
X38751000Y-59960000D01*
X38711000Y-62040000D02*
X38711000Y-64584000D01*
X38711000Y-57416000D02*
X38711000Y-59960000D01*
X38671000Y-62040000D02*
X38671000Y-64606000D01*
X38671000Y-57394000D02*
X38671000Y-59960000D01*
X38631000Y-62040000D02*
X38631000Y-64627000D01*
X38631000Y-57373000D02*
X38631000Y-59960000D01*
X38591000Y-62040000D02*
X38591000Y-64647000D01*
X38591000Y-57353000D02*
X38591000Y-59960000D01*
X38551000Y-62040000D02*
X38551000Y-64666000D01*
X38551000Y-57334000D02*
X38551000Y-59960000D01*
X38511000Y-62040000D02*
X38511000Y-64686000D01*
X38511000Y-57314000D02*
X38511000Y-59960000D01*
X38471000Y-62040000D02*
X38471000Y-64704000D01*
X38471000Y-57296000D02*
X38471000Y-59960000D01*
X38431000Y-62040000D02*
X38431000Y-64722000D01*
X38431000Y-57278000D02*
X38431000Y-59960000D01*
X38391000Y-62040000D02*
X38391000Y-64740000D01*
X38391000Y-57260000D02*
X38391000Y-59960000D01*
X38351000Y-62040000D02*
X38351000Y-64757000D01*
X38351000Y-57243000D02*
X38351000Y-59960000D01*
X38311000Y-62040000D02*
X38311000Y-64774000D01*
X38311000Y-57226000D02*
X38311000Y-59960000D01*
X38271000Y-62040000D02*
X38271000Y-64790000D01*
X38271000Y-57210000D02*
X38271000Y-59960000D01*
X38231000Y-62040000D02*
X38231000Y-64805000D01*
X38231000Y-57195000D02*
X38231000Y-59960000D01*
X38191000Y-62040000D02*
X38191000Y-64821000D01*
X38191000Y-57179000D02*
X38191000Y-59960000D01*
X38151000Y-62040000D02*
X38151000Y-64835000D01*
X38151000Y-57165000D02*
X38151000Y-59960000D01*
X38111000Y-62040000D02*
X38111000Y-64850000D01*
X38111000Y-57150000D02*
X38111000Y-59960000D01*
X38071000Y-62040000D02*
X38071000Y-64863000D01*
X38071000Y-57137000D02*
X38071000Y-59960000D01*
X38031000Y-62040000D02*
X38031000Y-64877000D01*
X38031000Y-57123000D02*
X38031000Y-59960000D01*
X37991000Y-62040000D02*
X37991000Y-64889000D01*
X37991000Y-57111000D02*
X37991000Y-59960000D01*
X37951000Y-62040000D02*
X37951000Y-64902000D01*
X37951000Y-57098000D02*
X37951000Y-59960000D01*
X37911000Y-62040000D02*
X37911000Y-64914000D01*
X37911000Y-57086000D02*
X37911000Y-59960000D01*
X37871000Y-62040000D02*
X37871000Y-64925000D01*
X37871000Y-57075000D02*
X37871000Y-59960000D01*
X37831000Y-62040000D02*
X37831000Y-64936000D01*
X37831000Y-57064000D02*
X37831000Y-59960000D01*
X37791000Y-62040000D02*
X37791000Y-64947000D01*
X37791000Y-57053000D02*
X37791000Y-59960000D01*
X37751000Y-62040000D02*
X37751000Y-64957000D01*
X37751000Y-57043000D02*
X37751000Y-59960000D01*
X37711000Y-62040000D02*
X37711000Y-64967000D01*
X37711000Y-57033000D02*
X37711000Y-59960000D01*
X37671000Y-62040000D02*
X37671000Y-64976000D01*
X37671000Y-57024000D02*
X37671000Y-59960000D01*
X37631000Y-62040000D02*
X37631000Y-64985000D01*
X37631000Y-57015000D02*
X37631000Y-59960000D01*
X37591000Y-62040000D02*
X37591000Y-64994000D01*
X37591000Y-57006000D02*
X37591000Y-59960000D01*
X37551000Y-62040000D02*
X37551000Y-65002000D01*
X37551000Y-56998000D02*
X37551000Y-59960000D01*
X37511000Y-62040000D02*
X37511000Y-65010000D01*
X37511000Y-56990000D02*
X37511000Y-59960000D01*
X37471000Y-62040000D02*
X37471000Y-65017000D01*
X37471000Y-56983000D02*
X37471000Y-59960000D01*
X37430000Y-56976000D02*
X37430000Y-65024000D01*
X37390000Y-56970000D02*
X37390000Y-65030000D01*
X37350000Y-56963000D02*
X37350000Y-65037000D01*
X37310000Y-56958000D02*
X37310000Y-65042000D01*
X37270000Y-56952000D02*
X37270000Y-65048000D01*
X37230000Y-56948000D02*
X37230000Y-65052000D01*
X37190000Y-56943000D02*
X37190000Y-65057000D01*
X37150000Y-56939000D02*
X37150000Y-65061000D01*
X37110000Y-56935000D02*
X37110000Y-65065000D01*
X37070000Y-56932000D02*
X37070000Y-65068000D01*
X37030000Y-56929000D02*
X37030000Y-65071000D01*
X36990000Y-56926000D02*
X36990000Y-65074000D01*
X36950000Y-56924000D02*
X36950000Y-65076000D01*
X36910000Y-56923000D02*
X36910000Y-65077000D01*
X36870000Y-56921000D02*
X36870000Y-65079000D01*
X36830000Y-56920000D02*
X36830000Y-65080000D01*
X36790000Y-56920000D02*
X36790000Y-65080000D01*
X36750000Y-56920000D02*
X36750000Y-65080000D01*
X40870000Y-61000000D02*
G75*
G03X40870000Y-61000000I-4120000J0D01*
G01*
G04 #@! TO.C,C2*
X40120000Y-50250000D02*
G75*
G03X40120000Y-50250000I-4120000J0D01*
G01*
X31920000Y-50250000D02*
X40080000Y-50250000D01*
X31920000Y-50210000D02*
X40080000Y-50210000D01*
X31920000Y-50170000D02*
X40080000Y-50170000D01*
X31921000Y-50130000D02*
X40079000Y-50130000D01*
X31923000Y-50090000D02*
X40077000Y-50090000D01*
X31924000Y-50050000D02*
X40076000Y-50050000D01*
X31926000Y-50010000D02*
X40074000Y-50010000D01*
X31929000Y-49970000D02*
X40071000Y-49970000D01*
X31932000Y-49930000D02*
X40068000Y-49930000D01*
X31935000Y-49890000D02*
X40065000Y-49890000D01*
X31939000Y-49850000D02*
X40061000Y-49850000D01*
X31943000Y-49810000D02*
X40057000Y-49810000D01*
X31948000Y-49770000D02*
X40052000Y-49770000D01*
X31952000Y-49730000D02*
X40048000Y-49730000D01*
X31958000Y-49690000D02*
X40042000Y-49690000D01*
X31963000Y-49650000D02*
X40037000Y-49650000D01*
X31970000Y-49610000D02*
X40030000Y-49610000D01*
X31976000Y-49570000D02*
X40024000Y-49570000D01*
X31983000Y-49529000D02*
X34960000Y-49529000D01*
X37040000Y-49529000D02*
X40017000Y-49529000D01*
X31990000Y-49489000D02*
X34960000Y-49489000D01*
X37040000Y-49489000D02*
X40010000Y-49489000D01*
X31998000Y-49449000D02*
X34960000Y-49449000D01*
X37040000Y-49449000D02*
X40002000Y-49449000D01*
X32006000Y-49409000D02*
X34960000Y-49409000D01*
X37040000Y-49409000D02*
X39994000Y-49409000D01*
X32015000Y-49369000D02*
X34960000Y-49369000D01*
X37040000Y-49369000D02*
X39985000Y-49369000D01*
X32024000Y-49329000D02*
X34960000Y-49329000D01*
X37040000Y-49329000D02*
X39976000Y-49329000D01*
X32033000Y-49289000D02*
X34960000Y-49289000D01*
X37040000Y-49289000D02*
X39967000Y-49289000D01*
X32043000Y-49249000D02*
X34960000Y-49249000D01*
X37040000Y-49249000D02*
X39957000Y-49249000D01*
X32053000Y-49209000D02*
X34960000Y-49209000D01*
X37040000Y-49209000D02*
X39947000Y-49209000D01*
X32064000Y-49169000D02*
X34960000Y-49169000D01*
X37040000Y-49169000D02*
X39936000Y-49169000D01*
X32075000Y-49129000D02*
X34960000Y-49129000D01*
X37040000Y-49129000D02*
X39925000Y-49129000D01*
X32086000Y-49089000D02*
X34960000Y-49089000D01*
X37040000Y-49089000D02*
X39914000Y-49089000D01*
X32098000Y-49049000D02*
X34960000Y-49049000D01*
X37040000Y-49049000D02*
X39902000Y-49049000D01*
X32111000Y-49009000D02*
X34960000Y-49009000D01*
X37040000Y-49009000D02*
X39889000Y-49009000D01*
X32123000Y-48969000D02*
X34960000Y-48969000D01*
X37040000Y-48969000D02*
X39877000Y-48969000D01*
X32137000Y-48929000D02*
X34960000Y-48929000D01*
X37040000Y-48929000D02*
X39863000Y-48929000D01*
X32150000Y-48889000D02*
X34960000Y-48889000D01*
X37040000Y-48889000D02*
X39850000Y-48889000D01*
X32165000Y-48849000D02*
X34960000Y-48849000D01*
X37040000Y-48849000D02*
X39835000Y-48849000D01*
X32179000Y-48809000D02*
X34960000Y-48809000D01*
X37040000Y-48809000D02*
X39821000Y-48809000D01*
X32195000Y-48769000D02*
X34960000Y-48769000D01*
X37040000Y-48769000D02*
X39805000Y-48769000D01*
X32210000Y-48729000D02*
X34960000Y-48729000D01*
X37040000Y-48729000D02*
X39790000Y-48729000D01*
X32226000Y-48689000D02*
X34960000Y-48689000D01*
X37040000Y-48689000D02*
X39774000Y-48689000D01*
X32243000Y-48649000D02*
X34960000Y-48649000D01*
X37040000Y-48649000D02*
X39757000Y-48649000D01*
X32260000Y-48609000D02*
X34960000Y-48609000D01*
X37040000Y-48609000D02*
X39740000Y-48609000D01*
X32278000Y-48569000D02*
X34960000Y-48569000D01*
X37040000Y-48569000D02*
X39722000Y-48569000D01*
X32296000Y-48529000D02*
X34960000Y-48529000D01*
X37040000Y-48529000D02*
X39704000Y-48529000D01*
X32314000Y-48489000D02*
X34960000Y-48489000D01*
X37040000Y-48489000D02*
X39686000Y-48489000D01*
X32334000Y-48449000D02*
X34960000Y-48449000D01*
X37040000Y-48449000D02*
X39666000Y-48449000D01*
X32353000Y-48409000D02*
X34960000Y-48409000D01*
X37040000Y-48409000D02*
X39647000Y-48409000D01*
X32373000Y-48369000D02*
X34960000Y-48369000D01*
X37040000Y-48369000D02*
X39627000Y-48369000D01*
X32394000Y-48329000D02*
X34960000Y-48329000D01*
X37040000Y-48329000D02*
X39606000Y-48329000D01*
X32416000Y-48289000D02*
X34960000Y-48289000D01*
X37040000Y-48289000D02*
X39584000Y-48289000D01*
X32438000Y-48249000D02*
X34960000Y-48249000D01*
X37040000Y-48249000D02*
X39562000Y-48249000D01*
X32460000Y-48209000D02*
X34960000Y-48209000D01*
X37040000Y-48209000D02*
X39540000Y-48209000D01*
X32483000Y-48169000D02*
X34960000Y-48169000D01*
X37040000Y-48169000D02*
X39517000Y-48169000D01*
X32507000Y-48129000D02*
X34960000Y-48129000D01*
X37040000Y-48129000D02*
X39493000Y-48129000D01*
X32531000Y-48089000D02*
X34960000Y-48089000D01*
X37040000Y-48089000D02*
X39469000Y-48089000D01*
X32556000Y-48049000D02*
X34960000Y-48049000D01*
X37040000Y-48049000D02*
X39444000Y-48049000D01*
X32582000Y-48009000D02*
X34960000Y-48009000D01*
X37040000Y-48009000D02*
X39418000Y-48009000D01*
X32608000Y-47969000D02*
X34960000Y-47969000D01*
X37040000Y-47969000D02*
X39392000Y-47969000D01*
X32635000Y-47929000D02*
X34960000Y-47929000D01*
X37040000Y-47929000D02*
X39365000Y-47929000D01*
X32662000Y-47889000D02*
X34960000Y-47889000D01*
X37040000Y-47889000D02*
X39338000Y-47889000D01*
X32691000Y-47849000D02*
X34960000Y-47849000D01*
X37040000Y-47849000D02*
X39309000Y-47849000D01*
X32720000Y-47809000D02*
X34960000Y-47809000D01*
X37040000Y-47809000D02*
X39280000Y-47809000D01*
X32750000Y-47769000D02*
X34960000Y-47769000D01*
X37040000Y-47769000D02*
X39250000Y-47769000D01*
X32780000Y-47729000D02*
X34960000Y-47729000D01*
X37040000Y-47729000D02*
X39220000Y-47729000D01*
X32811000Y-47689000D02*
X34960000Y-47689000D01*
X37040000Y-47689000D02*
X39189000Y-47689000D01*
X32844000Y-47649000D02*
X34960000Y-47649000D01*
X37040000Y-47649000D02*
X39156000Y-47649000D01*
X32876000Y-47609000D02*
X34960000Y-47609000D01*
X37040000Y-47609000D02*
X39124000Y-47609000D01*
X32910000Y-47569000D02*
X34960000Y-47569000D01*
X37040000Y-47569000D02*
X39090000Y-47569000D01*
X32945000Y-47529000D02*
X34960000Y-47529000D01*
X37040000Y-47529000D02*
X39055000Y-47529000D01*
X32981000Y-47489000D02*
X34960000Y-47489000D01*
X37040000Y-47489000D02*
X39019000Y-47489000D01*
X33017000Y-47449000D02*
X38983000Y-47449000D01*
X33055000Y-47409000D02*
X38945000Y-47409000D01*
X33093000Y-47369000D02*
X38907000Y-47369000D01*
X33133000Y-47329000D02*
X38867000Y-47329000D01*
X33174000Y-47289000D02*
X38826000Y-47289000D01*
X33216000Y-47249000D02*
X38784000Y-47249000D01*
X33259000Y-47209000D02*
X38741000Y-47209000D01*
X33303000Y-47169000D02*
X38697000Y-47169000D01*
X33349000Y-47129000D02*
X38651000Y-47129000D01*
X33396000Y-47089000D02*
X38604000Y-47089000D01*
X33444000Y-47049000D02*
X38556000Y-47049000D01*
X33495000Y-47009000D02*
X38505000Y-47009000D01*
X33546000Y-46969000D02*
X38454000Y-46969000D01*
X33600000Y-46929000D02*
X38400000Y-46929000D01*
X33655000Y-46889000D02*
X38345000Y-46889000D01*
X33713000Y-46849000D02*
X38287000Y-46849000D01*
X33772000Y-46809000D02*
X38228000Y-46809000D01*
X33834000Y-46769000D02*
X38166000Y-46769000D01*
X33898000Y-46729000D02*
X38102000Y-46729000D01*
X33966000Y-46689000D02*
X38034000Y-46689000D01*
X34036000Y-46649000D02*
X37964000Y-46649000D01*
X34110000Y-46609000D02*
X37890000Y-46609000D01*
X34187000Y-46569000D02*
X37813000Y-46569000D01*
X34269000Y-46529000D02*
X37731000Y-46529000D01*
X34355000Y-46489000D02*
X37645000Y-46489000D01*
X34448000Y-46449000D02*
X37552000Y-46449000D01*
X34547000Y-46409000D02*
X37453000Y-46409000D01*
X34654000Y-46369000D02*
X37346000Y-46369000D01*
X34771000Y-46329000D02*
X37229000Y-46329000D01*
X34902000Y-46289000D02*
X37098000Y-46289000D01*
X35052000Y-46249000D02*
X36948000Y-46249000D01*
X35232000Y-46209000D02*
X36768000Y-46209000D01*
X35467000Y-46169000D02*
X36533000Y-46169000D01*
X33685000Y-54659698D02*
X33685000Y-53859698D01*
X33285000Y-54259698D02*
X34085000Y-54259698D01*
G04 #@! TO.C,D12*
X103530000Y-104860000D02*
X106470000Y-104860000D01*
X103530000Y-104620000D02*
X106470000Y-104620000D01*
X103530000Y-104740000D02*
X106470000Y-104740000D01*
X105000000Y-99180000D02*
X105000000Y-100200000D01*
X105000000Y-106660000D02*
X105000000Y-105640000D01*
X103530000Y-100200000D02*
X103530000Y-105640000D01*
X106470000Y-100200000D02*
X103530000Y-100200000D01*
X106470000Y-105640000D02*
X106470000Y-100200000D01*
X103530000Y-105640000D02*
X106470000Y-105640000D01*
G04 #@! TO.C,D14*
X73530000Y-105640000D02*
X76470000Y-105640000D01*
X76470000Y-105640000D02*
X76470000Y-100200000D01*
X76470000Y-100200000D02*
X73530000Y-100200000D01*
X73530000Y-100200000D02*
X73530000Y-105640000D01*
X75000000Y-106660000D02*
X75000000Y-105640000D01*
X75000000Y-99180000D02*
X75000000Y-100200000D01*
X73530000Y-104740000D02*
X76470000Y-104740000D01*
X73530000Y-104620000D02*
X76470000Y-104620000D01*
X73530000Y-104860000D02*
X76470000Y-104860000D01*
G04 #@! TO.C,D10*
X88530000Y-89860000D02*
X91470000Y-89860000D01*
X88530000Y-89620000D02*
X91470000Y-89620000D01*
X88530000Y-89740000D02*
X91470000Y-89740000D01*
X90000000Y-84180000D02*
X90000000Y-85200000D01*
X90000000Y-91660000D02*
X90000000Y-90640000D01*
X88530000Y-85200000D02*
X88530000Y-90640000D01*
X91470000Y-85200000D02*
X88530000Y-85200000D01*
X91470000Y-90640000D02*
X91470000Y-85200000D01*
X88530000Y-90640000D02*
X91470000Y-90640000D01*
G04 #@! TO.C,D4*
X88530000Y-61640000D02*
X91470000Y-61640000D01*
X91470000Y-61640000D02*
X91470000Y-56200000D01*
X91470000Y-56200000D02*
X88530000Y-56200000D01*
X88530000Y-56200000D02*
X88530000Y-61640000D01*
X90000000Y-62660000D02*
X90000000Y-61640000D01*
X90000000Y-55180000D02*
X90000000Y-56200000D01*
X88530000Y-60740000D02*
X91470000Y-60740000D01*
X88530000Y-60620000D02*
X91470000Y-60620000D01*
X88530000Y-60860000D02*
X91470000Y-60860000D01*
G04 #@! TO.C,D6*
X103530000Y-74860000D02*
X106470000Y-74860000D01*
X103530000Y-74620000D02*
X106470000Y-74620000D01*
X103530000Y-74740000D02*
X106470000Y-74740000D01*
X105000000Y-69180000D02*
X105000000Y-70200000D01*
X105000000Y-76660000D02*
X105000000Y-75640000D01*
X103530000Y-70200000D02*
X103530000Y-75640000D01*
X106470000Y-70200000D02*
X103530000Y-70200000D01*
X106470000Y-75640000D02*
X106470000Y-70200000D01*
X103530000Y-75640000D02*
X106470000Y-75640000D01*
G04 #@! TO.C,D8*
X73530000Y-74860000D02*
X76470000Y-74860000D01*
X73530000Y-74620000D02*
X76470000Y-74620000D01*
X73530000Y-74740000D02*
X76470000Y-74740000D01*
X75000000Y-69180000D02*
X75000000Y-70200000D01*
X75000000Y-76660000D02*
X75000000Y-75640000D01*
X73530000Y-70200000D02*
X73530000Y-75640000D01*
X76470000Y-70200000D02*
X73530000Y-70200000D01*
X76470000Y-75640000D02*
X76470000Y-70200000D01*
X73530000Y-75640000D02*
X76470000Y-75640000D01*
G04 #@! TO.C,D2*
X116530000Y-55860000D02*
X119470000Y-55860000D01*
X116530000Y-55620000D02*
X119470000Y-55620000D01*
X116530000Y-55740000D02*
X119470000Y-55740000D01*
X118000000Y-50180000D02*
X118000000Y-51200000D01*
X118000000Y-57660000D02*
X118000000Y-56640000D01*
X116530000Y-51200000D02*
X116530000Y-56640000D01*
X119470000Y-51200000D02*
X116530000Y-51200000D01*
X119470000Y-56640000D02*
X119470000Y-51200000D01*
X116530000Y-56640000D02*
X119470000Y-56640000D01*
G04 #@! TO.C,D11*
X73530000Y-90640000D02*
X76470000Y-90640000D01*
X76470000Y-90640000D02*
X76470000Y-85200000D01*
X76470000Y-85200000D02*
X73530000Y-85200000D01*
X73530000Y-85200000D02*
X73530000Y-90640000D01*
X75000000Y-91660000D02*
X75000000Y-90640000D01*
X75000000Y-84180000D02*
X75000000Y-85200000D01*
X73530000Y-89740000D02*
X76470000Y-89740000D01*
X73530000Y-89620000D02*
X76470000Y-89620000D01*
X73530000Y-89860000D02*
X76470000Y-89860000D01*
G04 #@! TO.C,D13*
X88530000Y-104860000D02*
X91470000Y-104860000D01*
X88530000Y-104620000D02*
X91470000Y-104620000D01*
X88530000Y-104740000D02*
X91470000Y-104740000D01*
X90000000Y-99180000D02*
X90000000Y-100200000D01*
X90000000Y-106660000D02*
X90000000Y-105640000D01*
X88530000Y-100200000D02*
X88530000Y-105640000D01*
X91470000Y-100200000D02*
X88530000Y-100200000D01*
X91470000Y-105640000D02*
X91470000Y-100200000D01*
X88530000Y-105640000D02*
X91470000Y-105640000D01*
G04 #@! TO.C,D9*
X103530000Y-90640000D02*
X106470000Y-90640000D01*
X106470000Y-90640000D02*
X106470000Y-85200000D01*
X106470000Y-85200000D02*
X103530000Y-85200000D01*
X103530000Y-85200000D02*
X103530000Y-90640000D01*
X105000000Y-91660000D02*
X105000000Y-90640000D01*
X105000000Y-84180000D02*
X105000000Y-85200000D01*
X103530000Y-89740000D02*
X106470000Y-89740000D01*
X103530000Y-89620000D02*
X106470000Y-89620000D01*
X103530000Y-89860000D02*
X106470000Y-89860000D01*
G04 #@! TO.C,D3*
X103530000Y-61640000D02*
X106470000Y-61640000D01*
X106470000Y-61640000D02*
X106470000Y-56200000D01*
X106470000Y-56200000D02*
X103530000Y-56200000D01*
X103530000Y-56200000D02*
X103530000Y-61640000D01*
X105000000Y-62660000D02*
X105000000Y-61640000D01*
X105000000Y-55180000D02*
X105000000Y-56200000D01*
X103530000Y-60740000D02*
X106470000Y-60740000D01*
X103530000Y-60620000D02*
X106470000Y-60620000D01*
X103530000Y-60860000D02*
X106470000Y-60860000D01*
G04 #@! TO.C,D5*
X73530000Y-61640000D02*
X76470000Y-61640000D01*
X76470000Y-61640000D02*
X76470000Y-56200000D01*
X76470000Y-56200000D02*
X73530000Y-56200000D01*
X73530000Y-56200000D02*
X73530000Y-61640000D01*
X75000000Y-62660000D02*
X75000000Y-61640000D01*
X75000000Y-55180000D02*
X75000000Y-56200000D01*
X73530000Y-60740000D02*
X76470000Y-60740000D01*
X73530000Y-60620000D02*
X76470000Y-60620000D01*
X73530000Y-60860000D02*
X76470000Y-60860000D01*
G04 #@! TO.C,D7*
X88530000Y-75640000D02*
X91470000Y-75640000D01*
X91470000Y-75640000D02*
X91470000Y-70200000D01*
X91470000Y-70200000D02*
X88530000Y-70200000D01*
X88530000Y-70200000D02*
X88530000Y-75640000D01*
X90000000Y-76660000D02*
X90000000Y-75640000D01*
X90000000Y-69180000D02*
X90000000Y-70200000D01*
X88530000Y-74740000D02*
X91470000Y-74740000D01*
X88530000Y-74620000D02*
X91470000Y-74620000D01*
X88530000Y-74860000D02*
X91470000Y-74860000D01*
G04 #@! TO.C,D1*
X116530000Y-42640000D02*
X119470000Y-42640000D01*
X119470000Y-42640000D02*
X119470000Y-37200000D01*
X119470000Y-37200000D02*
X116530000Y-37200000D01*
X116530000Y-37200000D02*
X116530000Y-42640000D01*
X118000000Y-43660000D02*
X118000000Y-42640000D01*
X118000000Y-36180000D02*
X118000000Y-37200000D01*
X116530000Y-41740000D02*
X119470000Y-41740000D01*
X116530000Y-41620000D02*
X119470000Y-41620000D01*
X116530000Y-41860000D02*
X119470000Y-41860000D01*
G04 #@! TO.C,D15*
X88950000Y-41860000D02*
X91890000Y-41860000D01*
X88950000Y-41620000D02*
X91890000Y-41620000D01*
X88950000Y-41740000D02*
X91890000Y-41740000D01*
X90420000Y-36180000D02*
X90420000Y-37200000D01*
X90420000Y-43660000D02*
X90420000Y-42640000D01*
X88950000Y-37200000D02*
X88950000Y-42640000D01*
X91890000Y-37200000D02*
X88950000Y-37200000D01*
X91890000Y-42640000D02*
X91890000Y-37200000D01*
X88950000Y-42640000D02*
X91890000Y-42640000D01*
G04 #@! TO.C,J1*
X44330000Y-21870000D02*
X44330000Y-16670000D01*
X39190000Y-21870000D02*
X44330000Y-21870000D01*
X36590000Y-16670000D02*
X44330000Y-16670000D01*
X39190000Y-21870000D02*
X39190000Y-19270000D01*
X39190000Y-19270000D02*
X36590000Y-19270000D01*
X36590000Y-19270000D02*
X36590000Y-16670000D01*
X37920000Y-21870000D02*
X36590000Y-21870000D01*
X36590000Y-21870000D02*
X36590000Y-20540000D01*
G04 #@! TO.C,J2*
X119800000Y-99100000D02*
X119300000Y-99100000D01*
X119800000Y-99840000D02*
X119800000Y-99100000D01*
X113227000Y-102977000D02*
X113274000Y-102931000D01*
X110930000Y-105275000D02*
X110965000Y-105239000D01*
X113034000Y-102761000D02*
X113069000Y-102726000D01*
X110725000Y-105069000D02*
X110772000Y-105023000D01*
X109440000Y-109261000D02*
X109440000Y-99340000D01*
X119560000Y-109261000D02*
X119560000Y-99340000D01*
X119560000Y-99340000D02*
X109440000Y-99340000D01*
X119560000Y-109261000D02*
X109440000Y-109261000D01*
X119560000Y-106301000D02*
X109440000Y-106301000D01*
X119560000Y-101400000D02*
X109440000Y-101400000D01*
X119560000Y-99900000D02*
X109440000Y-99900000D01*
X113680000Y-104000000D02*
G75*
G03X113680000Y-104000000I-1680000J0D01*
G01*
X116971195Y-102319747D02*
G75*
G02X117684000Y-102465000I28805J-1680253D01*
G01*
X118535426Y-103316958D02*
G75*
G02X118535000Y-104684000I-1535426J-683042D01*
G01*
X117683042Y-105535426D02*
G75*
G02X116316000Y-105535000I-683042J1535426D01*
G01*
X115464574Y-104683042D02*
G75*
G02X115465000Y-103316000I1535426J683042D01*
G01*
X116316682Y-102465244D02*
G75*
G02X117000000Y-102320000I683318J-1534756D01*
G01*
G04 #@! TO.C,J3*
X70330000Y-23330000D02*
X70330000Y-20670000D01*
X67730000Y-23330000D02*
X70330000Y-23330000D01*
X67730000Y-20670000D02*
X70330000Y-20670000D01*
X67730000Y-23330000D02*
X67730000Y-20670000D01*
X66460000Y-23330000D02*
X65130000Y-23330000D01*
X65130000Y-23330000D02*
X65130000Y-22000000D01*
G04 #@! TO.C,J4*
X73790000Y-39330000D02*
X76450000Y-39330000D01*
X73790000Y-36730000D02*
X73790000Y-39330000D01*
X76450000Y-36730000D02*
X76450000Y-39330000D01*
X73790000Y-36730000D02*
X76450000Y-36730000D01*
X73790000Y-35460000D02*
X73790000Y-34130000D01*
X73790000Y-34130000D02*
X75120000Y-34130000D01*
G04 #@! TO.C,J5*
X71250000Y-34130000D02*
X72580000Y-34130000D01*
X71250000Y-35460000D02*
X71250000Y-34130000D01*
X71250000Y-36730000D02*
X73910000Y-36730000D01*
X73910000Y-36730000D02*
X73910000Y-39330000D01*
X71250000Y-36730000D02*
X71250000Y-39330000D01*
X71250000Y-39330000D02*
X73910000Y-39330000D01*
G04 #@! TO.C,J6*
X68710000Y-34130000D02*
X70040000Y-34130000D01*
X68710000Y-35460000D02*
X68710000Y-34130000D01*
X68710000Y-36730000D02*
X71370000Y-36730000D01*
X71370000Y-36730000D02*
X71370000Y-39330000D01*
X68710000Y-36730000D02*
X68710000Y-39330000D01*
X68710000Y-39330000D02*
X71370000Y-39330000D01*
G04 #@! TO.C,J7*
X29130000Y-21870000D02*
X34330000Y-21870000D01*
X29130000Y-19270000D02*
X29130000Y-21870000D01*
X34330000Y-16670000D02*
X34330000Y-21870000D01*
X29130000Y-19270000D02*
X31730000Y-19270000D01*
X31730000Y-19270000D02*
X31730000Y-16670000D01*
X31730000Y-16670000D02*
X34330000Y-16670000D01*
X29130000Y-18000000D02*
X29130000Y-16670000D01*
X29130000Y-16670000D02*
X30460000Y-16670000D01*
G04 #@! TO.C,Q12*
X95590000Y-105760000D02*
X96850000Y-105760000D01*
X102410000Y-105760000D02*
X101150000Y-105760000D01*
X95590000Y-102000000D02*
X95590000Y-105760000D01*
X102410000Y-99750000D02*
X102410000Y-105760000D01*
G04 #@! TO.C,Q14*
X65590000Y-105760000D02*
X66850000Y-105760000D01*
X72410000Y-105760000D02*
X71150000Y-105760000D01*
X65590000Y-102000000D02*
X65590000Y-105760000D01*
X72410000Y-99750000D02*
X72410000Y-105760000D01*
G04 #@! TO.C,Q10*
X80590000Y-90432000D02*
X81850000Y-90432000D01*
X87410000Y-90432000D02*
X86150000Y-90432000D01*
X80590000Y-86672000D02*
X80590000Y-90432000D01*
X87410000Y-84422000D02*
X87410000Y-90432000D01*
G04 #@! TO.C,Q4*
X80590000Y-61760000D02*
X81850000Y-61760000D01*
X87410000Y-61760000D02*
X86150000Y-61760000D01*
X80590000Y-58000000D02*
X80590000Y-61760000D01*
X87410000Y-55750000D02*
X87410000Y-61760000D01*
G04 #@! TO.C,Q6*
X95590000Y-75760000D02*
X96850000Y-75760000D01*
X102410000Y-75760000D02*
X101150000Y-75760000D01*
X95590000Y-72000000D02*
X95590000Y-75760000D01*
X102410000Y-69750000D02*
X102410000Y-75760000D01*
G04 #@! TO.C,Q8*
X72410000Y-69750000D02*
X72410000Y-75760000D01*
X65590000Y-72000000D02*
X65590000Y-75760000D01*
X72410000Y-75760000D02*
X71150000Y-75760000D01*
X65590000Y-75760000D02*
X66850000Y-75760000D01*
G04 #@! TO.C,Q2*
X108590000Y-56760000D02*
X109850000Y-56760000D01*
X115410000Y-56760000D02*
X114150000Y-56760000D01*
X108590000Y-53000000D02*
X108590000Y-56760000D01*
X115410000Y-50750000D02*
X115410000Y-56760000D01*
G04 #@! TO.C,Q11*
X72410000Y-84750000D02*
X72410000Y-90760000D01*
X65590000Y-87000000D02*
X65590000Y-90760000D01*
X72410000Y-90760000D02*
X71150000Y-90760000D01*
X65590000Y-90760000D02*
X66850000Y-90760000D01*
G04 #@! TO.C,Q13*
X87410000Y-99750000D02*
X87410000Y-105760000D01*
X80590000Y-102000000D02*
X80590000Y-105760000D01*
X87410000Y-105760000D02*
X86150000Y-105760000D01*
X80590000Y-105760000D02*
X81850000Y-105760000D01*
G04 #@! TO.C,Q9*
X95590000Y-90760000D02*
X96850000Y-90760000D01*
X102410000Y-90760000D02*
X101150000Y-90760000D01*
X95590000Y-87000000D02*
X95590000Y-90760000D01*
X102410000Y-84750000D02*
X102410000Y-90760000D01*
G04 #@! TO.C,Q3*
X95590000Y-61760000D02*
X96850000Y-61760000D01*
X102410000Y-61760000D02*
X101150000Y-61760000D01*
X95590000Y-58000000D02*
X95590000Y-61760000D01*
X102410000Y-55750000D02*
X102410000Y-61760000D01*
G04 #@! TO.C,Q5*
X72410000Y-55750000D02*
X72410000Y-61760000D01*
X65590000Y-58000000D02*
X65590000Y-61760000D01*
X72410000Y-61760000D02*
X71150000Y-61760000D01*
X65590000Y-61760000D02*
X66850000Y-61760000D01*
G04 #@! TO.C,Q7*
X87410000Y-69750000D02*
X87410000Y-75760000D01*
X80590000Y-72000000D02*
X80590000Y-75760000D01*
X87410000Y-75760000D02*
X86150000Y-75760000D01*
X80590000Y-75760000D02*
X81850000Y-75760000D01*
G04 #@! TO.C,Q1*
X115410000Y-36900000D02*
X115410000Y-42910000D01*
X108590000Y-39150000D02*
X108590000Y-42910000D01*
X115410000Y-42910000D02*
X114150000Y-42910000D01*
X108590000Y-42910000D02*
X109850000Y-42910000D01*
G04 #@! TO.C,Q15*
X87410000Y-36750000D02*
X87410000Y-42760000D01*
X80590000Y-39000000D02*
X80590000Y-42760000D01*
X87410000Y-42760000D02*
X86150000Y-42760000D01*
X80590000Y-42760000D02*
X81850000Y-42760000D01*
G04 #@! TO.C,R26*
X97049721Y-97490000D02*
X97375279Y-97490000D01*
X97049721Y-98510000D02*
X97375279Y-98510000D01*
G04 #@! TO.C,R28*
X69049721Y-98510000D02*
X69375279Y-98510000D01*
X69049721Y-97490000D02*
X69375279Y-97490000D01*
G04 #@! TO.C,R24*
X82049721Y-83510000D02*
X82375279Y-83510000D01*
X82049721Y-82490000D02*
X82375279Y-82490000D01*
G04 #@! TO.C,R18*
X82049721Y-53490000D02*
X82375279Y-53490000D01*
X82049721Y-54510000D02*
X82375279Y-54510000D01*
G04 #@! TO.C,R20*
X97049721Y-68510000D02*
X97375279Y-68510000D01*
X97049721Y-67490000D02*
X97375279Y-67490000D01*
G04 #@! TO.C,R22*
X67049721Y-68510000D02*
X67375279Y-68510000D01*
X67049721Y-67490000D02*
X67375279Y-67490000D01*
G04 #@! TO.C,R16*
X110049721Y-48490000D02*
X110375279Y-48490000D01*
X110049721Y-49510000D02*
X110375279Y-49510000D01*
G04 #@! TO.C,R25*
X67049721Y-83510000D02*
X67375279Y-83510000D01*
X67049721Y-82490000D02*
X67375279Y-82490000D01*
G04 #@! TO.C,R27*
X82049721Y-98510000D02*
X82375279Y-98510000D01*
X82049721Y-97490000D02*
X82375279Y-97490000D01*
G04 #@! TO.C,R23*
X97049721Y-82490000D02*
X97375279Y-82490000D01*
X97049721Y-83510000D02*
X97375279Y-83510000D01*
G04 #@! TO.C,R17*
X97049721Y-53490000D02*
X97375279Y-53490000D01*
X97049721Y-54510000D02*
X97375279Y-54510000D01*
G04 #@! TO.C,R19*
X66837221Y-53490000D02*
X67162779Y-53490000D01*
X66837221Y-54510000D02*
X67162779Y-54510000D01*
G04 #@! TO.C,R21*
X82049721Y-67490000D02*
X82375279Y-67490000D01*
X82049721Y-68510000D02*
X82375279Y-68510000D01*
G04 #@! TO.C,R15*
X110049721Y-34490000D02*
X110375279Y-34490000D01*
X110049721Y-35510000D02*
X110375279Y-35510000D01*
G04 #@! TO.C,R30*
X82049721Y-35510000D02*
X82375279Y-35510000D01*
X82049721Y-34490000D02*
X82375279Y-34490000D01*
G04 #@! TO.C,R31*
X64670000Y-39330000D02*
X67330000Y-39330000D01*
X64670000Y-36730000D02*
X64670000Y-39330000D01*
X67330000Y-36730000D02*
X67330000Y-39330000D01*
X64670000Y-36730000D02*
X67330000Y-36730000D01*
X64670000Y-35460000D02*
X64670000Y-34130000D01*
X64670000Y-34130000D02*
X66000000Y-34130000D01*
G04 #@! TO.C,R32*
X60670000Y-34130000D02*
X62000000Y-34130000D01*
X60670000Y-35460000D02*
X60670000Y-34130000D01*
X60670000Y-36730000D02*
X63330000Y-36730000D01*
X63330000Y-36730000D02*
X63330000Y-39330000D01*
X60670000Y-36730000D02*
X60670000Y-39330000D01*
X60670000Y-39330000D02*
X63330000Y-39330000D01*
G04 #@! TO.C,R34*
X62375279Y-27490000D02*
X62049721Y-27490000D01*
X62375279Y-28510000D02*
X62049721Y-28510000D01*
G04 #@! TO.C,S1*
X60050000Y-16670000D02*
X60050000Y-19330000D01*
X67730000Y-16670000D02*
X60050000Y-16670000D01*
X67730000Y-19330000D02*
X60050000Y-19330000D01*
X67730000Y-16670000D02*
X67730000Y-19330000D01*
X69000000Y-16670000D02*
X70330000Y-16670000D01*
X70330000Y-16670000D02*
X70330000Y-18000000D01*
G04 #@! TO.C,S3*
X62950000Y-23330000D02*
X62950000Y-20670000D01*
X55270000Y-23330000D02*
X62950000Y-23330000D01*
X55270000Y-20670000D02*
X62950000Y-20670000D01*
X55270000Y-23330000D02*
X55270000Y-20670000D01*
X54000000Y-23330000D02*
X52670000Y-23330000D01*
X52670000Y-23330000D02*
X52670000Y-22000000D01*
G04 #@! TO.C,U1*
X57630000Y-67620000D02*
X42390000Y-67620000D01*
X42390000Y-67620000D02*
X42390000Y-47300000D01*
X42390000Y-47300000D02*
X57630000Y-47300000D01*
X57630000Y-47300000D02*
X57630000Y-67620000D01*
G04 #@! TO.C,U2*
X57600000Y-25650000D02*
X57600000Y-45970000D01*
X42360000Y-25650000D02*
X57600000Y-25650000D01*
X42360000Y-45970000D02*
X42360000Y-25650000D01*
X57600000Y-45970000D02*
X42360000Y-45970000D01*
G04 #@! TO.C,U3*
X31050000Y-35590000D02*
X37060000Y-35590000D01*
X33300000Y-42410000D02*
X37060000Y-42410000D01*
X37060000Y-35590000D02*
X37060000Y-36850000D01*
X37060000Y-42410000D02*
X37060000Y-41150000D01*
G04 #@! TO.C,U4*
X37060000Y-32410000D02*
X37060000Y-31150000D01*
X37060000Y-25590000D02*
X37060000Y-26850000D01*
X33300000Y-32410000D02*
X37060000Y-32410000D01*
X31050000Y-25590000D02*
X37060000Y-25590000D01*
G04 #@! TO.C,Y1*
X121890000Y-24330000D02*
X121890000Y-19130000D01*
X78650000Y-24330000D02*
X121890000Y-24330000D01*
X76050000Y-19130000D02*
X121890000Y-19130000D01*
X78650000Y-24330000D02*
X78650000Y-21730000D01*
X78650000Y-21730000D02*
X76050000Y-21730000D01*
X76050000Y-21730000D02*
X76050000Y-19130000D01*
X77380000Y-24330000D02*
X76050000Y-24330000D01*
X76050000Y-24330000D02*
X76050000Y-23000000D01*
G04 #@! TO.C,Z1*
X110170000Y-97350000D02*
X115370000Y-97350000D01*
X110170000Y-64270000D02*
X110170000Y-97350000D01*
X115370000Y-61670000D02*
X115370000Y-97350000D01*
X110170000Y-64270000D02*
X112770000Y-64270000D01*
X112770000Y-64270000D02*
X112770000Y-61670000D01*
X112770000Y-61670000D02*
X115370000Y-61670000D01*
X110170000Y-63000000D02*
X110170000Y-61670000D01*
X110170000Y-61670000D02*
X111500000Y-61670000D01*
D13*
G04 #@! TO.C,G\002A\002A\002A*
G36*
X38416255Y-82222290D02*
X38585718Y-82325498D01*
X38717229Y-82482197D01*
X38792603Y-82679239D01*
X38787127Y-82880555D01*
X38703240Y-83075210D01*
X38545939Y-83250124D01*
X38381673Y-83337074D01*
X38185964Y-83363245D01*
X37987537Y-83327427D01*
X37882972Y-83278047D01*
X37732690Y-83140027D01*
X37635175Y-82953495D01*
X37604788Y-82768334D01*
X37639937Y-82558061D01*
X37735299Y-82390305D01*
X37875742Y-82268958D01*
X38046136Y-82197912D01*
X38231351Y-82181059D01*
X38416255Y-82222290D01*
X38416255Y-82222290D01*
G37*
X38416255Y-82222290D02*
X38585718Y-82325498D01*
X38717229Y-82482197D01*
X38792603Y-82679239D01*
X38787127Y-82880555D01*
X38703240Y-83075210D01*
X38545939Y-83250124D01*
X38381673Y-83337074D01*
X38185964Y-83363245D01*
X37987537Y-83327427D01*
X37882972Y-83278047D01*
X37732690Y-83140027D01*
X37635175Y-82953495D01*
X37604788Y-82768334D01*
X37639937Y-82558061D01*
X37735299Y-82390305D01*
X37875742Y-82268958D01*
X38046136Y-82197912D01*
X38231351Y-82181059D01*
X38416255Y-82222290D01*
G36*
X51761679Y-82255260D02*
X51940518Y-82358935D01*
X52068035Y-82516871D01*
X52131750Y-82716914D01*
X52136667Y-82795157D01*
X52099683Y-83013007D01*
X51998045Y-83190670D01*
X51845723Y-83319372D01*
X51656688Y-83390338D01*
X51444910Y-83394794D01*
X51264621Y-83342899D01*
X51114008Y-83234569D01*
X51010142Y-83073842D01*
X50958697Y-82882356D01*
X50965347Y-82681752D01*
X51035766Y-82493668D01*
X51040087Y-82486554D01*
X51183912Y-82326550D01*
X51373475Y-82237766D01*
X51544000Y-82218000D01*
X51761679Y-82255260D01*
X51761679Y-82255260D01*
G37*
X51761679Y-82255260D02*
X51940518Y-82358935D01*
X52068035Y-82516871D01*
X52131750Y-82716914D01*
X52136667Y-82795157D01*
X52099683Y-83013007D01*
X51998045Y-83190670D01*
X51845723Y-83319372D01*
X51656688Y-83390338D01*
X51444910Y-83394794D01*
X51264621Y-83342899D01*
X51114008Y-83234569D01*
X51010142Y-83073842D01*
X50958697Y-82882356D01*
X50965347Y-82681752D01*
X51035766Y-82493668D01*
X51040087Y-82486554D01*
X51183912Y-82326550D01*
X51373475Y-82237766D01*
X51544000Y-82218000D01*
X51761679Y-82255260D01*
G36*
X37368988Y-85255867D02*
X37795811Y-85394484D01*
X38196036Y-85610011D01*
X38545799Y-85884125D01*
X38832089Y-86205818D01*
X39050183Y-86566708D01*
X39195358Y-86958413D01*
X39262890Y-87372550D01*
X39267333Y-87511182D01*
X39272031Y-87672469D01*
X39290594Y-87775381D01*
X39329726Y-87845907D01*
X39362583Y-87880436D01*
X39524171Y-87991533D01*
X39762680Y-88098527D01*
X40070431Y-88200679D01*
X40439746Y-88297254D01*
X40862945Y-88387515D01*
X41332351Y-88470723D01*
X41840284Y-88546143D01*
X42379066Y-88613037D01*
X42941018Y-88670668D01*
X43518461Y-88718299D01*
X44103717Y-88755193D01*
X44689107Y-88780614D01*
X45266951Y-88793823D01*
X45829573Y-88794085D01*
X46369292Y-88780662D01*
X46878430Y-88752817D01*
X47349308Y-88709813D01*
X47628353Y-88673803D01*
X48396716Y-88537561D01*
X49153542Y-88357229D01*
X49889468Y-88136760D01*
X50595136Y-87880111D01*
X51261186Y-87591234D01*
X51878255Y-87274085D01*
X52436986Y-86932617D01*
X52928017Y-86570786D01*
X53224097Y-86309754D01*
X53360437Y-86189221D01*
X53464340Y-86124219D01*
X53555099Y-86103252D01*
X53570699Y-86103242D01*
X53753335Y-86140114D01*
X53879552Y-86232909D01*
X53941372Y-86372650D01*
X53938287Y-86516643D01*
X53889000Y-86621818D01*
X53780251Y-86761942D01*
X53623475Y-86925684D01*
X53430108Y-87101713D01*
X53211585Y-87278697D01*
X53049743Y-87397109D01*
X52343584Y-87844002D01*
X51574487Y-88244018D01*
X50751594Y-88594696D01*
X49884047Y-88893574D01*
X48980990Y-89138191D01*
X48051565Y-89326087D01*
X47104915Y-89454799D01*
X46150182Y-89521866D01*
X45196509Y-89524827D01*
X45151667Y-89523340D01*
X44270753Y-89484721D01*
X43440595Y-89432252D01*
X42665341Y-89366512D01*
X41949141Y-89288080D01*
X41296142Y-89197534D01*
X40710495Y-89095454D01*
X40196348Y-88982419D01*
X39757849Y-88859006D01*
X39399148Y-88725796D01*
X39382419Y-88718463D01*
X39252966Y-88662354D01*
X39157855Y-88623266D01*
X39120268Y-88610334D01*
X39093751Y-88644999D01*
X39039234Y-88736939D01*
X38967310Y-88868069D01*
X38948561Y-88903501D01*
X38848922Y-89075156D01*
X38736143Y-89242710D01*
X38635256Y-89369168D01*
X38498050Y-89491146D01*
X38370484Y-89538556D01*
X38233017Y-89516307D01*
X38166667Y-89486887D01*
X38070705Y-89409043D01*
X38002834Y-89312394D01*
X37977699Y-89249621D01*
X37971317Y-89188227D01*
X37989081Y-89113919D01*
X38036384Y-89012401D01*
X38118619Y-88869379D01*
X38241179Y-88670558D01*
X38250782Y-88655184D01*
X38365579Y-88459147D01*
X38443034Y-88288144D01*
X38492050Y-88112762D01*
X38521532Y-87903587D01*
X38535769Y-87713751D01*
X38529141Y-87334182D01*
X38457637Y-87004324D01*
X38316936Y-86714714D01*
X38102714Y-86455886D01*
X37873159Y-86262908D01*
X37549271Y-86076358D01*
X37192150Y-85963277D01*
X36812994Y-85925060D01*
X36423001Y-85963103D01*
X36123633Y-86044797D01*
X35956358Y-86097064D01*
X35814688Y-86129276D01*
X35722626Y-86136230D01*
X35711987Y-86134041D01*
X35599736Y-86061202D01*
X35507655Y-85938292D01*
X35459648Y-85799824D01*
X35457333Y-85766367D01*
X35488991Y-85636551D01*
X35587909Y-85523926D01*
X35760001Y-85423742D01*
X35991578Y-85337359D01*
X36465911Y-85227186D01*
X36925368Y-85200061D01*
X37368988Y-85255867D01*
X37368988Y-85255867D01*
G37*
X37368988Y-85255867D02*
X37795811Y-85394484D01*
X38196036Y-85610011D01*
X38545799Y-85884125D01*
X38832089Y-86205818D01*
X39050183Y-86566708D01*
X39195358Y-86958413D01*
X39262890Y-87372550D01*
X39267333Y-87511182D01*
X39272031Y-87672469D01*
X39290594Y-87775381D01*
X39329726Y-87845907D01*
X39362583Y-87880436D01*
X39524171Y-87991533D01*
X39762680Y-88098527D01*
X40070431Y-88200679D01*
X40439746Y-88297254D01*
X40862945Y-88387515D01*
X41332351Y-88470723D01*
X41840284Y-88546143D01*
X42379066Y-88613037D01*
X42941018Y-88670668D01*
X43518461Y-88718299D01*
X44103717Y-88755193D01*
X44689107Y-88780614D01*
X45266951Y-88793823D01*
X45829573Y-88794085D01*
X46369292Y-88780662D01*
X46878430Y-88752817D01*
X47349308Y-88709813D01*
X47628353Y-88673803D01*
X48396716Y-88537561D01*
X49153542Y-88357229D01*
X49889468Y-88136760D01*
X50595136Y-87880111D01*
X51261186Y-87591234D01*
X51878255Y-87274085D01*
X52436986Y-86932617D01*
X52928017Y-86570786D01*
X53224097Y-86309754D01*
X53360437Y-86189221D01*
X53464340Y-86124219D01*
X53555099Y-86103252D01*
X53570699Y-86103242D01*
X53753335Y-86140114D01*
X53879552Y-86232909D01*
X53941372Y-86372650D01*
X53938287Y-86516643D01*
X53889000Y-86621818D01*
X53780251Y-86761942D01*
X53623475Y-86925684D01*
X53430108Y-87101713D01*
X53211585Y-87278697D01*
X53049743Y-87397109D01*
X52343584Y-87844002D01*
X51574487Y-88244018D01*
X50751594Y-88594696D01*
X49884047Y-88893574D01*
X48980990Y-89138191D01*
X48051565Y-89326087D01*
X47104915Y-89454799D01*
X46150182Y-89521866D01*
X45196509Y-89524827D01*
X45151667Y-89523340D01*
X44270753Y-89484721D01*
X43440595Y-89432252D01*
X42665341Y-89366512D01*
X41949141Y-89288080D01*
X41296142Y-89197534D01*
X40710495Y-89095454D01*
X40196348Y-88982419D01*
X39757849Y-88859006D01*
X39399148Y-88725796D01*
X39382419Y-88718463D01*
X39252966Y-88662354D01*
X39157855Y-88623266D01*
X39120268Y-88610334D01*
X39093751Y-88644999D01*
X39039234Y-88736939D01*
X38967310Y-88868069D01*
X38948561Y-88903501D01*
X38848922Y-89075156D01*
X38736143Y-89242710D01*
X38635256Y-89369168D01*
X38498050Y-89491146D01*
X38370484Y-89538556D01*
X38233017Y-89516307D01*
X38166667Y-89486887D01*
X38070705Y-89409043D01*
X38002834Y-89312394D01*
X37977699Y-89249621D01*
X37971317Y-89188227D01*
X37989081Y-89113919D01*
X38036384Y-89012401D01*
X38118619Y-88869379D01*
X38241179Y-88670558D01*
X38250782Y-88655184D01*
X38365579Y-88459147D01*
X38443034Y-88288144D01*
X38492050Y-88112762D01*
X38521532Y-87903587D01*
X38535769Y-87713751D01*
X38529141Y-87334182D01*
X38457637Y-87004324D01*
X38316936Y-86714714D01*
X38102714Y-86455886D01*
X37873159Y-86262908D01*
X37549271Y-86076358D01*
X37192150Y-85963277D01*
X36812994Y-85925060D01*
X36423001Y-85963103D01*
X36123633Y-86044797D01*
X35956358Y-86097064D01*
X35814688Y-86129276D01*
X35722626Y-86136230D01*
X35711987Y-86134041D01*
X35599736Y-86061202D01*
X35507655Y-85938292D01*
X35459648Y-85799824D01*
X35457333Y-85766367D01*
X35488991Y-85636551D01*
X35587909Y-85523926D01*
X35760001Y-85423742D01*
X35991578Y-85337359D01*
X36465911Y-85227186D01*
X36925368Y-85200061D01*
X37368988Y-85255867D01*
G36*
X56666333Y-97669667D02*
X28303000Y-97669667D01*
X28303000Y-95248812D01*
X28895667Y-95248812D01*
X28895667Y-97077000D01*
X30269001Y-97077000D01*
X30703717Y-97075628D01*
X31059464Y-97071535D01*
X31335045Y-97064759D01*
X31529258Y-97055339D01*
X31640906Y-97043311D01*
X31669492Y-97033062D01*
X31712688Y-97004133D01*
X31822609Y-96942479D01*
X31990086Y-96852906D01*
X32205949Y-96740219D01*
X32461030Y-96609223D01*
X32746159Y-96464724D01*
X32931407Y-96371760D01*
X33245544Y-96213401D01*
X33548514Y-96058252D01*
X33828431Y-95912583D01*
X34073410Y-95782661D01*
X34271567Y-95674751D01*
X34411016Y-95595124D01*
X34451611Y-95570083D01*
X34686371Y-95399845D01*
X34930547Y-95190473D01*
X35167814Y-94958883D01*
X35381846Y-94721992D01*
X35556318Y-94496716D01*
X35672434Y-94305057D01*
X35745799Y-94146405D01*
X35789135Y-94018457D01*
X35810077Y-93886407D01*
X35816260Y-93715452D01*
X35816373Y-93648890D01*
X35812703Y-93461241D01*
X35797888Y-93326353D01*
X35764741Y-93212412D01*
X35706072Y-93087606D01*
X35677470Y-93034167D01*
X35615479Y-92931070D01*
X35512047Y-92771582D01*
X35375418Y-92567865D01*
X35213838Y-92332081D01*
X35035553Y-92076395D01*
X34864694Y-91835205D01*
X34646055Y-91526635D01*
X34473822Y-91276843D01*
X34343375Y-91077042D01*
X34250095Y-90918447D01*
X34189364Y-90792271D01*
X34156562Y-90689726D01*
X34147071Y-90602027D01*
X34156271Y-90520387D01*
X34161527Y-90497582D01*
X34206143Y-90426907D01*
X34310759Y-90314615D01*
X34466988Y-90169005D01*
X34663602Y-90000723D01*
X35121748Y-89615876D01*
X35538943Y-89253439D01*
X35911128Y-88917347D01*
X36234244Y-88611535D01*
X36504230Y-88339938D01*
X36717028Y-88106492D01*
X36868576Y-87915130D01*
X36946451Y-87787993D01*
X36999644Y-87672828D01*
X37016269Y-87604576D01*
X36997873Y-87554544D01*
X36961386Y-87511015D01*
X36840700Y-87438752D01*
X36672435Y-87432442D01*
X36460245Y-87490631D01*
X36207786Y-87611865D01*
X35918711Y-87794691D01*
X35596677Y-88037657D01*
X35558334Y-88068865D01*
X35041963Y-88491711D01*
X34549452Y-88894185D01*
X34084708Y-89273130D01*
X33651639Y-89625390D01*
X33254155Y-89947809D01*
X32896165Y-90237230D01*
X32581576Y-90490497D01*
X32314298Y-90704453D01*
X32098238Y-90875944D01*
X31937307Y-91001811D01*
X31835412Y-91078899D01*
X31803933Y-91100611D01*
X31655373Y-91147090D01*
X31503687Y-91124702D01*
X31376725Y-91041388D01*
X31323047Y-90963482D01*
X31296588Y-90900859D01*
X31283560Y-90838485D01*
X31285581Y-90759283D01*
X31304267Y-90646176D01*
X31341236Y-90482087D01*
X31385965Y-90298980D01*
X31477234Y-89919994D01*
X31544998Y-89611192D01*
X31590063Y-89361655D01*
X31613233Y-89160464D01*
X31615314Y-88996702D01*
X31597110Y-88859450D01*
X31559428Y-88737789D01*
X31508928Y-88631500D01*
X31438693Y-88516924D01*
X31357796Y-88406118D01*
X31282015Y-88318175D01*
X31227127Y-88272190D01*
X31211592Y-88271667D01*
X31185107Y-88315378D01*
X31127896Y-88418594D01*
X31048438Y-88565782D01*
X30957362Y-88737334D01*
X30902949Y-88842085D01*
X30848726Y-88950277D01*
X30791928Y-89068377D01*
X30729789Y-89202854D01*
X30659544Y-89360176D01*
X30578427Y-89546810D01*
X30483674Y-89769226D01*
X30372518Y-90033890D01*
X30242195Y-90347272D01*
X30089939Y-90715840D01*
X29912985Y-91146061D01*
X29708567Y-91644404D01*
X29572798Y-91975834D01*
X29443815Y-92287659D01*
X29321620Y-92577130D01*
X29210674Y-92834130D01*
X29115438Y-93048544D01*
X29040372Y-93210254D01*
X28989939Y-93309146D01*
X28974198Y-93333229D01*
X28955197Y-93358434D01*
X28939526Y-93393004D01*
X28926866Y-93444722D01*
X28916897Y-93521369D01*
X28909300Y-93630726D01*
X28903757Y-93780574D01*
X28899948Y-93978696D01*
X28897555Y-94232873D01*
X28896258Y-94550887D01*
X28895739Y-94940518D01*
X28895667Y-95248812D01*
X28303000Y-95248812D01*
X28303000Y-79043000D01*
X28895667Y-79043000D01*
X28897047Y-85382417D01*
X28897245Y-86237944D01*
X28897483Y-87012677D01*
X28897814Y-87710491D01*
X28898290Y-88335258D01*
X28898963Y-88890852D01*
X28899886Y-89381145D01*
X28901111Y-89810013D01*
X28902691Y-90181326D01*
X28904678Y-90498960D01*
X28907124Y-90766788D01*
X28910082Y-90988682D01*
X28913604Y-91168516D01*
X28917743Y-91310163D01*
X28922551Y-91417498D01*
X28928080Y-91494392D01*
X28934383Y-91544720D01*
X28941513Y-91572355D01*
X28949521Y-91581169D01*
X28958460Y-91575038D01*
X28968383Y-91557833D01*
X28979342Y-91533428D01*
X28980242Y-91531334D01*
X29033277Y-91406012D01*
X29110126Y-91221996D01*
X29204803Y-90993841D01*
X29311321Y-90736106D01*
X29423695Y-90463348D01*
X29535940Y-90190126D01*
X29642070Y-89930996D01*
X29736100Y-89700517D01*
X29812042Y-89513246D01*
X29863913Y-89383741D01*
X29876660Y-89351167D01*
X29962232Y-89145679D01*
X30071217Y-88908310D01*
X30194997Y-88655479D01*
X30324957Y-88403602D01*
X30452481Y-88169100D01*
X30568953Y-87968389D01*
X30665758Y-87817888D01*
X30714969Y-87753719D01*
X30898343Y-87585137D01*
X31083544Y-87497783D01*
X31275553Y-87491728D01*
X31479351Y-87567045D01*
X31699922Y-87723805D01*
X31750472Y-87768570D01*
X31962598Y-88009057D01*
X32142422Y-88303447D01*
X32274157Y-88622602D01*
X32327132Y-88832883D01*
X32347463Y-88996434D01*
X32345358Y-89165491D01*
X32319777Y-89372986D01*
X32307781Y-89445269D01*
X32280376Y-89610051D01*
X32260938Y-89738681D01*
X32252291Y-89811878D01*
X32252663Y-89821587D01*
X32286928Y-89798611D01*
X32377789Y-89728966D01*
X32516460Y-89619776D01*
X32694155Y-89478164D01*
X32902087Y-89311255D01*
X33131472Y-89126172D01*
X33373522Y-88930039D01*
X33619452Y-88729980D01*
X33860475Y-88533117D01*
X34087806Y-88346576D01*
X34292659Y-88177480D01*
X34466247Y-88032952D01*
X34599785Y-87920116D01*
X34631833Y-87892550D01*
X35054390Y-87540032D01*
X35432845Y-87251940D01*
X35765311Y-87029630D01*
X36049897Y-86874459D01*
X36050000Y-86874411D01*
X36226373Y-86797156D01*
X36366872Y-86752567D01*
X36509585Y-86732102D01*
X36692599Y-86727216D01*
X36706167Y-86727233D01*
X36908712Y-86733945D01*
X37056629Y-86756591D01*
X37179289Y-86800491D01*
X37218175Y-86819989D01*
X37445920Y-86980902D01*
X37612450Y-87183375D01*
X37710416Y-87414572D01*
X37732471Y-87661657D01*
X37727426Y-87709682D01*
X37692671Y-87867180D01*
X37628257Y-88033080D01*
X37530361Y-88211533D01*
X37395158Y-88406688D01*
X37218824Y-88622696D01*
X36997535Y-88863707D01*
X36727466Y-89133871D01*
X36404794Y-89437339D01*
X36025694Y-89778261D01*
X35586342Y-90160787D01*
X35082914Y-90589067D01*
X35044046Y-90621819D01*
X34942735Y-90707138D01*
X35425041Y-91383819D01*
X35687817Y-91753554D01*
X35905213Y-92063638D01*
X36081532Y-92322976D01*
X36221080Y-92540470D01*
X36328164Y-92725025D01*
X36407086Y-92885545D01*
X36462154Y-93030933D01*
X36497672Y-93170092D01*
X36517946Y-93311927D01*
X36527280Y-93465342D01*
X36529980Y-93639240D01*
X36530083Y-93669167D01*
X36527469Y-93898298D01*
X36515944Y-94068481D01*
X36492093Y-94205256D01*
X36452499Y-94334165D01*
X36434929Y-94380522D01*
X36274738Y-94704674D01*
X36047262Y-95043307D01*
X35764823Y-95382067D01*
X35439739Y-95706601D01*
X35084334Y-96002557D01*
X34971900Y-96084859D01*
X34839219Y-96171097D01*
X34648573Y-96284566D01*
X34417949Y-96415083D01*
X34165334Y-96552466D01*
X33913567Y-96684050D01*
X33150167Y-97074266D01*
X56094833Y-97055834D01*
X56116195Y-79043000D01*
X28895667Y-79043000D01*
X28303000Y-79043000D01*
X28303000Y-78450334D01*
X56666333Y-78450334D01*
X56666333Y-97669667D01*
X56666333Y-97669667D01*
G37*
X56666333Y-97669667D02*
X28303000Y-97669667D01*
X28303000Y-95248812D01*
X28895667Y-95248812D01*
X28895667Y-97077000D01*
X30269001Y-97077000D01*
X30703717Y-97075628D01*
X31059464Y-97071535D01*
X31335045Y-97064759D01*
X31529258Y-97055339D01*
X31640906Y-97043311D01*
X31669492Y-97033062D01*
X31712688Y-97004133D01*
X31822609Y-96942479D01*
X31990086Y-96852906D01*
X32205949Y-96740219D01*
X32461030Y-96609223D01*
X32746159Y-96464724D01*
X32931407Y-96371760D01*
X33245544Y-96213401D01*
X33548514Y-96058252D01*
X33828431Y-95912583D01*
X34073410Y-95782661D01*
X34271567Y-95674751D01*
X34411016Y-95595124D01*
X34451611Y-95570083D01*
X34686371Y-95399845D01*
X34930547Y-95190473D01*
X35167814Y-94958883D01*
X35381846Y-94721992D01*
X35556318Y-94496716D01*
X35672434Y-94305057D01*
X35745799Y-94146405D01*
X35789135Y-94018457D01*
X35810077Y-93886407D01*
X35816260Y-93715452D01*
X35816373Y-93648890D01*
X35812703Y-93461241D01*
X35797888Y-93326353D01*
X35764741Y-93212412D01*
X35706072Y-93087606D01*
X35677470Y-93034167D01*
X35615479Y-92931070D01*
X35512047Y-92771582D01*
X35375418Y-92567865D01*
X35213838Y-92332081D01*
X35035553Y-92076395D01*
X34864694Y-91835205D01*
X34646055Y-91526635D01*
X34473822Y-91276843D01*
X34343375Y-91077042D01*
X34250095Y-90918447D01*
X34189364Y-90792271D01*
X34156562Y-90689726D01*
X34147071Y-90602027D01*
X34156271Y-90520387D01*
X34161527Y-90497582D01*
X34206143Y-90426907D01*
X34310759Y-90314615D01*
X34466988Y-90169005D01*
X34663602Y-90000723D01*
X35121748Y-89615876D01*
X35538943Y-89253439D01*
X35911128Y-88917347D01*
X36234244Y-88611535D01*
X36504230Y-88339938D01*
X36717028Y-88106492D01*
X36868576Y-87915130D01*
X36946451Y-87787993D01*
X36999644Y-87672828D01*
X37016269Y-87604576D01*
X36997873Y-87554544D01*
X36961386Y-87511015D01*
X36840700Y-87438752D01*
X36672435Y-87432442D01*
X36460245Y-87490631D01*
X36207786Y-87611865D01*
X35918711Y-87794691D01*
X35596677Y-88037657D01*
X35558334Y-88068865D01*
X35041963Y-88491711D01*
X34549452Y-88894185D01*
X34084708Y-89273130D01*
X33651639Y-89625390D01*
X33254155Y-89947809D01*
X32896165Y-90237230D01*
X32581576Y-90490497D01*
X32314298Y-90704453D01*
X32098238Y-90875944D01*
X31937307Y-91001811D01*
X31835412Y-91078899D01*
X31803933Y-91100611D01*
X31655373Y-91147090D01*
X31503687Y-91124702D01*
X31376725Y-91041388D01*
X31323047Y-90963482D01*
X31296588Y-90900859D01*
X31283560Y-90838485D01*
X31285581Y-90759283D01*
X31304267Y-90646176D01*
X31341236Y-90482087D01*
X31385965Y-90298980D01*
X31477234Y-89919994D01*
X31544998Y-89611192D01*
X31590063Y-89361655D01*
X31613233Y-89160464D01*
X31615314Y-88996702D01*
X31597110Y-88859450D01*
X31559428Y-88737789D01*
X31508928Y-88631500D01*
X31438693Y-88516924D01*
X31357796Y-88406118D01*
X31282015Y-88318175D01*
X31227127Y-88272190D01*
X31211592Y-88271667D01*
X31185107Y-88315378D01*
X31127896Y-88418594D01*
X31048438Y-88565782D01*
X30957362Y-88737334D01*
X30902949Y-88842085D01*
X30848726Y-88950277D01*
X30791928Y-89068377D01*
X30729789Y-89202854D01*
X30659544Y-89360176D01*
X30578427Y-89546810D01*
X30483674Y-89769226D01*
X30372518Y-90033890D01*
X30242195Y-90347272D01*
X30089939Y-90715840D01*
X29912985Y-91146061D01*
X29708567Y-91644404D01*
X29572798Y-91975834D01*
X29443815Y-92287659D01*
X29321620Y-92577130D01*
X29210674Y-92834130D01*
X29115438Y-93048544D01*
X29040372Y-93210254D01*
X28989939Y-93309146D01*
X28974198Y-93333229D01*
X28955197Y-93358434D01*
X28939526Y-93393004D01*
X28926866Y-93444722D01*
X28916897Y-93521369D01*
X28909300Y-93630726D01*
X28903757Y-93780574D01*
X28899948Y-93978696D01*
X28897555Y-94232873D01*
X28896258Y-94550887D01*
X28895739Y-94940518D01*
X28895667Y-95248812D01*
X28303000Y-95248812D01*
X28303000Y-79043000D01*
X28895667Y-79043000D01*
X28897047Y-85382417D01*
X28897245Y-86237944D01*
X28897483Y-87012677D01*
X28897814Y-87710491D01*
X28898290Y-88335258D01*
X28898963Y-88890852D01*
X28899886Y-89381145D01*
X28901111Y-89810013D01*
X28902691Y-90181326D01*
X28904678Y-90498960D01*
X28907124Y-90766788D01*
X28910082Y-90988682D01*
X28913604Y-91168516D01*
X28917743Y-91310163D01*
X28922551Y-91417498D01*
X28928080Y-91494392D01*
X28934383Y-91544720D01*
X28941513Y-91572355D01*
X28949521Y-91581169D01*
X28958460Y-91575038D01*
X28968383Y-91557833D01*
X28979342Y-91533428D01*
X28980242Y-91531334D01*
X29033277Y-91406012D01*
X29110126Y-91221996D01*
X29204803Y-90993841D01*
X29311321Y-90736106D01*
X29423695Y-90463348D01*
X29535940Y-90190126D01*
X29642070Y-89930996D01*
X29736100Y-89700517D01*
X29812042Y-89513246D01*
X29863913Y-89383741D01*
X29876660Y-89351167D01*
X29962232Y-89145679D01*
X30071217Y-88908310D01*
X30194997Y-88655479D01*
X30324957Y-88403602D01*
X30452481Y-88169100D01*
X30568953Y-87968389D01*
X30665758Y-87817888D01*
X30714969Y-87753719D01*
X30898343Y-87585137D01*
X31083544Y-87497783D01*
X31275553Y-87491728D01*
X31479351Y-87567045D01*
X31699922Y-87723805D01*
X31750472Y-87768570D01*
X31962598Y-88009057D01*
X32142422Y-88303447D01*
X32274157Y-88622602D01*
X32327132Y-88832883D01*
X32347463Y-88996434D01*
X32345358Y-89165491D01*
X32319777Y-89372986D01*
X32307781Y-89445269D01*
X32280376Y-89610051D01*
X32260938Y-89738681D01*
X32252291Y-89811878D01*
X32252663Y-89821587D01*
X32286928Y-89798611D01*
X32377789Y-89728966D01*
X32516460Y-89619776D01*
X32694155Y-89478164D01*
X32902087Y-89311255D01*
X33131472Y-89126172D01*
X33373522Y-88930039D01*
X33619452Y-88729980D01*
X33860475Y-88533117D01*
X34087806Y-88346576D01*
X34292659Y-88177480D01*
X34466247Y-88032952D01*
X34599785Y-87920116D01*
X34631833Y-87892550D01*
X35054390Y-87540032D01*
X35432845Y-87251940D01*
X35765311Y-87029630D01*
X36049897Y-86874459D01*
X36050000Y-86874411D01*
X36226373Y-86797156D01*
X36366872Y-86752567D01*
X36509585Y-86732102D01*
X36692599Y-86727216D01*
X36706167Y-86727233D01*
X36908712Y-86733945D01*
X37056629Y-86756591D01*
X37179289Y-86800491D01*
X37218175Y-86819989D01*
X37445920Y-86980902D01*
X37612450Y-87183375D01*
X37710416Y-87414572D01*
X37732471Y-87661657D01*
X37727426Y-87709682D01*
X37692671Y-87867180D01*
X37628257Y-88033080D01*
X37530361Y-88211533D01*
X37395158Y-88406688D01*
X37218824Y-88622696D01*
X36997535Y-88863707D01*
X36727466Y-89133871D01*
X36404794Y-89437339D01*
X36025694Y-89778261D01*
X35586342Y-90160787D01*
X35082914Y-90589067D01*
X35044046Y-90621819D01*
X34942735Y-90707138D01*
X35425041Y-91383819D01*
X35687817Y-91753554D01*
X35905213Y-92063638D01*
X36081532Y-92322976D01*
X36221080Y-92540470D01*
X36328164Y-92725025D01*
X36407086Y-92885545D01*
X36462154Y-93030933D01*
X36497672Y-93170092D01*
X36517946Y-93311927D01*
X36527280Y-93465342D01*
X36529980Y-93639240D01*
X36530083Y-93669167D01*
X36527469Y-93898298D01*
X36515944Y-94068481D01*
X36492093Y-94205256D01*
X36452499Y-94334165D01*
X36434929Y-94380522D01*
X36274738Y-94704674D01*
X36047262Y-95043307D01*
X35764823Y-95382067D01*
X35439739Y-95706601D01*
X35084334Y-96002557D01*
X34971900Y-96084859D01*
X34839219Y-96171097D01*
X34648573Y-96284566D01*
X34417949Y-96415083D01*
X34165334Y-96552466D01*
X33913567Y-96684050D01*
X33150167Y-97074266D01*
X56094833Y-97055834D01*
X56116195Y-79043000D01*
X28895667Y-79043000D01*
X28303000Y-79043000D01*
X28303000Y-78450334D01*
X56666333Y-78450334D01*
X56666333Y-97669667D01*
G36*
X46492019Y-99439979D02*
X46585697Y-99520524D01*
X46588956Y-99523777D01*
X46684600Y-99666120D01*
X46712296Y-99817140D01*
X46682359Y-99961989D01*
X46605102Y-100085821D01*
X46490837Y-100173786D01*
X46349878Y-100211038D01*
X46192538Y-100182728D01*
X46146500Y-100160783D01*
X46026713Y-100066243D01*
X45967673Y-99936227D01*
X45956000Y-99804099D01*
X45984230Y-99621284D01*
X46071605Y-99497981D01*
X46222153Y-99429434D01*
X46282472Y-99418533D01*
X46405449Y-99410963D01*
X46492019Y-99439979D01*
X46492019Y-99439979D01*
G37*
X46492019Y-99439979D02*
X46585697Y-99520524D01*
X46588956Y-99523777D01*
X46684600Y-99666120D01*
X46712296Y-99817140D01*
X46682359Y-99961989D01*
X46605102Y-100085821D01*
X46490837Y-100173786D01*
X46349878Y-100211038D01*
X46192538Y-100182728D01*
X46146500Y-100160783D01*
X46026713Y-100066243D01*
X45967673Y-99936227D01*
X45956000Y-99804099D01*
X45984230Y-99621284D01*
X46071605Y-99497981D01*
X46222153Y-99429434D01*
X46282472Y-99418533D01*
X46405449Y-99410963D01*
X46492019Y-99439979D01*
G36*
X42177927Y-99481399D02*
X42233923Y-99529077D01*
X42331545Y-99673972D01*
X42357950Y-99825314D01*
X42323952Y-99968603D01*
X42240368Y-100089336D01*
X42118013Y-100173013D01*
X41967705Y-100205131D01*
X41800257Y-100171190D01*
X41766584Y-100155666D01*
X41683778Y-100082221D01*
X41612033Y-99968017D01*
X41601159Y-99942179D01*
X41565074Y-99826467D01*
X41568471Y-99738126D01*
X41609932Y-99634760D01*
X41717540Y-99493458D01*
X41861561Y-99418512D01*
X42021765Y-99413351D01*
X42177927Y-99481399D01*
X42177927Y-99481399D01*
G37*
X42177927Y-99481399D02*
X42233923Y-99529077D01*
X42331545Y-99673972D01*
X42357950Y-99825314D01*
X42323952Y-99968603D01*
X42240368Y-100089336D01*
X42118013Y-100173013D01*
X41967705Y-100205131D01*
X41800257Y-100171190D01*
X41766584Y-100155666D01*
X41683778Y-100082221D01*
X41612033Y-99968017D01*
X41601159Y-99942179D01*
X41565074Y-99826467D01*
X41568471Y-99738126D01*
X41609932Y-99634760D01*
X41717540Y-99493458D01*
X41861561Y-99418512D01*
X42021765Y-99413351D01*
X42177927Y-99481399D01*
G36*
X40166478Y-99449162D02*
X40284815Y-99542990D01*
X40320998Y-99602494D01*
X40366111Y-99784645D01*
X40340065Y-99949291D01*
X40255583Y-100082935D01*
X40125390Y-100172086D01*
X39962209Y-100203248D01*
X39788684Y-100167038D01*
X39678346Y-100082995D01*
X39618831Y-99937385D01*
X39606000Y-99787095D01*
X39623560Y-99644744D01*
X39687616Y-99539440D01*
X39718015Y-99509145D01*
X39857730Y-99428316D01*
X40015667Y-99409629D01*
X40166478Y-99449162D01*
X40166478Y-99449162D01*
G37*
X40166478Y-99449162D02*
X40284815Y-99542990D01*
X40320998Y-99602494D01*
X40366111Y-99784645D01*
X40340065Y-99949291D01*
X40255583Y-100082935D01*
X40125390Y-100172086D01*
X39962209Y-100203248D01*
X39788684Y-100167038D01*
X39678346Y-100082995D01*
X39618831Y-99937385D01*
X39606000Y-99787095D01*
X39623560Y-99644744D01*
X39687616Y-99539440D01*
X39718015Y-99509145D01*
X39857730Y-99428316D01*
X40015667Y-99409629D01*
X40166478Y-99449162D01*
G36*
X39018281Y-99474123D02*
X39124223Y-99586910D01*
X39178374Y-99738351D01*
X39169801Y-99913828D01*
X39135665Y-100012507D01*
X39040122Y-100130907D01*
X38901588Y-100195431D01*
X38745162Y-100202519D01*
X38595948Y-100148614D01*
X38532273Y-100098061D01*
X38439343Y-99954711D01*
X38412466Y-99794441D01*
X38446442Y-99638858D01*
X38536068Y-99509568D01*
X38676146Y-99428176D01*
X38694756Y-99422988D01*
X38871481Y-99414610D01*
X39018281Y-99474123D01*
X39018281Y-99474123D01*
G37*
X39018281Y-99474123D02*
X39124223Y-99586910D01*
X39178374Y-99738351D01*
X39169801Y-99913828D01*
X39135665Y-100012507D01*
X39040122Y-100130907D01*
X38901588Y-100195431D01*
X38745162Y-100202519D01*
X38595948Y-100148614D01*
X38532273Y-100098061D01*
X38439343Y-99954711D01*
X38412466Y-99794441D01*
X38446442Y-99638858D01*
X38536068Y-99509568D01*
X38676146Y-99428176D01*
X38694756Y-99422988D01*
X38871481Y-99414610D01*
X39018281Y-99474123D01*
G36*
X46504597Y-100629224D02*
X46618258Y-100729819D01*
X46695386Y-100869838D01*
X46718000Y-100999338D01*
X46682380Y-101159859D01*
X46588696Y-101284940D01*
X46456711Y-101365817D01*
X46306189Y-101393729D01*
X46156892Y-101359915D01*
X46059909Y-101291091D01*
X45984416Y-101163935D01*
X45952092Y-100996960D01*
X45968438Y-100826171D01*
X45982297Y-100783063D01*
X46050371Y-100702973D01*
X46171183Y-100635165D01*
X46312871Y-100595310D01*
X46373468Y-100590667D01*
X46504597Y-100629224D01*
X46504597Y-100629224D01*
G37*
X46504597Y-100629224D02*
X46618258Y-100729819D01*
X46695386Y-100869838D01*
X46718000Y-100999338D01*
X46682380Y-101159859D01*
X46588696Y-101284940D01*
X46456711Y-101365817D01*
X46306189Y-101393729D01*
X46156892Y-101359915D01*
X46059909Y-101291091D01*
X45984416Y-101163935D01*
X45952092Y-100996960D01*
X45968438Y-100826171D01*
X45982297Y-100783063D01*
X46050371Y-100702973D01*
X46171183Y-100635165D01*
X46312871Y-100595310D01*
X46373468Y-100590667D01*
X46504597Y-100629224D01*
G36*
X45380732Y-100667313D02*
X45449432Y-100728957D01*
X45518442Y-100858143D01*
X45531421Y-101014696D01*
X45493603Y-101170166D01*
X45410225Y-101296101D01*
X45335506Y-101347999D01*
X45203882Y-101388494D01*
X45073606Y-101376966D01*
X44954624Y-101333586D01*
X44834099Y-101241525D01*
X44769066Y-101109582D01*
X44756911Y-100959455D01*
X44795018Y-100812842D01*
X44880773Y-100691442D01*
X45011562Y-100616953D01*
X45041832Y-100609791D01*
X45229737Y-100603448D01*
X45380732Y-100667313D01*
X45380732Y-100667313D01*
G37*
X45380732Y-100667313D02*
X45449432Y-100728957D01*
X45518442Y-100858143D01*
X45531421Y-101014696D01*
X45493603Y-101170166D01*
X45410225Y-101296101D01*
X45335506Y-101347999D01*
X45203882Y-101388494D01*
X45073606Y-101376966D01*
X44954624Y-101333586D01*
X44834099Y-101241525D01*
X44769066Y-101109582D01*
X44756911Y-100959455D01*
X44795018Y-100812842D01*
X44880773Y-100691442D01*
X45011562Y-100616953D01*
X45041832Y-100609791D01*
X45229737Y-100603448D01*
X45380732Y-100667313D01*
G36*
X43284175Y-100622912D02*
X43376890Y-100667456D01*
X43445380Y-100735898D01*
X43517308Y-100840960D01*
X43536462Y-100949168D01*
X43529576Y-101027861D01*
X43494938Y-101158133D01*
X43438634Y-101262752D01*
X43427248Y-101275567D01*
X43309119Y-101345041D01*
X43153414Y-101377915D01*
X43001910Y-101367117D01*
X42963133Y-101354139D01*
X42856627Y-101268350D01*
X42781048Y-101131666D01*
X42751327Y-100976335D01*
X42756915Y-100908836D01*
X42820955Y-100748457D01*
X42942101Y-100649976D01*
X43121772Y-100612318D01*
X43148943Y-100611834D01*
X43284175Y-100622912D01*
X43284175Y-100622912D01*
G37*
X43284175Y-100622912D02*
X43376890Y-100667456D01*
X43445380Y-100735898D01*
X43517308Y-100840960D01*
X43536462Y-100949168D01*
X43529576Y-101027861D01*
X43494938Y-101158133D01*
X43438634Y-101262752D01*
X43427248Y-101275567D01*
X43309119Y-101345041D01*
X43153414Y-101377915D01*
X43001910Y-101367117D01*
X42963133Y-101354139D01*
X42856627Y-101268350D01*
X42781048Y-101131666D01*
X42751327Y-100976335D01*
X42756915Y-100908836D01*
X42820955Y-100748457D01*
X42942101Y-100649976D01*
X43121772Y-100612318D01*
X43148943Y-100611834D01*
X43284175Y-100622912D01*
G36*
X40109199Y-100618293D02*
X40244256Y-100714410D01*
X40340505Y-100857491D01*
X40367966Y-101008605D01*
X40337120Y-101152967D01*
X40258447Y-101275792D01*
X40142428Y-101362294D01*
X39999540Y-101397689D01*
X39840266Y-101367190D01*
X39796500Y-101346116D01*
X39671475Y-101245234D01*
X39613475Y-101106711D01*
X39606000Y-101009371D01*
X39617238Y-100848489D01*
X39659284Y-100744405D01*
X39744632Y-100671254D01*
X39778361Y-100652601D01*
X39953878Y-100595084D01*
X40109199Y-100618293D01*
X40109199Y-100618293D01*
G37*
X40109199Y-100618293D02*
X40244256Y-100714410D01*
X40340505Y-100857491D01*
X40367966Y-101008605D01*
X40337120Y-101152967D01*
X40258447Y-101275792D01*
X40142428Y-101362294D01*
X39999540Y-101397689D01*
X39840266Y-101367190D01*
X39796500Y-101346116D01*
X39671475Y-101245234D01*
X39613475Y-101106711D01*
X39606000Y-101009371D01*
X39617238Y-100848489D01*
X39659284Y-100744405D01*
X39744632Y-100671254D01*
X39778361Y-100652601D01*
X39953878Y-100595084D01*
X40109199Y-100618293D01*
G36*
X45334519Y-101811478D02*
X45416250Y-101875582D01*
X45495964Y-101970956D01*
X45528719Y-102083082D01*
X45532667Y-102170373D01*
X45498409Y-102348186D01*
X45406712Y-102482931D01*
X45274187Y-102564180D01*
X45117445Y-102581501D01*
X44961167Y-102529203D01*
X44842342Y-102432227D01*
X44783873Y-102301073D01*
X44772013Y-102172273D01*
X44798298Y-101991100D01*
X44883666Y-101869452D01*
X45032985Y-101801822D01*
X45111004Y-101788741D01*
X45243005Y-101783152D01*
X45334519Y-101811478D01*
X45334519Y-101811478D01*
G37*
X45334519Y-101811478D02*
X45416250Y-101875582D01*
X45495964Y-101970956D01*
X45528719Y-102083082D01*
X45532667Y-102170373D01*
X45498409Y-102348186D01*
X45406712Y-102482931D01*
X45274187Y-102564180D01*
X45117445Y-102581501D01*
X44961167Y-102529203D01*
X44842342Y-102432227D01*
X44783873Y-102301073D01*
X44772013Y-102172273D01*
X44798298Y-101991100D01*
X44883666Y-101869452D01*
X45032985Y-101801822D01*
X45111004Y-101788741D01*
X45243005Y-101783152D01*
X45334519Y-101811478D01*
G36*
X42034154Y-101788233D02*
X42189902Y-101862070D01*
X42239223Y-101905044D01*
X42321467Y-101999532D01*
X42351772Y-102085656D01*
X42345071Y-102206976D01*
X42344417Y-102211894D01*
X42284771Y-102392753D01*
X42170472Y-102515665D01*
X42015099Y-102572816D01*
X41832230Y-102556391D01*
X41778351Y-102537705D01*
X41663511Y-102449775D01*
X41592836Y-102311882D01*
X41574002Y-102150466D01*
X41614690Y-101991967D01*
X41617966Y-101985477D01*
X41727914Y-101852561D01*
X41873400Y-101785939D01*
X42034154Y-101788233D01*
X42034154Y-101788233D01*
G37*
X42034154Y-101788233D02*
X42189902Y-101862070D01*
X42239223Y-101905044D01*
X42321467Y-101999532D01*
X42351772Y-102085656D01*
X42345071Y-102206976D01*
X42344417Y-102211894D01*
X42284771Y-102392753D01*
X42170472Y-102515665D01*
X42015099Y-102572816D01*
X41832230Y-102556391D01*
X41778351Y-102537705D01*
X41663511Y-102449775D01*
X41592836Y-102311882D01*
X41574002Y-102150466D01*
X41614690Y-101991967D01*
X41617966Y-101985477D01*
X41727914Y-101852561D01*
X41873400Y-101785939D01*
X42034154Y-101788233D01*
G36*
X55692667Y-100132600D02*
X55999583Y-100118259D01*
X56306500Y-100103918D01*
X56319196Y-100347292D01*
X56331892Y-100590667D01*
X55692667Y-100590667D01*
X55692667Y-101304624D01*
X55693334Y-101568327D01*
X55696364Y-101761351D01*
X55703296Y-101897679D01*
X55715670Y-101991295D01*
X55735025Y-102056182D01*
X55762902Y-102106325D01*
X55784089Y-102134806D01*
X55846524Y-102202855D01*
X55913509Y-102234113D01*
X56016169Y-102238258D01*
X56098417Y-102232546D01*
X56321324Y-102214060D01*
X56366828Y-102394776D01*
X56399775Y-102536793D01*
X56402914Y-102619349D01*
X56368073Y-102664839D01*
X56287080Y-102695658D01*
X56253583Y-102705108D01*
X56032542Y-102742683D01*
X55800175Y-102743105D01*
X55589701Y-102708130D01*
X55473824Y-102663866D01*
X55346307Y-102583344D01*
X55246925Y-102485312D01*
X55172447Y-102358992D01*
X55119643Y-102193604D01*
X55085283Y-101978371D01*
X55066138Y-101702513D01*
X55058976Y-101355252D01*
X55058701Y-101278584D01*
X55057667Y-100590667D01*
X54719000Y-100590667D01*
X54719000Y-100125000D01*
X54903961Y-100125000D01*
X55019647Y-100120793D01*
X55077489Y-100094739D01*
X55104296Y-100026689D01*
X55115162Y-99966250D01*
X55133485Y-99818495D01*
X55141830Y-99678696D01*
X55141867Y-99673379D01*
X55150102Y-99533534D01*
X55185557Y-99452914D01*
X55266184Y-99415552D01*
X55409931Y-99405481D01*
X55443196Y-99405334D01*
X55692667Y-99405334D01*
X55692667Y-100132600D01*
X55692667Y-100132600D01*
G37*
X55692667Y-100132600D02*
X55999583Y-100118259D01*
X56306500Y-100103918D01*
X56319196Y-100347292D01*
X56331892Y-100590667D01*
X55692667Y-100590667D01*
X55692667Y-101304624D01*
X55693334Y-101568327D01*
X55696364Y-101761351D01*
X55703296Y-101897679D01*
X55715670Y-101991295D01*
X55735025Y-102056182D01*
X55762902Y-102106325D01*
X55784089Y-102134806D01*
X55846524Y-102202855D01*
X55913509Y-102234113D01*
X56016169Y-102238258D01*
X56098417Y-102232546D01*
X56321324Y-102214060D01*
X56366828Y-102394776D01*
X56399775Y-102536793D01*
X56402914Y-102619349D01*
X56368073Y-102664839D01*
X56287080Y-102695658D01*
X56253583Y-102705108D01*
X56032542Y-102742683D01*
X55800175Y-102743105D01*
X55589701Y-102708130D01*
X55473824Y-102663866D01*
X55346307Y-102583344D01*
X55246925Y-102485312D01*
X55172447Y-102358992D01*
X55119643Y-102193604D01*
X55085283Y-101978371D01*
X55066138Y-101702513D01*
X55058976Y-101355252D01*
X55058701Y-101278584D01*
X55057667Y-100590667D01*
X54719000Y-100590667D01*
X54719000Y-100125000D01*
X54903961Y-100125000D01*
X55019647Y-100120793D01*
X55077489Y-100094739D01*
X55104296Y-100026689D01*
X55115162Y-99966250D01*
X55133485Y-99818495D01*
X55141830Y-99678696D01*
X55141867Y-99673379D01*
X55150102Y-99533534D01*
X55185557Y-99452914D01*
X55266184Y-99415552D01*
X55409931Y-99405481D01*
X55443196Y-99405334D01*
X55692667Y-99405334D01*
X55692667Y-100132600D01*
G36*
X53675723Y-100113267D02*
X53942020Y-100250766D01*
X54058654Y-100341832D01*
X54191426Y-100479508D01*
X54314900Y-100641463D01*
X54370590Y-100733612D01*
X54422760Y-100842112D01*
X54456112Y-100942520D01*
X54474827Y-101059012D01*
X54483087Y-101215764D01*
X54485003Y-101395000D01*
X54483057Y-101607102D01*
X54473525Y-101757860D01*
X54452833Y-101870505D01*
X54417406Y-101968264D01*
X54387300Y-102030000D01*
X54235510Y-102261719D01*
X54042172Y-102467339D01*
X53833315Y-102619726D01*
X53808833Y-102632946D01*
X53659395Y-102685401D01*
X53462521Y-102721925D01*
X53251585Y-102739455D01*
X53059962Y-102734926D01*
X52940726Y-102712629D01*
X52659499Y-102577231D01*
X52416036Y-102373227D01*
X52224120Y-102113214D01*
X52170537Y-102008834D01*
X52121184Y-101884596D01*
X52091420Y-101757191D01*
X52076882Y-101599096D01*
X52073198Y-101395000D01*
X52074552Y-101302857D01*
X52699431Y-101302857D01*
X52704757Y-101556052D01*
X52755091Y-101792651D01*
X52845829Y-101993487D01*
X52972366Y-102139393D01*
X53011369Y-102166457D01*
X53193119Y-102230756D01*
X53391047Y-102226074D01*
X53558221Y-102161840D01*
X53704002Y-102023490D01*
X53804061Y-101814610D01*
X53857965Y-101536205D01*
X53864458Y-101450914D01*
X53868775Y-101268937D01*
X53853218Y-101131215D01*
X53811107Y-100998368D01*
X53772649Y-100909703D01*
X53695380Y-100761926D01*
X53617787Y-100670871D01*
X53517782Y-100611435D01*
X53505604Y-100606224D01*
X53298945Y-100558771D01*
X53109385Y-100590582D01*
X52945401Y-100696693D01*
X52815474Y-100872140D01*
X52743717Y-101052232D01*
X52699431Y-101302857D01*
X52074552Y-101302857D01*
X52076161Y-101193397D01*
X52088575Y-101047989D01*
X52115670Y-100930411D01*
X52162677Y-100812297D01*
X52191960Y-100750922D01*
X52364680Y-100483890D01*
X52583496Y-100277595D01*
X52836209Y-100134711D01*
X53110617Y-100057913D01*
X53394522Y-100049874D01*
X53675723Y-100113267D01*
X53675723Y-100113267D01*
G37*
X53675723Y-100113267D02*
X53942020Y-100250766D01*
X54058654Y-100341832D01*
X54191426Y-100479508D01*
X54314900Y-100641463D01*
X54370590Y-100733612D01*
X54422760Y-100842112D01*
X54456112Y-100942520D01*
X54474827Y-101059012D01*
X54483087Y-101215764D01*
X54485003Y-101395000D01*
X54483057Y-101607102D01*
X54473525Y-101757860D01*
X54452833Y-101870505D01*
X54417406Y-101968264D01*
X54387300Y-102030000D01*
X54235510Y-102261719D01*
X54042172Y-102467339D01*
X53833315Y-102619726D01*
X53808833Y-102632946D01*
X53659395Y-102685401D01*
X53462521Y-102721925D01*
X53251585Y-102739455D01*
X53059962Y-102734926D01*
X52940726Y-102712629D01*
X52659499Y-102577231D01*
X52416036Y-102373227D01*
X52224120Y-102113214D01*
X52170537Y-102008834D01*
X52121184Y-101884596D01*
X52091420Y-101757191D01*
X52076882Y-101599096D01*
X52073198Y-101395000D01*
X52074552Y-101302857D01*
X52699431Y-101302857D01*
X52704757Y-101556052D01*
X52755091Y-101792651D01*
X52845829Y-101993487D01*
X52972366Y-102139393D01*
X53011369Y-102166457D01*
X53193119Y-102230756D01*
X53391047Y-102226074D01*
X53558221Y-102161840D01*
X53704002Y-102023490D01*
X53804061Y-101814610D01*
X53857965Y-101536205D01*
X53864458Y-101450914D01*
X53868775Y-101268937D01*
X53853218Y-101131215D01*
X53811107Y-100998368D01*
X53772649Y-100909703D01*
X53695380Y-100761926D01*
X53617787Y-100670871D01*
X53517782Y-100611435D01*
X53505604Y-100606224D01*
X53298945Y-100558771D01*
X53109385Y-100590582D01*
X52945401Y-100696693D01*
X52815474Y-100872140D01*
X52743717Y-101052232D01*
X52699431Y-101302857D01*
X52074552Y-101302857D01*
X52076161Y-101193397D01*
X52088575Y-101047989D01*
X52115670Y-100930411D01*
X52162677Y-100812297D01*
X52191960Y-100750922D01*
X52364680Y-100483890D01*
X52583496Y-100277595D01*
X52836209Y-100134711D01*
X53110617Y-100057913D01*
X53394522Y-100049874D01*
X53675723Y-100113267D01*
G36*
X51459333Y-102707334D02*
X51225171Y-102707334D01*
X51075522Y-102699772D01*
X50994781Y-102674654D01*
X50971171Y-102643834D01*
X50933334Y-102524252D01*
X50906942Y-102470756D01*
X50875331Y-102469568D01*
X50821832Y-102506908D01*
X50813230Y-102513266D01*
X50551821Y-102660873D01*
X50275439Y-102736717D01*
X50000288Y-102737869D01*
X49818446Y-102693157D01*
X49586721Y-102565786D01*
X49391639Y-102371085D01*
X49265155Y-102161796D01*
X49182781Y-101910939D01*
X49137883Y-101615186D01*
X49132207Y-101335624D01*
X49770035Y-101335624D01*
X49770269Y-101561944D01*
X49797702Y-101763663D01*
X49814197Y-101822600D01*
X49919342Y-102030286D01*
X50066483Y-102167381D01*
X50246128Y-102230304D01*
X50448787Y-102215473D01*
X50640277Y-102134295D01*
X50752294Y-102053287D01*
X50829501Y-101969025D01*
X50846709Y-101933212D01*
X50854610Y-101856401D01*
X50859376Y-101714548D01*
X50860671Y-101527230D01*
X50858159Y-101314026D01*
X50857713Y-101293243D01*
X50845500Y-100746985D01*
X50676167Y-100658657D01*
X50450993Y-100577298D01*
X50247570Y-100577368D01*
X50069523Y-100657593D01*
X49920476Y-100816700D01*
X49846012Y-100950500D01*
X49795713Y-101120033D01*
X49770035Y-101335624D01*
X49132207Y-101335624D01*
X49131607Y-101306116D01*
X49165095Y-101015308D01*
X49216859Y-100828545D01*
X49357223Y-100553269D01*
X49545006Y-100331540D01*
X49768985Y-100169516D01*
X50017936Y-100073359D01*
X50280637Y-100049225D01*
X50541385Y-100101667D01*
X50668443Y-100158207D01*
X50772314Y-100222873D01*
X50784802Y-100233370D01*
X50815645Y-100258555D01*
X50837569Y-100262005D01*
X50852097Y-100232779D01*
X50860749Y-100159937D01*
X50865046Y-100032539D01*
X50866511Y-99839645D01*
X50866667Y-99644728D01*
X50866667Y-98982000D01*
X51459333Y-98982000D01*
X51459333Y-102707334D01*
X51459333Y-102707334D01*
G37*
X51459333Y-102707334D02*
X51225171Y-102707334D01*
X51075522Y-102699772D01*
X50994781Y-102674654D01*
X50971171Y-102643834D01*
X50933334Y-102524252D01*
X50906942Y-102470756D01*
X50875331Y-102469568D01*
X50821832Y-102506908D01*
X50813230Y-102513266D01*
X50551821Y-102660873D01*
X50275439Y-102736717D01*
X50000288Y-102737869D01*
X49818446Y-102693157D01*
X49586721Y-102565786D01*
X49391639Y-102371085D01*
X49265155Y-102161796D01*
X49182781Y-101910939D01*
X49137883Y-101615186D01*
X49132207Y-101335624D01*
X49770035Y-101335624D01*
X49770269Y-101561944D01*
X49797702Y-101763663D01*
X49814197Y-101822600D01*
X49919342Y-102030286D01*
X50066483Y-102167381D01*
X50246128Y-102230304D01*
X50448787Y-102215473D01*
X50640277Y-102134295D01*
X50752294Y-102053287D01*
X50829501Y-101969025D01*
X50846709Y-101933212D01*
X50854610Y-101856401D01*
X50859376Y-101714548D01*
X50860671Y-101527230D01*
X50858159Y-101314026D01*
X50857713Y-101293243D01*
X50845500Y-100746985D01*
X50676167Y-100658657D01*
X50450993Y-100577298D01*
X50247570Y-100577368D01*
X50069523Y-100657593D01*
X49920476Y-100816700D01*
X49846012Y-100950500D01*
X49795713Y-101120033D01*
X49770035Y-101335624D01*
X49132207Y-101335624D01*
X49131607Y-101306116D01*
X49165095Y-101015308D01*
X49216859Y-100828545D01*
X49357223Y-100553269D01*
X49545006Y-100331540D01*
X49768985Y-100169516D01*
X50017936Y-100073359D01*
X50280637Y-100049225D01*
X50541385Y-100101667D01*
X50668443Y-100158207D01*
X50772314Y-100222873D01*
X50784802Y-100233370D01*
X50815645Y-100258555D01*
X50837569Y-100262005D01*
X50852097Y-100232779D01*
X50860749Y-100159937D01*
X50865046Y-100032539D01*
X50866511Y-99839645D01*
X50866667Y-99644728D01*
X50866667Y-98982000D01*
X51459333Y-98982000D01*
X51459333Y-102707334D01*
G36*
X35457333Y-100125000D02*
X36092333Y-100125000D01*
X36092333Y-100590667D01*
X35777937Y-100590667D01*
X35611128Y-100593995D01*
X35511860Y-100606348D01*
X35463184Y-100631284D01*
X35449854Y-100659491D01*
X35446488Y-100723508D01*
X35445973Y-100856283D01*
X35448154Y-101041961D01*
X35452877Y-101264685D01*
X35457333Y-101425023D01*
X35467320Y-101709094D01*
X35481092Y-101919270D01*
X35503958Y-102066312D01*
X35541222Y-102160978D01*
X35598192Y-102214027D01*
X35680172Y-102236217D01*
X35792469Y-102238309D01*
X35857005Y-102235420D01*
X35963220Y-102230282D01*
X36029555Y-102239143D01*
X36071121Y-102278091D01*
X36103031Y-102363211D01*
X36140397Y-102510592D01*
X36149250Y-102546514D01*
X36159455Y-102623012D01*
X36127316Y-102666651D01*
X36033552Y-102700814D01*
X36018537Y-102705028D01*
X35795110Y-102742445D01*
X35554917Y-102743035D01*
X35334278Y-102708378D01*
X35224500Y-102670465D01*
X35056198Y-102552158D01*
X34949333Y-102406812D01*
X34912520Y-102338138D01*
X34885097Y-102270959D01*
X34865407Y-102191405D01*
X34851792Y-102085601D01*
X34842594Y-101939676D01*
X34836156Y-101739757D01*
X34830819Y-101471973D01*
X34829680Y-101405584D01*
X34815859Y-100590667D01*
X34441333Y-100590667D01*
X34441333Y-100129639D01*
X34642417Y-100116736D01*
X34843500Y-100103834D01*
X34879487Y-99754584D01*
X34915475Y-99405334D01*
X35457333Y-99405334D01*
X35457333Y-100125000D01*
X35457333Y-100125000D01*
G37*
X35457333Y-100125000D02*
X36092333Y-100125000D01*
X36092333Y-100590667D01*
X35777937Y-100590667D01*
X35611128Y-100593995D01*
X35511860Y-100606348D01*
X35463184Y-100631284D01*
X35449854Y-100659491D01*
X35446488Y-100723508D01*
X35445973Y-100856283D01*
X35448154Y-101041961D01*
X35452877Y-101264685D01*
X35457333Y-101425023D01*
X35467320Y-101709094D01*
X35481092Y-101919270D01*
X35503958Y-102066312D01*
X35541222Y-102160978D01*
X35598192Y-102214027D01*
X35680172Y-102236217D01*
X35792469Y-102238309D01*
X35857005Y-102235420D01*
X35963220Y-102230282D01*
X36029555Y-102239143D01*
X36071121Y-102278091D01*
X36103031Y-102363211D01*
X36140397Y-102510592D01*
X36149250Y-102546514D01*
X36159455Y-102623012D01*
X36127316Y-102666651D01*
X36033552Y-102700814D01*
X36018537Y-102705028D01*
X35795110Y-102742445D01*
X35554917Y-102743035D01*
X35334278Y-102708378D01*
X35224500Y-102670465D01*
X35056198Y-102552158D01*
X34949333Y-102406812D01*
X34912520Y-102338138D01*
X34885097Y-102270959D01*
X34865407Y-102191405D01*
X34851792Y-102085601D01*
X34842594Y-101939676D01*
X34836156Y-101739757D01*
X34830819Y-101471973D01*
X34829680Y-101405584D01*
X34815859Y-100590667D01*
X34441333Y-100590667D01*
X34441333Y-100129639D01*
X34642417Y-100116736D01*
X34843500Y-100103834D01*
X34879487Y-99754584D01*
X34915475Y-99405334D01*
X35457333Y-99405334D01*
X35457333Y-100125000D01*
G36*
X33226522Y-100066961D02*
X33360424Y-100087401D01*
X33482081Y-100131970D01*
X33588919Y-100187283D01*
X33853880Y-100374778D01*
X34049137Y-100606778D01*
X34176622Y-100886778D01*
X34238266Y-101218270D01*
X34244988Y-101373834D01*
X34222790Y-101709180D01*
X34147467Y-101990973D01*
X34013651Y-102235572D01*
X33925893Y-102345905D01*
X33732716Y-102531345D01*
X33527534Y-102651563D01*
X33286079Y-102717899D01*
X33086667Y-102738132D01*
X32908950Y-102743264D01*
X32778231Y-102731472D01*
X32657428Y-102695818D01*
X32512063Y-102630620D01*
X32242570Y-102458270D01*
X32039052Y-102233418D01*
X31901231Y-101955568D01*
X31828828Y-101624225D01*
X31820968Y-101476056D01*
X32450294Y-101476056D01*
X32478490Y-101715076D01*
X32528498Y-101873979D01*
X32647251Y-102060166D01*
X32802221Y-102183239D01*
X32978536Y-102238921D01*
X33161323Y-102222933D01*
X33335709Y-102130996D01*
X33357775Y-102112551D01*
X33487798Y-101962191D01*
X33568650Y-101775112D01*
X33606056Y-101535052D01*
X33610258Y-101395000D01*
X33589947Y-101113493D01*
X33526810Y-100896994D01*
X33417545Y-100735634D01*
X33376911Y-100697873D01*
X33189873Y-100587199D01*
X32997678Y-100556672D01*
X32813984Y-100604387D01*
X32652447Y-100728440D01*
X32591422Y-100807451D01*
X32508522Y-100992381D01*
X32460892Y-101225203D01*
X32450294Y-101476056D01*
X31820968Y-101476056D01*
X31816667Y-101395000D01*
X31844508Y-101053602D01*
X31930823Y-100765400D01*
X32079804Y-100518617D01*
X32161801Y-100424766D01*
X32375885Y-100240428D01*
X32606158Y-100125139D01*
X32873984Y-100070125D01*
X33044333Y-100062382D01*
X33226522Y-100066961D01*
X33226522Y-100066961D01*
G37*
X33226522Y-100066961D02*
X33360424Y-100087401D01*
X33482081Y-100131970D01*
X33588919Y-100187283D01*
X33853880Y-100374778D01*
X34049137Y-100606778D01*
X34176622Y-100886778D01*
X34238266Y-101218270D01*
X34244988Y-101373834D01*
X34222790Y-101709180D01*
X34147467Y-101990973D01*
X34013651Y-102235572D01*
X33925893Y-102345905D01*
X33732716Y-102531345D01*
X33527534Y-102651563D01*
X33286079Y-102717899D01*
X33086667Y-102738132D01*
X32908950Y-102743264D01*
X32778231Y-102731472D01*
X32657428Y-102695818D01*
X32512063Y-102630620D01*
X32242570Y-102458270D01*
X32039052Y-102233418D01*
X31901231Y-101955568D01*
X31828828Y-101624225D01*
X31820968Y-101476056D01*
X32450294Y-101476056D01*
X32478490Y-101715076D01*
X32528498Y-101873979D01*
X32647251Y-102060166D01*
X32802221Y-102183239D01*
X32978536Y-102238921D01*
X33161323Y-102222933D01*
X33335709Y-102130996D01*
X33357775Y-102112551D01*
X33487798Y-101962191D01*
X33568650Y-101775112D01*
X33606056Y-101535052D01*
X33610258Y-101395000D01*
X33589947Y-101113493D01*
X33526810Y-100896994D01*
X33417545Y-100735634D01*
X33376911Y-100697873D01*
X33189873Y-100587199D01*
X32997678Y-100556672D01*
X32813984Y-100604387D01*
X32652447Y-100728440D01*
X32591422Y-100807451D01*
X32508522Y-100992381D01*
X32460892Y-101225203D01*
X32450294Y-101476056D01*
X31820968Y-101476056D01*
X31816667Y-101395000D01*
X31844508Y-101053602D01*
X31930823Y-100765400D01*
X32079804Y-100518617D01*
X32161801Y-100424766D01*
X32375885Y-100240428D01*
X32606158Y-100125139D01*
X32873984Y-100070125D01*
X33044333Y-100062382D01*
X33226522Y-100066961D01*
G36*
X31224000Y-102707334D02*
X30719836Y-102707334D01*
X30691569Y-102556656D01*
X30663302Y-102405979D01*
X30573234Y-102490529D01*
X30375925Y-102624776D01*
X30136042Y-102710832D01*
X29880992Y-102743652D01*
X29638182Y-102718194D01*
X29530667Y-102682353D01*
X29328192Y-102555939D01*
X29146582Y-102371144D01*
X29010015Y-102154188D01*
X28981460Y-102086795D01*
X28891181Y-101754696D01*
X28862967Y-101421833D01*
X28865367Y-101396003D01*
X29513235Y-101396003D01*
X29538390Y-101685496D01*
X29610446Y-101920026D01*
X29724289Y-102094250D01*
X29874804Y-102202823D01*
X30056877Y-102240403D01*
X30265395Y-102201645D01*
X30279327Y-102196514D01*
X30402333Y-102131501D01*
X30493750Y-102062134D01*
X30531214Y-102022339D01*
X30557320Y-101975109D01*
X30574109Y-101905520D01*
X30583622Y-101798648D01*
X30587900Y-101639570D01*
X30588986Y-101413361D01*
X30589000Y-101365832D01*
X30589000Y-100758756D01*
X30451417Y-100674834D01*
X30237090Y-100582644D01*
X30036727Y-100568948D01*
X29858058Y-100627802D01*
X29708815Y-100753266D01*
X29596728Y-100939395D01*
X29529529Y-101180246D01*
X29513235Y-101396003D01*
X28865367Y-101396003D01*
X28892866Y-101100101D01*
X28976930Y-100801394D01*
X29111207Y-100537607D01*
X29291748Y-100320633D01*
X29514602Y-100162369D01*
X29638005Y-100109870D01*
X29882732Y-100050160D01*
X30099604Y-100055157D01*
X30317577Y-100126789D01*
X30383649Y-100159522D01*
X30610229Y-100278710D01*
X30579973Y-98982000D01*
X31224000Y-98982000D01*
X31224000Y-102707334D01*
X31224000Y-102707334D01*
G37*
X31224000Y-102707334D02*
X30719836Y-102707334D01*
X30691569Y-102556656D01*
X30663302Y-102405979D01*
X30573234Y-102490529D01*
X30375925Y-102624776D01*
X30136042Y-102710832D01*
X29880992Y-102743652D01*
X29638182Y-102718194D01*
X29530667Y-102682353D01*
X29328192Y-102555939D01*
X29146582Y-102371144D01*
X29010015Y-102154188D01*
X28981460Y-102086795D01*
X28891181Y-101754696D01*
X28862967Y-101421833D01*
X28865367Y-101396003D01*
X29513235Y-101396003D01*
X29538390Y-101685496D01*
X29610446Y-101920026D01*
X29724289Y-102094250D01*
X29874804Y-102202823D01*
X30056877Y-102240403D01*
X30265395Y-102201645D01*
X30279327Y-102196514D01*
X30402333Y-102131501D01*
X30493750Y-102062134D01*
X30531214Y-102022339D01*
X30557320Y-101975109D01*
X30574109Y-101905520D01*
X30583622Y-101798648D01*
X30587900Y-101639570D01*
X30588986Y-101413361D01*
X30589000Y-101365832D01*
X30589000Y-100758756D01*
X30451417Y-100674834D01*
X30237090Y-100582644D01*
X30036727Y-100568948D01*
X29858058Y-100627802D01*
X29708815Y-100753266D01*
X29596728Y-100939395D01*
X29529529Y-101180246D01*
X29513235Y-101396003D01*
X28865367Y-101396003D01*
X28892866Y-101100101D01*
X28976930Y-100801394D01*
X29111207Y-100537607D01*
X29291748Y-100320633D01*
X29514602Y-100162369D01*
X29638005Y-100109870D01*
X29882732Y-100050160D01*
X30099604Y-100055157D01*
X30317577Y-100126789D01*
X30383649Y-100159522D01*
X30610229Y-100278710D01*
X30579973Y-98982000D01*
X31224000Y-98982000D01*
X31224000Y-102707334D01*
G04 #@! TO.C,C3*
D14*
X29733333Y-46657142D02*
X29685714Y-46704761D01*
X29542857Y-46752380D01*
X29447619Y-46752380D01*
X29304761Y-46704761D01*
X29209523Y-46609523D01*
X29161904Y-46514285D01*
X29114285Y-46323809D01*
X29114285Y-46180952D01*
X29161904Y-45990476D01*
X29209523Y-45895238D01*
X29304761Y-45800000D01*
X29447619Y-45752380D01*
X29542857Y-45752380D01*
X29685714Y-45800000D01*
X29733333Y-45847619D01*
X30066666Y-45752380D02*
X30685714Y-45752380D01*
X30352380Y-46133333D01*
X30495238Y-46133333D01*
X30590476Y-46180952D01*
X30638095Y-46228571D01*
X30685714Y-46323809D01*
X30685714Y-46561904D01*
X30638095Y-46657142D01*
X30590476Y-46704761D01*
X30495238Y-46752380D01*
X30209523Y-46752380D01*
X30114285Y-46704761D01*
X30066666Y-46657142D01*
G04 #@! TO.C,F1*
X98166666Y-33668571D02*
X97833333Y-33668571D01*
X97833333Y-34192380D02*
X97833333Y-33192380D01*
X98309523Y-33192380D01*
X99214285Y-34192380D02*
X98642857Y-34192380D01*
X98928571Y-34192380D02*
X98928571Y-33192380D01*
X98833333Y-33335238D01*
X98738095Y-33430476D01*
X98642857Y-33478095D01*
G04 #@! TO.C,S2*
X59734761Y-18761904D02*
X59782380Y-18619047D01*
X59782380Y-18380952D01*
X59734761Y-18285714D01*
X59687142Y-18238095D01*
X59591904Y-18190476D01*
X59496666Y-18190476D01*
X59401428Y-18238095D01*
X59353809Y-18285714D01*
X59306190Y-18380952D01*
X59258571Y-18571428D01*
X59210952Y-18666666D01*
X59163333Y-18714285D01*
X59068095Y-18761904D01*
X58972857Y-18761904D01*
X58877619Y-18714285D01*
X58830000Y-18666666D01*
X58782380Y-18571428D01*
X58782380Y-18333333D01*
X58830000Y-18190476D01*
X58877619Y-17809523D02*
X58830000Y-17761904D01*
X58782380Y-17666666D01*
X58782380Y-17428571D01*
X58830000Y-17333333D01*
X58877619Y-17285714D01*
X58972857Y-17238095D01*
X59068095Y-17238095D01*
X59210952Y-17285714D01*
X59782380Y-17857142D01*
X59782380Y-17238095D01*
G04 #@! TO.C,C1*
X36583333Y-56107142D02*
X36535714Y-56154761D01*
X36392857Y-56202380D01*
X36297619Y-56202380D01*
X36154761Y-56154761D01*
X36059523Y-56059523D01*
X36011904Y-55964285D01*
X35964285Y-55773809D01*
X35964285Y-55630952D01*
X36011904Y-55440476D01*
X36059523Y-55345238D01*
X36154761Y-55250000D01*
X36297619Y-55202380D01*
X36392857Y-55202380D01*
X36535714Y-55250000D01*
X36583333Y-55297619D01*
X37535714Y-56202380D02*
X36964285Y-56202380D01*
X37250000Y-56202380D02*
X37250000Y-55202380D01*
X37154761Y-55345238D01*
X37059523Y-55440476D01*
X36964285Y-55488095D01*
G04 #@! TO.C,C2*
X31107142Y-50416666D02*
X31154761Y-50464285D01*
X31202380Y-50607142D01*
X31202380Y-50702380D01*
X31154761Y-50845238D01*
X31059523Y-50940476D01*
X30964285Y-50988095D01*
X30773809Y-51035714D01*
X30630952Y-51035714D01*
X30440476Y-50988095D01*
X30345238Y-50940476D01*
X30250000Y-50845238D01*
X30202380Y-50702380D01*
X30202380Y-50607142D01*
X30250000Y-50464285D01*
X30297619Y-50416666D01*
X30297619Y-50035714D02*
X30250000Y-49988095D01*
X30202380Y-49892857D01*
X30202380Y-49654761D01*
X30250000Y-49559523D01*
X30297619Y-49511904D01*
X30392857Y-49464285D01*
X30488095Y-49464285D01*
X30630952Y-49511904D01*
X31202380Y-50083333D01*
X31202380Y-49464285D01*
G04 #@! TO.C,D12*
X108152380Y-103914285D02*
X107152380Y-103914285D01*
X107152380Y-103676190D01*
X107200000Y-103533333D01*
X107295238Y-103438095D01*
X107390476Y-103390476D01*
X107580952Y-103342857D01*
X107723809Y-103342857D01*
X107914285Y-103390476D01*
X108009523Y-103438095D01*
X108104761Y-103533333D01*
X108152380Y-103676190D01*
X108152380Y-103914285D01*
X108152380Y-102390476D02*
X108152380Y-102961904D01*
X108152380Y-102676190D02*
X107152380Y-102676190D01*
X107295238Y-102771428D01*
X107390476Y-102866666D01*
X107438095Y-102961904D01*
X107247619Y-102009523D02*
X107200000Y-101961904D01*
X107152380Y-101866666D01*
X107152380Y-101628571D01*
X107200000Y-101533333D01*
X107247619Y-101485714D01*
X107342857Y-101438095D01*
X107438095Y-101438095D01*
X107580952Y-101485714D01*
X108152380Y-102057142D01*
X108152380Y-101438095D01*
X103352380Y-108261904D02*
X102352380Y-108261904D01*
X103352380Y-107690476D02*
X102780952Y-108119047D01*
X102352380Y-107690476D02*
X102923809Y-108261904D01*
G04 #@! TO.C,D14*
X77952380Y-104134285D02*
X76952380Y-104134285D01*
X76952380Y-103896190D01*
X77000000Y-103753333D01*
X77095238Y-103658095D01*
X77190476Y-103610476D01*
X77380952Y-103562857D01*
X77523809Y-103562857D01*
X77714285Y-103610476D01*
X77809523Y-103658095D01*
X77904761Y-103753333D01*
X77952380Y-103896190D01*
X77952380Y-104134285D01*
X77952380Y-102610476D02*
X77952380Y-103181904D01*
X77952380Y-102896190D02*
X76952380Y-102896190D01*
X77095238Y-102991428D01*
X77190476Y-103086666D01*
X77238095Y-103181904D01*
X77285714Y-101753333D02*
X77952380Y-101753333D01*
X76904761Y-101991428D02*
X77619047Y-102229523D01*
X77619047Y-101610476D01*
X73352380Y-108261904D02*
X72352380Y-108261904D01*
X73352380Y-107690476D02*
X72780952Y-108119047D01*
X72352380Y-107690476D02*
X72923809Y-108261904D01*
G04 #@! TO.C,D10*
X93052380Y-89314285D02*
X92052380Y-89314285D01*
X92052380Y-89076190D01*
X92100000Y-88933333D01*
X92195238Y-88838095D01*
X92290476Y-88790476D01*
X92480952Y-88742857D01*
X92623809Y-88742857D01*
X92814285Y-88790476D01*
X92909523Y-88838095D01*
X93004761Y-88933333D01*
X93052380Y-89076190D01*
X93052380Y-89314285D01*
X93052380Y-87790476D02*
X93052380Y-88361904D01*
X93052380Y-88076190D02*
X92052380Y-88076190D01*
X92195238Y-88171428D01*
X92290476Y-88266666D01*
X92338095Y-88361904D01*
X92052380Y-87171428D02*
X92052380Y-87076190D01*
X92100000Y-86980952D01*
X92147619Y-86933333D01*
X92242857Y-86885714D01*
X92433333Y-86838095D01*
X92671428Y-86838095D01*
X92861904Y-86885714D01*
X92957142Y-86933333D01*
X93004761Y-86980952D01*
X93052380Y-87076190D01*
X93052380Y-87171428D01*
X93004761Y-87266666D01*
X92957142Y-87314285D01*
X92861904Y-87361904D01*
X92671428Y-87409523D01*
X92433333Y-87409523D01*
X92242857Y-87361904D01*
X92147619Y-87314285D01*
X92100000Y-87266666D01*
X92052380Y-87171428D01*
X88352380Y-93261904D02*
X87352380Y-93261904D01*
X88352380Y-92690476D02*
X87780952Y-93119047D01*
X87352380Y-92690476D02*
X87923809Y-93261904D01*
G04 #@! TO.C,D4*
X93352380Y-59638095D02*
X92352380Y-59638095D01*
X92352380Y-59400000D01*
X92400000Y-59257142D01*
X92495238Y-59161904D01*
X92590476Y-59114285D01*
X92780952Y-59066666D01*
X92923809Y-59066666D01*
X93114285Y-59114285D01*
X93209523Y-59161904D01*
X93304761Y-59257142D01*
X93352380Y-59400000D01*
X93352380Y-59638095D01*
X92685714Y-58209523D02*
X93352380Y-58209523D01*
X92304761Y-58447619D02*
X93019047Y-58685714D01*
X93019047Y-58066666D01*
X88352380Y-64261904D02*
X87352380Y-64261904D01*
X88352380Y-63690476D02*
X87780952Y-64119047D01*
X87352380Y-63690476D02*
X87923809Y-64261904D01*
G04 #@! TO.C,D6*
X107952380Y-74138095D02*
X106952380Y-74138095D01*
X106952380Y-73900000D01*
X107000000Y-73757142D01*
X107095238Y-73661904D01*
X107190476Y-73614285D01*
X107380952Y-73566666D01*
X107523809Y-73566666D01*
X107714285Y-73614285D01*
X107809523Y-73661904D01*
X107904761Y-73757142D01*
X107952380Y-73900000D01*
X107952380Y-74138095D01*
X106952380Y-72709523D02*
X106952380Y-72900000D01*
X107000000Y-72995238D01*
X107047619Y-73042857D01*
X107190476Y-73138095D01*
X107380952Y-73185714D01*
X107761904Y-73185714D01*
X107857142Y-73138095D01*
X107904761Y-73090476D01*
X107952380Y-72995238D01*
X107952380Y-72804761D01*
X107904761Y-72709523D01*
X107857142Y-72661904D01*
X107761904Y-72614285D01*
X107523809Y-72614285D01*
X107428571Y-72661904D01*
X107380952Y-72709523D01*
X107333333Y-72804761D01*
X107333333Y-72995238D01*
X107380952Y-73090476D01*
X107428571Y-73138095D01*
X107523809Y-73185714D01*
X103352380Y-78261904D02*
X102352380Y-78261904D01*
X103352380Y-77690476D02*
X102780952Y-78119047D01*
X102352380Y-77690476D02*
X102923809Y-78261904D01*
G04 #@! TO.C,D8*
X78352380Y-73638095D02*
X77352380Y-73638095D01*
X77352380Y-73400000D01*
X77400000Y-73257142D01*
X77495238Y-73161904D01*
X77590476Y-73114285D01*
X77780952Y-73066666D01*
X77923809Y-73066666D01*
X78114285Y-73114285D01*
X78209523Y-73161904D01*
X78304761Y-73257142D01*
X78352380Y-73400000D01*
X78352380Y-73638095D01*
X77780952Y-72495238D02*
X77733333Y-72590476D01*
X77685714Y-72638095D01*
X77590476Y-72685714D01*
X77542857Y-72685714D01*
X77447619Y-72638095D01*
X77400000Y-72590476D01*
X77352380Y-72495238D01*
X77352380Y-72304761D01*
X77400000Y-72209523D01*
X77447619Y-72161904D01*
X77542857Y-72114285D01*
X77590476Y-72114285D01*
X77685714Y-72161904D01*
X77733333Y-72209523D01*
X77780952Y-72304761D01*
X77780952Y-72495238D01*
X77828571Y-72590476D01*
X77876190Y-72638095D01*
X77971428Y-72685714D01*
X78161904Y-72685714D01*
X78257142Y-72638095D01*
X78304761Y-72590476D01*
X78352380Y-72495238D01*
X78352380Y-72304761D01*
X78304761Y-72209523D01*
X78257142Y-72161904D01*
X78161904Y-72114285D01*
X77971428Y-72114285D01*
X77876190Y-72161904D01*
X77828571Y-72209523D01*
X77780952Y-72304761D01*
X73352380Y-78261904D02*
X72352380Y-78261904D01*
X73352380Y-77690476D02*
X72780952Y-78119047D01*
X72352380Y-77690476D02*
X72923809Y-78261904D01*
G04 #@! TO.C,D2*
X121352380Y-54638095D02*
X120352380Y-54638095D01*
X120352380Y-54400000D01*
X120400000Y-54257142D01*
X120495238Y-54161904D01*
X120590476Y-54114285D01*
X120780952Y-54066666D01*
X120923809Y-54066666D01*
X121114285Y-54114285D01*
X121209523Y-54161904D01*
X121304761Y-54257142D01*
X121352380Y-54400000D01*
X121352380Y-54638095D01*
X120447619Y-53685714D02*
X120400000Y-53638095D01*
X120352380Y-53542857D01*
X120352380Y-53304761D01*
X120400000Y-53209523D01*
X120447619Y-53161904D01*
X120542857Y-53114285D01*
X120638095Y-53114285D01*
X120780952Y-53161904D01*
X121352380Y-53733333D01*
X121352380Y-53114285D01*
X116352380Y-59261904D02*
X115352380Y-59261904D01*
X116352380Y-58690476D02*
X115780952Y-59119047D01*
X115352380Y-58690476D02*
X115923809Y-59261904D01*
G04 #@! TO.C,D11*
X77952380Y-89134285D02*
X76952380Y-89134285D01*
X76952380Y-88896190D01*
X77000000Y-88753333D01*
X77095238Y-88658095D01*
X77190476Y-88610476D01*
X77380952Y-88562857D01*
X77523809Y-88562857D01*
X77714285Y-88610476D01*
X77809523Y-88658095D01*
X77904761Y-88753333D01*
X77952380Y-88896190D01*
X77952380Y-89134285D01*
X77952380Y-87610476D02*
X77952380Y-88181904D01*
X77952380Y-87896190D02*
X76952380Y-87896190D01*
X77095238Y-87991428D01*
X77190476Y-88086666D01*
X77238095Y-88181904D01*
X77952380Y-86658095D02*
X77952380Y-87229523D01*
X77952380Y-86943809D02*
X76952380Y-86943809D01*
X77095238Y-87039047D01*
X77190476Y-87134285D01*
X77238095Y-87229523D01*
X73352380Y-93261904D02*
X72352380Y-93261904D01*
X73352380Y-92690476D02*
X72780952Y-93119047D01*
X72352380Y-92690476D02*
X72923809Y-93261904D01*
G04 #@! TO.C,D13*
X93152380Y-104314285D02*
X92152380Y-104314285D01*
X92152380Y-104076190D01*
X92200000Y-103933333D01*
X92295238Y-103838095D01*
X92390476Y-103790476D01*
X92580952Y-103742857D01*
X92723809Y-103742857D01*
X92914285Y-103790476D01*
X93009523Y-103838095D01*
X93104761Y-103933333D01*
X93152380Y-104076190D01*
X93152380Y-104314285D01*
X93152380Y-102790476D02*
X93152380Y-103361904D01*
X93152380Y-103076190D02*
X92152380Y-103076190D01*
X92295238Y-103171428D01*
X92390476Y-103266666D01*
X92438095Y-103361904D01*
X92152380Y-102457142D02*
X92152380Y-101838095D01*
X92533333Y-102171428D01*
X92533333Y-102028571D01*
X92580952Y-101933333D01*
X92628571Y-101885714D01*
X92723809Y-101838095D01*
X92961904Y-101838095D01*
X93057142Y-101885714D01*
X93104761Y-101933333D01*
X93152380Y-102028571D01*
X93152380Y-102314285D01*
X93104761Y-102409523D01*
X93057142Y-102457142D01*
X88352380Y-108261904D02*
X87352380Y-108261904D01*
X88352380Y-107690476D02*
X87780952Y-108119047D01*
X87352380Y-107690476D02*
X87923809Y-108261904D01*
G04 #@! TO.C,D9*
X108052380Y-88738095D02*
X107052380Y-88738095D01*
X107052380Y-88500000D01*
X107100000Y-88357142D01*
X107195238Y-88261904D01*
X107290476Y-88214285D01*
X107480952Y-88166666D01*
X107623809Y-88166666D01*
X107814285Y-88214285D01*
X107909523Y-88261904D01*
X108004761Y-88357142D01*
X108052380Y-88500000D01*
X108052380Y-88738095D01*
X108052380Y-87690476D02*
X108052380Y-87500000D01*
X108004761Y-87404761D01*
X107957142Y-87357142D01*
X107814285Y-87261904D01*
X107623809Y-87214285D01*
X107242857Y-87214285D01*
X107147619Y-87261904D01*
X107100000Y-87309523D01*
X107052380Y-87404761D01*
X107052380Y-87595238D01*
X107100000Y-87690476D01*
X107147619Y-87738095D01*
X107242857Y-87785714D01*
X107480952Y-87785714D01*
X107576190Y-87738095D01*
X107623809Y-87690476D01*
X107671428Y-87595238D01*
X107671428Y-87404761D01*
X107623809Y-87309523D01*
X107576190Y-87261904D01*
X107480952Y-87214285D01*
X107952380Y-93361904D02*
X106952380Y-93361904D01*
X107952380Y-92790476D02*
X107380952Y-93219047D01*
X106952380Y-92790476D02*
X107523809Y-93361904D01*
G04 #@! TO.C,D3*
X108052380Y-58538095D02*
X107052380Y-58538095D01*
X107052380Y-58300000D01*
X107100000Y-58157142D01*
X107195238Y-58061904D01*
X107290476Y-58014285D01*
X107480952Y-57966666D01*
X107623809Y-57966666D01*
X107814285Y-58014285D01*
X107909523Y-58061904D01*
X108004761Y-58157142D01*
X108052380Y-58300000D01*
X108052380Y-58538095D01*
X107052380Y-57633333D02*
X107052380Y-57014285D01*
X107433333Y-57347619D01*
X107433333Y-57204761D01*
X107480952Y-57109523D01*
X107528571Y-57061904D01*
X107623809Y-57014285D01*
X107861904Y-57014285D01*
X107957142Y-57061904D01*
X108004761Y-57109523D01*
X108052380Y-57204761D01*
X108052380Y-57490476D01*
X108004761Y-57585714D01*
X107957142Y-57633333D01*
X103352380Y-64261904D02*
X102352380Y-64261904D01*
X103352380Y-63690476D02*
X102780952Y-64119047D01*
X102352380Y-63690476D02*
X102923809Y-64261904D01*
G04 #@! TO.C,D5*
X78352380Y-59658095D02*
X77352380Y-59658095D01*
X77352380Y-59420000D01*
X77400000Y-59277142D01*
X77495238Y-59181904D01*
X77590476Y-59134285D01*
X77780952Y-59086666D01*
X77923809Y-59086666D01*
X78114285Y-59134285D01*
X78209523Y-59181904D01*
X78304761Y-59277142D01*
X78352380Y-59420000D01*
X78352380Y-59658095D01*
X77352380Y-58181904D02*
X77352380Y-58658095D01*
X77828571Y-58705714D01*
X77780952Y-58658095D01*
X77733333Y-58562857D01*
X77733333Y-58324761D01*
X77780952Y-58229523D01*
X77828571Y-58181904D01*
X77923809Y-58134285D01*
X78161904Y-58134285D01*
X78257142Y-58181904D01*
X78304761Y-58229523D01*
X78352380Y-58324761D01*
X78352380Y-58562857D01*
X78304761Y-58658095D01*
X78257142Y-58705714D01*
X73352380Y-64261904D02*
X72352380Y-64261904D01*
X73352380Y-63690476D02*
X72780952Y-64119047D01*
X72352380Y-63690476D02*
X72923809Y-64261904D01*
G04 #@! TO.C,D7*
X93252380Y-73658095D02*
X92252380Y-73658095D01*
X92252380Y-73420000D01*
X92300000Y-73277142D01*
X92395238Y-73181904D01*
X92490476Y-73134285D01*
X92680952Y-73086666D01*
X92823809Y-73086666D01*
X93014285Y-73134285D01*
X93109523Y-73181904D01*
X93204761Y-73277142D01*
X93252380Y-73420000D01*
X93252380Y-73658095D01*
X92252380Y-72753333D02*
X92252380Y-72086666D01*
X93252380Y-72515238D01*
X88352380Y-78261904D02*
X87352380Y-78261904D01*
X88352380Y-77690476D02*
X87780952Y-78119047D01*
X87352380Y-77690476D02*
X87923809Y-78261904D01*
G04 #@! TO.C,D1*
X121552380Y-40658095D02*
X120552380Y-40658095D01*
X120552380Y-40420000D01*
X120600000Y-40277142D01*
X120695238Y-40181904D01*
X120790476Y-40134285D01*
X120980952Y-40086666D01*
X121123809Y-40086666D01*
X121314285Y-40134285D01*
X121409523Y-40181904D01*
X121504761Y-40277142D01*
X121552380Y-40420000D01*
X121552380Y-40658095D01*
X121552380Y-39134285D02*
X121552380Y-39705714D01*
X121552380Y-39420000D02*
X120552380Y-39420000D01*
X120695238Y-39515238D01*
X120790476Y-39610476D01*
X120838095Y-39705714D01*
X121352380Y-45261904D02*
X120352380Y-45261904D01*
X121352380Y-44690476D02*
X120780952Y-45119047D01*
X120352380Y-44690476D02*
X120923809Y-45261904D01*
G04 #@! TO.C,D15*
X92052380Y-41414285D02*
X91052380Y-41414285D01*
X91052380Y-41176190D01*
X91100000Y-41033333D01*
X91195238Y-40938095D01*
X91290476Y-40890476D01*
X91480952Y-40842857D01*
X91623809Y-40842857D01*
X91814285Y-40890476D01*
X91909523Y-40938095D01*
X92004761Y-41033333D01*
X92052380Y-41176190D01*
X92052380Y-41414285D01*
X92052380Y-39890476D02*
X92052380Y-40461904D01*
X92052380Y-40176190D02*
X91052380Y-40176190D01*
X91195238Y-40271428D01*
X91290476Y-40366666D01*
X91338095Y-40461904D01*
X91052380Y-38985714D02*
X91052380Y-39461904D01*
X91528571Y-39509523D01*
X91480952Y-39461904D01*
X91433333Y-39366666D01*
X91433333Y-39128571D01*
X91480952Y-39033333D01*
X91528571Y-38985714D01*
X91623809Y-38938095D01*
X91861904Y-38938095D01*
X91957142Y-38985714D01*
X92004761Y-39033333D01*
X92052380Y-39128571D01*
X92052380Y-39366666D01*
X92004761Y-39461904D01*
X91957142Y-39509523D01*
X88772380Y-45261904D02*
X87772380Y-45261904D01*
X88772380Y-44690476D02*
X88200952Y-45119047D01*
X87772380Y-44690476D02*
X88343809Y-45261904D01*
G04 #@! TO.C,J1*
X35042380Y-19603333D02*
X35756666Y-19603333D01*
X35899523Y-19650952D01*
X35994761Y-19746190D01*
X36042380Y-19889047D01*
X36042380Y-19984285D01*
X36042380Y-18603333D02*
X36042380Y-19174761D01*
X36042380Y-18889047D02*
X35042380Y-18889047D01*
X35185238Y-18984285D01*
X35280476Y-19079523D01*
X35328095Y-19174761D01*
G04 #@! TO.C,J2*
X114166666Y-109712380D02*
X114166666Y-110426666D01*
X114119047Y-110569523D01*
X114023809Y-110664761D01*
X113880952Y-110712380D01*
X113785714Y-110712380D01*
X114595238Y-109807619D02*
X114642857Y-109760000D01*
X114738095Y-109712380D01*
X114976190Y-109712380D01*
X115071428Y-109760000D01*
X115119047Y-109807619D01*
X115166666Y-109902857D01*
X115166666Y-109998095D01*
X115119047Y-110140952D01*
X114547619Y-110712380D01*
X115166666Y-110712380D01*
G04 #@! TO.C,J3*
X63582380Y-22333333D02*
X64296666Y-22333333D01*
X64439523Y-22380952D01*
X64534761Y-22476190D01*
X64582380Y-22619047D01*
X64582380Y-22714285D01*
X63582380Y-21952380D02*
X63582380Y-21333333D01*
X63963333Y-21666666D01*
X63963333Y-21523809D01*
X64010952Y-21428571D01*
X64058571Y-21380952D01*
X64153809Y-21333333D01*
X64391904Y-21333333D01*
X64487142Y-21380952D01*
X64534761Y-21428571D01*
X64582380Y-21523809D01*
X64582380Y-21809523D01*
X64534761Y-21904761D01*
X64487142Y-21952380D01*
G04 #@! TO.C,J4*
X74786666Y-32582380D02*
X74786666Y-33296666D01*
X74739047Y-33439523D01*
X74643809Y-33534761D01*
X74500952Y-33582380D01*
X74405714Y-33582380D01*
X75691428Y-32915714D02*
X75691428Y-33582380D01*
X75453333Y-32534761D02*
X75215238Y-33249047D01*
X75834285Y-33249047D01*
G04 #@! TO.C,J5*
X72246666Y-32582380D02*
X72246666Y-33296666D01*
X72199047Y-33439523D01*
X72103809Y-33534761D01*
X71960952Y-33582380D01*
X71865714Y-33582380D01*
X73199047Y-32582380D02*
X72722857Y-32582380D01*
X72675238Y-33058571D01*
X72722857Y-33010952D01*
X72818095Y-32963333D01*
X73056190Y-32963333D01*
X73151428Y-33010952D01*
X73199047Y-33058571D01*
X73246666Y-33153809D01*
X73246666Y-33391904D01*
X73199047Y-33487142D01*
X73151428Y-33534761D01*
X73056190Y-33582380D01*
X72818095Y-33582380D01*
X72722857Y-33534761D01*
X72675238Y-33487142D01*
G04 #@! TO.C,J6*
X69706666Y-32582380D02*
X69706666Y-33296666D01*
X69659047Y-33439523D01*
X69563809Y-33534761D01*
X69420952Y-33582380D01*
X69325714Y-33582380D01*
X70611428Y-32582380D02*
X70420952Y-32582380D01*
X70325714Y-32630000D01*
X70278095Y-32677619D01*
X70182857Y-32820476D01*
X70135238Y-33010952D01*
X70135238Y-33391904D01*
X70182857Y-33487142D01*
X70230476Y-33534761D01*
X70325714Y-33582380D01*
X70516190Y-33582380D01*
X70611428Y-33534761D01*
X70659047Y-33487142D01*
X70706666Y-33391904D01*
X70706666Y-33153809D01*
X70659047Y-33058571D01*
X70611428Y-33010952D01*
X70516190Y-32963333D01*
X70325714Y-32963333D01*
X70230476Y-33010952D01*
X70182857Y-33058571D01*
X70135238Y-33153809D01*
G04 #@! TO.C,J7*
X31466666Y-22652380D02*
X31466666Y-23366666D01*
X31419047Y-23509523D01*
X31323809Y-23604761D01*
X31180952Y-23652380D01*
X31085714Y-23652380D01*
X31847619Y-22652380D02*
X32514285Y-22652380D01*
X32085714Y-23652380D01*
G04 #@! TO.C,Q12*
X99747619Y-103671428D02*
X99700000Y-103766666D01*
X99604761Y-103861904D01*
X99461904Y-104004761D01*
X99414285Y-104100000D01*
X99414285Y-104195238D01*
X99652380Y-104147619D02*
X99604761Y-104242857D01*
X99509523Y-104338095D01*
X99319047Y-104385714D01*
X98985714Y-104385714D01*
X98795238Y-104338095D01*
X98700000Y-104242857D01*
X98652380Y-104147619D01*
X98652380Y-103957142D01*
X98700000Y-103861904D01*
X98795238Y-103766666D01*
X98985714Y-103719047D01*
X99319047Y-103719047D01*
X99509523Y-103766666D01*
X99604761Y-103861904D01*
X99652380Y-103957142D01*
X99652380Y-104147619D01*
X99652380Y-102766666D02*
X99652380Y-103338095D01*
X99652380Y-103052380D02*
X98652380Y-103052380D01*
X98795238Y-103147619D01*
X98890476Y-103242857D01*
X98938095Y-103338095D01*
X98747619Y-102385714D02*
X98700000Y-102338095D01*
X98652380Y-102242857D01*
X98652380Y-102004761D01*
X98700000Y-101909523D01*
X98747619Y-101861904D01*
X98842857Y-101814285D01*
X98938095Y-101814285D01*
X99080952Y-101861904D01*
X99652380Y-102433333D01*
X99652380Y-101814285D01*
G04 #@! TO.C,Q14*
X69747619Y-103671428D02*
X69700000Y-103766666D01*
X69604761Y-103861904D01*
X69461904Y-104004761D01*
X69414285Y-104100000D01*
X69414285Y-104195238D01*
X69652380Y-104147619D02*
X69604761Y-104242857D01*
X69509523Y-104338095D01*
X69319047Y-104385714D01*
X68985714Y-104385714D01*
X68795238Y-104338095D01*
X68700000Y-104242857D01*
X68652380Y-104147619D01*
X68652380Y-103957142D01*
X68700000Y-103861904D01*
X68795238Y-103766666D01*
X68985714Y-103719047D01*
X69319047Y-103719047D01*
X69509523Y-103766666D01*
X69604761Y-103861904D01*
X69652380Y-103957142D01*
X69652380Y-104147619D01*
X69652380Y-102766666D02*
X69652380Y-103338095D01*
X69652380Y-103052380D02*
X68652380Y-103052380D01*
X68795238Y-103147619D01*
X68890476Y-103242857D01*
X68938095Y-103338095D01*
X68985714Y-101909523D02*
X69652380Y-101909523D01*
X68604761Y-102147619D02*
X69319047Y-102385714D01*
X69319047Y-101766666D01*
G04 #@! TO.C,Q10*
X84947619Y-88271428D02*
X84900000Y-88366666D01*
X84804761Y-88461904D01*
X84661904Y-88604761D01*
X84614285Y-88700000D01*
X84614285Y-88795238D01*
X84852380Y-88747619D02*
X84804761Y-88842857D01*
X84709523Y-88938095D01*
X84519047Y-88985714D01*
X84185714Y-88985714D01*
X83995238Y-88938095D01*
X83900000Y-88842857D01*
X83852380Y-88747619D01*
X83852380Y-88557142D01*
X83900000Y-88461904D01*
X83995238Y-88366666D01*
X84185714Y-88319047D01*
X84519047Y-88319047D01*
X84709523Y-88366666D01*
X84804761Y-88461904D01*
X84852380Y-88557142D01*
X84852380Y-88747619D01*
X84852380Y-87366666D02*
X84852380Y-87938095D01*
X84852380Y-87652380D02*
X83852380Y-87652380D01*
X83995238Y-87747619D01*
X84090476Y-87842857D01*
X84138095Y-87938095D01*
X83852380Y-86747619D02*
X83852380Y-86652380D01*
X83900000Y-86557142D01*
X83947619Y-86509523D01*
X84042857Y-86461904D01*
X84233333Y-86414285D01*
X84471428Y-86414285D01*
X84661904Y-86461904D01*
X84757142Y-86509523D01*
X84804761Y-86557142D01*
X84852380Y-86652380D01*
X84852380Y-86747619D01*
X84804761Y-86842857D01*
X84757142Y-86890476D01*
X84661904Y-86938095D01*
X84471428Y-86985714D01*
X84233333Y-86985714D01*
X84042857Y-86938095D01*
X83947619Y-86890476D01*
X83900000Y-86842857D01*
X83852380Y-86747619D01*
G04 #@! TO.C,Q4*
X84747619Y-59295238D02*
X84700000Y-59390476D01*
X84604761Y-59485714D01*
X84461904Y-59628571D01*
X84414285Y-59723809D01*
X84414285Y-59819047D01*
X84652380Y-59771428D02*
X84604761Y-59866666D01*
X84509523Y-59961904D01*
X84319047Y-60009523D01*
X83985714Y-60009523D01*
X83795238Y-59961904D01*
X83700000Y-59866666D01*
X83652380Y-59771428D01*
X83652380Y-59580952D01*
X83700000Y-59485714D01*
X83795238Y-59390476D01*
X83985714Y-59342857D01*
X84319047Y-59342857D01*
X84509523Y-59390476D01*
X84604761Y-59485714D01*
X84652380Y-59580952D01*
X84652380Y-59771428D01*
X83985714Y-58485714D02*
X84652380Y-58485714D01*
X83604761Y-58723809D02*
X84319047Y-58961904D01*
X84319047Y-58342857D01*
G04 #@! TO.C,Q6*
X99847619Y-73395238D02*
X99800000Y-73490476D01*
X99704761Y-73585714D01*
X99561904Y-73728571D01*
X99514285Y-73823809D01*
X99514285Y-73919047D01*
X99752380Y-73871428D02*
X99704761Y-73966666D01*
X99609523Y-74061904D01*
X99419047Y-74109523D01*
X99085714Y-74109523D01*
X98895238Y-74061904D01*
X98800000Y-73966666D01*
X98752380Y-73871428D01*
X98752380Y-73680952D01*
X98800000Y-73585714D01*
X98895238Y-73490476D01*
X99085714Y-73442857D01*
X99419047Y-73442857D01*
X99609523Y-73490476D01*
X99704761Y-73585714D01*
X99752380Y-73680952D01*
X99752380Y-73871428D01*
X98752380Y-72585714D02*
X98752380Y-72776190D01*
X98800000Y-72871428D01*
X98847619Y-72919047D01*
X98990476Y-73014285D01*
X99180952Y-73061904D01*
X99561904Y-73061904D01*
X99657142Y-73014285D01*
X99704761Y-72966666D01*
X99752380Y-72871428D01*
X99752380Y-72680952D01*
X99704761Y-72585714D01*
X99657142Y-72538095D01*
X99561904Y-72490476D01*
X99323809Y-72490476D01*
X99228571Y-72538095D01*
X99180952Y-72585714D01*
X99133333Y-72680952D01*
X99133333Y-72871428D01*
X99180952Y-72966666D01*
X99228571Y-73014285D01*
X99323809Y-73061904D01*
G04 #@! TO.C,Q8*
X69547619Y-73295238D02*
X69500000Y-73390476D01*
X69404761Y-73485714D01*
X69261904Y-73628571D01*
X69214285Y-73723809D01*
X69214285Y-73819047D01*
X69452380Y-73771428D02*
X69404761Y-73866666D01*
X69309523Y-73961904D01*
X69119047Y-74009523D01*
X68785714Y-74009523D01*
X68595238Y-73961904D01*
X68500000Y-73866666D01*
X68452380Y-73771428D01*
X68452380Y-73580952D01*
X68500000Y-73485714D01*
X68595238Y-73390476D01*
X68785714Y-73342857D01*
X69119047Y-73342857D01*
X69309523Y-73390476D01*
X69404761Y-73485714D01*
X69452380Y-73580952D01*
X69452380Y-73771428D01*
X68880952Y-72771428D02*
X68833333Y-72866666D01*
X68785714Y-72914285D01*
X68690476Y-72961904D01*
X68642857Y-72961904D01*
X68547619Y-72914285D01*
X68500000Y-72866666D01*
X68452380Y-72771428D01*
X68452380Y-72580952D01*
X68500000Y-72485714D01*
X68547619Y-72438095D01*
X68642857Y-72390476D01*
X68690476Y-72390476D01*
X68785714Y-72438095D01*
X68833333Y-72485714D01*
X68880952Y-72580952D01*
X68880952Y-72771428D01*
X68928571Y-72866666D01*
X68976190Y-72914285D01*
X69071428Y-72961904D01*
X69261904Y-72961904D01*
X69357142Y-72914285D01*
X69404761Y-72866666D01*
X69452380Y-72771428D01*
X69452380Y-72580952D01*
X69404761Y-72485714D01*
X69357142Y-72438095D01*
X69261904Y-72390476D01*
X69071428Y-72390476D01*
X68976190Y-72438095D01*
X68928571Y-72485714D01*
X68880952Y-72580952D01*
G04 #@! TO.C,Q2*
X112947619Y-54395238D02*
X112900000Y-54490476D01*
X112804761Y-54585714D01*
X112661904Y-54728571D01*
X112614285Y-54823809D01*
X112614285Y-54919047D01*
X112852380Y-54871428D02*
X112804761Y-54966666D01*
X112709523Y-55061904D01*
X112519047Y-55109523D01*
X112185714Y-55109523D01*
X111995238Y-55061904D01*
X111900000Y-54966666D01*
X111852380Y-54871428D01*
X111852380Y-54680952D01*
X111900000Y-54585714D01*
X111995238Y-54490476D01*
X112185714Y-54442857D01*
X112519047Y-54442857D01*
X112709523Y-54490476D01*
X112804761Y-54585714D01*
X112852380Y-54680952D01*
X112852380Y-54871428D01*
X111947619Y-54061904D02*
X111900000Y-54014285D01*
X111852380Y-53919047D01*
X111852380Y-53680952D01*
X111900000Y-53585714D01*
X111947619Y-53538095D01*
X112042857Y-53490476D01*
X112138095Y-53490476D01*
X112280952Y-53538095D01*
X112852380Y-54109523D01*
X112852380Y-53490476D01*
G04 #@! TO.C,Q11*
X69547619Y-88571428D02*
X69500000Y-88666666D01*
X69404761Y-88761904D01*
X69261904Y-88904761D01*
X69214285Y-89000000D01*
X69214285Y-89095238D01*
X69452380Y-89047619D02*
X69404761Y-89142857D01*
X69309523Y-89238095D01*
X69119047Y-89285714D01*
X68785714Y-89285714D01*
X68595238Y-89238095D01*
X68500000Y-89142857D01*
X68452380Y-89047619D01*
X68452380Y-88857142D01*
X68500000Y-88761904D01*
X68595238Y-88666666D01*
X68785714Y-88619047D01*
X69119047Y-88619047D01*
X69309523Y-88666666D01*
X69404761Y-88761904D01*
X69452380Y-88857142D01*
X69452380Y-89047619D01*
X69452380Y-87666666D02*
X69452380Y-88238095D01*
X69452380Y-87952380D02*
X68452380Y-87952380D01*
X68595238Y-88047619D01*
X68690476Y-88142857D01*
X68738095Y-88238095D01*
X69452380Y-86714285D02*
X69452380Y-87285714D01*
X69452380Y-87000000D02*
X68452380Y-87000000D01*
X68595238Y-87095238D01*
X68690476Y-87190476D01*
X68738095Y-87285714D01*
G04 #@! TO.C,Q13*
X84547619Y-103571428D02*
X84500000Y-103666666D01*
X84404761Y-103761904D01*
X84261904Y-103904761D01*
X84214285Y-104000000D01*
X84214285Y-104095238D01*
X84452380Y-104047619D02*
X84404761Y-104142857D01*
X84309523Y-104238095D01*
X84119047Y-104285714D01*
X83785714Y-104285714D01*
X83595238Y-104238095D01*
X83500000Y-104142857D01*
X83452380Y-104047619D01*
X83452380Y-103857142D01*
X83500000Y-103761904D01*
X83595238Y-103666666D01*
X83785714Y-103619047D01*
X84119047Y-103619047D01*
X84309523Y-103666666D01*
X84404761Y-103761904D01*
X84452380Y-103857142D01*
X84452380Y-104047619D01*
X84452380Y-102666666D02*
X84452380Y-103238095D01*
X84452380Y-102952380D02*
X83452380Y-102952380D01*
X83595238Y-103047619D01*
X83690476Y-103142857D01*
X83738095Y-103238095D01*
X83452380Y-102333333D02*
X83452380Y-101714285D01*
X83833333Y-102047619D01*
X83833333Y-101904761D01*
X83880952Y-101809523D01*
X83928571Y-101761904D01*
X84023809Y-101714285D01*
X84261904Y-101714285D01*
X84357142Y-101761904D01*
X84404761Y-101809523D01*
X84452380Y-101904761D01*
X84452380Y-102190476D01*
X84404761Y-102285714D01*
X84357142Y-102333333D01*
G04 #@! TO.C,Q9*
X99647619Y-88095238D02*
X99600000Y-88190476D01*
X99504761Y-88285714D01*
X99361904Y-88428571D01*
X99314285Y-88523809D01*
X99314285Y-88619047D01*
X99552380Y-88571428D02*
X99504761Y-88666666D01*
X99409523Y-88761904D01*
X99219047Y-88809523D01*
X98885714Y-88809523D01*
X98695238Y-88761904D01*
X98600000Y-88666666D01*
X98552380Y-88571428D01*
X98552380Y-88380952D01*
X98600000Y-88285714D01*
X98695238Y-88190476D01*
X98885714Y-88142857D01*
X99219047Y-88142857D01*
X99409523Y-88190476D01*
X99504761Y-88285714D01*
X99552380Y-88380952D01*
X99552380Y-88571428D01*
X99552380Y-87666666D02*
X99552380Y-87476190D01*
X99504761Y-87380952D01*
X99457142Y-87333333D01*
X99314285Y-87238095D01*
X99123809Y-87190476D01*
X98742857Y-87190476D01*
X98647619Y-87238095D01*
X98600000Y-87285714D01*
X98552380Y-87380952D01*
X98552380Y-87571428D01*
X98600000Y-87666666D01*
X98647619Y-87714285D01*
X98742857Y-87761904D01*
X98980952Y-87761904D01*
X99076190Y-87714285D01*
X99123809Y-87666666D01*
X99171428Y-87571428D01*
X99171428Y-87380952D01*
X99123809Y-87285714D01*
X99076190Y-87238095D01*
X98980952Y-87190476D01*
G04 #@! TO.C,Q3*
X99647619Y-59295238D02*
X99600000Y-59390476D01*
X99504761Y-59485714D01*
X99361904Y-59628571D01*
X99314285Y-59723809D01*
X99314285Y-59819047D01*
X99552380Y-59771428D02*
X99504761Y-59866666D01*
X99409523Y-59961904D01*
X99219047Y-60009523D01*
X98885714Y-60009523D01*
X98695238Y-59961904D01*
X98600000Y-59866666D01*
X98552380Y-59771428D01*
X98552380Y-59580952D01*
X98600000Y-59485714D01*
X98695238Y-59390476D01*
X98885714Y-59342857D01*
X99219047Y-59342857D01*
X99409523Y-59390476D01*
X99504761Y-59485714D01*
X99552380Y-59580952D01*
X99552380Y-59771428D01*
X98552380Y-59009523D02*
X98552380Y-58390476D01*
X98933333Y-58723809D01*
X98933333Y-58580952D01*
X98980952Y-58485714D01*
X99028571Y-58438095D01*
X99123809Y-58390476D01*
X99361904Y-58390476D01*
X99457142Y-58438095D01*
X99504761Y-58485714D01*
X99552380Y-58580952D01*
X99552380Y-58866666D01*
X99504761Y-58961904D01*
X99457142Y-59009523D01*
G04 #@! TO.C,Q5*
X69447619Y-59095238D02*
X69400000Y-59190476D01*
X69304761Y-59285714D01*
X69161904Y-59428571D01*
X69114285Y-59523809D01*
X69114285Y-59619047D01*
X69352380Y-59571428D02*
X69304761Y-59666666D01*
X69209523Y-59761904D01*
X69019047Y-59809523D01*
X68685714Y-59809523D01*
X68495238Y-59761904D01*
X68400000Y-59666666D01*
X68352380Y-59571428D01*
X68352380Y-59380952D01*
X68400000Y-59285714D01*
X68495238Y-59190476D01*
X68685714Y-59142857D01*
X69019047Y-59142857D01*
X69209523Y-59190476D01*
X69304761Y-59285714D01*
X69352380Y-59380952D01*
X69352380Y-59571428D01*
X68352380Y-58238095D02*
X68352380Y-58714285D01*
X68828571Y-58761904D01*
X68780952Y-58714285D01*
X68733333Y-58619047D01*
X68733333Y-58380952D01*
X68780952Y-58285714D01*
X68828571Y-58238095D01*
X68923809Y-58190476D01*
X69161904Y-58190476D01*
X69257142Y-58238095D01*
X69304761Y-58285714D01*
X69352380Y-58380952D01*
X69352380Y-58619047D01*
X69304761Y-58714285D01*
X69257142Y-58761904D01*
G04 #@! TO.C,Q7*
X84647619Y-73395238D02*
X84600000Y-73490476D01*
X84504761Y-73585714D01*
X84361904Y-73728571D01*
X84314285Y-73823809D01*
X84314285Y-73919047D01*
X84552380Y-73871428D02*
X84504761Y-73966666D01*
X84409523Y-74061904D01*
X84219047Y-74109523D01*
X83885714Y-74109523D01*
X83695238Y-74061904D01*
X83600000Y-73966666D01*
X83552380Y-73871428D01*
X83552380Y-73680952D01*
X83600000Y-73585714D01*
X83695238Y-73490476D01*
X83885714Y-73442857D01*
X84219047Y-73442857D01*
X84409523Y-73490476D01*
X84504761Y-73585714D01*
X84552380Y-73680952D01*
X84552380Y-73871428D01*
X83552380Y-73109523D02*
X83552380Y-72442857D01*
X84552380Y-72871428D01*
G04 #@! TO.C,Q1*
X112647619Y-40295238D02*
X112600000Y-40390476D01*
X112504761Y-40485714D01*
X112361904Y-40628571D01*
X112314285Y-40723809D01*
X112314285Y-40819047D01*
X112552380Y-40771428D02*
X112504761Y-40866666D01*
X112409523Y-40961904D01*
X112219047Y-41009523D01*
X111885714Y-41009523D01*
X111695238Y-40961904D01*
X111600000Y-40866666D01*
X111552380Y-40771428D01*
X111552380Y-40580952D01*
X111600000Y-40485714D01*
X111695238Y-40390476D01*
X111885714Y-40342857D01*
X112219047Y-40342857D01*
X112409523Y-40390476D01*
X112504761Y-40485714D01*
X112552380Y-40580952D01*
X112552380Y-40771428D01*
X112552380Y-39390476D02*
X112552380Y-39961904D01*
X112552380Y-39676190D02*
X111552380Y-39676190D01*
X111695238Y-39771428D01*
X111790476Y-39866666D01*
X111838095Y-39961904D01*
G04 #@! TO.C,Q15*
X84147619Y-40871428D02*
X84100000Y-40966666D01*
X84004761Y-41061904D01*
X83861904Y-41204761D01*
X83814285Y-41300000D01*
X83814285Y-41395238D01*
X84052380Y-41347619D02*
X84004761Y-41442857D01*
X83909523Y-41538095D01*
X83719047Y-41585714D01*
X83385714Y-41585714D01*
X83195238Y-41538095D01*
X83100000Y-41442857D01*
X83052380Y-41347619D01*
X83052380Y-41157142D01*
X83100000Y-41061904D01*
X83195238Y-40966666D01*
X83385714Y-40919047D01*
X83719047Y-40919047D01*
X83909523Y-40966666D01*
X84004761Y-41061904D01*
X84052380Y-41157142D01*
X84052380Y-41347619D01*
X84052380Y-39966666D02*
X84052380Y-40538095D01*
X84052380Y-40252380D02*
X83052380Y-40252380D01*
X83195238Y-40347619D01*
X83290476Y-40442857D01*
X83338095Y-40538095D01*
X83052380Y-39061904D02*
X83052380Y-39538095D01*
X83528571Y-39585714D01*
X83480952Y-39538095D01*
X83433333Y-39442857D01*
X83433333Y-39204761D01*
X83480952Y-39109523D01*
X83528571Y-39061904D01*
X83623809Y-39014285D01*
X83861904Y-39014285D01*
X83957142Y-39061904D01*
X84004761Y-39109523D01*
X84052380Y-39204761D01*
X84052380Y-39442857D01*
X84004761Y-39538095D01*
X83957142Y-39585714D01*
G04 #@! TO.C,R26*
X96569642Y-96652380D02*
X96236309Y-96176190D01*
X95998214Y-96652380D02*
X95998214Y-95652380D01*
X96379166Y-95652380D01*
X96474404Y-95700000D01*
X96522023Y-95747619D01*
X96569642Y-95842857D01*
X96569642Y-95985714D01*
X96522023Y-96080952D01*
X96474404Y-96128571D01*
X96379166Y-96176190D01*
X95998214Y-96176190D01*
X96950595Y-95747619D02*
X96998214Y-95700000D01*
X97093452Y-95652380D01*
X97331547Y-95652380D01*
X97426785Y-95700000D01*
X97474404Y-95747619D01*
X97522023Y-95842857D01*
X97522023Y-95938095D01*
X97474404Y-96080952D01*
X96902976Y-96652380D01*
X97522023Y-96652380D01*
X98379166Y-95652380D02*
X98188690Y-95652380D01*
X98093452Y-95700000D01*
X98045833Y-95747619D01*
X97950595Y-95890476D01*
X97902976Y-96080952D01*
X97902976Y-96461904D01*
X97950595Y-96557142D01*
X97998214Y-96604761D01*
X98093452Y-96652380D01*
X98283928Y-96652380D01*
X98379166Y-96604761D01*
X98426785Y-96557142D01*
X98474404Y-96461904D01*
X98474404Y-96223809D01*
X98426785Y-96128571D01*
X98379166Y-96080952D01*
X98283928Y-96033333D01*
X98093452Y-96033333D01*
X97998214Y-96080952D01*
X97950595Y-96128571D01*
X97902976Y-96223809D01*
G04 #@! TO.C,R28*
X65257142Y-97852380D02*
X64923809Y-97376190D01*
X64685714Y-97852380D02*
X64685714Y-96852380D01*
X65066666Y-96852380D01*
X65161904Y-96900000D01*
X65209523Y-96947619D01*
X65257142Y-97042857D01*
X65257142Y-97185714D01*
X65209523Y-97280952D01*
X65161904Y-97328571D01*
X65066666Y-97376190D01*
X64685714Y-97376190D01*
X65638095Y-96947619D02*
X65685714Y-96900000D01*
X65780952Y-96852380D01*
X66019047Y-96852380D01*
X66114285Y-96900000D01*
X66161904Y-96947619D01*
X66209523Y-97042857D01*
X66209523Y-97138095D01*
X66161904Y-97280952D01*
X65590476Y-97852380D01*
X66209523Y-97852380D01*
X66780952Y-97280952D02*
X66685714Y-97233333D01*
X66638095Y-97185714D01*
X66590476Y-97090476D01*
X66590476Y-97042857D01*
X66638095Y-96947619D01*
X66685714Y-96900000D01*
X66780952Y-96852380D01*
X66971428Y-96852380D01*
X67066666Y-96900000D01*
X67114285Y-96947619D01*
X67161904Y-97042857D01*
X67161904Y-97090476D01*
X67114285Y-97185714D01*
X67066666Y-97233333D01*
X66971428Y-97280952D01*
X66780952Y-97280952D01*
X66685714Y-97328571D01*
X66638095Y-97376190D01*
X66590476Y-97471428D01*
X66590476Y-97661904D01*
X66638095Y-97757142D01*
X66685714Y-97804761D01*
X66780952Y-97852380D01*
X66971428Y-97852380D01*
X67066666Y-97804761D01*
X67114285Y-97757142D01*
X67161904Y-97661904D01*
X67161904Y-97471428D01*
X67114285Y-97376190D01*
X67066666Y-97328571D01*
X66971428Y-97280952D01*
G04 #@! TO.C,R24*
X81657142Y-81152380D02*
X81323809Y-80676190D01*
X81085714Y-81152380D02*
X81085714Y-80152380D01*
X81466666Y-80152380D01*
X81561904Y-80200000D01*
X81609523Y-80247619D01*
X81657142Y-80342857D01*
X81657142Y-80485714D01*
X81609523Y-80580952D01*
X81561904Y-80628571D01*
X81466666Y-80676190D01*
X81085714Y-80676190D01*
X82038095Y-80247619D02*
X82085714Y-80200000D01*
X82180952Y-80152380D01*
X82419047Y-80152380D01*
X82514285Y-80200000D01*
X82561904Y-80247619D01*
X82609523Y-80342857D01*
X82609523Y-80438095D01*
X82561904Y-80580952D01*
X81990476Y-81152380D01*
X82609523Y-81152380D01*
X83466666Y-80485714D02*
X83466666Y-81152380D01*
X83228571Y-80104761D02*
X82990476Y-80819047D01*
X83609523Y-80819047D01*
G04 #@! TO.C,R18*
X81569642Y-53022380D02*
X81236309Y-52546190D01*
X80998214Y-53022380D02*
X80998214Y-52022380D01*
X81379166Y-52022380D01*
X81474404Y-52070000D01*
X81522023Y-52117619D01*
X81569642Y-52212857D01*
X81569642Y-52355714D01*
X81522023Y-52450952D01*
X81474404Y-52498571D01*
X81379166Y-52546190D01*
X80998214Y-52546190D01*
X82522023Y-53022380D02*
X81950595Y-53022380D01*
X82236309Y-53022380D02*
X82236309Y-52022380D01*
X82141071Y-52165238D01*
X82045833Y-52260476D01*
X81950595Y-52308095D01*
X83093452Y-52450952D02*
X82998214Y-52403333D01*
X82950595Y-52355714D01*
X82902976Y-52260476D01*
X82902976Y-52212857D01*
X82950595Y-52117619D01*
X82998214Y-52070000D01*
X83093452Y-52022380D01*
X83283928Y-52022380D01*
X83379166Y-52070000D01*
X83426785Y-52117619D01*
X83474404Y-52212857D01*
X83474404Y-52260476D01*
X83426785Y-52355714D01*
X83379166Y-52403333D01*
X83283928Y-52450952D01*
X83093452Y-52450952D01*
X82998214Y-52498571D01*
X82950595Y-52546190D01*
X82902976Y-52641428D01*
X82902976Y-52831904D01*
X82950595Y-52927142D01*
X82998214Y-52974761D01*
X83093452Y-53022380D01*
X83283928Y-53022380D01*
X83379166Y-52974761D01*
X83426785Y-52927142D01*
X83474404Y-52831904D01*
X83474404Y-52641428D01*
X83426785Y-52546190D01*
X83379166Y-52498571D01*
X83283928Y-52450952D01*
G04 #@! TO.C,R20*
X96557142Y-66852380D02*
X96223809Y-66376190D01*
X95985714Y-66852380D02*
X95985714Y-65852380D01*
X96366666Y-65852380D01*
X96461904Y-65900000D01*
X96509523Y-65947619D01*
X96557142Y-66042857D01*
X96557142Y-66185714D01*
X96509523Y-66280952D01*
X96461904Y-66328571D01*
X96366666Y-66376190D01*
X95985714Y-66376190D01*
X96938095Y-65947619D02*
X96985714Y-65900000D01*
X97080952Y-65852380D01*
X97319047Y-65852380D01*
X97414285Y-65900000D01*
X97461904Y-65947619D01*
X97509523Y-66042857D01*
X97509523Y-66138095D01*
X97461904Y-66280952D01*
X96890476Y-66852380D01*
X97509523Y-66852380D01*
X98128571Y-65852380D02*
X98223809Y-65852380D01*
X98319047Y-65900000D01*
X98366666Y-65947619D01*
X98414285Y-66042857D01*
X98461904Y-66233333D01*
X98461904Y-66471428D01*
X98414285Y-66661904D01*
X98366666Y-66757142D01*
X98319047Y-66804761D01*
X98223809Y-66852380D01*
X98128571Y-66852380D01*
X98033333Y-66804761D01*
X97985714Y-66757142D01*
X97938095Y-66661904D01*
X97890476Y-66471428D01*
X97890476Y-66233333D01*
X97938095Y-66042857D01*
X97985714Y-65947619D01*
X98033333Y-65900000D01*
X98128571Y-65852380D01*
G04 #@! TO.C,R22*
X63357142Y-68452380D02*
X63023809Y-67976190D01*
X62785714Y-68452380D02*
X62785714Y-67452380D01*
X63166666Y-67452380D01*
X63261904Y-67500000D01*
X63309523Y-67547619D01*
X63357142Y-67642857D01*
X63357142Y-67785714D01*
X63309523Y-67880952D01*
X63261904Y-67928571D01*
X63166666Y-67976190D01*
X62785714Y-67976190D01*
X63738095Y-67547619D02*
X63785714Y-67500000D01*
X63880952Y-67452380D01*
X64119047Y-67452380D01*
X64214285Y-67500000D01*
X64261904Y-67547619D01*
X64309523Y-67642857D01*
X64309523Y-67738095D01*
X64261904Y-67880952D01*
X63690476Y-68452380D01*
X64309523Y-68452380D01*
X64690476Y-67547619D02*
X64738095Y-67500000D01*
X64833333Y-67452380D01*
X65071428Y-67452380D01*
X65166666Y-67500000D01*
X65214285Y-67547619D01*
X65261904Y-67642857D01*
X65261904Y-67738095D01*
X65214285Y-67880952D01*
X64642857Y-68452380D01*
X65261904Y-68452380D01*
G04 #@! TO.C,R16*
X106457142Y-49452380D02*
X106123809Y-48976190D01*
X105885714Y-49452380D02*
X105885714Y-48452380D01*
X106266666Y-48452380D01*
X106361904Y-48500000D01*
X106409523Y-48547619D01*
X106457142Y-48642857D01*
X106457142Y-48785714D01*
X106409523Y-48880952D01*
X106361904Y-48928571D01*
X106266666Y-48976190D01*
X105885714Y-48976190D01*
X107409523Y-49452380D02*
X106838095Y-49452380D01*
X107123809Y-49452380D02*
X107123809Y-48452380D01*
X107028571Y-48595238D01*
X106933333Y-48690476D01*
X106838095Y-48738095D01*
X108266666Y-48452380D02*
X108076190Y-48452380D01*
X107980952Y-48500000D01*
X107933333Y-48547619D01*
X107838095Y-48690476D01*
X107790476Y-48880952D01*
X107790476Y-49261904D01*
X107838095Y-49357142D01*
X107885714Y-49404761D01*
X107980952Y-49452380D01*
X108171428Y-49452380D01*
X108266666Y-49404761D01*
X108314285Y-49357142D01*
X108361904Y-49261904D01*
X108361904Y-49023809D01*
X108314285Y-48928571D01*
X108266666Y-48880952D01*
X108171428Y-48833333D01*
X107980952Y-48833333D01*
X107885714Y-48880952D01*
X107838095Y-48928571D01*
X107790476Y-49023809D01*
G04 #@! TO.C,R25*
X65157142Y-81452380D02*
X64823809Y-80976190D01*
X64585714Y-81452380D02*
X64585714Y-80452380D01*
X64966666Y-80452380D01*
X65061904Y-80500000D01*
X65109523Y-80547619D01*
X65157142Y-80642857D01*
X65157142Y-80785714D01*
X65109523Y-80880952D01*
X65061904Y-80928571D01*
X64966666Y-80976190D01*
X64585714Y-80976190D01*
X65538095Y-80547619D02*
X65585714Y-80500000D01*
X65680952Y-80452380D01*
X65919047Y-80452380D01*
X66014285Y-80500000D01*
X66061904Y-80547619D01*
X66109523Y-80642857D01*
X66109523Y-80738095D01*
X66061904Y-80880952D01*
X65490476Y-81452380D01*
X66109523Y-81452380D01*
X67014285Y-80452380D02*
X66538095Y-80452380D01*
X66490476Y-80928571D01*
X66538095Y-80880952D01*
X66633333Y-80833333D01*
X66871428Y-80833333D01*
X66966666Y-80880952D01*
X67014285Y-80928571D01*
X67061904Y-81023809D01*
X67061904Y-81261904D01*
X67014285Y-81357142D01*
X66966666Y-81404761D01*
X66871428Y-81452380D01*
X66633333Y-81452380D01*
X66538095Y-81404761D01*
X66490476Y-81357142D01*
G04 #@! TO.C,R27*
X81569642Y-96152380D02*
X81236309Y-95676190D01*
X80998214Y-96152380D02*
X80998214Y-95152380D01*
X81379166Y-95152380D01*
X81474404Y-95200000D01*
X81522023Y-95247619D01*
X81569642Y-95342857D01*
X81569642Y-95485714D01*
X81522023Y-95580952D01*
X81474404Y-95628571D01*
X81379166Y-95676190D01*
X80998214Y-95676190D01*
X81950595Y-95247619D02*
X81998214Y-95200000D01*
X82093452Y-95152380D01*
X82331547Y-95152380D01*
X82426785Y-95200000D01*
X82474404Y-95247619D01*
X82522023Y-95342857D01*
X82522023Y-95438095D01*
X82474404Y-95580952D01*
X81902976Y-96152380D01*
X82522023Y-96152380D01*
X82855357Y-95152380D02*
X83522023Y-95152380D01*
X83093452Y-96152380D01*
G04 #@! TO.C,R23*
X96569642Y-82022380D02*
X96236309Y-81546190D01*
X95998214Y-82022380D02*
X95998214Y-81022380D01*
X96379166Y-81022380D01*
X96474404Y-81070000D01*
X96522023Y-81117619D01*
X96569642Y-81212857D01*
X96569642Y-81355714D01*
X96522023Y-81450952D01*
X96474404Y-81498571D01*
X96379166Y-81546190D01*
X95998214Y-81546190D01*
X96950595Y-81117619D02*
X96998214Y-81070000D01*
X97093452Y-81022380D01*
X97331547Y-81022380D01*
X97426785Y-81070000D01*
X97474404Y-81117619D01*
X97522023Y-81212857D01*
X97522023Y-81308095D01*
X97474404Y-81450952D01*
X96902976Y-82022380D01*
X97522023Y-82022380D01*
X97855357Y-81022380D02*
X98474404Y-81022380D01*
X98141071Y-81403333D01*
X98283928Y-81403333D01*
X98379166Y-81450952D01*
X98426785Y-81498571D01*
X98474404Y-81593809D01*
X98474404Y-81831904D01*
X98426785Y-81927142D01*
X98379166Y-81974761D01*
X98283928Y-82022380D01*
X97998214Y-82022380D01*
X97902976Y-81974761D01*
X97855357Y-81927142D01*
G04 #@! TO.C,R17*
X96569642Y-53022380D02*
X96236309Y-52546190D01*
X95998214Y-53022380D02*
X95998214Y-52022380D01*
X96379166Y-52022380D01*
X96474404Y-52070000D01*
X96522023Y-52117619D01*
X96569642Y-52212857D01*
X96569642Y-52355714D01*
X96522023Y-52450952D01*
X96474404Y-52498571D01*
X96379166Y-52546190D01*
X95998214Y-52546190D01*
X97522023Y-53022380D02*
X96950595Y-53022380D01*
X97236309Y-53022380D02*
X97236309Y-52022380D01*
X97141071Y-52165238D01*
X97045833Y-52260476D01*
X96950595Y-52308095D01*
X97855357Y-52022380D02*
X98522023Y-52022380D01*
X98093452Y-53022380D01*
G04 #@! TO.C,R19*
X66257142Y-52352380D02*
X65923809Y-51876190D01*
X65685714Y-52352380D02*
X65685714Y-51352380D01*
X66066666Y-51352380D01*
X66161904Y-51400000D01*
X66209523Y-51447619D01*
X66257142Y-51542857D01*
X66257142Y-51685714D01*
X66209523Y-51780952D01*
X66161904Y-51828571D01*
X66066666Y-51876190D01*
X65685714Y-51876190D01*
X67209523Y-52352380D02*
X66638095Y-52352380D01*
X66923809Y-52352380D02*
X66923809Y-51352380D01*
X66828571Y-51495238D01*
X66733333Y-51590476D01*
X66638095Y-51638095D01*
X67685714Y-52352380D02*
X67876190Y-52352380D01*
X67971428Y-52304761D01*
X68019047Y-52257142D01*
X68114285Y-52114285D01*
X68161904Y-51923809D01*
X68161904Y-51542857D01*
X68114285Y-51447619D01*
X68066666Y-51400000D01*
X67971428Y-51352380D01*
X67780952Y-51352380D01*
X67685714Y-51400000D01*
X67638095Y-51447619D01*
X67590476Y-51542857D01*
X67590476Y-51780952D01*
X67638095Y-51876190D01*
X67685714Y-51923809D01*
X67780952Y-51971428D01*
X67971428Y-51971428D01*
X68066666Y-51923809D01*
X68114285Y-51876190D01*
X68161904Y-51780952D01*
G04 #@! TO.C,R21*
X81857142Y-66752380D02*
X81523809Y-66276190D01*
X81285714Y-66752380D02*
X81285714Y-65752380D01*
X81666666Y-65752380D01*
X81761904Y-65800000D01*
X81809523Y-65847619D01*
X81857142Y-65942857D01*
X81857142Y-66085714D01*
X81809523Y-66180952D01*
X81761904Y-66228571D01*
X81666666Y-66276190D01*
X81285714Y-66276190D01*
X82238095Y-65847619D02*
X82285714Y-65800000D01*
X82380952Y-65752380D01*
X82619047Y-65752380D01*
X82714285Y-65800000D01*
X82761904Y-65847619D01*
X82809523Y-65942857D01*
X82809523Y-66038095D01*
X82761904Y-66180952D01*
X82190476Y-66752380D01*
X82809523Y-66752380D01*
X83761904Y-66752380D02*
X83190476Y-66752380D01*
X83476190Y-66752380D02*
X83476190Y-65752380D01*
X83380952Y-65895238D01*
X83285714Y-65990476D01*
X83190476Y-66038095D01*
G04 #@! TO.C,R15*
X108957142Y-32952380D02*
X108623809Y-32476190D01*
X108385714Y-32952380D02*
X108385714Y-31952380D01*
X108766666Y-31952380D01*
X108861904Y-32000000D01*
X108909523Y-32047619D01*
X108957142Y-32142857D01*
X108957142Y-32285714D01*
X108909523Y-32380952D01*
X108861904Y-32428571D01*
X108766666Y-32476190D01*
X108385714Y-32476190D01*
X109909523Y-32952380D02*
X109338095Y-32952380D01*
X109623809Y-32952380D02*
X109623809Y-31952380D01*
X109528571Y-32095238D01*
X109433333Y-32190476D01*
X109338095Y-32238095D01*
X110814285Y-31952380D02*
X110338095Y-31952380D01*
X110290476Y-32428571D01*
X110338095Y-32380952D01*
X110433333Y-32333333D01*
X110671428Y-32333333D01*
X110766666Y-32380952D01*
X110814285Y-32428571D01*
X110861904Y-32523809D01*
X110861904Y-32761904D01*
X110814285Y-32857142D01*
X110766666Y-32904761D01*
X110671428Y-32952380D01*
X110433333Y-32952380D01*
X110338095Y-32904761D01*
X110290476Y-32857142D01*
G04 #@! TO.C,R30*
X81457142Y-31852380D02*
X81123809Y-31376190D01*
X80885714Y-31852380D02*
X80885714Y-30852380D01*
X81266666Y-30852380D01*
X81361904Y-30900000D01*
X81409523Y-30947619D01*
X81457142Y-31042857D01*
X81457142Y-31185714D01*
X81409523Y-31280952D01*
X81361904Y-31328571D01*
X81266666Y-31376190D01*
X80885714Y-31376190D01*
X81790476Y-30852380D02*
X82409523Y-30852380D01*
X82076190Y-31233333D01*
X82219047Y-31233333D01*
X82314285Y-31280952D01*
X82361904Y-31328571D01*
X82409523Y-31423809D01*
X82409523Y-31661904D01*
X82361904Y-31757142D01*
X82314285Y-31804761D01*
X82219047Y-31852380D01*
X81933333Y-31852380D01*
X81838095Y-31804761D01*
X81790476Y-31757142D01*
X83028571Y-30852380D02*
X83123809Y-30852380D01*
X83219047Y-30900000D01*
X83266666Y-30947619D01*
X83314285Y-31042857D01*
X83361904Y-31233333D01*
X83361904Y-31471428D01*
X83314285Y-31661904D01*
X83266666Y-31757142D01*
X83219047Y-31804761D01*
X83123809Y-31852380D01*
X83028571Y-31852380D01*
X82933333Y-31804761D01*
X82885714Y-31757142D01*
X82838095Y-31661904D01*
X82790476Y-31471428D01*
X82790476Y-31233333D01*
X82838095Y-31042857D01*
X82885714Y-30947619D01*
X82933333Y-30900000D01*
X83028571Y-30852380D01*
G04 #@! TO.C,R31*
X65357142Y-33582380D02*
X65023809Y-33106190D01*
X64785714Y-33582380D02*
X64785714Y-32582380D01*
X65166666Y-32582380D01*
X65261904Y-32630000D01*
X65309523Y-32677619D01*
X65357142Y-32772857D01*
X65357142Y-32915714D01*
X65309523Y-33010952D01*
X65261904Y-33058571D01*
X65166666Y-33106190D01*
X64785714Y-33106190D01*
X65690476Y-32582380D02*
X66309523Y-32582380D01*
X65976190Y-32963333D01*
X66119047Y-32963333D01*
X66214285Y-33010952D01*
X66261904Y-33058571D01*
X66309523Y-33153809D01*
X66309523Y-33391904D01*
X66261904Y-33487142D01*
X66214285Y-33534761D01*
X66119047Y-33582380D01*
X65833333Y-33582380D01*
X65738095Y-33534761D01*
X65690476Y-33487142D01*
X67261904Y-33582380D02*
X66690476Y-33582380D01*
X66976190Y-33582380D02*
X66976190Y-32582380D01*
X66880952Y-32725238D01*
X66785714Y-32820476D01*
X66690476Y-32868095D01*
G04 #@! TO.C,R32*
X61357142Y-33582380D02*
X61023809Y-33106190D01*
X60785714Y-33582380D02*
X60785714Y-32582380D01*
X61166666Y-32582380D01*
X61261904Y-32630000D01*
X61309523Y-32677619D01*
X61357142Y-32772857D01*
X61357142Y-32915714D01*
X61309523Y-33010952D01*
X61261904Y-33058571D01*
X61166666Y-33106190D01*
X60785714Y-33106190D01*
X61690476Y-32582380D02*
X62309523Y-32582380D01*
X61976190Y-32963333D01*
X62119047Y-32963333D01*
X62214285Y-33010952D01*
X62261904Y-33058571D01*
X62309523Y-33153809D01*
X62309523Y-33391904D01*
X62261904Y-33487142D01*
X62214285Y-33534761D01*
X62119047Y-33582380D01*
X61833333Y-33582380D01*
X61738095Y-33534761D01*
X61690476Y-33487142D01*
X62690476Y-32677619D02*
X62738095Y-32630000D01*
X62833333Y-32582380D01*
X63071428Y-32582380D01*
X63166666Y-32630000D01*
X63214285Y-32677619D01*
X63261904Y-32772857D01*
X63261904Y-32868095D01*
X63214285Y-33010952D01*
X62642857Y-33582380D01*
X63261904Y-33582380D01*
G04 #@! TO.C,R2*
X114318333Y-47752380D02*
X113985000Y-47276190D01*
X113746904Y-47752380D02*
X113746904Y-46752380D01*
X114127857Y-46752380D01*
X114223095Y-46800000D01*
X114270714Y-46847619D01*
X114318333Y-46942857D01*
X114318333Y-47085714D01*
X114270714Y-47180952D01*
X114223095Y-47228571D01*
X114127857Y-47276190D01*
X113746904Y-47276190D01*
X114699285Y-46847619D02*
X114746904Y-46800000D01*
X114842142Y-46752380D01*
X115080238Y-46752380D01*
X115175476Y-46800000D01*
X115223095Y-46847619D01*
X115270714Y-46942857D01*
X115270714Y-47038095D01*
X115223095Y-47180952D01*
X114651666Y-47752380D01*
X115270714Y-47752380D01*
G04 #@! TO.C,R12*
X101057142Y-96752380D02*
X100723809Y-96276190D01*
X100485714Y-96752380D02*
X100485714Y-95752380D01*
X100866666Y-95752380D01*
X100961904Y-95800000D01*
X101009523Y-95847619D01*
X101057142Y-95942857D01*
X101057142Y-96085714D01*
X101009523Y-96180952D01*
X100961904Y-96228571D01*
X100866666Y-96276190D01*
X100485714Y-96276190D01*
X102009523Y-96752380D02*
X101438095Y-96752380D01*
X101723809Y-96752380D02*
X101723809Y-95752380D01*
X101628571Y-95895238D01*
X101533333Y-95990476D01*
X101438095Y-96038095D01*
X102390476Y-95847619D02*
X102438095Y-95800000D01*
X102533333Y-95752380D01*
X102771428Y-95752380D01*
X102866666Y-95800000D01*
X102914285Y-95847619D01*
X102961904Y-95942857D01*
X102961904Y-96038095D01*
X102914285Y-96180952D01*
X102342857Y-96752380D01*
X102961904Y-96752380D01*
G04 #@! TO.C,R14*
X70752380Y-96242857D02*
X70276190Y-96576190D01*
X70752380Y-96814285D02*
X69752380Y-96814285D01*
X69752380Y-96433333D01*
X69800000Y-96338095D01*
X69847619Y-96290476D01*
X69942857Y-96242857D01*
X70085714Y-96242857D01*
X70180952Y-96290476D01*
X70228571Y-96338095D01*
X70276190Y-96433333D01*
X70276190Y-96814285D01*
X70752380Y-95290476D02*
X70752380Y-95861904D01*
X70752380Y-95576190D02*
X69752380Y-95576190D01*
X69895238Y-95671428D01*
X69990476Y-95766666D01*
X70038095Y-95861904D01*
X70085714Y-94433333D02*
X70752380Y-94433333D01*
X69704761Y-94671428D02*
X70419047Y-94909523D01*
X70419047Y-94290476D01*
G04 #@! TO.C,R1*
X114333333Y-32952380D02*
X114000000Y-32476190D01*
X113761904Y-32952380D02*
X113761904Y-31952380D01*
X114142857Y-31952380D01*
X114238095Y-32000000D01*
X114285714Y-32047619D01*
X114333333Y-32142857D01*
X114333333Y-32285714D01*
X114285714Y-32380952D01*
X114238095Y-32428571D01*
X114142857Y-32476190D01*
X113761904Y-32476190D01*
X115285714Y-32952380D02*
X114714285Y-32952380D01*
X115000000Y-32952380D02*
X115000000Y-31952380D01*
X114904761Y-32095238D01*
X114809523Y-32190476D01*
X114714285Y-32238095D01*
G04 #@! TO.C,R3*
X101348333Y-52852380D02*
X101015000Y-52376190D01*
X100776904Y-52852380D02*
X100776904Y-51852380D01*
X101157857Y-51852380D01*
X101253095Y-51900000D01*
X101300714Y-51947619D01*
X101348333Y-52042857D01*
X101348333Y-52185714D01*
X101300714Y-52280952D01*
X101253095Y-52328571D01*
X101157857Y-52376190D01*
X100776904Y-52376190D01*
X101681666Y-51852380D02*
X102300714Y-51852380D01*
X101967380Y-52233333D01*
X102110238Y-52233333D01*
X102205476Y-52280952D01*
X102253095Y-52328571D01*
X102300714Y-52423809D01*
X102300714Y-52661904D01*
X102253095Y-52757142D01*
X102205476Y-52804761D01*
X102110238Y-52852380D01*
X101824523Y-52852380D01*
X101729285Y-52804761D01*
X101681666Y-52757142D01*
G04 #@! TO.C,R11*
X70757142Y-81552380D02*
X70423809Y-81076190D01*
X70185714Y-81552380D02*
X70185714Y-80552380D01*
X70566666Y-80552380D01*
X70661904Y-80600000D01*
X70709523Y-80647619D01*
X70757142Y-80742857D01*
X70757142Y-80885714D01*
X70709523Y-80980952D01*
X70661904Y-81028571D01*
X70566666Y-81076190D01*
X70185714Y-81076190D01*
X71709523Y-81552380D02*
X71138095Y-81552380D01*
X71423809Y-81552380D02*
X71423809Y-80552380D01*
X71328571Y-80695238D01*
X71233333Y-80790476D01*
X71138095Y-80838095D01*
X72661904Y-81552380D02*
X72090476Y-81552380D01*
X72376190Y-81552380D02*
X72376190Y-80552380D01*
X72280952Y-80695238D01*
X72185714Y-80790476D01*
X72090476Y-80838095D01*
G04 #@! TO.C,R13*
X85872142Y-96652380D02*
X85538809Y-96176190D01*
X85300714Y-96652380D02*
X85300714Y-95652380D01*
X85681666Y-95652380D01*
X85776904Y-95700000D01*
X85824523Y-95747619D01*
X85872142Y-95842857D01*
X85872142Y-95985714D01*
X85824523Y-96080952D01*
X85776904Y-96128571D01*
X85681666Y-96176190D01*
X85300714Y-96176190D01*
X86824523Y-96652380D02*
X86253095Y-96652380D01*
X86538809Y-96652380D02*
X86538809Y-95652380D01*
X86443571Y-95795238D01*
X86348333Y-95890476D01*
X86253095Y-95938095D01*
X87157857Y-95652380D02*
X87776904Y-95652380D01*
X87443571Y-96033333D01*
X87586428Y-96033333D01*
X87681666Y-96080952D01*
X87729285Y-96128571D01*
X87776904Y-96223809D01*
X87776904Y-96461904D01*
X87729285Y-96557142D01*
X87681666Y-96604761D01*
X87586428Y-96652380D01*
X87300714Y-96652380D01*
X87205476Y-96604761D01*
X87157857Y-96557142D01*
G04 #@! TO.C,R4*
X86333333Y-52652380D02*
X86000000Y-52176190D01*
X85761904Y-52652380D02*
X85761904Y-51652380D01*
X86142857Y-51652380D01*
X86238095Y-51700000D01*
X86285714Y-51747619D01*
X86333333Y-51842857D01*
X86333333Y-51985714D01*
X86285714Y-52080952D01*
X86238095Y-52128571D01*
X86142857Y-52176190D01*
X85761904Y-52176190D01*
X87190476Y-51985714D02*
X87190476Y-52652380D01*
X86952380Y-51604761D02*
X86714285Y-52319047D01*
X87333333Y-52319047D01*
G04 #@! TO.C,R6*
X101433333Y-67052380D02*
X101100000Y-66576190D01*
X100861904Y-67052380D02*
X100861904Y-66052380D01*
X101242857Y-66052380D01*
X101338095Y-66100000D01*
X101385714Y-66147619D01*
X101433333Y-66242857D01*
X101433333Y-66385714D01*
X101385714Y-66480952D01*
X101338095Y-66528571D01*
X101242857Y-66576190D01*
X100861904Y-66576190D01*
X102290476Y-66052380D02*
X102100000Y-66052380D01*
X102004761Y-66100000D01*
X101957142Y-66147619D01*
X101861904Y-66290476D01*
X101814285Y-66480952D01*
X101814285Y-66861904D01*
X101861904Y-66957142D01*
X101909523Y-67004761D01*
X102004761Y-67052380D01*
X102195238Y-67052380D01*
X102290476Y-67004761D01*
X102338095Y-66957142D01*
X102385714Y-66861904D01*
X102385714Y-66623809D01*
X102338095Y-66528571D01*
X102290476Y-66480952D01*
X102195238Y-66433333D01*
X102004761Y-66433333D01*
X101909523Y-66480952D01*
X101861904Y-66528571D01*
X101814285Y-66623809D01*
G04 #@! TO.C,R5*
X71348333Y-52352380D02*
X71015000Y-51876190D01*
X70776904Y-52352380D02*
X70776904Y-51352380D01*
X71157857Y-51352380D01*
X71253095Y-51400000D01*
X71300714Y-51447619D01*
X71348333Y-51542857D01*
X71348333Y-51685714D01*
X71300714Y-51780952D01*
X71253095Y-51828571D01*
X71157857Y-51876190D01*
X70776904Y-51876190D01*
X72253095Y-51352380D02*
X71776904Y-51352380D01*
X71729285Y-51828571D01*
X71776904Y-51780952D01*
X71872142Y-51733333D01*
X72110238Y-51733333D01*
X72205476Y-51780952D01*
X72253095Y-51828571D01*
X72300714Y-51923809D01*
X72300714Y-52161904D01*
X72253095Y-52257142D01*
X72205476Y-52304761D01*
X72110238Y-52352380D01*
X71872142Y-52352380D01*
X71776904Y-52304761D01*
X71729285Y-52257142D01*
G04 #@! TO.C,R9*
X101433333Y-81652380D02*
X101100000Y-81176190D01*
X100861904Y-81652380D02*
X100861904Y-80652380D01*
X101242857Y-80652380D01*
X101338095Y-80700000D01*
X101385714Y-80747619D01*
X101433333Y-80842857D01*
X101433333Y-80985714D01*
X101385714Y-81080952D01*
X101338095Y-81128571D01*
X101242857Y-81176190D01*
X100861904Y-81176190D01*
X101909523Y-81652380D02*
X102100000Y-81652380D01*
X102195238Y-81604761D01*
X102242857Y-81557142D01*
X102338095Y-81414285D01*
X102385714Y-81223809D01*
X102385714Y-80842857D01*
X102338095Y-80747619D01*
X102290476Y-80700000D01*
X102195238Y-80652380D01*
X102004761Y-80652380D01*
X101909523Y-80700000D01*
X101861904Y-80747619D01*
X101814285Y-80842857D01*
X101814285Y-81080952D01*
X101861904Y-81176190D01*
X101909523Y-81223809D01*
X102004761Y-81271428D01*
X102195238Y-81271428D01*
X102290476Y-81223809D01*
X102338095Y-81176190D01*
X102385714Y-81080952D01*
G04 #@! TO.C,R10*
X85872142Y-81452380D02*
X85538809Y-80976190D01*
X85300714Y-81452380D02*
X85300714Y-80452380D01*
X85681666Y-80452380D01*
X85776904Y-80500000D01*
X85824523Y-80547619D01*
X85872142Y-80642857D01*
X85872142Y-80785714D01*
X85824523Y-80880952D01*
X85776904Y-80928571D01*
X85681666Y-80976190D01*
X85300714Y-80976190D01*
X86824523Y-81452380D02*
X86253095Y-81452380D01*
X86538809Y-81452380D02*
X86538809Y-80452380D01*
X86443571Y-80595238D01*
X86348333Y-80690476D01*
X86253095Y-80738095D01*
X87443571Y-80452380D02*
X87538809Y-80452380D01*
X87634047Y-80500000D01*
X87681666Y-80547619D01*
X87729285Y-80642857D01*
X87776904Y-80833333D01*
X87776904Y-81071428D01*
X87729285Y-81261904D01*
X87681666Y-81357142D01*
X87634047Y-81404761D01*
X87538809Y-81452380D01*
X87443571Y-81452380D01*
X87348333Y-81404761D01*
X87300714Y-81357142D01*
X87253095Y-81261904D01*
X87205476Y-81071428D01*
X87205476Y-80833333D01*
X87253095Y-80642857D01*
X87300714Y-80547619D01*
X87348333Y-80500000D01*
X87443571Y-80452380D01*
G04 #@! TO.C,R7*
X86348333Y-66852380D02*
X86015000Y-66376190D01*
X85776904Y-66852380D02*
X85776904Y-65852380D01*
X86157857Y-65852380D01*
X86253095Y-65900000D01*
X86300714Y-65947619D01*
X86348333Y-66042857D01*
X86348333Y-66185714D01*
X86300714Y-66280952D01*
X86253095Y-66328571D01*
X86157857Y-66376190D01*
X85776904Y-66376190D01*
X86681666Y-65852380D02*
X87348333Y-65852380D01*
X86919761Y-66852380D01*
G04 #@! TO.C,R8*
X71433333Y-66652380D02*
X71100000Y-66176190D01*
X70861904Y-66652380D02*
X70861904Y-65652380D01*
X71242857Y-65652380D01*
X71338095Y-65700000D01*
X71385714Y-65747619D01*
X71433333Y-65842857D01*
X71433333Y-65985714D01*
X71385714Y-66080952D01*
X71338095Y-66128571D01*
X71242857Y-66176190D01*
X70861904Y-66176190D01*
X72004761Y-66080952D02*
X71909523Y-66033333D01*
X71861904Y-65985714D01*
X71814285Y-65890476D01*
X71814285Y-65842857D01*
X71861904Y-65747619D01*
X71909523Y-65700000D01*
X72004761Y-65652380D01*
X72195238Y-65652380D01*
X72290476Y-65700000D01*
X72338095Y-65747619D01*
X72385714Y-65842857D01*
X72385714Y-65890476D01*
X72338095Y-65985714D01*
X72290476Y-66033333D01*
X72195238Y-66080952D01*
X72004761Y-66080952D01*
X71909523Y-66128571D01*
X71861904Y-66176190D01*
X71814285Y-66271428D01*
X71814285Y-66461904D01*
X71861904Y-66557142D01*
X71909523Y-66604761D01*
X72004761Y-66652380D01*
X72195238Y-66652380D01*
X72290476Y-66604761D01*
X72338095Y-66557142D01*
X72385714Y-66461904D01*
X72385714Y-66271428D01*
X72338095Y-66176190D01*
X72290476Y-66128571D01*
X72195238Y-66080952D01*
G04 #@! TO.C,R34*
X61569642Y-29882380D02*
X61236309Y-29406190D01*
X60998214Y-29882380D02*
X60998214Y-28882380D01*
X61379166Y-28882380D01*
X61474404Y-28930000D01*
X61522023Y-28977619D01*
X61569642Y-29072857D01*
X61569642Y-29215714D01*
X61522023Y-29310952D01*
X61474404Y-29358571D01*
X61379166Y-29406190D01*
X60998214Y-29406190D01*
X61902976Y-28882380D02*
X62522023Y-28882380D01*
X62188690Y-29263333D01*
X62331547Y-29263333D01*
X62426785Y-29310952D01*
X62474404Y-29358571D01*
X62522023Y-29453809D01*
X62522023Y-29691904D01*
X62474404Y-29787142D01*
X62426785Y-29834761D01*
X62331547Y-29882380D01*
X62045833Y-29882380D01*
X61950595Y-29834761D01*
X61902976Y-29787142D01*
X63379166Y-29215714D02*
X63379166Y-29882380D01*
X63141071Y-28834761D02*
X62902976Y-29549047D01*
X63522023Y-29549047D01*
G04 #@! TO.C,R33*
X67357142Y-28622380D02*
X67023809Y-28146190D01*
X66785714Y-28622380D02*
X66785714Y-27622380D01*
X67166666Y-27622380D01*
X67261904Y-27670000D01*
X67309523Y-27717619D01*
X67357142Y-27812857D01*
X67357142Y-27955714D01*
X67309523Y-28050952D01*
X67261904Y-28098571D01*
X67166666Y-28146190D01*
X66785714Y-28146190D01*
X67690476Y-27622380D02*
X68309523Y-27622380D01*
X67976190Y-28003333D01*
X68119047Y-28003333D01*
X68214285Y-28050952D01*
X68261904Y-28098571D01*
X68309523Y-28193809D01*
X68309523Y-28431904D01*
X68261904Y-28527142D01*
X68214285Y-28574761D01*
X68119047Y-28622380D01*
X67833333Y-28622380D01*
X67738095Y-28574761D01*
X67690476Y-28527142D01*
X68642857Y-27622380D02*
X69261904Y-27622380D01*
X68928571Y-28003333D01*
X69071428Y-28003333D01*
X69166666Y-28050952D01*
X69214285Y-28098571D01*
X69261904Y-28193809D01*
X69261904Y-28431904D01*
X69214285Y-28527142D01*
X69166666Y-28574761D01*
X69071428Y-28622380D01*
X68785714Y-28622380D01*
X68690476Y-28574761D01*
X68642857Y-28527142D01*
G04 #@! TO.C,R29*
X85757142Y-33352380D02*
X85423809Y-32876190D01*
X85185714Y-33352380D02*
X85185714Y-32352380D01*
X85566666Y-32352380D01*
X85661904Y-32400000D01*
X85709523Y-32447619D01*
X85757142Y-32542857D01*
X85757142Y-32685714D01*
X85709523Y-32780952D01*
X85661904Y-32828571D01*
X85566666Y-32876190D01*
X85185714Y-32876190D01*
X86138095Y-32447619D02*
X86185714Y-32400000D01*
X86280952Y-32352380D01*
X86519047Y-32352380D01*
X86614285Y-32400000D01*
X86661904Y-32447619D01*
X86709523Y-32542857D01*
X86709523Y-32638095D01*
X86661904Y-32780952D01*
X86090476Y-33352380D01*
X86709523Y-33352380D01*
X87185714Y-33352380D02*
X87376190Y-33352380D01*
X87471428Y-33304761D01*
X87519047Y-33257142D01*
X87614285Y-33114285D01*
X87661904Y-32923809D01*
X87661904Y-32542857D01*
X87614285Y-32447619D01*
X87566666Y-32400000D01*
X87471428Y-32352380D01*
X87280952Y-32352380D01*
X87185714Y-32400000D01*
X87138095Y-32447619D01*
X87090476Y-32542857D01*
X87090476Y-32780952D01*
X87138095Y-32876190D01*
X87185714Y-32923809D01*
X87280952Y-32971428D01*
X87471428Y-32971428D01*
X87566666Y-32923809D01*
X87614285Y-32876190D01*
X87661904Y-32780952D01*
G04 #@! TO.C,S1*
X71734761Y-18761904D02*
X71782380Y-18619047D01*
X71782380Y-18380952D01*
X71734761Y-18285714D01*
X71687142Y-18238095D01*
X71591904Y-18190476D01*
X71496666Y-18190476D01*
X71401428Y-18238095D01*
X71353809Y-18285714D01*
X71306190Y-18380952D01*
X71258571Y-18571428D01*
X71210952Y-18666666D01*
X71163333Y-18714285D01*
X71068095Y-18761904D01*
X70972857Y-18761904D01*
X70877619Y-18714285D01*
X70830000Y-18666666D01*
X70782380Y-18571428D01*
X70782380Y-18333333D01*
X70830000Y-18190476D01*
X71782380Y-17238095D02*
X71782380Y-17809523D01*
X71782380Y-17523809D02*
X70782380Y-17523809D01*
X70925238Y-17619047D01*
X71020476Y-17714285D01*
X71068095Y-17809523D01*
G04 #@! TO.C,S3*
X52074761Y-22761904D02*
X52122380Y-22619047D01*
X52122380Y-22380952D01*
X52074761Y-22285714D01*
X52027142Y-22238095D01*
X51931904Y-22190476D01*
X51836666Y-22190476D01*
X51741428Y-22238095D01*
X51693809Y-22285714D01*
X51646190Y-22380952D01*
X51598571Y-22571428D01*
X51550952Y-22666666D01*
X51503333Y-22714285D01*
X51408095Y-22761904D01*
X51312857Y-22761904D01*
X51217619Y-22714285D01*
X51170000Y-22666666D01*
X51122380Y-22571428D01*
X51122380Y-22333333D01*
X51170000Y-22190476D01*
X51122380Y-21857142D02*
X51122380Y-21238095D01*
X51503333Y-21571428D01*
X51503333Y-21428571D01*
X51550952Y-21333333D01*
X51598571Y-21285714D01*
X51693809Y-21238095D01*
X51931904Y-21238095D01*
X52027142Y-21285714D01*
X52074761Y-21333333D01*
X52122380Y-21428571D01*
X52122380Y-21714285D01*
X52074761Y-21809523D01*
X52027142Y-21857142D01*
G04 #@! TO.C,U1*
X49248095Y-67842380D02*
X49248095Y-68651904D01*
X49295714Y-68747142D01*
X49343333Y-68794761D01*
X49438571Y-68842380D01*
X49629047Y-68842380D01*
X49724285Y-68794761D01*
X49771904Y-68747142D01*
X49819523Y-68651904D01*
X49819523Y-67842380D01*
X50819523Y-68842380D02*
X50248095Y-68842380D01*
X50533809Y-68842380D02*
X50533809Y-67842380D01*
X50438571Y-67985238D01*
X50343333Y-68080476D01*
X50248095Y-68128095D01*
G04 #@! TO.C,U2*
X49218095Y-46192380D02*
X49218095Y-47001904D01*
X49265714Y-47097142D01*
X49313333Y-47144761D01*
X49408571Y-47192380D01*
X49599047Y-47192380D01*
X49694285Y-47144761D01*
X49741904Y-47097142D01*
X49789523Y-47001904D01*
X49789523Y-46192380D01*
X50218095Y-46287619D02*
X50265714Y-46240000D01*
X50360952Y-46192380D01*
X50599047Y-46192380D01*
X50694285Y-46240000D01*
X50741904Y-46287619D01*
X50789523Y-46382857D01*
X50789523Y-46478095D01*
X50741904Y-46620952D01*
X50170476Y-47192380D01*
X50789523Y-47192380D01*
G04 #@! TO.C,U3*
X34388095Y-33952380D02*
X34388095Y-34761904D01*
X34435714Y-34857142D01*
X34483333Y-34904761D01*
X34578571Y-34952380D01*
X34769047Y-34952380D01*
X34864285Y-34904761D01*
X34911904Y-34857142D01*
X34959523Y-34761904D01*
X34959523Y-33952380D01*
X35340476Y-33952380D02*
X35959523Y-33952380D01*
X35626190Y-34333333D01*
X35769047Y-34333333D01*
X35864285Y-34380952D01*
X35911904Y-34428571D01*
X35959523Y-34523809D01*
X35959523Y-34761904D01*
X35911904Y-34857142D01*
X35864285Y-34904761D01*
X35769047Y-34952380D01*
X35483333Y-34952380D01*
X35388095Y-34904761D01*
X35340476Y-34857142D01*
G04 #@! TO.C,U4*
X34388095Y-23952380D02*
X34388095Y-24761904D01*
X34435714Y-24857142D01*
X34483333Y-24904761D01*
X34578571Y-24952380D01*
X34769047Y-24952380D01*
X34864285Y-24904761D01*
X34911904Y-24857142D01*
X34959523Y-24761904D01*
X34959523Y-23952380D01*
X35864285Y-24285714D02*
X35864285Y-24952380D01*
X35626190Y-23904761D02*
X35388095Y-24619047D01*
X36007142Y-24619047D01*
G04 #@! TO.C,Y1*
X75026190Y-22206190D02*
X75502380Y-22206190D01*
X74502380Y-22539523D02*
X75026190Y-22206190D01*
X74502380Y-21872857D01*
X75502380Y-21015714D02*
X75502380Y-21587142D01*
X75502380Y-21301428D02*
X74502380Y-21301428D01*
X74645238Y-21396666D01*
X74740476Y-21491904D01*
X74788095Y-21587142D01*
G04 #@! TO.C,Z1*
X111960476Y-60352380D02*
X112627142Y-60352380D01*
X111960476Y-61352380D01*
X112627142Y-61352380D01*
X113531904Y-61352380D02*
X112960476Y-61352380D01*
X113246190Y-61352380D02*
X113246190Y-60352380D01*
X113150952Y-60495238D01*
X113055714Y-60590476D01*
X112960476Y-60638095D01*
G04 #@! TO.C,12V*
X120080952Y-107252380D02*
X119509523Y-107252380D01*
X119795238Y-107252380D02*
X119795238Y-106252380D01*
X119700000Y-106395238D01*
X119604761Y-106490476D01*
X119509523Y-106538095D01*
X120461904Y-106347619D02*
X120509523Y-106300000D01*
X120604761Y-106252380D01*
X120842857Y-106252380D01*
X120938095Y-106300000D01*
X120985714Y-106347619D01*
X121033333Y-106442857D01*
X121033333Y-106538095D01*
X120985714Y-106680952D01*
X120414285Y-107252380D01*
X121033333Y-107252380D01*
X121319047Y-106252380D02*
X121652380Y-107252380D01*
X121985714Y-106252380D01*
G04 #@! TO.C,C4*
X28533333Y-30257142D02*
X28485714Y-30304761D01*
X28342857Y-30352380D01*
X28247619Y-30352380D01*
X28104761Y-30304761D01*
X28009523Y-30209523D01*
X27961904Y-30114285D01*
X27914285Y-29923809D01*
X27914285Y-29780952D01*
X27961904Y-29590476D01*
X28009523Y-29495238D01*
X28104761Y-29400000D01*
X28247619Y-29352380D01*
X28342857Y-29352380D01*
X28485714Y-29400000D01*
X28533333Y-29447619D01*
X29390476Y-29685714D02*
X29390476Y-30352380D01*
X29152380Y-29304761D02*
X28914285Y-30019047D01*
X29533333Y-30019047D01*
G04 #@! TD*
M02*
