G04 #@! TF.GenerationSoftware,KiCad,Pcbnew,(5.0.1)-3*
G04 #@! TF.CreationDate,2019-11-14T22:07:17-05:00*
G04 #@! TF.ProjectId,pcb_draft1,7063625F6472616674312E6B69636164,rev?*
G04 #@! TF.SameCoordinates,Original*
G04 #@! TF.FileFunction,Legend,Top*
G04 #@! TF.FilePolarity,Positive*
%FSLAX46Y46*%
G04 Gerber Fmt 4.6, Leading zero omitted, Abs format (unit mm)*
G04 Created by KiCad (PCBNEW (5.0.1)-3) date 11/14/2019 10:07:17 PM*
%MOMM*%
%LPD*%
G01*
G04 APERTURE LIST*
%ADD10C,0.250000*%
%ADD11C,0.300000*%
%ADD12C,0.120000*%
%ADD13C,0.150000*%
G04 APERTURE END LIST*
D10*
X72766666Y-47652380D02*
X72766666Y-47176190D01*
X73052380Y-47747619D02*
X72052380Y-47414285D01*
X73052380Y-47080952D01*
X72385714Y-46747619D02*
X73052380Y-46747619D01*
X72480952Y-46747619D02*
X72433333Y-46699999D01*
X72385714Y-46604761D01*
X72385714Y-46461904D01*
X72433333Y-46366666D01*
X72528571Y-46319047D01*
X73052380Y-46319047D01*
X73052380Y-45414285D02*
X72528571Y-45414285D01*
X72433333Y-45461904D01*
X72385714Y-45557142D01*
X72385714Y-45747619D01*
X72433333Y-45842857D01*
X73004761Y-45414285D02*
X73052380Y-45509523D01*
X73052380Y-45747619D01*
X73004761Y-45842857D01*
X72909523Y-45890476D01*
X72814285Y-45890476D01*
X72719047Y-45842857D01*
X72671428Y-45747619D01*
X72671428Y-45509523D01*
X72623809Y-45414285D01*
X73052380Y-44795238D02*
X73004761Y-44890476D01*
X72909523Y-44938095D01*
X72052380Y-44938095D01*
X73052380Y-44271428D02*
X73004761Y-44366666D01*
X72957142Y-44414285D01*
X72861904Y-44461904D01*
X72576190Y-44461904D01*
X72480952Y-44414285D01*
X72433333Y-44366666D01*
X72385714Y-44271428D01*
X72385714Y-44128571D01*
X72433333Y-44033333D01*
X72480952Y-43985714D01*
X72576190Y-43938095D01*
X72861904Y-43938095D01*
X72957142Y-43985714D01*
X73004761Y-44033333D01*
X73052380Y-44128571D01*
X73052380Y-44271428D01*
X72385714Y-43080952D02*
X73195238Y-43080952D01*
X73290476Y-43128571D01*
X73338095Y-43176190D01*
X73385714Y-43271428D01*
X73385714Y-43414285D01*
X73338095Y-43509523D01*
X73004761Y-43080952D02*
X73052380Y-43176190D01*
X73052380Y-43366666D01*
X73004761Y-43461904D01*
X72957142Y-43509523D01*
X72861904Y-43557142D01*
X72576190Y-43557142D01*
X72480952Y-43509523D01*
X72433333Y-43461904D01*
X72385714Y-43366666D01*
X72385714Y-43176190D01*
X72433333Y-43080952D01*
X72052380Y-41652380D02*
X72052380Y-41461904D01*
X72100000Y-41366666D01*
X72195238Y-41271428D01*
X72385714Y-41223809D01*
X72719047Y-41223809D01*
X72909523Y-41271428D01*
X73004761Y-41366666D01*
X73052380Y-41461904D01*
X73052380Y-41652380D01*
X73004761Y-41747619D01*
X72909523Y-41842857D01*
X72719047Y-41890476D01*
X72385714Y-41890476D01*
X72195238Y-41842857D01*
X72100000Y-41747619D01*
X72052380Y-41652380D01*
X72385714Y-40366666D02*
X73052380Y-40366666D01*
X72385714Y-40795238D02*
X72909523Y-40795238D01*
X73004761Y-40747619D01*
X73052380Y-40652380D01*
X73052380Y-40509523D01*
X73004761Y-40414285D01*
X72957142Y-40366666D01*
X72385714Y-40033333D02*
X72385714Y-39652380D01*
X72052380Y-39890476D02*
X72909523Y-39890476D01*
X73004761Y-39842857D01*
X73052380Y-39747619D01*
X73052380Y-39652380D01*
D11*
X74257142Y-39778571D02*
X75114285Y-39778571D01*
X74685714Y-41278571D02*
X74685714Y-39778571D01*
X75542857Y-39921428D02*
X75614285Y-39850000D01*
X75757142Y-39778571D01*
X76114285Y-39778571D01*
X76257142Y-39850000D01*
X76328571Y-39921428D01*
X76400000Y-40064285D01*
X76400000Y-40207142D01*
X76328571Y-40421428D01*
X75471428Y-41278571D01*
X76400000Y-41278571D01*
X68657142Y-39778571D02*
X69514285Y-39778571D01*
X69085714Y-41278571D02*
X69085714Y-39778571D01*
X70800000Y-41278571D02*
X69942857Y-41278571D01*
X70371428Y-41278571D02*
X70371428Y-39778571D01*
X70228571Y-39992857D01*
X70085714Y-40135714D01*
X69942857Y-40207142D01*
X104871428Y-40078571D02*
X104014285Y-40078571D01*
X104442857Y-40078571D02*
X104442857Y-38578571D01*
X104300000Y-38792857D01*
X104157142Y-38935714D01*
X104014285Y-39007142D01*
X105442857Y-38721428D02*
X105514285Y-38650000D01*
X105657142Y-38578571D01*
X106014285Y-38578571D01*
X106157142Y-38650000D01*
X106228571Y-38721428D01*
X106300000Y-38864285D01*
X106300000Y-39007142D01*
X106228571Y-39221428D01*
X105371428Y-40078571D01*
X106300000Y-40078571D01*
X106728571Y-38578571D02*
X107228571Y-40078571D01*
X107728571Y-38578571D01*
X97157142Y-45892857D02*
X96657142Y-45892857D01*
X96657142Y-46678571D02*
X96657142Y-45178571D01*
X97371428Y-45178571D01*
X98585714Y-46678571D02*
X98585714Y-45892857D01*
X98514285Y-45750000D01*
X98371428Y-45678571D01*
X98085714Y-45678571D01*
X97942857Y-45750000D01*
X98585714Y-46607142D02*
X98442857Y-46678571D01*
X98085714Y-46678571D01*
X97942857Y-46607142D01*
X97871428Y-46464285D01*
X97871428Y-46321428D01*
X97942857Y-46178571D01*
X98085714Y-46107142D01*
X98442857Y-46107142D01*
X98585714Y-46035714D01*
X99300000Y-45678571D02*
X99300000Y-46678571D01*
X99300000Y-45821428D02*
X99371428Y-45750000D01*
X99514285Y-45678571D01*
X99728571Y-45678571D01*
X99871428Y-45750000D01*
X99942857Y-45892857D01*
X99942857Y-46678571D01*
X54350000Y-24978571D02*
X54350000Y-23478571D01*
X54350000Y-24192857D02*
X55207142Y-24192857D01*
X55207142Y-24978571D02*
X55207142Y-23478571D01*
X56135714Y-24978571D02*
X55992857Y-24907142D01*
X55921428Y-24835714D01*
X55850000Y-24692857D01*
X55850000Y-24264285D01*
X55921428Y-24121428D01*
X55992857Y-24050000D01*
X56135714Y-23978571D01*
X56350000Y-23978571D01*
X56492857Y-24050000D01*
X56564285Y-24121428D01*
X56635714Y-24264285D01*
X56635714Y-24692857D01*
X56564285Y-24835714D01*
X56492857Y-24907142D01*
X56350000Y-24978571D01*
X56135714Y-24978571D01*
X57278571Y-24978571D02*
X57278571Y-23978571D01*
X57278571Y-24121428D02*
X57350000Y-24050000D01*
X57492857Y-23978571D01*
X57707142Y-23978571D01*
X57850000Y-24050000D01*
X57921428Y-24192857D01*
X57921428Y-24978571D01*
X57921428Y-24192857D02*
X57992857Y-24050000D01*
X58135714Y-23978571D01*
X58350000Y-23978571D01*
X58492857Y-24050000D01*
X58564285Y-24192857D01*
X58564285Y-24978571D01*
X59850000Y-24907142D02*
X59707142Y-24978571D01*
X59421428Y-24978571D01*
X59278571Y-24907142D01*
X59207142Y-24764285D01*
X59207142Y-24192857D01*
X59278571Y-24050000D01*
X59421428Y-23978571D01*
X59707142Y-23978571D01*
X59850000Y-24050000D01*
X59921428Y-24192857D01*
X59921428Y-24335714D01*
X59207142Y-24478571D01*
X65250000Y-24978571D02*
X65250000Y-23478571D01*
X65250000Y-24192857D02*
X66107142Y-24192857D01*
X66107142Y-24978571D02*
X66107142Y-23478571D01*
X67035714Y-24978571D02*
X66892857Y-24907142D01*
X66821428Y-24835714D01*
X66750000Y-24692857D01*
X66750000Y-24264285D01*
X66821428Y-24121428D01*
X66892857Y-24050000D01*
X67035714Y-23978571D01*
X67250000Y-23978571D01*
X67392857Y-24050000D01*
X67464285Y-24121428D01*
X67535714Y-24264285D01*
X67535714Y-24692857D01*
X67464285Y-24835714D01*
X67392857Y-24907142D01*
X67250000Y-24978571D01*
X67035714Y-24978571D01*
X68178571Y-24978571D02*
X68178571Y-23978571D01*
X68178571Y-24121428D02*
X68250000Y-24050000D01*
X68392857Y-23978571D01*
X68607142Y-23978571D01*
X68750000Y-24050000D01*
X68821428Y-24192857D01*
X68821428Y-24978571D01*
X68821428Y-24192857D02*
X68892857Y-24050000D01*
X69035714Y-23978571D01*
X69250000Y-23978571D01*
X69392857Y-24050000D01*
X69464285Y-24192857D01*
X69464285Y-24978571D01*
X70750000Y-24907142D02*
X70607142Y-24978571D01*
X70321428Y-24978571D01*
X70178571Y-24907142D01*
X70107142Y-24764285D01*
X70107142Y-24192857D01*
X70178571Y-24050000D01*
X70321428Y-23978571D01*
X70607142Y-23978571D01*
X70750000Y-24050000D01*
X70821428Y-24192857D01*
X70821428Y-24335714D01*
X70107142Y-24478571D01*
D10*
X61500000Y-16304761D02*
X61642857Y-16352380D01*
X61880952Y-16352380D01*
X61976190Y-16304761D01*
X62023809Y-16257142D01*
X62071428Y-16161904D01*
X62071428Y-16066666D01*
X62023809Y-15971428D01*
X61976190Y-15923809D01*
X61880952Y-15876190D01*
X61690476Y-15828571D01*
X61595238Y-15780952D01*
X61547619Y-15733333D01*
X61500000Y-15638095D01*
X61500000Y-15542857D01*
X61547619Y-15447619D01*
X61595238Y-15400000D01*
X61690476Y-15352380D01*
X61928571Y-15352380D01*
X62071428Y-15400000D01*
X62357142Y-15685714D02*
X62738095Y-15685714D01*
X62500000Y-15352380D02*
X62500000Y-16209523D01*
X62547619Y-16304761D01*
X62642857Y-16352380D01*
X62738095Y-16352380D01*
X63452380Y-16304761D02*
X63357142Y-16352380D01*
X63166666Y-16352380D01*
X63071428Y-16304761D01*
X63023809Y-16209523D01*
X63023809Y-15828571D01*
X63071428Y-15733333D01*
X63166666Y-15685714D01*
X63357142Y-15685714D01*
X63452380Y-15733333D01*
X63500000Y-15828571D01*
X63500000Y-15923809D01*
X63023809Y-16019047D01*
X63928571Y-15685714D02*
X63928571Y-16685714D01*
X63928571Y-15733333D02*
X64023809Y-15685714D01*
X64214285Y-15685714D01*
X64309523Y-15733333D01*
X64357142Y-15780952D01*
X64404761Y-15876190D01*
X64404761Y-16161904D01*
X64357142Y-16257142D01*
X64309523Y-16304761D01*
X64214285Y-16352380D01*
X64023809Y-16352380D01*
X63928571Y-16304761D01*
X64833333Y-15685714D02*
X64833333Y-16685714D01*
X64833333Y-15733333D02*
X64928571Y-15685714D01*
X65119047Y-15685714D01*
X65214285Y-15733333D01*
X65261904Y-15780952D01*
X65309523Y-15876190D01*
X65309523Y-16161904D01*
X65261904Y-16257142D01*
X65214285Y-16304761D01*
X65119047Y-16352380D01*
X64928571Y-16352380D01*
X64833333Y-16304761D01*
X66119047Y-16304761D02*
X66023809Y-16352380D01*
X65833333Y-16352380D01*
X65738095Y-16304761D01*
X65690476Y-16209523D01*
X65690476Y-15828571D01*
X65738095Y-15733333D01*
X65833333Y-15685714D01*
X66023809Y-15685714D01*
X66119047Y-15733333D01*
X66166666Y-15828571D01*
X66166666Y-15923809D01*
X65690476Y-16019047D01*
X66595238Y-16352380D02*
X66595238Y-15685714D01*
X66595238Y-15876190D02*
X66642857Y-15780952D01*
X66690476Y-15733333D01*
X66785714Y-15685714D01*
X66880952Y-15685714D01*
X67928571Y-15447619D02*
X67976190Y-15400000D01*
X68071428Y-15352380D01*
X68309523Y-15352380D01*
X68404761Y-15400000D01*
X68452380Y-15447619D01*
X68500000Y-15542857D01*
X68500000Y-15638095D01*
X68452380Y-15780952D01*
X67880952Y-16352380D01*
X68500000Y-16352380D01*
X49800000Y-16304761D02*
X49942857Y-16352380D01*
X50180952Y-16352380D01*
X50276190Y-16304761D01*
X50323809Y-16257142D01*
X50371428Y-16161904D01*
X50371428Y-16066666D01*
X50323809Y-15971428D01*
X50276190Y-15923809D01*
X50180952Y-15876190D01*
X49990476Y-15828571D01*
X49895238Y-15780952D01*
X49847619Y-15733333D01*
X49800000Y-15638095D01*
X49800000Y-15542857D01*
X49847619Y-15447619D01*
X49895238Y-15400000D01*
X49990476Y-15352380D01*
X50228571Y-15352380D01*
X50371428Y-15400000D01*
X50657142Y-15685714D02*
X51038095Y-15685714D01*
X50800000Y-15352380D02*
X50800000Y-16209523D01*
X50847619Y-16304761D01*
X50942857Y-16352380D01*
X51038095Y-16352380D01*
X51752380Y-16304761D02*
X51657142Y-16352380D01*
X51466666Y-16352380D01*
X51371428Y-16304761D01*
X51323809Y-16209523D01*
X51323809Y-15828571D01*
X51371428Y-15733333D01*
X51466666Y-15685714D01*
X51657142Y-15685714D01*
X51752380Y-15733333D01*
X51800000Y-15828571D01*
X51800000Y-15923809D01*
X51323809Y-16019047D01*
X52228571Y-15685714D02*
X52228571Y-16685714D01*
X52228571Y-15733333D02*
X52323809Y-15685714D01*
X52514285Y-15685714D01*
X52609523Y-15733333D01*
X52657142Y-15780952D01*
X52704761Y-15876190D01*
X52704761Y-16161904D01*
X52657142Y-16257142D01*
X52609523Y-16304761D01*
X52514285Y-16352380D01*
X52323809Y-16352380D01*
X52228571Y-16304761D01*
X53133333Y-15685714D02*
X53133333Y-16685714D01*
X53133333Y-15733333D02*
X53228571Y-15685714D01*
X53419047Y-15685714D01*
X53514285Y-15733333D01*
X53561904Y-15780952D01*
X53609523Y-15876190D01*
X53609523Y-16161904D01*
X53561904Y-16257142D01*
X53514285Y-16304761D01*
X53419047Y-16352380D01*
X53228571Y-16352380D01*
X53133333Y-16304761D01*
X54419047Y-16304761D02*
X54323809Y-16352380D01*
X54133333Y-16352380D01*
X54038095Y-16304761D01*
X53990476Y-16209523D01*
X53990476Y-15828571D01*
X54038095Y-15733333D01*
X54133333Y-15685714D01*
X54323809Y-15685714D01*
X54419047Y-15733333D01*
X54466666Y-15828571D01*
X54466666Y-15923809D01*
X53990476Y-16019047D01*
X54895238Y-16352380D02*
X54895238Y-15685714D01*
X54895238Y-15876190D02*
X54942857Y-15780952D01*
X54990476Y-15733333D01*
X55085714Y-15685714D01*
X55180952Y-15685714D01*
X56800000Y-16352380D02*
X56228571Y-16352380D01*
X56514285Y-16352380D02*
X56514285Y-15352380D01*
X56419047Y-15495238D01*
X56323809Y-15590476D01*
X56228571Y-15638095D01*
D11*
X119457142Y-17050000D02*
X119314285Y-16978571D01*
X119100000Y-16978571D01*
X118885714Y-17050000D01*
X118742857Y-17192857D01*
X118671428Y-17335714D01*
X118600000Y-17621428D01*
X118600000Y-17835714D01*
X118671428Y-18121428D01*
X118742857Y-18264285D01*
X118885714Y-18407142D01*
X119100000Y-18478571D01*
X119242857Y-18478571D01*
X119457142Y-18407142D01*
X119528571Y-18335714D01*
X119528571Y-17835714D01*
X119242857Y-17835714D01*
X120171428Y-18478571D02*
X120171428Y-16978571D01*
X121028571Y-18478571D01*
X121028571Y-16978571D01*
X121742857Y-18478571D02*
X121742857Y-16978571D01*
X122100000Y-16978571D01*
X122314285Y-17050000D01*
X122457142Y-17192857D01*
X122528571Y-17335714D01*
X122600000Y-17621428D01*
X122600000Y-17835714D01*
X122528571Y-18121428D01*
X122457142Y-18264285D01*
X122314285Y-18407142D01*
X122100000Y-18478571D01*
X121742857Y-18478571D01*
X77014285Y-16778571D02*
X76300000Y-16778571D01*
X76228571Y-17492857D01*
X76300000Y-17421428D01*
X76442857Y-17350000D01*
X76800000Y-17350000D01*
X76942857Y-17421428D01*
X77014285Y-17492857D01*
X77085714Y-17635714D01*
X77085714Y-17992857D01*
X77014285Y-18135714D01*
X76942857Y-18207142D01*
X76800000Y-18278571D01*
X76442857Y-18278571D01*
X76300000Y-18207142D01*
X76228571Y-18135714D01*
X77514285Y-16778571D02*
X78014285Y-18278571D01*
X78514285Y-16778571D01*
X94600000Y-27050000D02*
X95314285Y-27050000D01*
X94457142Y-27478571D02*
X94957142Y-25978571D01*
X95457142Y-27478571D01*
X95957142Y-27478571D02*
X95957142Y-26478571D01*
X95957142Y-26764285D02*
X96028571Y-26621428D01*
X96100000Y-26550000D01*
X96242857Y-26478571D01*
X96385714Y-26478571D01*
X97528571Y-27478571D02*
X97528571Y-25978571D01*
X97528571Y-27407142D02*
X97385714Y-27478571D01*
X97100000Y-27478571D01*
X96957142Y-27407142D01*
X96885714Y-27335714D01*
X96814285Y-27192857D01*
X96814285Y-26764285D01*
X96885714Y-26621428D01*
X96957142Y-26550000D01*
X97100000Y-26478571D01*
X97385714Y-26478571D01*
X97528571Y-26550000D01*
X98885714Y-26478571D02*
X98885714Y-27478571D01*
X98242857Y-26478571D02*
X98242857Y-27264285D01*
X98314285Y-27407142D01*
X98457142Y-27478571D01*
X98671428Y-27478571D01*
X98814285Y-27407142D01*
X98885714Y-27335714D01*
X99600000Y-27478571D02*
X99600000Y-26478571D01*
X99600000Y-25978571D02*
X99528571Y-26050000D01*
X99600000Y-26121428D01*
X99671428Y-26050000D01*
X99600000Y-25978571D01*
X99600000Y-26121428D01*
X100314285Y-26478571D02*
X100314285Y-27478571D01*
X100314285Y-26621428D02*
X100385714Y-26550000D01*
X100528571Y-26478571D01*
X100742857Y-26478571D01*
X100885714Y-26550000D01*
X100957142Y-26692857D01*
X100957142Y-27478571D01*
X101885714Y-27478571D02*
X101742857Y-27407142D01*
X101671428Y-27335714D01*
X101600000Y-27192857D01*
X101600000Y-26764285D01*
X101671428Y-26621428D01*
X101742857Y-26550000D01*
X101885714Y-26478571D01*
X102100000Y-26478571D01*
X102242857Y-26550000D01*
X102314285Y-26621428D01*
X102385714Y-26764285D01*
X102385714Y-27192857D01*
X102314285Y-27335714D01*
X102242857Y-27407142D01*
X102100000Y-27478571D01*
X101885714Y-27478571D01*
X104171428Y-27478571D02*
X104171428Y-25978571D01*
X104885714Y-26478571D02*
X104885714Y-27478571D01*
X104885714Y-26621428D02*
X104957142Y-26550000D01*
X105100000Y-26478571D01*
X105314285Y-26478571D01*
X105457142Y-26550000D01*
X105528571Y-26692857D01*
X105528571Y-27478571D01*
D10*
X42714285Y-16404761D02*
X42857142Y-16452380D01*
X43095238Y-16452380D01*
X43190476Y-16404761D01*
X43238095Y-16357142D01*
X43285714Y-16261904D01*
X43285714Y-16166666D01*
X43238095Y-16071428D01*
X43190476Y-16023809D01*
X43095238Y-15976190D01*
X42904761Y-15928571D01*
X42809523Y-15880952D01*
X42761904Y-15833333D01*
X42714285Y-15738095D01*
X42714285Y-15642857D01*
X42761904Y-15547619D01*
X42809523Y-15500000D01*
X42904761Y-15452380D01*
X43142857Y-15452380D01*
X43285714Y-15500000D01*
X40119047Y-15871428D02*
X40880952Y-15871428D01*
X40500000Y-16252380D02*
X40500000Y-15490476D01*
X38161904Y-15500000D02*
X38066666Y-15452380D01*
X37923809Y-15452380D01*
X37780952Y-15500000D01*
X37685714Y-15595238D01*
X37638095Y-15690476D01*
X37590476Y-15880952D01*
X37590476Y-16023809D01*
X37638095Y-16214285D01*
X37685714Y-16309523D01*
X37780952Y-16404761D01*
X37923809Y-16452380D01*
X38019047Y-16452380D01*
X38161904Y-16404761D01*
X38209523Y-16357142D01*
X38209523Y-16023809D01*
X38019047Y-16023809D01*
D11*
X36814285Y-23907142D02*
X37028571Y-23978571D01*
X37385714Y-23978571D01*
X37528571Y-23907142D01*
X37600000Y-23835714D01*
X37671428Y-23692857D01*
X37671428Y-23550000D01*
X37600000Y-23407142D01*
X37528571Y-23335714D01*
X37385714Y-23264285D01*
X37100000Y-23192857D01*
X36957142Y-23121428D01*
X36885714Y-23050000D01*
X36814285Y-22907142D01*
X36814285Y-22764285D01*
X36885714Y-22621428D01*
X36957142Y-22550000D01*
X37100000Y-22478571D01*
X37457142Y-22478571D01*
X37671428Y-22550000D01*
X38314285Y-23192857D02*
X38814285Y-23192857D01*
X39028571Y-23978571D02*
X38314285Y-23978571D01*
X38314285Y-22478571D01*
X39028571Y-22478571D01*
X40528571Y-23978571D02*
X40028571Y-23264285D01*
X39671428Y-23978571D02*
X39671428Y-22478571D01*
X40242857Y-22478571D01*
X40385714Y-22550000D01*
X40457142Y-22621428D01*
X40528571Y-22764285D01*
X40528571Y-22978571D01*
X40457142Y-23121428D01*
X40385714Y-23192857D01*
X40242857Y-23264285D01*
X39671428Y-23264285D01*
X40957142Y-22478571D02*
X41457142Y-23978571D01*
X41957142Y-22478571D01*
X42742857Y-22478571D02*
X43028571Y-22478571D01*
X43171428Y-22550000D01*
X43314285Y-22692857D01*
X43385714Y-22978571D01*
X43385714Y-23478571D01*
X43314285Y-23764285D01*
X43171428Y-23907142D01*
X43028571Y-23978571D01*
X42742857Y-23978571D01*
X42600000Y-23907142D01*
X42457142Y-23764285D01*
X42385714Y-23478571D01*
X42385714Y-22978571D01*
X42457142Y-22692857D01*
X42600000Y-22550000D01*
X42742857Y-22478571D01*
X26457142Y-19750000D02*
X26314285Y-19678571D01*
X26100000Y-19678571D01*
X25885714Y-19750000D01*
X25742857Y-19892857D01*
X25671428Y-20035714D01*
X25600000Y-20321428D01*
X25600000Y-20535714D01*
X25671428Y-20821428D01*
X25742857Y-20964285D01*
X25885714Y-21107142D01*
X26100000Y-21178571D01*
X26242857Y-21178571D01*
X26457142Y-21107142D01*
X26528571Y-21035714D01*
X26528571Y-20535714D01*
X26242857Y-20535714D01*
X27171428Y-21178571D02*
X27171428Y-19678571D01*
X28028571Y-21178571D01*
X28028571Y-19678571D01*
X28742857Y-21178571D02*
X28742857Y-19678571D01*
X29100000Y-19678571D01*
X29314285Y-19750000D01*
X29457142Y-19892857D01*
X29528571Y-20035714D01*
X29600000Y-20321428D01*
X29600000Y-20535714D01*
X29528571Y-20821428D01*
X29457142Y-20964285D01*
X29314285Y-21107142D01*
X29100000Y-21178571D01*
X28742857Y-21178571D01*
X27214285Y-16978571D02*
X26500000Y-16978571D01*
X26428571Y-17692857D01*
X26500000Y-17621428D01*
X26642857Y-17550000D01*
X27000000Y-17550000D01*
X27142857Y-17621428D01*
X27214285Y-17692857D01*
X27285714Y-17835714D01*
X27285714Y-18192857D01*
X27214285Y-18335714D01*
X27142857Y-18407142D01*
X27000000Y-18478571D01*
X26642857Y-18478571D01*
X26500000Y-18407142D01*
X26428571Y-18335714D01*
X27714285Y-16978571D02*
X28214285Y-18478571D01*
X28714285Y-16978571D01*
X49371428Y-30407142D02*
X49585714Y-30478571D01*
X49942857Y-30478571D01*
X50085714Y-30407142D01*
X50157142Y-30335714D01*
X50228571Y-30192857D01*
X50228571Y-30050000D01*
X50157142Y-29907142D01*
X50085714Y-29835714D01*
X49942857Y-29764285D01*
X49657142Y-29692857D01*
X49514285Y-29621428D01*
X49442857Y-29550000D01*
X49371428Y-29407142D01*
X49371428Y-29264285D01*
X49442857Y-29121428D01*
X49514285Y-29050000D01*
X49657142Y-28978571D01*
X50014285Y-28978571D01*
X50228571Y-29050000D01*
X50657142Y-28978571D02*
X51514285Y-28978571D01*
X51085714Y-30478571D02*
X51085714Y-28978571D01*
X52014285Y-29692857D02*
X52514285Y-29692857D01*
X52728571Y-30478571D02*
X52014285Y-30478571D01*
X52014285Y-28978571D01*
X52728571Y-28978571D01*
X53371428Y-30478571D02*
X53371428Y-28978571D01*
X53942857Y-28978571D01*
X54085714Y-29050000D01*
X54157142Y-29121428D01*
X54228571Y-29264285D01*
X54228571Y-29478571D01*
X54157142Y-29621428D01*
X54085714Y-29692857D01*
X53942857Y-29764285D01*
X53371428Y-29764285D01*
X51000000Y-27678571D02*
X51000000Y-26178571D01*
X51357142Y-26178571D01*
X51571428Y-26250000D01*
X51714285Y-26392857D01*
X51785714Y-26535714D01*
X51857142Y-26821428D01*
X51857142Y-27035714D01*
X51785714Y-27321428D01*
X51714285Y-27464285D01*
X51571428Y-27607142D01*
X51357142Y-27678571D01*
X51000000Y-27678571D01*
X52500000Y-27678571D02*
X52500000Y-26178571D01*
X54071428Y-27678571D02*
X53571428Y-26964285D01*
X53214285Y-27678571D02*
X53214285Y-26178571D01*
X53785714Y-26178571D01*
X53928571Y-26250000D01*
X54000000Y-26321428D01*
X54071428Y-26464285D01*
X54071428Y-26678571D01*
X54000000Y-26821428D01*
X53928571Y-26892857D01*
X53785714Y-26964285D01*
X53214285Y-26964285D01*
X58271428Y-51707142D02*
X58485714Y-51778571D01*
X58842857Y-51778571D01*
X58985714Y-51707142D01*
X59057142Y-51635714D01*
X59128571Y-51492857D01*
X59128571Y-51350000D01*
X59057142Y-51207142D01*
X58985714Y-51135714D01*
X58842857Y-51064285D01*
X58557142Y-50992857D01*
X58414285Y-50921428D01*
X58342857Y-50850000D01*
X58271428Y-50707142D01*
X58271428Y-50564285D01*
X58342857Y-50421428D01*
X58414285Y-50350000D01*
X58557142Y-50278571D01*
X58914285Y-50278571D01*
X59128571Y-50350000D01*
X59557142Y-50278571D02*
X60414285Y-50278571D01*
X59985714Y-51778571D02*
X59985714Y-50278571D01*
X60914285Y-50992857D02*
X61414285Y-50992857D01*
X61628571Y-51778571D02*
X60914285Y-51778571D01*
X60914285Y-50278571D01*
X61628571Y-50278571D01*
X62271428Y-51778571D02*
X62271428Y-50278571D01*
X62842857Y-50278571D01*
X62985714Y-50350000D01*
X63057142Y-50421428D01*
X63128571Y-50564285D01*
X63128571Y-50778571D01*
X63057142Y-50921428D01*
X62985714Y-50992857D01*
X62842857Y-51064285D01*
X62271428Y-51064285D01*
X58300000Y-49378571D02*
X58300000Y-47878571D01*
X58657142Y-47878571D01*
X58871428Y-47950000D01*
X59014285Y-48092857D01*
X59085714Y-48235714D01*
X59157142Y-48521428D01*
X59157142Y-48735714D01*
X59085714Y-49021428D01*
X59014285Y-49164285D01*
X58871428Y-49307142D01*
X58657142Y-49378571D01*
X58300000Y-49378571D01*
X59800000Y-49378571D02*
X59800000Y-47878571D01*
X61371428Y-49378571D02*
X60871428Y-48664285D01*
X60514285Y-49378571D02*
X60514285Y-47878571D01*
X61085714Y-47878571D01*
X61228571Y-47950000D01*
X61300000Y-48021428D01*
X61371428Y-48164285D01*
X61371428Y-48378571D01*
X61300000Y-48521428D01*
X61228571Y-48592857D01*
X61085714Y-48664285D01*
X60514285Y-48664285D01*
X108057142Y-97650000D02*
X107914285Y-97578571D01*
X107700000Y-97578571D01*
X107485714Y-97650000D01*
X107342857Y-97792857D01*
X107271428Y-97935714D01*
X107200000Y-98221428D01*
X107200000Y-98435714D01*
X107271428Y-98721428D01*
X107342857Y-98864285D01*
X107485714Y-99007142D01*
X107700000Y-99078571D01*
X107842857Y-99078571D01*
X108057142Y-99007142D01*
X108128571Y-98935714D01*
X108128571Y-98435714D01*
X107842857Y-98435714D01*
X108771428Y-99078571D02*
X108771428Y-97578571D01*
X109628571Y-99078571D01*
X109628571Y-97578571D01*
X110342857Y-99078571D02*
X110342857Y-97578571D01*
X110700000Y-97578571D01*
X110914285Y-97650000D01*
X111057142Y-97792857D01*
X111128571Y-97935714D01*
X111200000Y-98221428D01*
X111200000Y-98435714D01*
X111128571Y-98721428D01*
X111057142Y-98864285D01*
X110914285Y-99007142D01*
X110700000Y-99078571D01*
X110342857Y-99078571D01*
X116771428Y-96778571D02*
X115914285Y-96778571D01*
X116342857Y-96778571D02*
X116342857Y-95278571D01*
X116200000Y-95492857D01*
X116057142Y-95635714D01*
X115914285Y-95707142D01*
X117342857Y-95421428D02*
X117414285Y-95350000D01*
X117557142Y-95278571D01*
X117914285Y-95278571D01*
X118057142Y-95350000D01*
X118128571Y-95421428D01*
X118200000Y-95564285D01*
X118200000Y-95707142D01*
X118128571Y-95921428D01*
X117271428Y-96778571D01*
X118200000Y-96778571D01*
X118628571Y-95278571D02*
X119128571Y-96778571D01*
X119628571Y-95278571D01*
X120807142Y-86000000D02*
X120878571Y-85785714D01*
X120878571Y-85428571D01*
X120807142Y-85285714D01*
X120735714Y-85214285D01*
X120592857Y-85142857D01*
X120450000Y-85142857D01*
X120307142Y-85214285D01*
X120235714Y-85285714D01*
X120164285Y-85428571D01*
X120092857Y-85714285D01*
X120021428Y-85857142D01*
X119950000Y-85928571D01*
X119807142Y-86000000D01*
X119664285Y-86000000D01*
X119521428Y-85928571D01*
X119450000Y-85857142D01*
X119378571Y-85714285D01*
X119378571Y-85357142D01*
X119450000Y-85142857D01*
X120878571Y-84285714D02*
X120807142Y-84428571D01*
X120735714Y-84500000D01*
X120592857Y-84571428D01*
X120164285Y-84571428D01*
X120021428Y-84500000D01*
X119950000Y-84428571D01*
X119878571Y-84285714D01*
X119878571Y-84071428D01*
X119950000Y-83928571D01*
X120021428Y-83857142D01*
X120164285Y-83785714D01*
X120592857Y-83785714D01*
X120735714Y-83857142D01*
X120807142Y-83928571D01*
X120878571Y-84071428D01*
X120878571Y-84285714D01*
X120878571Y-82928571D02*
X120807142Y-83071428D01*
X120664285Y-83142857D01*
X119378571Y-83142857D01*
X120807142Y-81785714D02*
X120878571Y-81928571D01*
X120878571Y-82214285D01*
X120807142Y-82357142D01*
X120664285Y-82428571D01*
X120092857Y-82428571D01*
X119950000Y-82357142D01*
X119878571Y-82214285D01*
X119878571Y-81928571D01*
X119950000Y-81785714D01*
X120092857Y-81714285D01*
X120235714Y-81714285D01*
X120378571Y-82428571D01*
X119878571Y-81071428D02*
X120878571Y-81071428D01*
X120021428Y-81071428D02*
X119950000Y-81000000D01*
X119878571Y-80857142D01*
X119878571Y-80642857D01*
X119950000Y-80500000D01*
X120092857Y-80428571D01*
X120878571Y-80428571D01*
X120878571Y-79500000D02*
X120807142Y-79642857D01*
X120735714Y-79714285D01*
X120592857Y-79785714D01*
X120164285Y-79785714D01*
X120021428Y-79714285D01*
X119950000Y-79642857D01*
X119878571Y-79500000D01*
X119878571Y-79285714D01*
X119950000Y-79142857D01*
X120021428Y-79071428D01*
X120164285Y-79000000D01*
X120592857Y-79000000D01*
X120735714Y-79071428D01*
X120807142Y-79142857D01*
X120878571Y-79285714D01*
X120878571Y-79500000D01*
X120878571Y-78357142D02*
X119878571Y-78357142D01*
X119378571Y-78357142D02*
X119450000Y-78428571D01*
X119521428Y-78357142D01*
X119450000Y-78285714D01*
X119378571Y-78357142D01*
X119521428Y-78357142D01*
X120878571Y-77000000D02*
X119378571Y-77000000D01*
X120807142Y-77000000D02*
X120878571Y-77142857D01*
X120878571Y-77428571D01*
X120807142Y-77571428D01*
X120735714Y-77642857D01*
X120592857Y-77714285D01*
X120164285Y-77714285D01*
X120021428Y-77642857D01*
X119950000Y-77571428D01*
X119878571Y-77428571D01*
X119878571Y-77142857D01*
X119950000Y-77000000D01*
X119378571Y-74857142D02*
X119378571Y-74571428D01*
X119450000Y-74428571D01*
X119592857Y-74285714D01*
X119878571Y-74214285D01*
X120378571Y-74214285D01*
X120664285Y-74285714D01*
X120807142Y-74428571D01*
X120878571Y-74571428D01*
X120878571Y-74857142D01*
X120807142Y-75000000D01*
X120664285Y-75142857D01*
X120378571Y-75214285D01*
X119878571Y-75214285D01*
X119592857Y-75142857D01*
X119450000Y-75000000D01*
X119378571Y-74857142D01*
X119878571Y-72928571D02*
X120878571Y-72928571D01*
X119878571Y-73571428D02*
X120664285Y-73571428D01*
X120807142Y-73500000D01*
X120878571Y-73357142D01*
X120878571Y-73142857D01*
X120807142Y-73000000D01*
X120735714Y-72928571D01*
X119878571Y-72428571D02*
X119878571Y-71857142D01*
X119378571Y-72214285D02*
X120664285Y-72214285D01*
X120807142Y-72142857D01*
X120878571Y-72000000D01*
X120878571Y-71857142D01*
D12*
G04 #@! TO.C,F1*
X96683318Y-41534756D02*
G75*
G02X96000000Y-41680000I-683318J1534756D01*
G01*
X97535426Y-39316958D02*
G75*
G02X97535000Y-40684000I-1535426J-683042D01*
G01*
X95316958Y-38464574D02*
G75*
G02X96684000Y-38465000I683042J-1535426D01*
G01*
X94464574Y-40683042D02*
G75*
G02X94465000Y-39316000I1535426J683042D01*
G01*
X96028805Y-41680253D02*
G75*
G02X95316000Y-41535000I-28805J1680253D01*
G01*
X102680000Y-40000000D02*
G75*
G03X102680000Y-40000000I-1680000J0D01*
G01*
X93440000Y-44100000D02*
X103560000Y-44100000D01*
X93440000Y-42600000D02*
X103560000Y-42600000D01*
X93440000Y-37699000D02*
X103560000Y-37699000D01*
X93440000Y-34739000D02*
X103560000Y-34739000D01*
X93440000Y-44660000D02*
X103560000Y-44660000D01*
X93440000Y-34739000D02*
X93440000Y-44660000D01*
X103560000Y-34739000D02*
X103560000Y-44660000D01*
X102275000Y-38931000D02*
X102228000Y-38977000D01*
X99966000Y-41239000D02*
X99931000Y-41274000D01*
X102070000Y-38725000D02*
X102035000Y-38761000D01*
X99773000Y-41023000D02*
X99726000Y-41069000D01*
X93200000Y-44160000D02*
X93200000Y-44900000D01*
X93200000Y-44900000D02*
X93700000Y-44900000D01*
G04 #@! TO.C,S2*
X58330000Y-16670000D02*
X58330000Y-18000000D01*
X57000000Y-16670000D02*
X58330000Y-16670000D01*
X55730000Y-16670000D02*
X55730000Y-19330000D01*
X55730000Y-19330000D02*
X48050000Y-19330000D01*
X55730000Y-16670000D02*
X48050000Y-16670000D01*
X48050000Y-16670000D02*
X48050000Y-19330000D01*
G04 #@! TO.C,C1*
X32740302Y-58285000D02*
X32740302Y-59085000D01*
X32340302Y-58685000D02*
X33140302Y-58685000D01*
X40831000Y-60467000D02*
X40831000Y-61533000D01*
X40791000Y-60232000D02*
X40791000Y-61768000D01*
X40751000Y-60052000D02*
X40751000Y-61948000D01*
X40711000Y-59902000D02*
X40711000Y-62098000D01*
X40671000Y-59771000D02*
X40671000Y-62229000D01*
X40631000Y-59654000D02*
X40631000Y-62346000D01*
X40591000Y-59547000D02*
X40591000Y-62453000D01*
X40551000Y-59448000D02*
X40551000Y-62552000D01*
X40511000Y-59355000D02*
X40511000Y-62645000D01*
X40471000Y-59269000D02*
X40471000Y-62731000D01*
X40431000Y-59187000D02*
X40431000Y-62813000D01*
X40391000Y-59110000D02*
X40391000Y-62890000D01*
X40351000Y-59036000D02*
X40351000Y-62964000D01*
X40311000Y-58966000D02*
X40311000Y-63034000D01*
X40271000Y-58898000D02*
X40271000Y-63102000D01*
X40231000Y-58834000D02*
X40231000Y-63166000D01*
X40191000Y-58772000D02*
X40191000Y-63228000D01*
X40151000Y-58713000D02*
X40151000Y-63287000D01*
X40111000Y-58655000D02*
X40111000Y-63345000D01*
X40071000Y-58600000D02*
X40071000Y-63400000D01*
X40031000Y-58546000D02*
X40031000Y-63454000D01*
X39991000Y-58495000D02*
X39991000Y-63505000D01*
X39951000Y-58444000D02*
X39951000Y-63556000D01*
X39911000Y-58396000D02*
X39911000Y-63604000D01*
X39871000Y-58349000D02*
X39871000Y-63651000D01*
X39831000Y-58303000D02*
X39831000Y-63697000D01*
X39791000Y-58259000D02*
X39791000Y-63741000D01*
X39751000Y-58216000D02*
X39751000Y-63784000D01*
X39711000Y-58174000D02*
X39711000Y-63826000D01*
X39671000Y-58133000D02*
X39671000Y-63867000D01*
X39631000Y-58093000D02*
X39631000Y-63907000D01*
X39591000Y-58055000D02*
X39591000Y-63945000D01*
X39551000Y-58017000D02*
X39551000Y-63983000D01*
X39511000Y-62040000D02*
X39511000Y-64019000D01*
X39511000Y-57981000D02*
X39511000Y-59960000D01*
X39471000Y-62040000D02*
X39471000Y-64055000D01*
X39471000Y-57945000D02*
X39471000Y-59960000D01*
X39431000Y-62040000D02*
X39431000Y-64090000D01*
X39431000Y-57910000D02*
X39431000Y-59960000D01*
X39391000Y-62040000D02*
X39391000Y-64124000D01*
X39391000Y-57876000D02*
X39391000Y-59960000D01*
X39351000Y-62040000D02*
X39351000Y-64156000D01*
X39351000Y-57844000D02*
X39351000Y-59960000D01*
X39311000Y-62040000D02*
X39311000Y-64189000D01*
X39311000Y-57811000D02*
X39311000Y-59960000D01*
X39271000Y-62040000D02*
X39271000Y-64220000D01*
X39271000Y-57780000D02*
X39271000Y-59960000D01*
X39231000Y-62040000D02*
X39231000Y-64250000D01*
X39231000Y-57750000D02*
X39231000Y-59960000D01*
X39191000Y-62040000D02*
X39191000Y-64280000D01*
X39191000Y-57720000D02*
X39191000Y-59960000D01*
X39151000Y-62040000D02*
X39151000Y-64309000D01*
X39151000Y-57691000D02*
X39151000Y-59960000D01*
X39111000Y-62040000D02*
X39111000Y-64338000D01*
X39111000Y-57662000D02*
X39111000Y-59960000D01*
X39071000Y-62040000D02*
X39071000Y-64365000D01*
X39071000Y-57635000D02*
X39071000Y-59960000D01*
X39031000Y-62040000D02*
X39031000Y-64392000D01*
X39031000Y-57608000D02*
X39031000Y-59960000D01*
X38991000Y-62040000D02*
X38991000Y-64418000D01*
X38991000Y-57582000D02*
X38991000Y-59960000D01*
X38951000Y-62040000D02*
X38951000Y-64444000D01*
X38951000Y-57556000D02*
X38951000Y-59960000D01*
X38911000Y-62040000D02*
X38911000Y-64469000D01*
X38911000Y-57531000D02*
X38911000Y-59960000D01*
X38871000Y-62040000D02*
X38871000Y-64493000D01*
X38871000Y-57507000D02*
X38871000Y-59960000D01*
X38831000Y-62040000D02*
X38831000Y-64517000D01*
X38831000Y-57483000D02*
X38831000Y-59960000D01*
X38791000Y-62040000D02*
X38791000Y-64540000D01*
X38791000Y-57460000D02*
X38791000Y-59960000D01*
X38751000Y-62040000D02*
X38751000Y-64562000D01*
X38751000Y-57438000D02*
X38751000Y-59960000D01*
X38711000Y-62040000D02*
X38711000Y-64584000D01*
X38711000Y-57416000D02*
X38711000Y-59960000D01*
X38671000Y-62040000D02*
X38671000Y-64606000D01*
X38671000Y-57394000D02*
X38671000Y-59960000D01*
X38631000Y-62040000D02*
X38631000Y-64627000D01*
X38631000Y-57373000D02*
X38631000Y-59960000D01*
X38591000Y-62040000D02*
X38591000Y-64647000D01*
X38591000Y-57353000D02*
X38591000Y-59960000D01*
X38551000Y-62040000D02*
X38551000Y-64666000D01*
X38551000Y-57334000D02*
X38551000Y-59960000D01*
X38511000Y-62040000D02*
X38511000Y-64686000D01*
X38511000Y-57314000D02*
X38511000Y-59960000D01*
X38471000Y-62040000D02*
X38471000Y-64704000D01*
X38471000Y-57296000D02*
X38471000Y-59960000D01*
X38431000Y-62040000D02*
X38431000Y-64722000D01*
X38431000Y-57278000D02*
X38431000Y-59960000D01*
X38391000Y-62040000D02*
X38391000Y-64740000D01*
X38391000Y-57260000D02*
X38391000Y-59960000D01*
X38351000Y-62040000D02*
X38351000Y-64757000D01*
X38351000Y-57243000D02*
X38351000Y-59960000D01*
X38311000Y-62040000D02*
X38311000Y-64774000D01*
X38311000Y-57226000D02*
X38311000Y-59960000D01*
X38271000Y-62040000D02*
X38271000Y-64790000D01*
X38271000Y-57210000D02*
X38271000Y-59960000D01*
X38231000Y-62040000D02*
X38231000Y-64805000D01*
X38231000Y-57195000D02*
X38231000Y-59960000D01*
X38191000Y-62040000D02*
X38191000Y-64821000D01*
X38191000Y-57179000D02*
X38191000Y-59960000D01*
X38151000Y-62040000D02*
X38151000Y-64835000D01*
X38151000Y-57165000D02*
X38151000Y-59960000D01*
X38111000Y-62040000D02*
X38111000Y-64850000D01*
X38111000Y-57150000D02*
X38111000Y-59960000D01*
X38071000Y-62040000D02*
X38071000Y-64863000D01*
X38071000Y-57137000D02*
X38071000Y-59960000D01*
X38031000Y-62040000D02*
X38031000Y-64877000D01*
X38031000Y-57123000D02*
X38031000Y-59960000D01*
X37991000Y-62040000D02*
X37991000Y-64889000D01*
X37991000Y-57111000D02*
X37991000Y-59960000D01*
X37951000Y-62040000D02*
X37951000Y-64902000D01*
X37951000Y-57098000D02*
X37951000Y-59960000D01*
X37911000Y-62040000D02*
X37911000Y-64914000D01*
X37911000Y-57086000D02*
X37911000Y-59960000D01*
X37871000Y-62040000D02*
X37871000Y-64925000D01*
X37871000Y-57075000D02*
X37871000Y-59960000D01*
X37831000Y-62040000D02*
X37831000Y-64936000D01*
X37831000Y-57064000D02*
X37831000Y-59960000D01*
X37791000Y-62040000D02*
X37791000Y-64947000D01*
X37791000Y-57053000D02*
X37791000Y-59960000D01*
X37751000Y-62040000D02*
X37751000Y-64957000D01*
X37751000Y-57043000D02*
X37751000Y-59960000D01*
X37711000Y-62040000D02*
X37711000Y-64967000D01*
X37711000Y-57033000D02*
X37711000Y-59960000D01*
X37671000Y-62040000D02*
X37671000Y-64976000D01*
X37671000Y-57024000D02*
X37671000Y-59960000D01*
X37631000Y-62040000D02*
X37631000Y-64985000D01*
X37631000Y-57015000D02*
X37631000Y-59960000D01*
X37591000Y-62040000D02*
X37591000Y-64994000D01*
X37591000Y-57006000D02*
X37591000Y-59960000D01*
X37551000Y-62040000D02*
X37551000Y-65002000D01*
X37551000Y-56998000D02*
X37551000Y-59960000D01*
X37511000Y-62040000D02*
X37511000Y-65010000D01*
X37511000Y-56990000D02*
X37511000Y-59960000D01*
X37471000Y-62040000D02*
X37471000Y-65017000D01*
X37471000Y-56983000D02*
X37471000Y-59960000D01*
X37430000Y-56976000D02*
X37430000Y-65024000D01*
X37390000Y-56970000D02*
X37390000Y-65030000D01*
X37350000Y-56963000D02*
X37350000Y-65037000D01*
X37310000Y-56958000D02*
X37310000Y-65042000D01*
X37270000Y-56952000D02*
X37270000Y-65048000D01*
X37230000Y-56948000D02*
X37230000Y-65052000D01*
X37190000Y-56943000D02*
X37190000Y-65057000D01*
X37150000Y-56939000D02*
X37150000Y-65061000D01*
X37110000Y-56935000D02*
X37110000Y-65065000D01*
X37070000Y-56932000D02*
X37070000Y-65068000D01*
X37030000Y-56929000D02*
X37030000Y-65071000D01*
X36990000Y-56926000D02*
X36990000Y-65074000D01*
X36950000Y-56924000D02*
X36950000Y-65076000D01*
X36910000Y-56923000D02*
X36910000Y-65077000D01*
X36870000Y-56921000D02*
X36870000Y-65079000D01*
X36830000Y-56920000D02*
X36830000Y-65080000D01*
X36790000Y-56920000D02*
X36790000Y-65080000D01*
X36750000Y-56920000D02*
X36750000Y-65080000D01*
X40870000Y-61000000D02*
G75*
G03X40870000Y-61000000I-4120000J0D01*
G01*
G04 #@! TO.C,C2*
X40120000Y-50250000D02*
G75*
G03X40120000Y-50250000I-4120000J0D01*
G01*
X31920000Y-50250000D02*
X40080000Y-50250000D01*
X31920000Y-50210000D02*
X40080000Y-50210000D01*
X31920000Y-50170000D02*
X40080000Y-50170000D01*
X31921000Y-50130000D02*
X40079000Y-50130000D01*
X31923000Y-50090000D02*
X40077000Y-50090000D01*
X31924000Y-50050000D02*
X40076000Y-50050000D01*
X31926000Y-50010000D02*
X40074000Y-50010000D01*
X31929000Y-49970000D02*
X40071000Y-49970000D01*
X31932000Y-49930000D02*
X40068000Y-49930000D01*
X31935000Y-49890000D02*
X40065000Y-49890000D01*
X31939000Y-49850000D02*
X40061000Y-49850000D01*
X31943000Y-49810000D02*
X40057000Y-49810000D01*
X31948000Y-49770000D02*
X40052000Y-49770000D01*
X31952000Y-49730000D02*
X40048000Y-49730000D01*
X31958000Y-49690000D02*
X40042000Y-49690000D01*
X31963000Y-49650000D02*
X40037000Y-49650000D01*
X31970000Y-49610000D02*
X40030000Y-49610000D01*
X31976000Y-49570000D02*
X40024000Y-49570000D01*
X31983000Y-49529000D02*
X34960000Y-49529000D01*
X37040000Y-49529000D02*
X40017000Y-49529000D01*
X31990000Y-49489000D02*
X34960000Y-49489000D01*
X37040000Y-49489000D02*
X40010000Y-49489000D01*
X31998000Y-49449000D02*
X34960000Y-49449000D01*
X37040000Y-49449000D02*
X40002000Y-49449000D01*
X32006000Y-49409000D02*
X34960000Y-49409000D01*
X37040000Y-49409000D02*
X39994000Y-49409000D01*
X32015000Y-49369000D02*
X34960000Y-49369000D01*
X37040000Y-49369000D02*
X39985000Y-49369000D01*
X32024000Y-49329000D02*
X34960000Y-49329000D01*
X37040000Y-49329000D02*
X39976000Y-49329000D01*
X32033000Y-49289000D02*
X34960000Y-49289000D01*
X37040000Y-49289000D02*
X39967000Y-49289000D01*
X32043000Y-49249000D02*
X34960000Y-49249000D01*
X37040000Y-49249000D02*
X39957000Y-49249000D01*
X32053000Y-49209000D02*
X34960000Y-49209000D01*
X37040000Y-49209000D02*
X39947000Y-49209000D01*
X32064000Y-49169000D02*
X34960000Y-49169000D01*
X37040000Y-49169000D02*
X39936000Y-49169000D01*
X32075000Y-49129000D02*
X34960000Y-49129000D01*
X37040000Y-49129000D02*
X39925000Y-49129000D01*
X32086000Y-49089000D02*
X34960000Y-49089000D01*
X37040000Y-49089000D02*
X39914000Y-49089000D01*
X32098000Y-49049000D02*
X34960000Y-49049000D01*
X37040000Y-49049000D02*
X39902000Y-49049000D01*
X32111000Y-49009000D02*
X34960000Y-49009000D01*
X37040000Y-49009000D02*
X39889000Y-49009000D01*
X32123000Y-48969000D02*
X34960000Y-48969000D01*
X37040000Y-48969000D02*
X39877000Y-48969000D01*
X32137000Y-48929000D02*
X34960000Y-48929000D01*
X37040000Y-48929000D02*
X39863000Y-48929000D01*
X32150000Y-48889000D02*
X34960000Y-48889000D01*
X37040000Y-48889000D02*
X39850000Y-48889000D01*
X32165000Y-48849000D02*
X34960000Y-48849000D01*
X37040000Y-48849000D02*
X39835000Y-48849000D01*
X32179000Y-48809000D02*
X34960000Y-48809000D01*
X37040000Y-48809000D02*
X39821000Y-48809000D01*
X32195000Y-48769000D02*
X34960000Y-48769000D01*
X37040000Y-48769000D02*
X39805000Y-48769000D01*
X32210000Y-48729000D02*
X34960000Y-48729000D01*
X37040000Y-48729000D02*
X39790000Y-48729000D01*
X32226000Y-48689000D02*
X34960000Y-48689000D01*
X37040000Y-48689000D02*
X39774000Y-48689000D01*
X32243000Y-48649000D02*
X34960000Y-48649000D01*
X37040000Y-48649000D02*
X39757000Y-48649000D01*
X32260000Y-48609000D02*
X34960000Y-48609000D01*
X37040000Y-48609000D02*
X39740000Y-48609000D01*
X32278000Y-48569000D02*
X34960000Y-48569000D01*
X37040000Y-48569000D02*
X39722000Y-48569000D01*
X32296000Y-48529000D02*
X34960000Y-48529000D01*
X37040000Y-48529000D02*
X39704000Y-48529000D01*
X32314000Y-48489000D02*
X34960000Y-48489000D01*
X37040000Y-48489000D02*
X39686000Y-48489000D01*
X32334000Y-48449000D02*
X34960000Y-48449000D01*
X37040000Y-48449000D02*
X39666000Y-48449000D01*
X32353000Y-48409000D02*
X34960000Y-48409000D01*
X37040000Y-48409000D02*
X39647000Y-48409000D01*
X32373000Y-48369000D02*
X34960000Y-48369000D01*
X37040000Y-48369000D02*
X39627000Y-48369000D01*
X32394000Y-48329000D02*
X34960000Y-48329000D01*
X37040000Y-48329000D02*
X39606000Y-48329000D01*
X32416000Y-48289000D02*
X34960000Y-48289000D01*
X37040000Y-48289000D02*
X39584000Y-48289000D01*
X32438000Y-48249000D02*
X34960000Y-48249000D01*
X37040000Y-48249000D02*
X39562000Y-48249000D01*
X32460000Y-48209000D02*
X34960000Y-48209000D01*
X37040000Y-48209000D02*
X39540000Y-48209000D01*
X32483000Y-48169000D02*
X34960000Y-48169000D01*
X37040000Y-48169000D02*
X39517000Y-48169000D01*
X32507000Y-48129000D02*
X34960000Y-48129000D01*
X37040000Y-48129000D02*
X39493000Y-48129000D01*
X32531000Y-48089000D02*
X34960000Y-48089000D01*
X37040000Y-48089000D02*
X39469000Y-48089000D01*
X32556000Y-48049000D02*
X34960000Y-48049000D01*
X37040000Y-48049000D02*
X39444000Y-48049000D01*
X32582000Y-48009000D02*
X34960000Y-48009000D01*
X37040000Y-48009000D02*
X39418000Y-48009000D01*
X32608000Y-47969000D02*
X34960000Y-47969000D01*
X37040000Y-47969000D02*
X39392000Y-47969000D01*
X32635000Y-47929000D02*
X34960000Y-47929000D01*
X37040000Y-47929000D02*
X39365000Y-47929000D01*
X32662000Y-47889000D02*
X34960000Y-47889000D01*
X37040000Y-47889000D02*
X39338000Y-47889000D01*
X32691000Y-47849000D02*
X34960000Y-47849000D01*
X37040000Y-47849000D02*
X39309000Y-47849000D01*
X32720000Y-47809000D02*
X34960000Y-47809000D01*
X37040000Y-47809000D02*
X39280000Y-47809000D01*
X32750000Y-47769000D02*
X34960000Y-47769000D01*
X37040000Y-47769000D02*
X39250000Y-47769000D01*
X32780000Y-47729000D02*
X34960000Y-47729000D01*
X37040000Y-47729000D02*
X39220000Y-47729000D01*
X32811000Y-47689000D02*
X34960000Y-47689000D01*
X37040000Y-47689000D02*
X39189000Y-47689000D01*
X32844000Y-47649000D02*
X34960000Y-47649000D01*
X37040000Y-47649000D02*
X39156000Y-47649000D01*
X32876000Y-47609000D02*
X34960000Y-47609000D01*
X37040000Y-47609000D02*
X39124000Y-47609000D01*
X32910000Y-47569000D02*
X34960000Y-47569000D01*
X37040000Y-47569000D02*
X39090000Y-47569000D01*
X32945000Y-47529000D02*
X34960000Y-47529000D01*
X37040000Y-47529000D02*
X39055000Y-47529000D01*
X32981000Y-47489000D02*
X34960000Y-47489000D01*
X37040000Y-47489000D02*
X39019000Y-47489000D01*
X33017000Y-47449000D02*
X38983000Y-47449000D01*
X33055000Y-47409000D02*
X38945000Y-47409000D01*
X33093000Y-47369000D02*
X38907000Y-47369000D01*
X33133000Y-47329000D02*
X38867000Y-47329000D01*
X33174000Y-47289000D02*
X38826000Y-47289000D01*
X33216000Y-47249000D02*
X38784000Y-47249000D01*
X33259000Y-47209000D02*
X38741000Y-47209000D01*
X33303000Y-47169000D02*
X38697000Y-47169000D01*
X33349000Y-47129000D02*
X38651000Y-47129000D01*
X33396000Y-47089000D02*
X38604000Y-47089000D01*
X33444000Y-47049000D02*
X38556000Y-47049000D01*
X33495000Y-47009000D02*
X38505000Y-47009000D01*
X33546000Y-46969000D02*
X38454000Y-46969000D01*
X33600000Y-46929000D02*
X38400000Y-46929000D01*
X33655000Y-46889000D02*
X38345000Y-46889000D01*
X33713000Y-46849000D02*
X38287000Y-46849000D01*
X33772000Y-46809000D02*
X38228000Y-46809000D01*
X33834000Y-46769000D02*
X38166000Y-46769000D01*
X33898000Y-46729000D02*
X38102000Y-46729000D01*
X33966000Y-46689000D02*
X38034000Y-46689000D01*
X34036000Y-46649000D02*
X37964000Y-46649000D01*
X34110000Y-46609000D02*
X37890000Y-46609000D01*
X34187000Y-46569000D02*
X37813000Y-46569000D01*
X34269000Y-46529000D02*
X37731000Y-46529000D01*
X34355000Y-46489000D02*
X37645000Y-46489000D01*
X34448000Y-46449000D02*
X37552000Y-46449000D01*
X34547000Y-46409000D02*
X37453000Y-46409000D01*
X34654000Y-46369000D02*
X37346000Y-46369000D01*
X34771000Y-46329000D02*
X37229000Y-46329000D01*
X34902000Y-46289000D02*
X37098000Y-46289000D01*
X35052000Y-46249000D02*
X36948000Y-46249000D01*
X35232000Y-46209000D02*
X36768000Y-46209000D01*
X35467000Y-46169000D02*
X36533000Y-46169000D01*
X33685000Y-54659698D02*
X33685000Y-53859698D01*
X33285000Y-54259698D02*
X34085000Y-54259698D01*
G04 #@! TO.C,D12*
X103530000Y-104860000D02*
X106470000Y-104860000D01*
X103530000Y-104620000D02*
X106470000Y-104620000D01*
X103530000Y-104740000D02*
X106470000Y-104740000D01*
X105000000Y-99180000D02*
X105000000Y-100200000D01*
X105000000Y-106660000D02*
X105000000Y-105640000D01*
X103530000Y-100200000D02*
X103530000Y-105640000D01*
X106470000Y-100200000D02*
X103530000Y-100200000D01*
X106470000Y-105640000D02*
X106470000Y-100200000D01*
X103530000Y-105640000D02*
X106470000Y-105640000D01*
G04 #@! TO.C,D14*
X73530000Y-105640000D02*
X76470000Y-105640000D01*
X76470000Y-105640000D02*
X76470000Y-100200000D01*
X76470000Y-100200000D02*
X73530000Y-100200000D01*
X73530000Y-100200000D02*
X73530000Y-105640000D01*
X75000000Y-106660000D02*
X75000000Y-105640000D01*
X75000000Y-99180000D02*
X75000000Y-100200000D01*
X73530000Y-104740000D02*
X76470000Y-104740000D01*
X73530000Y-104620000D02*
X76470000Y-104620000D01*
X73530000Y-104860000D02*
X76470000Y-104860000D01*
G04 #@! TO.C,D10*
X88530000Y-89860000D02*
X91470000Y-89860000D01*
X88530000Y-89620000D02*
X91470000Y-89620000D01*
X88530000Y-89740000D02*
X91470000Y-89740000D01*
X90000000Y-84180000D02*
X90000000Y-85200000D01*
X90000000Y-91660000D02*
X90000000Y-90640000D01*
X88530000Y-85200000D02*
X88530000Y-90640000D01*
X91470000Y-85200000D02*
X88530000Y-85200000D01*
X91470000Y-90640000D02*
X91470000Y-85200000D01*
X88530000Y-90640000D02*
X91470000Y-90640000D01*
G04 #@! TO.C,D4*
X88530000Y-61640000D02*
X91470000Y-61640000D01*
X91470000Y-61640000D02*
X91470000Y-56200000D01*
X91470000Y-56200000D02*
X88530000Y-56200000D01*
X88530000Y-56200000D02*
X88530000Y-61640000D01*
X90000000Y-62660000D02*
X90000000Y-61640000D01*
X90000000Y-55180000D02*
X90000000Y-56200000D01*
X88530000Y-60740000D02*
X91470000Y-60740000D01*
X88530000Y-60620000D02*
X91470000Y-60620000D01*
X88530000Y-60860000D02*
X91470000Y-60860000D01*
G04 #@! TO.C,D6*
X103530000Y-74860000D02*
X106470000Y-74860000D01*
X103530000Y-74620000D02*
X106470000Y-74620000D01*
X103530000Y-74740000D02*
X106470000Y-74740000D01*
X105000000Y-69180000D02*
X105000000Y-70200000D01*
X105000000Y-76660000D02*
X105000000Y-75640000D01*
X103530000Y-70200000D02*
X103530000Y-75640000D01*
X106470000Y-70200000D02*
X103530000Y-70200000D01*
X106470000Y-75640000D02*
X106470000Y-70200000D01*
X103530000Y-75640000D02*
X106470000Y-75640000D01*
G04 #@! TO.C,D8*
X73530000Y-74860000D02*
X76470000Y-74860000D01*
X73530000Y-74620000D02*
X76470000Y-74620000D01*
X73530000Y-74740000D02*
X76470000Y-74740000D01*
X75000000Y-69180000D02*
X75000000Y-70200000D01*
X75000000Y-76660000D02*
X75000000Y-75640000D01*
X73530000Y-70200000D02*
X73530000Y-75640000D01*
X76470000Y-70200000D02*
X73530000Y-70200000D01*
X76470000Y-75640000D02*
X76470000Y-70200000D01*
X73530000Y-75640000D02*
X76470000Y-75640000D01*
G04 #@! TO.C,D2*
X116530000Y-55860000D02*
X119470000Y-55860000D01*
X116530000Y-55620000D02*
X119470000Y-55620000D01*
X116530000Y-55740000D02*
X119470000Y-55740000D01*
X118000000Y-50180000D02*
X118000000Y-51200000D01*
X118000000Y-57660000D02*
X118000000Y-56640000D01*
X116530000Y-51200000D02*
X116530000Y-56640000D01*
X119470000Y-51200000D02*
X116530000Y-51200000D01*
X119470000Y-56640000D02*
X119470000Y-51200000D01*
X116530000Y-56640000D02*
X119470000Y-56640000D01*
G04 #@! TO.C,D11*
X73530000Y-90640000D02*
X76470000Y-90640000D01*
X76470000Y-90640000D02*
X76470000Y-85200000D01*
X76470000Y-85200000D02*
X73530000Y-85200000D01*
X73530000Y-85200000D02*
X73530000Y-90640000D01*
X75000000Y-91660000D02*
X75000000Y-90640000D01*
X75000000Y-84180000D02*
X75000000Y-85200000D01*
X73530000Y-89740000D02*
X76470000Y-89740000D01*
X73530000Y-89620000D02*
X76470000Y-89620000D01*
X73530000Y-89860000D02*
X76470000Y-89860000D01*
G04 #@! TO.C,D13*
X88530000Y-104860000D02*
X91470000Y-104860000D01*
X88530000Y-104620000D02*
X91470000Y-104620000D01*
X88530000Y-104740000D02*
X91470000Y-104740000D01*
X90000000Y-99180000D02*
X90000000Y-100200000D01*
X90000000Y-106660000D02*
X90000000Y-105640000D01*
X88530000Y-100200000D02*
X88530000Y-105640000D01*
X91470000Y-100200000D02*
X88530000Y-100200000D01*
X91470000Y-105640000D02*
X91470000Y-100200000D01*
X88530000Y-105640000D02*
X91470000Y-105640000D01*
G04 #@! TO.C,D9*
X103530000Y-90640000D02*
X106470000Y-90640000D01*
X106470000Y-90640000D02*
X106470000Y-85200000D01*
X106470000Y-85200000D02*
X103530000Y-85200000D01*
X103530000Y-85200000D02*
X103530000Y-90640000D01*
X105000000Y-91660000D02*
X105000000Y-90640000D01*
X105000000Y-84180000D02*
X105000000Y-85200000D01*
X103530000Y-89740000D02*
X106470000Y-89740000D01*
X103530000Y-89620000D02*
X106470000Y-89620000D01*
X103530000Y-89860000D02*
X106470000Y-89860000D01*
G04 #@! TO.C,D3*
X103530000Y-61640000D02*
X106470000Y-61640000D01*
X106470000Y-61640000D02*
X106470000Y-56200000D01*
X106470000Y-56200000D02*
X103530000Y-56200000D01*
X103530000Y-56200000D02*
X103530000Y-61640000D01*
X105000000Y-62660000D02*
X105000000Y-61640000D01*
X105000000Y-55180000D02*
X105000000Y-56200000D01*
X103530000Y-60740000D02*
X106470000Y-60740000D01*
X103530000Y-60620000D02*
X106470000Y-60620000D01*
X103530000Y-60860000D02*
X106470000Y-60860000D01*
G04 #@! TO.C,D5*
X73530000Y-61640000D02*
X76470000Y-61640000D01*
X76470000Y-61640000D02*
X76470000Y-56200000D01*
X76470000Y-56200000D02*
X73530000Y-56200000D01*
X73530000Y-56200000D02*
X73530000Y-61640000D01*
X75000000Y-62660000D02*
X75000000Y-61640000D01*
X75000000Y-55180000D02*
X75000000Y-56200000D01*
X73530000Y-60740000D02*
X76470000Y-60740000D01*
X73530000Y-60620000D02*
X76470000Y-60620000D01*
X73530000Y-60860000D02*
X76470000Y-60860000D01*
G04 #@! TO.C,D7*
X88530000Y-75640000D02*
X91470000Y-75640000D01*
X91470000Y-75640000D02*
X91470000Y-70200000D01*
X91470000Y-70200000D02*
X88530000Y-70200000D01*
X88530000Y-70200000D02*
X88530000Y-75640000D01*
X90000000Y-76660000D02*
X90000000Y-75640000D01*
X90000000Y-69180000D02*
X90000000Y-70200000D01*
X88530000Y-74740000D02*
X91470000Y-74740000D01*
X88530000Y-74620000D02*
X91470000Y-74620000D01*
X88530000Y-74860000D02*
X91470000Y-74860000D01*
G04 #@! TO.C,D1*
X116530000Y-42640000D02*
X119470000Y-42640000D01*
X119470000Y-42640000D02*
X119470000Y-37200000D01*
X119470000Y-37200000D02*
X116530000Y-37200000D01*
X116530000Y-37200000D02*
X116530000Y-42640000D01*
X118000000Y-43660000D02*
X118000000Y-42640000D01*
X118000000Y-36180000D02*
X118000000Y-37200000D01*
X116530000Y-41740000D02*
X119470000Y-41740000D01*
X116530000Y-41620000D02*
X119470000Y-41620000D01*
X116530000Y-41860000D02*
X119470000Y-41860000D01*
G04 #@! TO.C,D15*
X88950000Y-41860000D02*
X91890000Y-41860000D01*
X88950000Y-41620000D02*
X91890000Y-41620000D01*
X88950000Y-41740000D02*
X91890000Y-41740000D01*
X90420000Y-36180000D02*
X90420000Y-37200000D01*
X90420000Y-43660000D02*
X90420000Y-42640000D01*
X88950000Y-37200000D02*
X88950000Y-42640000D01*
X91890000Y-37200000D02*
X88950000Y-37200000D01*
X91890000Y-42640000D02*
X91890000Y-37200000D01*
X88950000Y-42640000D02*
X91890000Y-42640000D01*
G04 #@! TO.C,J1*
X44330000Y-21870000D02*
X44330000Y-16670000D01*
X39190000Y-21870000D02*
X44330000Y-21870000D01*
X36590000Y-16670000D02*
X44330000Y-16670000D01*
X39190000Y-21870000D02*
X39190000Y-19270000D01*
X39190000Y-19270000D02*
X36590000Y-19270000D01*
X36590000Y-19270000D02*
X36590000Y-16670000D01*
X37920000Y-21870000D02*
X36590000Y-21870000D01*
X36590000Y-21870000D02*
X36590000Y-20540000D01*
G04 #@! TO.C,J2*
X119800000Y-99100000D02*
X119300000Y-99100000D01*
X119800000Y-99840000D02*
X119800000Y-99100000D01*
X113227000Y-102977000D02*
X113274000Y-102931000D01*
X110930000Y-105275000D02*
X110965000Y-105239000D01*
X113034000Y-102761000D02*
X113069000Y-102726000D01*
X110725000Y-105069000D02*
X110772000Y-105023000D01*
X109440000Y-109261000D02*
X109440000Y-99340000D01*
X119560000Y-109261000D02*
X119560000Y-99340000D01*
X119560000Y-99340000D02*
X109440000Y-99340000D01*
X119560000Y-109261000D02*
X109440000Y-109261000D01*
X119560000Y-106301000D02*
X109440000Y-106301000D01*
X119560000Y-101400000D02*
X109440000Y-101400000D01*
X119560000Y-99900000D02*
X109440000Y-99900000D01*
X113680000Y-104000000D02*
G75*
G03X113680000Y-104000000I-1680000J0D01*
G01*
X116971195Y-102319747D02*
G75*
G02X117684000Y-102465000I28805J-1680253D01*
G01*
X118535426Y-103316958D02*
G75*
G02X118535000Y-104684000I-1535426J-683042D01*
G01*
X117683042Y-105535426D02*
G75*
G02X116316000Y-105535000I-683042J1535426D01*
G01*
X115464574Y-104683042D02*
G75*
G02X115465000Y-103316000I1535426J683042D01*
G01*
X116316682Y-102465244D02*
G75*
G02X117000000Y-102320000I683318J-1534756D01*
G01*
G04 #@! TO.C,J3*
X70330000Y-23330000D02*
X70330000Y-20670000D01*
X67730000Y-23330000D02*
X70330000Y-23330000D01*
X67730000Y-20670000D02*
X70330000Y-20670000D01*
X67730000Y-23330000D02*
X67730000Y-20670000D01*
X66460000Y-23330000D02*
X65130000Y-23330000D01*
X65130000Y-23330000D02*
X65130000Y-22000000D01*
G04 #@! TO.C,J4*
X73790000Y-39330000D02*
X76450000Y-39330000D01*
X73790000Y-36730000D02*
X73790000Y-39330000D01*
X76450000Y-36730000D02*
X76450000Y-39330000D01*
X73790000Y-36730000D02*
X76450000Y-36730000D01*
X73790000Y-35460000D02*
X73790000Y-34130000D01*
X73790000Y-34130000D02*
X75120000Y-34130000D01*
G04 #@! TO.C,J5*
X71250000Y-34130000D02*
X72580000Y-34130000D01*
X71250000Y-35460000D02*
X71250000Y-34130000D01*
X71250000Y-36730000D02*
X73910000Y-36730000D01*
X73910000Y-36730000D02*
X73910000Y-39330000D01*
X71250000Y-36730000D02*
X71250000Y-39330000D01*
X71250000Y-39330000D02*
X73910000Y-39330000D01*
G04 #@! TO.C,J6*
X68710000Y-34130000D02*
X70040000Y-34130000D01*
X68710000Y-35460000D02*
X68710000Y-34130000D01*
X68710000Y-36730000D02*
X71370000Y-36730000D01*
X71370000Y-36730000D02*
X71370000Y-39330000D01*
X68710000Y-36730000D02*
X68710000Y-39330000D01*
X68710000Y-39330000D02*
X71370000Y-39330000D01*
G04 #@! TO.C,J7*
X29130000Y-21870000D02*
X34330000Y-21870000D01*
X29130000Y-19270000D02*
X29130000Y-21870000D01*
X34330000Y-16670000D02*
X34330000Y-21870000D01*
X29130000Y-19270000D02*
X31730000Y-19270000D01*
X31730000Y-19270000D02*
X31730000Y-16670000D01*
X31730000Y-16670000D02*
X34330000Y-16670000D01*
X29130000Y-18000000D02*
X29130000Y-16670000D01*
X29130000Y-16670000D02*
X30460000Y-16670000D01*
G04 #@! TO.C,Q12*
X95590000Y-105760000D02*
X96850000Y-105760000D01*
X102410000Y-105760000D02*
X101150000Y-105760000D01*
X95590000Y-102000000D02*
X95590000Y-105760000D01*
X102410000Y-99750000D02*
X102410000Y-105760000D01*
G04 #@! TO.C,Q14*
X65590000Y-105760000D02*
X66850000Y-105760000D01*
X72410000Y-105760000D02*
X71150000Y-105760000D01*
X65590000Y-102000000D02*
X65590000Y-105760000D01*
X72410000Y-99750000D02*
X72410000Y-105760000D01*
G04 #@! TO.C,Q10*
X80590000Y-90432000D02*
X81850000Y-90432000D01*
X87410000Y-90432000D02*
X86150000Y-90432000D01*
X80590000Y-86672000D02*
X80590000Y-90432000D01*
X87410000Y-84422000D02*
X87410000Y-90432000D01*
G04 #@! TO.C,Q4*
X80590000Y-61760000D02*
X81850000Y-61760000D01*
X87410000Y-61760000D02*
X86150000Y-61760000D01*
X80590000Y-58000000D02*
X80590000Y-61760000D01*
X87410000Y-55750000D02*
X87410000Y-61760000D01*
G04 #@! TO.C,Q6*
X95590000Y-75760000D02*
X96850000Y-75760000D01*
X102410000Y-75760000D02*
X101150000Y-75760000D01*
X95590000Y-72000000D02*
X95590000Y-75760000D01*
X102410000Y-69750000D02*
X102410000Y-75760000D01*
G04 #@! TO.C,Q8*
X72410000Y-69750000D02*
X72410000Y-75760000D01*
X65590000Y-72000000D02*
X65590000Y-75760000D01*
X72410000Y-75760000D02*
X71150000Y-75760000D01*
X65590000Y-75760000D02*
X66850000Y-75760000D01*
G04 #@! TO.C,Q2*
X108590000Y-56760000D02*
X109850000Y-56760000D01*
X115410000Y-56760000D02*
X114150000Y-56760000D01*
X108590000Y-53000000D02*
X108590000Y-56760000D01*
X115410000Y-50750000D02*
X115410000Y-56760000D01*
G04 #@! TO.C,Q11*
X72410000Y-84750000D02*
X72410000Y-90760000D01*
X65590000Y-87000000D02*
X65590000Y-90760000D01*
X72410000Y-90760000D02*
X71150000Y-90760000D01*
X65590000Y-90760000D02*
X66850000Y-90760000D01*
G04 #@! TO.C,Q13*
X87410000Y-99750000D02*
X87410000Y-105760000D01*
X80590000Y-102000000D02*
X80590000Y-105760000D01*
X87410000Y-105760000D02*
X86150000Y-105760000D01*
X80590000Y-105760000D02*
X81850000Y-105760000D01*
G04 #@! TO.C,Q9*
X95590000Y-90760000D02*
X96850000Y-90760000D01*
X102410000Y-90760000D02*
X101150000Y-90760000D01*
X95590000Y-87000000D02*
X95590000Y-90760000D01*
X102410000Y-84750000D02*
X102410000Y-90760000D01*
G04 #@! TO.C,Q3*
X95590000Y-61760000D02*
X96850000Y-61760000D01*
X102410000Y-61760000D02*
X101150000Y-61760000D01*
X95590000Y-58000000D02*
X95590000Y-61760000D01*
X102410000Y-55750000D02*
X102410000Y-61760000D01*
G04 #@! TO.C,Q5*
X72410000Y-55750000D02*
X72410000Y-61760000D01*
X65590000Y-58000000D02*
X65590000Y-61760000D01*
X72410000Y-61760000D02*
X71150000Y-61760000D01*
X65590000Y-61760000D02*
X66850000Y-61760000D01*
G04 #@! TO.C,Q7*
X87410000Y-69750000D02*
X87410000Y-75760000D01*
X80590000Y-72000000D02*
X80590000Y-75760000D01*
X87410000Y-75760000D02*
X86150000Y-75760000D01*
X80590000Y-75760000D02*
X81850000Y-75760000D01*
G04 #@! TO.C,Q1*
X115410000Y-36900000D02*
X115410000Y-42910000D01*
X108590000Y-39150000D02*
X108590000Y-42910000D01*
X115410000Y-42910000D02*
X114150000Y-42910000D01*
X108590000Y-42910000D02*
X109850000Y-42910000D01*
G04 #@! TO.C,Q15*
X87410000Y-36750000D02*
X87410000Y-42760000D01*
X80590000Y-39000000D02*
X80590000Y-42760000D01*
X87410000Y-42760000D02*
X86150000Y-42760000D01*
X80590000Y-42760000D02*
X81850000Y-42760000D01*
G04 #@! TO.C,R26*
X97049721Y-97490000D02*
X97375279Y-97490000D01*
X97049721Y-98510000D02*
X97375279Y-98510000D01*
G04 #@! TO.C,R28*
X69049721Y-98510000D02*
X69375279Y-98510000D01*
X69049721Y-97490000D02*
X69375279Y-97490000D01*
G04 #@! TO.C,R24*
X82049721Y-83510000D02*
X82375279Y-83510000D01*
X82049721Y-82490000D02*
X82375279Y-82490000D01*
G04 #@! TO.C,R18*
X82049721Y-53490000D02*
X82375279Y-53490000D01*
X82049721Y-54510000D02*
X82375279Y-54510000D01*
G04 #@! TO.C,R20*
X97049721Y-68510000D02*
X97375279Y-68510000D01*
X97049721Y-67490000D02*
X97375279Y-67490000D01*
G04 #@! TO.C,R22*
X67049721Y-68510000D02*
X67375279Y-68510000D01*
X67049721Y-67490000D02*
X67375279Y-67490000D01*
G04 #@! TO.C,R16*
X110049721Y-48490000D02*
X110375279Y-48490000D01*
X110049721Y-49510000D02*
X110375279Y-49510000D01*
G04 #@! TO.C,R25*
X67049721Y-83510000D02*
X67375279Y-83510000D01*
X67049721Y-82490000D02*
X67375279Y-82490000D01*
G04 #@! TO.C,R27*
X82049721Y-98510000D02*
X82375279Y-98510000D01*
X82049721Y-97490000D02*
X82375279Y-97490000D01*
G04 #@! TO.C,R23*
X97049721Y-82490000D02*
X97375279Y-82490000D01*
X97049721Y-83510000D02*
X97375279Y-83510000D01*
G04 #@! TO.C,R17*
X97049721Y-53490000D02*
X97375279Y-53490000D01*
X97049721Y-54510000D02*
X97375279Y-54510000D01*
G04 #@! TO.C,R19*
X66837221Y-53490000D02*
X67162779Y-53490000D01*
X66837221Y-54510000D02*
X67162779Y-54510000D01*
G04 #@! TO.C,R21*
X82049721Y-67490000D02*
X82375279Y-67490000D01*
X82049721Y-68510000D02*
X82375279Y-68510000D01*
G04 #@! TO.C,R15*
X110049721Y-34490000D02*
X110375279Y-34490000D01*
X110049721Y-35510000D02*
X110375279Y-35510000D01*
G04 #@! TO.C,R30*
X82049721Y-35510000D02*
X82375279Y-35510000D01*
X82049721Y-34490000D02*
X82375279Y-34490000D01*
G04 #@! TO.C,R31*
X64670000Y-39330000D02*
X67330000Y-39330000D01*
X64670000Y-36730000D02*
X64670000Y-39330000D01*
X67330000Y-36730000D02*
X67330000Y-39330000D01*
X64670000Y-36730000D02*
X67330000Y-36730000D01*
X64670000Y-35460000D02*
X64670000Y-34130000D01*
X64670000Y-34130000D02*
X66000000Y-34130000D01*
G04 #@! TO.C,R32*
X60670000Y-34130000D02*
X62000000Y-34130000D01*
X60670000Y-35460000D02*
X60670000Y-34130000D01*
X60670000Y-36730000D02*
X63330000Y-36730000D01*
X63330000Y-36730000D02*
X63330000Y-39330000D01*
X60670000Y-36730000D02*
X60670000Y-39330000D01*
X60670000Y-39330000D02*
X63330000Y-39330000D01*
G04 #@! TO.C,R34*
X62375279Y-27490000D02*
X62049721Y-27490000D01*
X62375279Y-28510000D02*
X62049721Y-28510000D01*
G04 #@! TO.C,S1*
X60050000Y-16670000D02*
X60050000Y-19330000D01*
X67730000Y-16670000D02*
X60050000Y-16670000D01*
X67730000Y-19330000D02*
X60050000Y-19330000D01*
X67730000Y-16670000D02*
X67730000Y-19330000D01*
X69000000Y-16670000D02*
X70330000Y-16670000D01*
X70330000Y-16670000D02*
X70330000Y-18000000D01*
G04 #@! TO.C,S3*
X62950000Y-23330000D02*
X62950000Y-20670000D01*
X55270000Y-23330000D02*
X62950000Y-23330000D01*
X55270000Y-20670000D02*
X62950000Y-20670000D01*
X55270000Y-23330000D02*
X55270000Y-20670000D01*
X54000000Y-23330000D02*
X52670000Y-23330000D01*
X52670000Y-23330000D02*
X52670000Y-22000000D01*
G04 #@! TO.C,U1*
X57630000Y-67620000D02*
X42390000Y-67620000D01*
X42390000Y-67620000D02*
X42390000Y-47300000D01*
X42390000Y-47300000D02*
X57630000Y-47300000D01*
X57630000Y-47300000D02*
X57630000Y-67620000D01*
G04 #@! TO.C,U2*
X57600000Y-25650000D02*
X57600000Y-45970000D01*
X42360000Y-25650000D02*
X57600000Y-25650000D01*
X42360000Y-45970000D02*
X42360000Y-25650000D01*
X57600000Y-45970000D02*
X42360000Y-45970000D01*
G04 #@! TO.C,U3*
X31050000Y-35590000D02*
X37060000Y-35590000D01*
X33300000Y-42410000D02*
X37060000Y-42410000D01*
X37060000Y-35590000D02*
X37060000Y-36850000D01*
X37060000Y-42410000D02*
X37060000Y-41150000D01*
G04 #@! TO.C,U4*
X37060000Y-32410000D02*
X37060000Y-31150000D01*
X37060000Y-25590000D02*
X37060000Y-26850000D01*
X33300000Y-32410000D02*
X37060000Y-32410000D01*
X31050000Y-25590000D02*
X37060000Y-25590000D01*
G04 #@! TO.C,Y1*
X121890000Y-24330000D02*
X121890000Y-19130000D01*
X78650000Y-24330000D02*
X121890000Y-24330000D01*
X76050000Y-19130000D02*
X121890000Y-19130000D01*
X78650000Y-24330000D02*
X78650000Y-21730000D01*
X78650000Y-21730000D02*
X76050000Y-21730000D01*
X76050000Y-21730000D02*
X76050000Y-19130000D01*
X77380000Y-24330000D02*
X76050000Y-24330000D01*
X76050000Y-24330000D02*
X76050000Y-23000000D01*
G04 #@! TO.C,Z1*
X110170000Y-97350000D02*
X115370000Y-97350000D01*
X110170000Y-64270000D02*
X110170000Y-97350000D01*
X115370000Y-61670000D02*
X115370000Y-97350000D01*
X110170000Y-64270000D02*
X112770000Y-64270000D01*
X112770000Y-64270000D02*
X112770000Y-61670000D01*
X112770000Y-61670000D02*
X115370000Y-61670000D01*
X110170000Y-63000000D02*
X110170000Y-61670000D01*
X110170000Y-61670000D02*
X111500000Y-61670000D01*
G04 #@! TO.C,C3*
D13*
X29733333Y-46657142D02*
X29685714Y-46704761D01*
X29542857Y-46752380D01*
X29447619Y-46752380D01*
X29304761Y-46704761D01*
X29209523Y-46609523D01*
X29161904Y-46514285D01*
X29114285Y-46323809D01*
X29114285Y-46180952D01*
X29161904Y-45990476D01*
X29209523Y-45895238D01*
X29304761Y-45800000D01*
X29447619Y-45752380D01*
X29542857Y-45752380D01*
X29685714Y-45800000D01*
X29733333Y-45847619D01*
X30066666Y-45752380D02*
X30685714Y-45752380D01*
X30352380Y-46133333D01*
X30495238Y-46133333D01*
X30590476Y-46180952D01*
X30638095Y-46228571D01*
X30685714Y-46323809D01*
X30685714Y-46561904D01*
X30638095Y-46657142D01*
X30590476Y-46704761D01*
X30495238Y-46752380D01*
X30209523Y-46752380D01*
X30114285Y-46704761D01*
X30066666Y-46657142D01*
G04 #@! TO.C,F1*
X98166666Y-33668571D02*
X97833333Y-33668571D01*
X97833333Y-34192380D02*
X97833333Y-33192380D01*
X98309523Y-33192380D01*
X99214285Y-34192380D02*
X98642857Y-34192380D01*
X98928571Y-34192380D02*
X98928571Y-33192380D01*
X98833333Y-33335238D01*
X98738095Y-33430476D01*
X98642857Y-33478095D01*
G04 #@! TO.C,S2*
X59734761Y-18761904D02*
X59782380Y-18619047D01*
X59782380Y-18380952D01*
X59734761Y-18285714D01*
X59687142Y-18238095D01*
X59591904Y-18190476D01*
X59496666Y-18190476D01*
X59401428Y-18238095D01*
X59353809Y-18285714D01*
X59306190Y-18380952D01*
X59258571Y-18571428D01*
X59210952Y-18666666D01*
X59163333Y-18714285D01*
X59068095Y-18761904D01*
X58972857Y-18761904D01*
X58877619Y-18714285D01*
X58830000Y-18666666D01*
X58782380Y-18571428D01*
X58782380Y-18333333D01*
X58830000Y-18190476D01*
X58877619Y-17809523D02*
X58830000Y-17761904D01*
X58782380Y-17666666D01*
X58782380Y-17428571D01*
X58830000Y-17333333D01*
X58877619Y-17285714D01*
X58972857Y-17238095D01*
X59068095Y-17238095D01*
X59210952Y-17285714D01*
X59782380Y-17857142D01*
X59782380Y-17238095D01*
G04 #@! TO.C,C1*
X36583333Y-56107142D02*
X36535714Y-56154761D01*
X36392857Y-56202380D01*
X36297619Y-56202380D01*
X36154761Y-56154761D01*
X36059523Y-56059523D01*
X36011904Y-55964285D01*
X35964285Y-55773809D01*
X35964285Y-55630952D01*
X36011904Y-55440476D01*
X36059523Y-55345238D01*
X36154761Y-55250000D01*
X36297619Y-55202380D01*
X36392857Y-55202380D01*
X36535714Y-55250000D01*
X36583333Y-55297619D01*
X37535714Y-56202380D02*
X36964285Y-56202380D01*
X37250000Y-56202380D02*
X37250000Y-55202380D01*
X37154761Y-55345238D01*
X37059523Y-55440476D01*
X36964285Y-55488095D01*
G04 #@! TO.C,C2*
X31107142Y-50416666D02*
X31154761Y-50464285D01*
X31202380Y-50607142D01*
X31202380Y-50702380D01*
X31154761Y-50845238D01*
X31059523Y-50940476D01*
X30964285Y-50988095D01*
X30773809Y-51035714D01*
X30630952Y-51035714D01*
X30440476Y-50988095D01*
X30345238Y-50940476D01*
X30250000Y-50845238D01*
X30202380Y-50702380D01*
X30202380Y-50607142D01*
X30250000Y-50464285D01*
X30297619Y-50416666D01*
X30297619Y-50035714D02*
X30250000Y-49988095D01*
X30202380Y-49892857D01*
X30202380Y-49654761D01*
X30250000Y-49559523D01*
X30297619Y-49511904D01*
X30392857Y-49464285D01*
X30488095Y-49464285D01*
X30630952Y-49511904D01*
X31202380Y-50083333D01*
X31202380Y-49464285D01*
G04 #@! TO.C,D12*
X108152380Y-103914285D02*
X107152380Y-103914285D01*
X107152380Y-103676190D01*
X107200000Y-103533333D01*
X107295238Y-103438095D01*
X107390476Y-103390476D01*
X107580952Y-103342857D01*
X107723809Y-103342857D01*
X107914285Y-103390476D01*
X108009523Y-103438095D01*
X108104761Y-103533333D01*
X108152380Y-103676190D01*
X108152380Y-103914285D01*
X108152380Y-102390476D02*
X108152380Y-102961904D01*
X108152380Y-102676190D02*
X107152380Y-102676190D01*
X107295238Y-102771428D01*
X107390476Y-102866666D01*
X107438095Y-102961904D01*
X107247619Y-102009523D02*
X107200000Y-101961904D01*
X107152380Y-101866666D01*
X107152380Y-101628571D01*
X107200000Y-101533333D01*
X107247619Y-101485714D01*
X107342857Y-101438095D01*
X107438095Y-101438095D01*
X107580952Y-101485714D01*
X108152380Y-102057142D01*
X108152380Y-101438095D01*
X103352380Y-108261904D02*
X102352380Y-108261904D01*
X103352380Y-107690476D02*
X102780952Y-108119047D01*
X102352380Y-107690476D02*
X102923809Y-108261904D01*
G04 #@! TO.C,D14*
X77952380Y-104134285D02*
X76952380Y-104134285D01*
X76952380Y-103896190D01*
X77000000Y-103753333D01*
X77095238Y-103658095D01*
X77190476Y-103610476D01*
X77380952Y-103562857D01*
X77523809Y-103562857D01*
X77714285Y-103610476D01*
X77809523Y-103658095D01*
X77904761Y-103753333D01*
X77952380Y-103896190D01*
X77952380Y-104134285D01*
X77952380Y-102610476D02*
X77952380Y-103181904D01*
X77952380Y-102896190D02*
X76952380Y-102896190D01*
X77095238Y-102991428D01*
X77190476Y-103086666D01*
X77238095Y-103181904D01*
X77285714Y-101753333D02*
X77952380Y-101753333D01*
X76904761Y-101991428D02*
X77619047Y-102229523D01*
X77619047Y-101610476D01*
X73352380Y-108261904D02*
X72352380Y-108261904D01*
X73352380Y-107690476D02*
X72780952Y-108119047D01*
X72352380Y-107690476D02*
X72923809Y-108261904D01*
G04 #@! TO.C,D10*
X93052380Y-89314285D02*
X92052380Y-89314285D01*
X92052380Y-89076190D01*
X92100000Y-88933333D01*
X92195238Y-88838095D01*
X92290476Y-88790476D01*
X92480952Y-88742857D01*
X92623809Y-88742857D01*
X92814285Y-88790476D01*
X92909523Y-88838095D01*
X93004761Y-88933333D01*
X93052380Y-89076190D01*
X93052380Y-89314285D01*
X93052380Y-87790476D02*
X93052380Y-88361904D01*
X93052380Y-88076190D02*
X92052380Y-88076190D01*
X92195238Y-88171428D01*
X92290476Y-88266666D01*
X92338095Y-88361904D01*
X92052380Y-87171428D02*
X92052380Y-87076190D01*
X92100000Y-86980952D01*
X92147619Y-86933333D01*
X92242857Y-86885714D01*
X92433333Y-86838095D01*
X92671428Y-86838095D01*
X92861904Y-86885714D01*
X92957142Y-86933333D01*
X93004761Y-86980952D01*
X93052380Y-87076190D01*
X93052380Y-87171428D01*
X93004761Y-87266666D01*
X92957142Y-87314285D01*
X92861904Y-87361904D01*
X92671428Y-87409523D01*
X92433333Y-87409523D01*
X92242857Y-87361904D01*
X92147619Y-87314285D01*
X92100000Y-87266666D01*
X92052380Y-87171428D01*
X88352380Y-93261904D02*
X87352380Y-93261904D01*
X88352380Y-92690476D02*
X87780952Y-93119047D01*
X87352380Y-92690476D02*
X87923809Y-93261904D01*
G04 #@! TO.C,D4*
X93352380Y-59638095D02*
X92352380Y-59638095D01*
X92352380Y-59400000D01*
X92400000Y-59257142D01*
X92495238Y-59161904D01*
X92590476Y-59114285D01*
X92780952Y-59066666D01*
X92923809Y-59066666D01*
X93114285Y-59114285D01*
X93209523Y-59161904D01*
X93304761Y-59257142D01*
X93352380Y-59400000D01*
X93352380Y-59638095D01*
X92685714Y-58209523D02*
X93352380Y-58209523D01*
X92304761Y-58447619D02*
X93019047Y-58685714D01*
X93019047Y-58066666D01*
X88352380Y-64261904D02*
X87352380Y-64261904D01*
X88352380Y-63690476D02*
X87780952Y-64119047D01*
X87352380Y-63690476D02*
X87923809Y-64261904D01*
G04 #@! TO.C,D6*
X107952380Y-74138095D02*
X106952380Y-74138095D01*
X106952380Y-73900000D01*
X107000000Y-73757142D01*
X107095238Y-73661904D01*
X107190476Y-73614285D01*
X107380952Y-73566666D01*
X107523809Y-73566666D01*
X107714285Y-73614285D01*
X107809523Y-73661904D01*
X107904761Y-73757142D01*
X107952380Y-73900000D01*
X107952380Y-74138095D01*
X106952380Y-72709523D02*
X106952380Y-72900000D01*
X107000000Y-72995238D01*
X107047619Y-73042857D01*
X107190476Y-73138095D01*
X107380952Y-73185714D01*
X107761904Y-73185714D01*
X107857142Y-73138095D01*
X107904761Y-73090476D01*
X107952380Y-72995238D01*
X107952380Y-72804761D01*
X107904761Y-72709523D01*
X107857142Y-72661904D01*
X107761904Y-72614285D01*
X107523809Y-72614285D01*
X107428571Y-72661904D01*
X107380952Y-72709523D01*
X107333333Y-72804761D01*
X107333333Y-72995238D01*
X107380952Y-73090476D01*
X107428571Y-73138095D01*
X107523809Y-73185714D01*
X103352380Y-78261904D02*
X102352380Y-78261904D01*
X103352380Y-77690476D02*
X102780952Y-78119047D01*
X102352380Y-77690476D02*
X102923809Y-78261904D01*
G04 #@! TO.C,D8*
X78352380Y-73638095D02*
X77352380Y-73638095D01*
X77352380Y-73400000D01*
X77400000Y-73257142D01*
X77495238Y-73161904D01*
X77590476Y-73114285D01*
X77780952Y-73066666D01*
X77923809Y-73066666D01*
X78114285Y-73114285D01*
X78209523Y-73161904D01*
X78304761Y-73257142D01*
X78352380Y-73400000D01*
X78352380Y-73638095D01*
X77780952Y-72495238D02*
X77733333Y-72590476D01*
X77685714Y-72638095D01*
X77590476Y-72685714D01*
X77542857Y-72685714D01*
X77447619Y-72638095D01*
X77400000Y-72590476D01*
X77352380Y-72495238D01*
X77352380Y-72304761D01*
X77400000Y-72209523D01*
X77447619Y-72161904D01*
X77542857Y-72114285D01*
X77590476Y-72114285D01*
X77685714Y-72161904D01*
X77733333Y-72209523D01*
X77780952Y-72304761D01*
X77780952Y-72495238D01*
X77828571Y-72590476D01*
X77876190Y-72638095D01*
X77971428Y-72685714D01*
X78161904Y-72685714D01*
X78257142Y-72638095D01*
X78304761Y-72590476D01*
X78352380Y-72495238D01*
X78352380Y-72304761D01*
X78304761Y-72209523D01*
X78257142Y-72161904D01*
X78161904Y-72114285D01*
X77971428Y-72114285D01*
X77876190Y-72161904D01*
X77828571Y-72209523D01*
X77780952Y-72304761D01*
X73352380Y-78261904D02*
X72352380Y-78261904D01*
X73352380Y-77690476D02*
X72780952Y-78119047D01*
X72352380Y-77690476D02*
X72923809Y-78261904D01*
G04 #@! TO.C,D2*
X121352380Y-54638095D02*
X120352380Y-54638095D01*
X120352380Y-54400000D01*
X120400000Y-54257142D01*
X120495238Y-54161904D01*
X120590476Y-54114285D01*
X120780952Y-54066666D01*
X120923809Y-54066666D01*
X121114285Y-54114285D01*
X121209523Y-54161904D01*
X121304761Y-54257142D01*
X121352380Y-54400000D01*
X121352380Y-54638095D01*
X120447619Y-53685714D02*
X120400000Y-53638095D01*
X120352380Y-53542857D01*
X120352380Y-53304761D01*
X120400000Y-53209523D01*
X120447619Y-53161904D01*
X120542857Y-53114285D01*
X120638095Y-53114285D01*
X120780952Y-53161904D01*
X121352380Y-53733333D01*
X121352380Y-53114285D01*
X116352380Y-59261904D02*
X115352380Y-59261904D01*
X116352380Y-58690476D02*
X115780952Y-59119047D01*
X115352380Y-58690476D02*
X115923809Y-59261904D01*
G04 #@! TO.C,D11*
X77952380Y-89134285D02*
X76952380Y-89134285D01*
X76952380Y-88896190D01*
X77000000Y-88753333D01*
X77095238Y-88658095D01*
X77190476Y-88610476D01*
X77380952Y-88562857D01*
X77523809Y-88562857D01*
X77714285Y-88610476D01*
X77809523Y-88658095D01*
X77904761Y-88753333D01*
X77952380Y-88896190D01*
X77952380Y-89134285D01*
X77952380Y-87610476D02*
X77952380Y-88181904D01*
X77952380Y-87896190D02*
X76952380Y-87896190D01*
X77095238Y-87991428D01*
X77190476Y-88086666D01*
X77238095Y-88181904D01*
X77952380Y-86658095D02*
X77952380Y-87229523D01*
X77952380Y-86943809D02*
X76952380Y-86943809D01*
X77095238Y-87039047D01*
X77190476Y-87134285D01*
X77238095Y-87229523D01*
X73352380Y-93261904D02*
X72352380Y-93261904D01*
X73352380Y-92690476D02*
X72780952Y-93119047D01*
X72352380Y-92690476D02*
X72923809Y-93261904D01*
G04 #@! TO.C,D13*
X93152380Y-104314285D02*
X92152380Y-104314285D01*
X92152380Y-104076190D01*
X92200000Y-103933333D01*
X92295238Y-103838095D01*
X92390476Y-103790476D01*
X92580952Y-103742857D01*
X92723809Y-103742857D01*
X92914285Y-103790476D01*
X93009523Y-103838095D01*
X93104761Y-103933333D01*
X93152380Y-104076190D01*
X93152380Y-104314285D01*
X93152380Y-102790476D02*
X93152380Y-103361904D01*
X93152380Y-103076190D02*
X92152380Y-103076190D01*
X92295238Y-103171428D01*
X92390476Y-103266666D01*
X92438095Y-103361904D01*
X92152380Y-102457142D02*
X92152380Y-101838095D01*
X92533333Y-102171428D01*
X92533333Y-102028571D01*
X92580952Y-101933333D01*
X92628571Y-101885714D01*
X92723809Y-101838095D01*
X92961904Y-101838095D01*
X93057142Y-101885714D01*
X93104761Y-101933333D01*
X93152380Y-102028571D01*
X93152380Y-102314285D01*
X93104761Y-102409523D01*
X93057142Y-102457142D01*
X88352380Y-108261904D02*
X87352380Y-108261904D01*
X88352380Y-107690476D02*
X87780952Y-108119047D01*
X87352380Y-107690476D02*
X87923809Y-108261904D01*
G04 #@! TO.C,D9*
X108052380Y-88738095D02*
X107052380Y-88738095D01*
X107052380Y-88500000D01*
X107100000Y-88357142D01*
X107195238Y-88261904D01*
X107290476Y-88214285D01*
X107480952Y-88166666D01*
X107623809Y-88166666D01*
X107814285Y-88214285D01*
X107909523Y-88261904D01*
X108004761Y-88357142D01*
X108052380Y-88500000D01*
X108052380Y-88738095D01*
X108052380Y-87690476D02*
X108052380Y-87500000D01*
X108004761Y-87404761D01*
X107957142Y-87357142D01*
X107814285Y-87261904D01*
X107623809Y-87214285D01*
X107242857Y-87214285D01*
X107147619Y-87261904D01*
X107100000Y-87309523D01*
X107052380Y-87404761D01*
X107052380Y-87595238D01*
X107100000Y-87690476D01*
X107147619Y-87738095D01*
X107242857Y-87785714D01*
X107480952Y-87785714D01*
X107576190Y-87738095D01*
X107623809Y-87690476D01*
X107671428Y-87595238D01*
X107671428Y-87404761D01*
X107623809Y-87309523D01*
X107576190Y-87261904D01*
X107480952Y-87214285D01*
X107952380Y-93361904D02*
X106952380Y-93361904D01*
X107952380Y-92790476D02*
X107380952Y-93219047D01*
X106952380Y-92790476D02*
X107523809Y-93361904D01*
G04 #@! TO.C,D3*
X108052380Y-58538095D02*
X107052380Y-58538095D01*
X107052380Y-58300000D01*
X107100000Y-58157142D01*
X107195238Y-58061904D01*
X107290476Y-58014285D01*
X107480952Y-57966666D01*
X107623809Y-57966666D01*
X107814285Y-58014285D01*
X107909523Y-58061904D01*
X108004761Y-58157142D01*
X108052380Y-58300000D01*
X108052380Y-58538095D01*
X107052380Y-57633333D02*
X107052380Y-57014285D01*
X107433333Y-57347619D01*
X107433333Y-57204761D01*
X107480952Y-57109523D01*
X107528571Y-57061904D01*
X107623809Y-57014285D01*
X107861904Y-57014285D01*
X107957142Y-57061904D01*
X108004761Y-57109523D01*
X108052380Y-57204761D01*
X108052380Y-57490476D01*
X108004761Y-57585714D01*
X107957142Y-57633333D01*
X103352380Y-64261904D02*
X102352380Y-64261904D01*
X103352380Y-63690476D02*
X102780952Y-64119047D01*
X102352380Y-63690476D02*
X102923809Y-64261904D01*
G04 #@! TO.C,D5*
X78352380Y-59658095D02*
X77352380Y-59658095D01*
X77352380Y-59420000D01*
X77400000Y-59277142D01*
X77495238Y-59181904D01*
X77590476Y-59134285D01*
X77780952Y-59086666D01*
X77923809Y-59086666D01*
X78114285Y-59134285D01*
X78209523Y-59181904D01*
X78304761Y-59277142D01*
X78352380Y-59420000D01*
X78352380Y-59658095D01*
X77352380Y-58181904D02*
X77352380Y-58658095D01*
X77828571Y-58705714D01*
X77780952Y-58658095D01*
X77733333Y-58562857D01*
X77733333Y-58324761D01*
X77780952Y-58229523D01*
X77828571Y-58181904D01*
X77923809Y-58134285D01*
X78161904Y-58134285D01*
X78257142Y-58181904D01*
X78304761Y-58229523D01*
X78352380Y-58324761D01*
X78352380Y-58562857D01*
X78304761Y-58658095D01*
X78257142Y-58705714D01*
X73352380Y-64261904D02*
X72352380Y-64261904D01*
X73352380Y-63690476D02*
X72780952Y-64119047D01*
X72352380Y-63690476D02*
X72923809Y-64261904D01*
G04 #@! TO.C,D7*
X93252380Y-73658095D02*
X92252380Y-73658095D01*
X92252380Y-73420000D01*
X92300000Y-73277142D01*
X92395238Y-73181904D01*
X92490476Y-73134285D01*
X92680952Y-73086666D01*
X92823809Y-73086666D01*
X93014285Y-73134285D01*
X93109523Y-73181904D01*
X93204761Y-73277142D01*
X93252380Y-73420000D01*
X93252380Y-73658095D01*
X92252380Y-72753333D02*
X92252380Y-72086666D01*
X93252380Y-72515238D01*
X88352380Y-78261904D02*
X87352380Y-78261904D01*
X88352380Y-77690476D02*
X87780952Y-78119047D01*
X87352380Y-77690476D02*
X87923809Y-78261904D01*
G04 #@! TO.C,D1*
X121552380Y-40658095D02*
X120552380Y-40658095D01*
X120552380Y-40420000D01*
X120600000Y-40277142D01*
X120695238Y-40181904D01*
X120790476Y-40134285D01*
X120980952Y-40086666D01*
X121123809Y-40086666D01*
X121314285Y-40134285D01*
X121409523Y-40181904D01*
X121504761Y-40277142D01*
X121552380Y-40420000D01*
X121552380Y-40658095D01*
X121552380Y-39134285D02*
X121552380Y-39705714D01*
X121552380Y-39420000D02*
X120552380Y-39420000D01*
X120695238Y-39515238D01*
X120790476Y-39610476D01*
X120838095Y-39705714D01*
X121352380Y-45261904D02*
X120352380Y-45261904D01*
X121352380Y-44690476D02*
X120780952Y-45119047D01*
X120352380Y-44690476D02*
X120923809Y-45261904D01*
G04 #@! TO.C,D15*
X92052380Y-41414285D02*
X91052380Y-41414285D01*
X91052380Y-41176190D01*
X91100000Y-41033333D01*
X91195238Y-40938095D01*
X91290476Y-40890476D01*
X91480952Y-40842857D01*
X91623809Y-40842857D01*
X91814285Y-40890476D01*
X91909523Y-40938095D01*
X92004761Y-41033333D01*
X92052380Y-41176190D01*
X92052380Y-41414285D01*
X92052380Y-39890476D02*
X92052380Y-40461904D01*
X92052380Y-40176190D02*
X91052380Y-40176190D01*
X91195238Y-40271428D01*
X91290476Y-40366666D01*
X91338095Y-40461904D01*
X91052380Y-38985714D02*
X91052380Y-39461904D01*
X91528571Y-39509523D01*
X91480952Y-39461904D01*
X91433333Y-39366666D01*
X91433333Y-39128571D01*
X91480952Y-39033333D01*
X91528571Y-38985714D01*
X91623809Y-38938095D01*
X91861904Y-38938095D01*
X91957142Y-38985714D01*
X92004761Y-39033333D01*
X92052380Y-39128571D01*
X92052380Y-39366666D01*
X92004761Y-39461904D01*
X91957142Y-39509523D01*
X88772380Y-45261904D02*
X87772380Y-45261904D01*
X88772380Y-44690476D02*
X88200952Y-45119047D01*
X87772380Y-44690476D02*
X88343809Y-45261904D01*
G04 #@! TO.C,J1*
X35042380Y-19603333D02*
X35756666Y-19603333D01*
X35899523Y-19650952D01*
X35994761Y-19746190D01*
X36042380Y-19889047D01*
X36042380Y-19984285D01*
X36042380Y-18603333D02*
X36042380Y-19174761D01*
X36042380Y-18889047D02*
X35042380Y-18889047D01*
X35185238Y-18984285D01*
X35280476Y-19079523D01*
X35328095Y-19174761D01*
G04 #@! TO.C,J2*
X114166666Y-109712380D02*
X114166666Y-110426666D01*
X114119047Y-110569523D01*
X114023809Y-110664761D01*
X113880952Y-110712380D01*
X113785714Y-110712380D01*
X114595238Y-109807619D02*
X114642857Y-109760000D01*
X114738095Y-109712380D01*
X114976190Y-109712380D01*
X115071428Y-109760000D01*
X115119047Y-109807619D01*
X115166666Y-109902857D01*
X115166666Y-109998095D01*
X115119047Y-110140952D01*
X114547619Y-110712380D01*
X115166666Y-110712380D01*
G04 #@! TO.C,J3*
X63582380Y-22333333D02*
X64296666Y-22333333D01*
X64439523Y-22380952D01*
X64534761Y-22476190D01*
X64582380Y-22619047D01*
X64582380Y-22714285D01*
X63582380Y-21952380D02*
X63582380Y-21333333D01*
X63963333Y-21666666D01*
X63963333Y-21523809D01*
X64010952Y-21428571D01*
X64058571Y-21380952D01*
X64153809Y-21333333D01*
X64391904Y-21333333D01*
X64487142Y-21380952D01*
X64534761Y-21428571D01*
X64582380Y-21523809D01*
X64582380Y-21809523D01*
X64534761Y-21904761D01*
X64487142Y-21952380D01*
G04 #@! TO.C,J4*
X74786666Y-32582380D02*
X74786666Y-33296666D01*
X74739047Y-33439523D01*
X74643809Y-33534761D01*
X74500952Y-33582380D01*
X74405714Y-33582380D01*
X75691428Y-32915714D02*
X75691428Y-33582380D01*
X75453333Y-32534761D02*
X75215238Y-33249047D01*
X75834285Y-33249047D01*
G04 #@! TO.C,J5*
X72246666Y-32582380D02*
X72246666Y-33296666D01*
X72199047Y-33439523D01*
X72103809Y-33534761D01*
X71960952Y-33582380D01*
X71865714Y-33582380D01*
X73199047Y-32582380D02*
X72722857Y-32582380D01*
X72675238Y-33058571D01*
X72722857Y-33010952D01*
X72818095Y-32963333D01*
X73056190Y-32963333D01*
X73151428Y-33010952D01*
X73199047Y-33058571D01*
X73246666Y-33153809D01*
X73246666Y-33391904D01*
X73199047Y-33487142D01*
X73151428Y-33534761D01*
X73056190Y-33582380D01*
X72818095Y-33582380D01*
X72722857Y-33534761D01*
X72675238Y-33487142D01*
G04 #@! TO.C,J6*
X69706666Y-32582380D02*
X69706666Y-33296666D01*
X69659047Y-33439523D01*
X69563809Y-33534761D01*
X69420952Y-33582380D01*
X69325714Y-33582380D01*
X70611428Y-32582380D02*
X70420952Y-32582380D01*
X70325714Y-32630000D01*
X70278095Y-32677619D01*
X70182857Y-32820476D01*
X70135238Y-33010952D01*
X70135238Y-33391904D01*
X70182857Y-33487142D01*
X70230476Y-33534761D01*
X70325714Y-33582380D01*
X70516190Y-33582380D01*
X70611428Y-33534761D01*
X70659047Y-33487142D01*
X70706666Y-33391904D01*
X70706666Y-33153809D01*
X70659047Y-33058571D01*
X70611428Y-33010952D01*
X70516190Y-32963333D01*
X70325714Y-32963333D01*
X70230476Y-33010952D01*
X70182857Y-33058571D01*
X70135238Y-33153809D01*
G04 #@! TO.C,J7*
X31466666Y-22652380D02*
X31466666Y-23366666D01*
X31419047Y-23509523D01*
X31323809Y-23604761D01*
X31180952Y-23652380D01*
X31085714Y-23652380D01*
X31847619Y-22652380D02*
X32514285Y-22652380D01*
X32085714Y-23652380D01*
G04 #@! TO.C,Q12*
X99747619Y-103671428D02*
X99700000Y-103766666D01*
X99604761Y-103861904D01*
X99461904Y-104004761D01*
X99414285Y-104100000D01*
X99414285Y-104195238D01*
X99652380Y-104147619D02*
X99604761Y-104242857D01*
X99509523Y-104338095D01*
X99319047Y-104385714D01*
X98985714Y-104385714D01*
X98795238Y-104338095D01*
X98700000Y-104242857D01*
X98652380Y-104147619D01*
X98652380Y-103957142D01*
X98700000Y-103861904D01*
X98795238Y-103766666D01*
X98985714Y-103719047D01*
X99319047Y-103719047D01*
X99509523Y-103766666D01*
X99604761Y-103861904D01*
X99652380Y-103957142D01*
X99652380Y-104147619D01*
X99652380Y-102766666D02*
X99652380Y-103338095D01*
X99652380Y-103052380D02*
X98652380Y-103052380D01*
X98795238Y-103147619D01*
X98890476Y-103242857D01*
X98938095Y-103338095D01*
X98747619Y-102385714D02*
X98700000Y-102338095D01*
X98652380Y-102242857D01*
X98652380Y-102004761D01*
X98700000Y-101909523D01*
X98747619Y-101861904D01*
X98842857Y-101814285D01*
X98938095Y-101814285D01*
X99080952Y-101861904D01*
X99652380Y-102433333D01*
X99652380Y-101814285D01*
G04 #@! TO.C,Q14*
X69747619Y-103671428D02*
X69700000Y-103766666D01*
X69604761Y-103861904D01*
X69461904Y-104004761D01*
X69414285Y-104100000D01*
X69414285Y-104195238D01*
X69652380Y-104147619D02*
X69604761Y-104242857D01*
X69509523Y-104338095D01*
X69319047Y-104385714D01*
X68985714Y-104385714D01*
X68795238Y-104338095D01*
X68700000Y-104242857D01*
X68652380Y-104147619D01*
X68652380Y-103957142D01*
X68700000Y-103861904D01*
X68795238Y-103766666D01*
X68985714Y-103719047D01*
X69319047Y-103719047D01*
X69509523Y-103766666D01*
X69604761Y-103861904D01*
X69652380Y-103957142D01*
X69652380Y-104147619D01*
X69652380Y-102766666D02*
X69652380Y-103338095D01*
X69652380Y-103052380D02*
X68652380Y-103052380D01*
X68795238Y-103147619D01*
X68890476Y-103242857D01*
X68938095Y-103338095D01*
X68985714Y-101909523D02*
X69652380Y-101909523D01*
X68604761Y-102147619D02*
X69319047Y-102385714D01*
X69319047Y-101766666D01*
G04 #@! TO.C,Q10*
X84947619Y-88271428D02*
X84900000Y-88366666D01*
X84804761Y-88461904D01*
X84661904Y-88604761D01*
X84614285Y-88700000D01*
X84614285Y-88795238D01*
X84852380Y-88747619D02*
X84804761Y-88842857D01*
X84709523Y-88938095D01*
X84519047Y-88985714D01*
X84185714Y-88985714D01*
X83995238Y-88938095D01*
X83900000Y-88842857D01*
X83852380Y-88747619D01*
X83852380Y-88557142D01*
X83900000Y-88461904D01*
X83995238Y-88366666D01*
X84185714Y-88319047D01*
X84519047Y-88319047D01*
X84709523Y-88366666D01*
X84804761Y-88461904D01*
X84852380Y-88557142D01*
X84852380Y-88747619D01*
X84852380Y-87366666D02*
X84852380Y-87938095D01*
X84852380Y-87652380D02*
X83852380Y-87652380D01*
X83995238Y-87747619D01*
X84090476Y-87842857D01*
X84138095Y-87938095D01*
X83852380Y-86747619D02*
X83852380Y-86652380D01*
X83900000Y-86557142D01*
X83947619Y-86509523D01*
X84042857Y-86461904D01*
X84233333Y-86414285D01*
X84471428Y-86414285D01*
X84661904Y-86461904D01*
X84757142Y-86509523D01*
X84804761Y-86557142D01*
X84852380Y-86652380D01*
X84852380Y-86747619D01*
X84804761Y-86842857D01*
X84757142Y-86890476D01*
X84661904Y-86938095D01*
X84471428Y-86985714D01*
X84233333Y-86985714D01*
X84042857Y-86938095D01*
X83947619Y-86890476D01*
X83900000Y-86842857D01*
X83852380Y-86747619D01*
G04 #@! TO.C,Q4*
X84747619Y-59295238D02*
X84700000Y-59390476D01*
X84604761Y-59485714D01*
X84461904Y-59628571D01*
X84414285Y-59723809D01*
X84414285Y-59819047D01*
X84652380Y-59771428D02*
X84604761Y-59866666D01*
X84509523Y-59961904D01*
X84319047Y-60009523D01*
X83985714Y-60009523D01*
X83795238Y-59961904D01*
X83700000Y-59866666D01*
X83652380Y-59771428D01*
X83652380Y-59580952D01*
X83700000Y-59485714D01*
X83795238Y-59390476D01*
X83985714Y-59342857D01*
X84319047Y-59342857D01*
X84509523Y-59390476D01*
X84604761Y-59485714D01*
X84652380Y-59580952D01*
X84652380Y-59771428D01*
X83985714Y-58485714D02*
X84652380Y-58485714D01*
X83604761Y-58723809D02*
X84319047Y-58961904D01*
X84319047Y-58342857D01*
G04 #@! TO.C,Q6*
X99847619Y-73395238D02*
X99800000Y-73490476D01*
X99704761Y-73585714D01*
X99561904Y-73728571D01*
X99514285Y-73823809D01*
X99514285Y-73919047D01*
X99752380Y-73871428D02*
X99704761Y-73966666D01*
X99609523Y-74061904D01*
X99419047Y-74109523D01*
X99085714Y-74109523D01*
X98895238Y-74061904D01*
X98800000Y-73966666D01*
X98752380Y-73871428D01*
X98752380Y-73680952D01*
X98800000Y-73585714D01*
X98895238Y-73490476D01*
X99085714Y-73442857D01*
X99419047Y-73442857D01*
X99609523Y-73490476D01*
X99704761Y-73585714D01*
X99752380Y-73680952D01*
X99752380Y-73871428D01*
X98752380Y-72585714D02*
X98752380Y-72776190D01*
X98800000Y-72871428D01*
X98847619Y-72919047D01*
X98990476Y-73014285D01*
X99180952Y-73061904D01*
X99561904Y-73061904D01*
X99657142Y-73014285D01*
X99704761Y-72966666D01*
X99752380Y-72871428D01*
X99752380Y-72680952D01*
X99704761Y-72585714D01*
X99657142Y-72538095D01*
X99561904Y-72490476D01*
X99323809Y-72490476D01*
X99228571Y-72538095D01*
X99180952Y-72585714D01*
X99133333Y-72680952D01*
X99133333Y-72871428D01*
X99180952Y-72966666D01*
X99228571Y-73014285D01*
X99323809Y-73061904D01*
G04 #@! TO.C,Q8*
X69547619Y-73295238D02*
X69500000Y-73390476D01*
X69404761Y-73485714D01*
X69261904Y-73628571D01*
X69214285Y-73723809D01*
X69214285Y-73819047D01*
X69452380Y-73771428D02*
X69404761Y-73866666D01*
X69309523Y-73961904D01*
X69119047Y-74009523D01*
X68785714Y-74009523D01*
X68595238Y-73961904D01*
X68500000Y-73866666D01*
X68452380Y-73771428D01*
X68452380Y-73580952D01*
X68500000Y-73485714D01*
X68595238Y-73390476D01*
X68785714Y-73342857D01*
X69119047Y-73342857D01*
X69309523Y-73390476D01*
X69404761Y-73485714D01*
X69452380Y-73580952D01*
X69452380Y-73771428D01*
X68880952Y-72771428D02*
X68833333Y-72866666D01*
X68785714Y-72914285D01*
X68690476Y-72961904D01*
X68642857Y-72961904D01*
X68547619Y-72914285D01*
X68500000Y-72866666D01*
X68452380Y-72771428D01*
X68452380Y-72580952D01*
X68500000Y-72485714D01*
X68547619Y-72438095D01*
X68642857Y-72390476D01*
X68690476Y-72390476D01*
X68785714Y-72438095D01*
X68833333Y-72485714D01*
X68880952Y-72580952D01*
X68880952Y-72771428D01*
X68928571Y-72866666D01*
X68976190Y-72914285D01*
X69071428Y-72961904D01*
X69261904Y-72961904D01*
X69357142Y-72914285D01*
X69404761Y-72866666D01*
X69452380Y-72771428D01*
X69452380Y-72580952D01*
X69404761Y-72485714D01*
X69357142Y-72438095D01*
X69261904Y-72390476D01*
X69071428Y-72390476D01*
X68976190Y-72438095D01*
X68928571Y-72485714D01*
X68880952Y-72580952D01*
G04 #@! TO.C,Q2*
X112947619Y-54395238D02*
X112900000Y-54490476D01*
X112804761Y-54585714D01*
X112661904Y-54728571D01*
X112614285Y-54823809D01*
X112614285Y-54919047D01*
X112852380Y-54871428D02*
X112804761Y-54966666D01*
X112709523Y-55061904D01*
X112519047Y-55109523D01*
X112185714Y-55109523D01*
X111995238Y-55061904D01*
X111900000Y-54966666D01*
X111852380Y-54871428D01*
X111852380Y-54680952D01*
X111900000Y-54585714D01*
X111995238Y-54490476D01*
X112185714Y-54442857D01*
X112519047Y-54442857D01*
X112709523Y-54490476D01*
X112804761Y-54585714D01*
X112852380Y-54680952D01*
X112852380Y-54871428D01*
X111947619Y-54061904D02*
X111900000Y-54014285D01*
X111852380Y-53919047D01*
X111852380Y-53680952D01*
X111900000Y-53585714D01*
X111947619Y-53538095D01*
X112042857Y-53490476D01*
X112138095Y-53490476D01*
X112280952Y-53538095D01*
X112852380Y-54109523D01*
X112852380Y-53490476D01*
G04 #@! TO.C,Q11*
X69547619Y-88571428D02*
X69500000Y-88666666D01*
X69404761Y-88761904D01*
X69261904Y-88904761D01*
X69214285Y-89000000D01*
X69214285Y-89095238D01*
X69452380Y-89047619D02*
X69404761Y-89142857D01*
X69309523Y-89238095D01*
X69119047Y-89285714D01*
X68785714Y-89285714D01*
X68595238Y-89238095D01*
X68500000Y-89142857D01*
X68452380Y-89047619D01*
X68452380Y-88857142D01*
X68500000Y-88761904D01*
X68595238Y-88666666D01*
X68785714Y-88619047D01*
X69119047Y-88619047D01*
X69309523Y-88666666D01*
X69404761Y-88761904D01*
X69452380Y-88857142D01*
X69452380Y-89047619D01*
X69452380Y-87666666D02*
X69452380Y-88238095D01*
X69452380Y-87952380D02*
X68452380Y-87952380D01*
X68595238Y-88047619D01*
X68690476Y-88142857D01*
X68738095Y-88238095D01*
X69452380Y-86714285D02*
X69452380Y-87285714D01*
X69452380Y-87000000D02*
X68452380Y-87000000D01*
X68595238Y-87095238D01*
X68690476Y-87190476D01*
X68738095Y-87285714D01*
G04 #@! TO.C,Q13*
X84547619Y-103571428D02*
X84500000Y-103666666D01*
X84404761Y-103761904D01*
X84261904Y-103904761D01*
X84214285Y-104000000D01*
X84214285Y-104095238D01*
X84452380Y-104047619D02*
X84404761Y-104142857D01*
X84309523Y-104238095D01*
X84119047Y-104285714D01*
X83785714Y-104285714D01*
X83595238Y-104238095D01*
X83500000Y-104142857D01*
X83452380Y-104047619D01*
X83452380Y-103857142D01*
X83500000Y-103761904D01*
X83595238Y-103666666D01*
X83785714Y-103619047D01*
X84119047Y-103619047D01*
X84309523Y-103666666D01*
X84404761Y-103761904D01*
X84452380Y-103857142D01*
X84452380Y-104047619D01*
X84452380Y-102666666D02*
X84452380Y-103238095D01*
X84452380Y-102952380D02*
X83452380Y-102952380D01*
X83595238Y-103047619D01*
X83690476Y-103142857D01*
X83738095Y-103238095D01*
X83452380Y-102333333D02*
X83452380Y-101714285D01*
X83833333Y-102047619D01*
X83833333Y-101904761D01*
X83880952Y-101809523D01*
X83928571Y-101761904D01*
X84023809Y-101714285D01*
X84261904Y-101714285D01*
X84357142Y-101761904D01*
X84404761Y-101809523D01*
X84452380Y-101904761D01*
X84452380Y-102190476D01*
X84404761Y-102285714D01*
X84357142Y-102333333D01*
G04 #@! TO.C,Q9*
X99647619Y-88095238D02*
X99600000Y-88190476D01*
X99504761Y-88285714D01*
X99361904Y-88428571D01*
X99314285Y-88523809D01*
X99314285Y-88619047D01*
X99552380Y-88571428D02*
X99504761Y-88666666D01*
X99409523Y-88761904D01*
X99219047Y-88809523D01*
X98885714Y-88809523D01*
X98695238Y-88761904D01*
X98600000Y-88666666D01*
X98552380Y-88571428D01*
X98552380Y-88380952D01*
X98600000Y-88285714D01*
X98695238Y-88190476D01*
X98885714Y-88142857D01*
X99219047Y-88142857D01*
X99409523Y-88190476D01*
X99504761Y-88285714D01*
X99552380Y-88380952D01*
X99552380Y-88571428D01*
X99552380Y-87666666D02*
X99552380Y-87476190D01*
X99504761Y-87380952D01*
X99457142Y-87333333D01*
X99314285Y-87238095D01*
X99123809Y-87190476D01*
X98742857Y-87190476D01*
X98647619Y-87238095D01*
X98600000Y-87285714D01*
X98552380Y-87380952D01*
X98552380Y-87571428D01*
X98600000Y-87666666D01*
X98647619Y-87714285D01*
X98742857Y-87761904D01*
X98980952Y-87761904D01*
X99076190Y-87714285D01*
X99123809Y-87666666D01*
X99171428Y-87571428D01*
X99171428Y-87380952D01*
X99123809Y-87285714D01*
X99076190Y-87238095D01*
X98980952Y-87190476D01*
G04 #@! TO.C,Q3*
X99647619Y-59295238D02*
X99600000Y-59390476D01*
X99504761Y-59485714D01*
X99361904Y-59628571D01*
X99314285Y-59723809D01*
X99314285Y-59819047D01*
X99552380Y-59771428D02*
X99504761Y-59866666D01*
X99409523Y-59961904D01*
X99219047Y-60009523D01*
X98885714Y-60009523D01*
X98695238Y-59961904D01*
X98600000Y-59866666D01*
X98552380Y-59771428D01*
X98552380Y-59580952D01*
X98600000Y-59485714D01*
X98695238Y-59390476D01*
X98885714Y-59342857D01*
X99219047Y-59342857D01*
X99409523Y-59390476D01*
X99504761Y-59485714D01*
X99552380Y-59580952D01*
X99552380Y-59771428D01*
X98552380Y-59009523D02*
X98552380Y-58390476D01*
X98933333Y-58723809D01*
X98933333Y-58580952D01*
X98980952Y-58485714D01*
X99028571Y-58438095D01*
X99123809Y-58390476D01*
X99361904Y-58390476D01*
X99457142Y-58438095D01*
X99504761Y-58485714D01*
X99552380Y-58580952D01*
X99552380Y-58866666D01*
X99504761Y-58961904D01*
X99457142Y-59009523D01*
G04 #@! TO.C,Q5*
X69447619Y-59095238D02*
X69400000Y-59190476D01*
X69304761Y-59285714D01*
X69161904Y-59428571D01*
X69114285Y-59523809D01*
X69114285Y-59619047D01*
X69352380Y-59571428D02*
X69304761Y-59666666D01*
X69209523Y-59761904D01*
X69019047Y-59809523D01*
X68685714Y-59809523D01*
X68495238Y-59761904D01*
X68400000Y-59666666D01*
X68352380Y-59571428D01*
X68352380Y-59380952D01*
X68400000Y-59285714D01*
X68495238Y-59190476D01*
X68685714Y-59142857D01*
X69019047Y-59142857D01*
X69209523Y-59190476D01*
X69304761Y-59285714D01*
X69352380Y-59380952D01*
X69352380Y-59571428D01*
X68352380Y-58238095D02*
X68352380Y-58714285D01*
X68828571Y-58761904D01*
X68780952Y-58714285D01*
X68733333Y-58619047D01*
X68733333Y-58380952D01*
X68780952Y-58285714D01*
X68828571Y-58238095D01*
X68923809Y-58190476D01*
X69161904Y-58190476D01*
X69257142Y-58238095D01*
X69304761Y-58285714D01*
X69352380Y-58380952D01*
X69352380Y-58619047D01*
X69304761Y-58714285D01*
X69257142Y-58761904D01*
G04 #@! TO.C,Q7*
X84647619Y-73395238D02*
X84600000Y-73490476D01*
X84504761Y-73585714D01*
X84361904Y-73728571D01*
X84314285Y-73823809D01*
X84314285Y-73919047D01*
X84552380Y-73871428D02*
X84504761Y-73966666D01*
X84409523Y-74061904D01*
X84219047Y-74109523D01*
X83885714Y-74109523D01*
X83695238Y-74061904D01*
X83600000Y-73966666D01*
X83552380Y-73871428D01*
X83552380Y-73680952D01*
X83600000Y-73585714D01*
X83695238Y-73490476D01*
X83885714Y-73442857D01*
X84219047Y-73442857D01*
X84409523Y-73490476D01*
X84504761Y-73585714D01*
X84552380Y-73680952D01*
X84552380Y-73871428D01*
X83552380Y-73109523D02*
X83552380Y-72442857D01*
X84552380Y-72871428D01*
G04 #@! TO.C,Q1*
X112647619Y-40295238D02*
X112600000Y-40390476D01*
X112504761Y-40485714D01*
X112361904Y-40628571D01*
X112314285Y-40723809D01*
X112314285Y-40819047D01*
X112552380Y-40771428D02*
X112504761Y-40866666D01*
X112409523Y-40961904D01*
X112219047Y-41009523D01*
X111885714Y-41009523D01*
X111695238Y-40961904D01*
X111600000Y-40866666D01*
X111552380Y-40771428D01*
X111552380Y-40580952D01*
X111600000Y-40485714D01*
X111695238Y-40390476D01*
X111885714Y-40342857D01*
X112219047Y-40342857D01*
X112409523Y-40390476D01*
X112504761Y-40485714D01*
X112552380Y-40580952D01*
X112552380Y-40771428D01*
X112552380Y-39390476D02*
X112552380Y-39961904D01*
X112552380Y-39676190D02*
X111552380Y-39676190D01*
X111695238Y-39771428D01*
X111790476Y-39866666D01*
X111838095Y-39961904D01*
G04 #@! TO.C,Q15*
X84147619Y-40871428D02*
X84100000Y-40966666D01*
X84004761Y-41061904D01*
X83861904Y-41204761D01*
X83814285Y-41300000D01*
X83814285Y-41395238D01*
X84052380Y-41347619D02*
X84004761Y-41442857D01*
X83909523Y-41538095D01*
X83719047Y-41585714D01*
X83385714Y-41585714D01*
X83195238Y-41538095D01*
X83100000Y-41442857D01*
X83052380Y-41347619D01*
X83052380Y-41157142D01*
X83100000Y-41061904D01*
X83195238Y-40966666D01*
X83385714Y-40919047D01*
X83719047Y-40919047D01*
X83909523Y-40966666D01*
X84004761Y-41061904D01*
X84052380Y-41157142D01*
X84052380Y-41347619D01*
X84052380Y-39966666D02*
X84052380Y-40538095D01*
X84052380Y-40252380D02*
X83052380Y-40252380D01*
X83195238Y-40347619D01*
X83290476Y-40442857D01*
X83338095Y-40538095D01*
X83052380Y-39061904D02*
X83052380Y-39538095D01*
X83528571Y-39585714D01*
X83480952Y-39538095D01*
X83433333Y-39442857D01*
X83433333Y-39204761D01*
X83480952Y-39109523D01*
X83528571Y-39061904D01*
X83623809Y-39014285D01*
X83861904Y-39014285D01*
X83957142Y-39061904D01*
X84004761Y-39109523D01*
X84052380Y-39204761D01*
X84052380Y-39442857D01*
X84004761Y-39538095D01*
X83957142Y-39585714D01*
G04 #@! TO.C,R26*
X96569642Y-96652380D02*
X96236309Y-96176190D01*
X95998214Y-96652380D02*
X95998214Y-95652380D01*
X96379166Y-95652380D01*
X96474404Y-95700000D01*
X96522023Y-95747619D01*
X96569642Y-95842857D01*
X96569642Y-95985714D01*
X96522023Y-96080952D01*
X96474404Y-96128571D01*
X96379166Y-96176190D01*
X95998214Y-96176190D01*
X96950595Y-95747619D02*
X96998214Y-95700000D01*
X97093452Y-95652380D01*
X97331547Y-95652380D01*
X97426785Y-95700000D01*
X97474404Y-95747619D01*
X97522023Y-95842857D01*
X97522023Y-95938095D01*
X97474404Y-96080952D01*
X96902976Y-96652380D01*
X97522023Y-96652380D01*
X98379166Y-95652380D02*
X98188690Y-95652380D01*
X98093452Y-95700000D01*
X98045833Y-95747619D01*
X97950595Y-95890476D01*
X97902976Y-96080952D01*
X97902976Y-96461904D01*
X97950595Y-96557142D01*
X97998214Y-96604761D01*
X98093452Y-96652380D01*
X98283928Y-96652380D01*
X98379166Y-96604761D01*
X98426785Y-96557142D01*
X98474404Y-96461904D01*
X98474404Y-96223809D01*
X98426785Y-96128571D01*
X98379166Y-96080952D01*
X98283928Y-96033333D01*
X98093452Y-96033333D01*
X97998214Y-96080952D01*
X97950595Y-96128571D01*
X97902976Y-96223809D01*
G04 #@! TO.C,R28*
X65257142Y-97852380D02*
X64923809Y-97376190D01*
X64685714Y-97852380D02*
X64685714Y-96852380D01*
X65066666Y-96852380D01*
X65161904Y-96900000D01*
X65209523Y-96947619D01*
X65257142Y-97042857D01*
X65257142Y-97185714D01*
X65209523Y-97280952D01*
X65161904Y-97328571D01*
X65066666Y-97376190D01*
X64685714Y-97376190D01*
X65638095Y-96947619D02*
X65685714Y-96900000D01*
X65780952Y-96852380D01*
X66019047Y-96852380D01*
X66114285Y-96900000D01*
X66161904Y-96947619D01*
X66209523Y-97042857D01*
X66209523Y-97138095D01*
X66161904Y-97280952D01*
X65590476Y-97852380D01*
X66209523Y-97852380D01*
X66780952Y-97280952D02*
X66685714Y-97233333D01*
X66638095Y-97185714D01*
X66590476Y-97090476D01*
X66590476Y-97042857D01*
X66638095Y-96947619D01*
X66685714Y-96900000D01*
X66780952Y-96852380D01*
X66971428Y-96852380D01*
X67066666Y-96900000D01*
X67114285Y-96947619D01*
X67161904Y-97042857D01*
X67161904Y-97090476D01*
X67114285Y-97185714D01*
X67066666Y-97233333D01*
X66971428Y-97280952D01*
X66780952Y-97280952D01*
X66685714Y-97328571D01*
X66638095Y-97376190D01*
X66590476Y-97471428D01*
X66590476Y-97661904D01*
X66638095Y-97757142D01*
X66685714Y-97804761D01*
X66780952Y-97852380D01*
X66971428Y-97852380D01*
X67066666Y-97804761D01*
X67114285Y-97757142D01*
X67161904Y-97661904D01*
X67161904Y-97471428D01*
X67114285Y-97376190D01*
X67066666Y-97328571D01*
X66971428Y-97280952D01*
G04 #@! TO.C,R24*
X81657142Y-81152380D02*
X81323809Y-80676190D01*
X81085714Y-81152380D02*
X81085714Y-80152380D01*
X81466666Y-80152380D01*
X81561904Y-80200000D01*
X81609523Y-80247619D01*
X81657142Y-80342857D01*
X81657142Y-80485714D01*
X81609523Y-80580952D01*
X81561904Y-80628571D01*
X81466666Y-80676190D01*
X81085714Y-80676190D01*
X82038095Y-80247619D02*
X82085714Y-80200000D01*
X82180952Y-80152380D01*
X82419047Y-80152380D01*
X82514285Y-80200000D01*
X82561904Y-80247619D01*
X82609523Y-80342857D01*
X82609523Y-80438095D01*
X82561904Y-80580952D01*
X81990476Y-81152380D01*
X82609523Y-81152380D01*
X83466666Y-80485714D02*
X83466666Y-81152380D01*
X83228571Y-80104761D02*
X82990476Y-80819047D01*
X83609523Y-80819047D01*
G04 #@! TO.C,R18*
X81569642Y-53022380D02*
X81236309Y-52546190D01*
X80998214Y-53022380D02*
X80998214Y-52022380D01*
X81379166Y-52022380D01*
X81474404Y-52070000D01*
X81522023Y-52117619D01*
X81569642Y-52212857D01*
X81569642Y-52355714D01*
X81522023Y-52450952D01*
X81474404Y-52498571D01*
X81379166Y-52546190D01*
X80998214Y-52546190D01*
X82522023Y-53022380D02*
X81950595Y-53022380D01*
X82236309Y-53022380D02*
X82236309Y-52022380D01*
X82141071Y-52165238D01*
X82045833Y-52260476D01*
X81950595Y-52308095D01*
X83093452Y-52450952D02*
X82998214Y-52403333D01*
X82950595Y-52355714D01*
X82902976Y-52260476D01*
X82902976Y-52212857D01*
X82950595Y-52117619D01*
X82998214Y-52070000D01*
X83093452Y-52022380D01*
X83283928Y-52022380D01*
X83379166Y-52070000D01*
X83426785Y-52117619D01*
X83474404Y-52212857D01*
X83474404Y-52260476D01*
X83426785Y-52355714D01*
X83379166Y-52403333D01*
X83283928Y-52450952D01*
X83093452Y-52450952D01*
X82998214Y-52498571D01*
X82950595Y-52546190D01*
X82902976Y-52641428D01*
X82902976Y-52831904D01*
X82950595Y-52927142D01*
X82998214Y-52974761D01*
X83093452Y-53022380D01*
X83283928Y-53022380D01*
X83379166Y-52974761D01*
X83426785Y-52927142D01*
X83474404Y-52831904D01*
X83474404Y-52641428D01*
X83426785Y-52546190D01*
X83379166Y-52498571D01*
X83283928Y-52450952D01*
G04 #@! TO.C,R20*
X96557142Y-66852380D02*
X96223809Y-66376190D01*
X95985714Y-66852380D02*
X95985714Y-65852380D01*
X96366666Y-65852380D01*
X96461904Y-65900000D01*
X96509523Y-65947619D01*
X96557142Y-66042857D01*
X96557142Y-66185714D01*
X96509523Y-66280952D01*
X96461904Y-66328571D01*
X96366666Y-66376190D01*
X95985714Y-66376190D01*
X96938095Y-65947619D02*
X96985714Y-65900000D01*
X97080952Y-65852380D01*
X97319047Y-65852380D01*
X97414285Y-65900000D01*
X97461904Y-65947619D01*
X97509523Y-66042857D01*
X97509523Y-66138095D01*
X97461904Y-66280952D01*
X96890476Y-66852380D01*
X97509523Y-66852380D01*
X98128571Y-65852380D02*
X98223809Y-65852380D01*
X98319047Y-65900000D01*
X98366666Y-65947619D01*
X98414285Y-66042857D01*
X98461904Y-66233333D01*
X98461904Y-66471428D01*
X98414285Y-66661904D01*
X98366666Y-66757142D01*
X98319047Y-66804761D01*
X98223809Y-66852380D01*
X98128571Y-66852380D01*
X98033333Y-66804761D01*
X97985714Y-66757142D01*
X97938095Y-66661904D01*
X97890476Y-66471428D01*
X97890476Y-66233333D01*
X97938095Y-66042857D01*
X97985714Y-65947619D01*
X98033333Y-65900000D01*
X98128571Y-65852380D01*
G04 #@! TO.C,R22*
X63357142Y-68452380D02*
X63023809Y-67976190D01*
X62785714Y-68452380D02*
X62785714Y-67452380D01*
X63166666Y-67452380D01*
X63261904Y-67500000D01*
X63309523Y-67547619D01*
X63357142Y-67642857D01*
X63357142Y-67785714D01*
X63309523Y-67880952D01*
X63261904Y-67928571D01*
X63166666Y-67976190D01*
X62785714Y-67976190D01*
X63738095Y-67547619D02*
X63785714Y-67500000D01*
X63880952Y-67452380D01*
X64119047Y-67452380D01*
X64214285Y-67500000D01*
X64261904Y-67547619D01*
X64309523Y-67642857D01*
X64309523Y-67738095D01*
X64261904Y-67880952D01*
X63690476Y-68452380D01*
X64309523Y-68452380D01*
X64690476Y-67547619D02*
X64738095Y-67500000D01*
X64833333Y-67452380D01*
X65071428Y-67452380D01*
X65166666Y-67500000D01*
X65214285Y-67547619D01*
X65261904Y-67642857D01*
X65261904Y-67738095D01*
X65214285Y-67880952D01*
X64642857Y-68452380D01*
X65261904Y-68452380D01*
G04 #@! TO.C,R16*
X106457142Y-49452380D02*
X106123809Y-48976190D01*
X105885714Y-49452380D02*
X105885714Y-48452380D01*
X106266666Y-48452380D01*
X106361904Y-48500000D01*
X106409523Y-48547619D01*
X106457142Y-48642857D01*
X106457142Y-48785714D01*
X106409523Y-48880952D01*
X106361904Y-48928571D01*
X106266666Y-48976190D01*
X105885714Y-48976190D01*
X107409523Y-49452380D02*
X106838095Y-49452380D01*
X107123809Y-49452380D02*
X107123809Y-48452380D01*
X107028571Y-48595238D01*
X106933333Y-48690476D01*
X106838095Y-48738095D01*
X108266666Y-48452380D02*
X108076190Y-48452380D01*
X107980952Y-48500000D01*
X107933333Y-48547619D01*
X107838095Y-48690476D01*
X107790476Y-48880952D01*
X107790476Y-49261904D01*
X107838095Y-49357142D01*
X107885714Y-49404761D01*
X107980952Y-49452380D01*
X108171428Y-49452380D01*
X108266666Y-49404761D01*
X108314285Y-49357142D01*
X108361904Y-49261904D01*
X108361904Y-49023809D01*
X108314285Y-48928571D01*
X108266666Y-48880952D01*
X108171428Y-48833333D01*
X107980952Y-48833333D01*
X107885714Y-48880952D01*
X107838095Y-48928571D01*
X107790476Y-49023809D01*
G04 #@! TO.C,R25*
X65157142Y-81452380D02*
X64823809Y-80976190D01*
X64585714Y-81452380D02*
X64585714Y-80452380D01*
X64966666Y-80452380D01*
X65061904Y-80500000D01*
X65109523Y-80547619D01*
X65157142Y-80642857D01*
X65157142Y-80785714D01*
X65109523Y-80880952D01*
X65061904Y-80928571D01*
X64966666Y-80976190D01*
X64585714Y-80976190D01*
X65538095Y-80547619D02*
X65585714Y-80500000D01*
X65680952Y-80452380D01*
X65919047Y-80452380D01*
X66014285Y-80500000D01*
X66061904Y-80547619D01*
X66109523Y-80642857D01*
X66109523Y-80738095D01*
X66061904Y-80880952D01*
X65490476Y-81452380D01*
X66109523Y-81452380D01*
X67014285Y-80452380D02*
X66538095Y-80452380D01*
X66490476Y-80928571D01*
X66538095Y-80880952D01*
X66633333Y-80833333D01*
X66871428Y-80833333D01*
X66966666Y-80880952D01*
X67014285Y-80928571D01*
X67061904Y-81023809D01*
X67061904Y-81261904D01*
X67014285Y-81357142D01*
X66966666Y-81404761D01*
X66871428Y-81452380D01*
X66633333Y-81452380D01*
X66538095Y-81404761D01*
X66490476Y-81357142D01*
G04 #@! TO.C,R27*
X81569642Y-96152380D02*
X81236309Y-95676190D01*
X80998214Y-96152380D02*
X80998214Y-95152380D01*
X81379166Y-95152380D01*
X81474404Y-95200000D01*
X81522023Y-95247619D01*
X81569642Y-95342857D01*
X81569642Y-95485714D01*
X81522023Y-95580952D01*
X81474404Y-95628571D01*
X81379166Y-95676190D01*
X80998214Y-95676190D01*
X81950595Y-95247619D02*
X81998214Y-95200000D01*
X82093452Y-95152380D01*
X82331547Y-95152380D01*
X82426785Y-95200000D01*
X82474404Y-95247619D01*
X82522023Y-95342857D01*
X82522023Y-95438095D01*
X82474404Y-95580952D01*
X81902976Y-96152380D01*
X82522023Y-96152380D01*
X82855357Y-95152380D02*
X83522023Y-95152380D01*
X83093452Y-96152380D01*
G04 #@! TO.C,R23*
X96569642Y-82022380D02*
X96236309Y-81546190D01*
X95998214Y-82022380D02*
X95998214Y-81022380D01*
X96379166Y-81022380D01*
X96474404Y-81070000D01*
X96522023Y-81117619D01*
X96569642Y-81212857D01*
X96569642Y-81355714D01*
X96522023Y-81450952D01*
X96474404Y-81498571D01*
X96379166Y-81546190D01*
X95998214Y-81546190D01*
X96950595Y-81117619D02*
X96998214Y-81070000D01*
X97093452Y-81022380D01*
X97331547Y-81022380D01*
X97426785Y-81070000D01*
X97474404Y-81117619D01*
X97522023Y-81212857D01*
X97522023Y-81308095D01*
X97474404Y-81450952D01*
X96902976Y-82022380D01*
X97522023Y-82022380D01*
X97855357Y-81022380D02*
X98474404Y-81022380D01*
X98141071Y-81403333D01*
X98283928Y-81403333D01*
X98379166Y-81450952D01*
X98426785Y-81498571D01*
X98474404Y-81593809D01*
X98474404Y-81831904D01*
X98426785Y-81927142D01*
X98379166Y-81974761D01*
X98283928Y-82022380D01*
X97998214Y-82022380D01*
X97902976Y-81974761D01*
X97855357Y-81927142D01*
G04 #@! TO.C,R17*
X96569642Y-53022380D02*
X96236309Y-52546190D01*
X95998214Y-53022380D02*
X95998214Y-52022380D01*
X96379166Y-52022380D01*
X96474404Y-52070000D01*
X96522023Y-52117619D01*
X96569642Y-52212857D01*
X96569642Y-52355714D01*
X96522023Y-52450952D01*
X96474404Y-52498571D01*
X96379166Y-52546190D01*
X95998214Y-52546190D01*
X97522023Y-53022380D02*
X96950595Y-53022380D01*
X97236309Y-53022380D02*
X97236309Y-52022380D01*
X97141071Y-52165238D01*
X97045833Y-52260476D01*
X96950595Y-52308095D01*
X97855357Y-52022380D02*
X98522023Y-52022380D01*
X98093452Y-53022380D01*
G04 #@! TO.C,R19*
X66257142Y-52352380D02*
X65923809Y-51876190D01*
X65685714Y-52352380D02*
X65685714Y-51352380D01*
X66066666Y-51352380D01*
X66161904Y-51400000D01*
X66209523Y-51447619D01*
X66257142Y-51542857D01*
X66257142Y-51685714D01*
X66209523Y-51780952D01*
X66161904Y-51828571D01*
X66066666Y-51876190D01*
X65685714Y-51876190D01*
X67209523Y-52352380D02*
X66638095Y-52352380D01*
X66923809Y-52352380D02*
X66923809Y-51352380D01*
X66828571Y-51495238D01*
X66733333Y-51590476D01*
X66638095Y-51638095D01*
X67685714Y-52352380D02*
X67876190Y-52352380D01*
X67971428Y-52304761D01*
X68019047Y-52257142D01*
X68114285Y-52114285D01*
X68161904Y-51923809D01*
X68161904Y-51542857D01*
X68114285Y-51447619D01*
X68066666Y-51400000D01*
X67971428Y-51352380D01*
X67780952Y-51352380D01*
X67685714Y-51400000D01*
X67638095Y-51447619D01*
X67590476Y-51542857D01*
X67590476Y-51780952D01*
X67638095Y-51876190D01*
X67685714Y-51923809D01*
X67780952Y-51971428D01*
X67971428Y-51971428D01*
X68066666Y-51923809D01*
X68114285Y-51876190D01*
X68161904Y-51780952D01*
G04 #@! TO.C,R21*
X81857142Y-66752380D02*
X81523809Y-66276190D01*
X81285714Y-66752380D02*
X81285714Y-65752380D01*
X81666666Y-65752380D01*
X81761904Y-65800000D01*
X81809523Y-65847619D01*
X81857142Y-65942857D01*
X81857142Y-66085714D01*
X81809523Y-66180952D01*
X81761904Y-66228571D01*
X81666666Y-66276190D01*
X81285714Y-66276190D01*
X82238095Y-65847619D02*
X82285714Y-65800000D01*
X82380952Y-65752380D01*
X82619047Y-65752380D01*
X82714285Y-65800000D01*
X82761904Y-65847619D01*
X82809523Y-65942857D01*
X82809523Y-66038095D01*
X82761904Y-66180952D01*
X82190476Y-66752380D01*
X82809523Y-66752380D01*
X83761904Y-66752380D02*
X83190476Y-66752380D01*
X83476190Y-66752380D02*
X83476190Y-65752380D01*
X83380952Y-65895238D01*
X83285714Y-65990476D01*
X83190476Y-66038095D01*
G04 #@! TO.C,R15*
X108957142Y-32952380D02*
X108623809Y-32476190D01*
X108385714Y-32952380D02*
X108385714Y-31952380D01*
X108766666Y-31952380D01*
X108861904Y-32000000D01*
X108909523Y-32047619D01*
X108957142Y-32142857D01*
X108957142Y-32285714D01*
X108909523Y-32380952D01*
X108861904Y-32428571D01*
X108766666Y-32476190D01*
X108385714Y-32476190D01*
X109909523Y-32952380D02*
X109338095Y-32952380D01*
X109623809Y-32952380D02*
X109623809Y-31952380D01*
X109528571Y-32095238D01*
X109433333Y-32190476D01*
X109338095Y-32238095D01*
X110814285Y-31952380D02*
X110338095Y-31952380D01*
X110290476Y-32428571D01*
X110338095Y-32380952D01*
X110433333Y-32333333D01*
X110671428Y-32333333D01*
X110766666Y-32380952D01*
X110814285Y-32428571D01*
X110861904Y-32523809D01*
X110861904Y-32761904D01*
X110814285Y-32857142D01*
X110766666Y-32904761D01*
X110671428Y-32952380D01*
X110433333Y-32952380D01*
X110338095Y-32904761D01*
X110290476Y-32857142D01*
G04 #@! TO.C,R30*
X81457142Y-31852380D02*
X81123809Y-31376190D01*
X80885714Y-31852380D02*
X80885714Y-30852380D01*
X81266666Y-30852380D01*
X81361904Y-30900000D01*
X81409523Y-30947619D01*
X81457142Y-31042857D01*
X81457142Y-31185714D01*
X81409523Y-31280952D01*
X81361904Y-31328571D01*
X81266666Y-31376190D01*
X80885714Y-31376190D01*
X81790476Y-30852380D02*
X82409523Y-30852380D01*
X82076190Y-31233333D01*
X82219047Y-31233333D01*
X82314285Y-31280952D01*
X82361904Y-31328571D01*
X82409523Y-31423809D01*
X82409523Y-31661904D01*
X82361904Y-31757142D01*
X82314285Y-31804761D01*
X82219047Y-31852380D01*
X81933333Y-31852380D01*
X81838095Y-31804761D01*
X81790476Y-31757142D01*
X83028571Y-30852380D02*
X83123809Y-30852380D01*
X83219047Y-30900000D01*
X83266666Y-30947619D01*
X83314285Y-31042857D01*
X83361904Y-31233333D01*
X83361904Y-31471428D01*
X83314285Y-31661904D01*
X83266666Y-31757142D01*
X83219047Y-31804761D01*
X83123809Y-31852380D01*
X83028571Y-31852380D01*
X82933333Y-31804761D01*
X82885714Y-31757142D01*
X82838095Y-31661904D01*
X82790476Y-31471428D01*
X82790476Y-31233333D01*
X82838095Y-31042857D01*
X82885714Y-30947619D01*
X82933333Y-30900000D01*
X83028571Y-30852380D01*
G04 #@! TO.C,R31*
X65357142Y-33582380D02*
X65023809Y-33106190D01*
X64785714Y-33582380D02*
X64785714Y-32582380D01*
X65166666Y-32582380D01*
X65261904Y-32630000D01*
X65309523Y-32677619D01*
X65357142Y-32772857D01*
X65357142Y-32915714D01*
X65309523Y-33010952D01*
X65261904Y-33058571D01*
X65166666Y-33106190D01*
X64785714Y-33106190D01*
X65690476Y-32582380D02*
X66309523Y-32582380D01*
X65976190Y-32963333D01*
X66119047Y-32963333D01*
X66214285Y-33010952D01*
X66261904Y-33058571D01*
X66309523Y-33153809D01*
X66309523Y-33391904D01*
X66261904Y-33487142D01*
X66214285Y-33534761D01*
X66119047Y-33582380D01*
X65833333Y-33582380D01*
X65738095Y-33534761D01*
X65690476Y-33487142D01*
X67261904Y-33582380D02*
X66690476Y-33582380D01*
X66976190Y-33582380D02*
X66976190Y-32582380D01*
X66880952Y-32725238D01*
X66785714Y-32820476D01*
X66690476Y-32868095D01*
G04 #@! TO.C,R32*
X61357142Y-33582380D02*
X61023809Y-33106190D01*
X60785714Y-33582380D02*
X60785714Y-32582380D01*
X61166666Y-32582380D01*
X61261904Y-32630000D01*
X61309523Y-32677619D01*
X61357142Y-32772857D01*
X61357142Y-32915714D01*
X61309523Y-33010952D01*
X61261904Y-33058571D01*
X61166666Y-33106190D01*
X60785714Y-33106190D01*
X61690476Y-32582380D02*
X62309523Y-32582380D01*
X61976190Y-32963333D01*
X62119047Y-32963333D01*
X62214285Y-33010952D01*
X62261904Y-33058571D01*
X62309523Y-33153809D01*
X62309523Y-33391904D01*
X62261904Y-33487142D01*
X62214285Y-33534761D01*
X62119047Y-33582380D01*
X61833333Y-33582380D01*
X61738095Y-33534761D01*
X61690476Y-33487142D01*
X62690476Y-32677619D02*
X62738095Y-32630000D01*
X62833333Y-32582380D01*
X63071428Y-32582380D01*
X63166666Y-32630000D01*
X63214285Y-32677619D01*
X63261904Y-32772857D01*
X63261904Y-32868095D01*
X63214285Y-33010952D01*
X62642857Y-33582380D01*
X63261904Y-33582380D01*
G04 #@! TO.C,R2*
X114318333Y-47752380D02*
X113985000Y-47276190D01*
X113746904Y-47752380D02*
X113746904Y-46752380D01*
X114127857Y-46752380D01*
X114223095Y-46800000D01*
X114270714Y-46847619D01*
X114318333Y-46942857D01*
X114318333Y-47085714D01*
X114270714Y-47180952D01*
X114223095Y-47228571D01*
X114127857Y-47276190D01*
X113746904Y-47276190D01*
X114699285Y-46847619D02*
X114746904Y-46800000D01*
X114842142Y-46752380D01*
X115080238Y-46752380D01*
X115175476Y-46800000D01*
X115223095Y-46847619D01*
X115270714Y-46942857D01*
X115270714Y-47038095D01*
X115223095Y-47180952D01*
X114651666Y-47752380D01*
X115270714Y-47752380D01*
G04 #@! TO.C,R12*
X101057142Y-96752380D02*
X100723809Y-96276190D01*
X100485714Y-96752380D02*
X100485714Y-95752380D01*
X100866666Y-95752380D01*
X100961904Y-95800000D01*
X101009523Y-95847619D01*
X101057142Y-95942857D01*
X101057142Y-96085714D01*
X101009523Y-96180952D01*
X100961904Y-96228571D01*
X100866666Y-96276190D01*
X100485714Y-96276190D01*
X102009523Y-96752380D02*
X101438095Y-96752380D01*
X101723809Y-96752380D02*
X101723809Y-95752380D01*
X101628571Y-95895238D01*
X101533333Y-95990476D01*
X101438095Y-96038095D01*
X102390476Y-95847619D02*
X102438095Y-95800000D01*
X102533333Y-95752380D01*
X102771428Y-95752380D01*
X102866666Y-95800000D01*
X102914285Y-95847619D01*
X102961904Y-95942857D01*
X102961904Y-96038095D01*
X102914285Y-96180952D01*
X102342857Y-96752380D01*
X102961904Y-96752380D01*
G04 #@! TO.C,R14*
X70752380Y-96242857D02*
X70276190Y-96576190D01*
X70752380Y-96814285D02*
X69752380Y-96814285D01*
X69752380Y-96433333D01*
X69800000Y-96338095D01*
X69847619Y-96290476D01*
X69942857Y-96242857D01*
X70085714Y-96242857D01*
X70180952Y-96290476D01*
X70228571Y-96338095D01*
X70276190Y-96433333D01*
X70276190Y-96814285D01*
X70752380Y-95290476D02*
X70752380Y-95861904D01*
X70752380Y-95576190D02*
X69752380Y-95576190D01*
X69895238Y-95671428D01*
X69990476Y-95766666D01*
X70038095Y-95861904D01*
X70085714Y-94433333D02*
X70752380Y-94433333D01*
X69704761Y-94671428D02*
X70419047Y-94909523D01*
X70419047Y-94290476D01*
G04 #@! TO.C,R1*
X114333333Y-32952380D02*
X114000000Y-32476190D01*
X113761904Y-32952380D02*
X113761904Y-31952380D01*
X114142857Y-31952380D01*
X114238095Y-32000000D01*
X114285714Y-32047619D01*
X114333333Y-32142857D01*
X114333333Y-32285714D01*
X114285714Y-32380952D01*
X114238095Y-32428571D01*
X114142857Y-32476190D01*
X113761904Y-32476190D01*
X115285714Y-32952380D02*
X114714285Y-32952380D01*
X115000000Y-32952380D02*
X115000000Y-31952380D01*
X114904761Y-32095238D01*
X114809523Y-32190476D01*
X114714285Y-32238095D01*
G04 #@! TO.C,R3*
X101348333Y-52852380D02*
X101015000Y-52376190D01*
X100776904Y-52852380D02*
X100776904Y-51852380D01*
X101157857Y-51852380D01*
X101253095Y-51900000D01*
X101300714Y-51947619D01*
X101348333Y-52042857D01*
X101348333Y-52185714D01*
X101300714Y-52280952D01*
X101253095Y-52328571D01*
X101157857Y-52376190D01*
X100776904Y-52376190D01*
X101681666Y-51852380D02*
X102300714Y-51852380D01*
X101967380Y-52233333D01*
X102110238Y-52233333D01*
X102205476Y-52280952D01*
X102253095Y-52328571D01*
X102300714Y-52423809D01*
X102300714Y-52661904D01*
X102253095Y-52757142D01*
X102205476Y-52804761D01*
X102110238Y-52852380D01*
X101824523Y-52852380D01*
X101729285Y-52804761D01*
X101681666Y-52757142D01*
G04 #@! TO.C,R11*
X70757142Y-81552380D02*
X70423809Y-81076190D01*
X70185714Y-81552380D02*
X70185714Y-80552380D01*
X70566666Y-80552380D01*
X70661904Y-80600000D01*
X70709523Y-80647619D01*
X70757142Y-80742857D01*
X70757142Y-80885714D01*
X70709523Y-80980952D01*
X70661904Y-81028571D01*
X70566666Y-81076190D01*
X70185714Y-81076190D01*
X71709523Y-81552380D02*
X71138095Y-81552380D01*
X71423809Y-81552380D02*
X71423809Y-80552380D01*
X71328571Y-80695238D01*
X71233333Y-80790476D01*
X71138095Y-80838095D01*
X72661904Y-81552380D02*
X72090476Y-81552380D01*
X72376190Y-81552380D02*
X72376190Y-80552380D01*
X72280952Y-80695238D01*
X72185714Y-80790476D01*
X72090476Y-80838095D01*
G04 #@! TO.C,R13*
X85872142Y-96652380D02*
X85538809Y-96176190D01*
X85300714Y-96652380D02*
X85300714Y-95652380D01*
X85681666Y-95652380D01*
X85776904Y-95700000D01*
X85824523Y-95747619D01*
X85872142Y-95842857D01*
X85872142Y-95985714D01*
X85824523Y-96080952D01*
X85776904Y-96128571D01*
X85681666Y-96176190D01*
X85300714Y-96176190D01*
X86824523Y-96652380D02*
X86253095Y-96652380D01*
X86538809Y-96652380D02*
X86538809Y-95652380D01*
X86443571Y-95795238D01*
X86348333Y-95890476D01*
X86253095Y-95938095D01*
X87157857Y-95652380D02*
X87776904Y-95652380D01*
X87443571Y-96033333D01*
X87586428Y-96033333D01*
X87681666Y-96080952D01*
X87729285Y-96128571D01*
X87776904Y-96223809D01*
X87776904Y-96461904D01*
X87729285Y-96557142D01*
X87681666Y-96604761D01*
X87586428Y-96652380D01*
X87300714Y-96652380D01*
X87205476Y-96604761D01*
X87157857Y-96557142D01*
G04 #@! TO.C,R4*
X86333333Y-52652380D02*
X86000000Y-52176190D01*
X85761904Y-52652380D02*
X85761904Y-51652380D01*
X86142857Y-51652380D01*
X86238095Y-51700000D01*
X86285714Y-51747619D01*
X86333333Y-51842857D01*
X86333333Y-51985714D01*
X86285714Y-52080952D01*
X86238095Y-52128571D01*
X86142857Y-52176190D01*
X85761904Y-52176190D01*
X87190476Y-51985714D02*
X87190476Y-52652380D01*
X86952380Y-51604761D02*
X86714285Y-52319047D01*
X87333333Y-52319047D01*
G04 #@! TO.C,R6*
X101433333Y-67052380D02*
X101100000Y-66576190D01*
X100861904Y-67052380D02*
X100861904Y-66052380D01*
X101242857Y-66052380D01*
X101338095Y-66100000D01*
X101385714Y-66147619D01*
X101433333Y-66242857D01*
X101433333Y-66385714D01*
X101385714Y-66480952D01*
X101338095Y-66528571D01*
X101242857Y-66576190D01*
X100861904Y-66576190D01*
X102290476Y-66052380D02*
X102100000Y-66052380D01*
X102004761Y-66100000D01*
X101957142Y-66147619D01*
X101861904Y-66290476D01*
X101814285Y-66480952D01*
X101814285Y-66861904D01*
X101861904Y-66957142D01*
X101909523Y-67004761D01*
X102004761Y-67052380D01*
X102195238Y-67052380D01*
X102290476Y-67004761D01*
X102338095Y-66957142D01*
X102385714Y-66861904D01*
X102385714Y-66623809D01*
X102338095Y-66528571D01*
X102290476Y-66480952D01*
X102195238Y-66433333D01*
X102004761Y-66433333D01*
X101909523Y-66480952D01*
X101861904Y-66528571D01*
X101814285Y-66623809D01*
G04 #@! TO.C,R5*
X71348333Y-52352380D02*
X71015000Y-51876190D01*
X70776904Y-52352380D02*
X70776904Y-51352380D01*
X71157857Y-51352380D01*
X71253095Y-51400000D01*
X71300714Y-51447619D01*
X71348333Y-51542857D01*
X71348333Y-51685714D01*
X71300714Y-51780952D01*
X71253095Y-51828571D01*
X71157857Y-51876190D01*
X70776904Y-51876190D01*
X72253095Y-51352380D02*
X71776904Y-51352380D01*
X71729285Y-51828571D01*
X71776904Y-51780952D01*
X71872142Y-51733333D01*
X72110238Y-51733333D01*
X72205476Y-51780952D01*
X72253095Y-51828571D01*
X72300714Y-51923809D01*
X72300714Y-52161904D01*
X72253095Y-52257142D01*
X72205476Y-52304761D01*
X72110238Y-52352380D01*
X71872142Y-52352380D01*
X71776904Y-52304761D01*
X71729285Y-52257142D01*
G04 #@! TO.C,R9*
X101433333Y-81652380D02*
X101100000Y-81176190D01*
X100861904Y-81652380D02*
X100861904Y-80652380D01*
X101242857Y-80652380D01*
X101338095Y-80700000D01*
X101385714Y-80747619D01*
X101433333Y-80842857D01*
X101433333Y-80985714D01*
X101385714Y-81080952D01*
X101338095Y-81128571D01*
X101242857Y-81176190D01*
X100861904Y-81176190D01*
X101909523Y-81652380D02*
X102100000Y-81652380D01*
X102195238Y-81604761D01*
X102242857Y-81557142D01*
X102338095Y-81414285D01*
X102385714Y-81223809D01*
X102385714Y-80842857D01*
X102338095Y-80747619D01*
X102290476Y-80700000D01*
X102195238Y-80652380D01*
X102004761Y-80652380D01*
X101909523Y-80700000D01*
X101861904Y-80747619D01*
X101814285Y-80842857D01*
X101814285Y-81080952D01*
X101861904Y-81176190D01*
X101909523Y-81223809D01*
X102004761Y-81271428D01*
X102195238Y-81271428D01*
X102290476Y-81223809D01*
X102338095Y-81176190D01*
X102385714Y-81080952D01*
G04 #@! TO.C,R10*
X85872142Y-81452380D02*
X85538809Y-80976190D01*
X85300714Y-81452380D02*
X85300714Y-80452380D01*
X85681666Y-80452380D01*
X85776904Y-80500000D01*
X85824523Y-80547619D01*
X85872142Y-80642857D01*
X85872142Y-80785714D01*
X85824523Y-80880952D01*
X85776904Y-80928571D01*
X85681666Y-80976190D01*
X85300714Y-80976190D01*
X86824523Y-81452380D02*
X86253095Y-81452380D01*
X86538809Y-81452380D02*
X86538809Y-80452380D01*
X86443571Y-80595238D01*
X86348333Y-80690476D01*
X86253095Y-80738095D01*
X87443571Y-80452380D02*
X87538809Y-80452380D01*
X87634047Y-80500000D01*
X87681666Y-80547619D01*
X87729285Y-80642857D01*
X87776904Y-80833333D01*
X87776904Y-81071428D01*
X87729285Y-81261904D01*
X87681666Y-81357142D01*
X87634047Y-81404761D01*
X87538809Y-81452380D01*
X87443571Y-81452380D01*
X87348333Y-81404761D01*
X87300714Y-81357142D01*
X87253095Y-81261904D01*
X87205476Y-81071428D01*
X87205476Y-80833333D01*
X87253095Y-80642857D01*
X87300714Y-80547619D01*
X87348333Y-80500000D01*
X87443571Y-80452380D01*
G04 #@! TO.C,R7*
X86348333Y-66852380D02*
X86015000Y-66376190D01*
X85776904Y-66852380D02*
X85776904Y-65852380D01*
X86157857Y-65852380D01*
X86253095Y-65900000D01*
X86300714Y-65947619D01*
X86348333Y-66042857D01*
X86348333Y-66185714D01*
X86300714Y-66280952D01*
X86253095Y-66328571D01*
X86157857Y-66376190D01*
X85776904Y-66376190D01*
X86681666Y-65852380D02*
X87348333Y-65852380D01*
X86919761Y-66852380D01*
G04 #@! TO.C,R8*
X71433333Y-66652380D02*
X71100000Y-66176190D01*
X70861904Y-66652380D02*
X70861904Y-65652380D01*
X71242857Y-65652380D01*
X71338095Y-65700000D01*
X71385714Y-65747619D01*
X71433333Y-65842857D01*
X71433333Y-65985714D01*
X71385714Y-66080952D01*
X71338095Y-66128571D01*
X71242857Y-66176190D01*
X70861904Y-66176190D01*
X72004761Y-66080952D02*
X71909523Y-66033333D01*
X71861904Y-65985714D01*
X71814285Y-65890476D01*
X71814285Y-65842857D01*
X71861904Y-65747619D01*
X71909523Y-65700000D01*
X72004761Y-65652380D01*
X72195238Y-65652380D01*
X72290476Y-65700000D01*
X72338095Y-65747619D01*
X72385714Y-65842857D01*
X72385714Y-65890476D01*
X72338095Y-65985714D01*
X72290476Y-66033333D01*
X72195238Y-66080952D01*
X72004761Y-66080952D01*
X71909523Y-66128571D01*
X71861904Y-66176190D01*
X71814285Y-66271428D01*
X71814285Y-66461904D01*
X71861904Y-66557142D01*
X71909523Y-66604761D01*
X72004761Y-66652380D01*
X72195238Y-66652380D01*
X72290476Y-66604761D01*
X72338095Y-66557142D01*
X72385714Y-66461904D01*
X72385714Y-66271428D01*
X72338095Y-66176190D01*
X72290476Y-66128571D01*
X72195238Y-66080952D01*
G04 #@! TO.C,R34*
X61569642Y-29882380D02*
X61236309Y-29406190D01*
X60998214Y-29882380D02*
X60998214Y-28882380D01*
X61379166Y-28882380D01*
X61474404Y-28930000D01*
X61522023Y-28977619D01*
X61569642Y-29072857D01*
X61569642Y-29215714D01*
X61522023Y-29310952D01*
X61474404Y-29358571D01*
X61379166Y-29406190D01*
X60998214Y-29406190D01*
X61902976Y-28882380D02*
X62522023Y-28882380D01*
X62188690Y-29263333D01*
X62331547Y-29263333D01*
X62426785Y-29310952D01*
X62474404Y-29358571D01*
X62522023Y-29453809D01*
X62522023Y-29691904D01*
X62474404Y-29787142D01*
X62426785Y-29834761D01*
X62331547Y-29882380D01*
X62045833Y-29882380D01*
X61950595Y-29834761D01*
X61902976Y-29787142D01*
X63379166Y-29215714D02*
X63379166Y-29882380D01*
X63141071Y-28834761D02*
X62902976Y-29549047D01*
X63522023Y-29549047D01*
G04 #@! TO.C,R33*
X67357142Y-28622380D02*
X67023809Y-28146190D01*
X66785714Y-28622380D02*
X66785714Y-27622380D01*
X67166666Y-27622380D01*
X67261904Y-27670000D01*
X67309523Y-27717619D01*
X67357142Y-27812857D01*
X67357142Y-27955714D01*
X67309523Y-28050952D01*
X67261904Y-28098571D01*
X67166666Y-28146190D01*
X66785714Y-28146190D01*
X67690476Y-27622380D02*
X68309523Y-27622380D01*
X67976190Y-28003333D01*
X68119047Y-28003333D01*
X68214285Y-28050952D01*
X68261904Y-28098571D01*
X68309523Y-28193809D01*
X68309523Y-28431904D01*
X68261904Y-28527142D01*
X68214285Y-28574761D01*
X68119047Y-28622380D01*
X67833333Y-28622380D01*
X67738095Y-28574761D01*
X67690476Y-28527142D01*
X68642857Y-27622380D02*
X69261904Y-27622380D01*
X68928571Y-28003333D01*
X69071428Y-28003333D01*
X69166666Y-28050952D01*
X69214285Y-28098571D01*
X69261904Y-28193809D01*
X69261904Y-28431904D01*
X69214285Y-28527142D01*
X69166666Y-28574761D01*
X69071428Y-28622380D01*
X68785714Y-28622380D01*
X68690476Y-28574761D01*
X68642857Y-28527142D01*
G04 #@! TO.C,R29*
X85757142Y-33352380D02*
X85423809Y-32876190D01*
X85185714Y-33352380D02*
X85185714Y-32352380D01*
X85566666Y-32352380D01*
X85661904Y-32400000D01*
X85709523Y-32447619D01*
X85757142Y-32542857D01*
X85757142Y-32685714D01*
X85709523Y-32780952D01*
X85661904Y-32828571D01*
X85566666Y-32876190D01*
X85185714Y-32876190D01*
X86138095Y-32447619D02*
X86185714Y-32400000D01*
X86280952Y-32352380D01*
X86519047Y-32352380D01*
X86614285Y-32400000D01*
X86661904Y-32447619D01*
X86709523Y-32542857D01*
X86709523Y-32638095D01*
X86661904Y-32780952D01*
X86090476Y-33352380D01*
X86709523Y-33352380D01*
X87185714Y-33352380D02*
X87376190Y-33352380D01*
X87471428Y-33304761D01*
X87519047Y-33257142D01*
X87614285Y-33114285D01*
X87661904Y-32923809D01*
X87661904Y-32542857D01*
X87614285Y-32447619D01*
X87566666Y-32400000D01*
X87471428Y-32352380D01*
X87280952Y-32352380D01*
X87185714Y-32400000D01*
X87138095Y-32447619D01*
X87090476Y-32542857D01*
X87090476Y-32780952D01*
X87138095Y-32876190D01*
X87185714Y-32923809D01*
X87280952Y-32971428D01*
X87471428Y-32971428D01*
X87566666Y-32923809D01*
X87614285Y-32876190D01*
X87661904Y-32780952D01*
G04 #@! TO.C,S1*
X71734761Y-18761904D02*
X71782380Y-18619047D01*
X71782380Y-18380952D01*
X71734761Y-18285714D01*
X71687142Y-18238095D01*
X71591904Y-18190476D01*
X71496666Y-18190476D01*
X71401428Y-18238095D01*
X71353809Y-18285714D01*
X71306190Y-18380952D01*
X71258571Y-18571428D01*
X71210952Y-18666666D01*
X71163333Y-18714285D01*
X71068095Y-18761904D01*
X70972857Y-18761904D01*
X70877619Y-18714285D01*
X70830000Y-18666666D01*
X70782380Y-18571428D01*
X70782380Y-18333333D01*
X70830000Y-18190476D01*
X71782380Y-17238095D02*
X71782380Y-17809523D01*
X71782380Y-17523809D02*
X70782380Y-17523809D01*
X70925238Y-17619047D01*
X71020476Y-17714285D01*
X71068095Y-17809523D01*
G04 #@! TO.C,S3*
X52074761Y-22761904D02*
X52122380Y-22619047D01*
X52122380Y-22380952D01*
X52074761Y-22285714D01*
X52027142Y-22238095D01*
X51931904Y-22190476D01*
X51836666Y-22190476D01*
X51741428Y-22238095D01*
X51693809Y-22285714D01*
X51646190Y-22380952D01*
X51598571Y-22571428D01*
X51550952Y-22666666D01*
X51503333Y-22714285D01*
X51408095Y-22761904D01*
X51312857Y-22761904D01*
X51217619Y-22714285D01*
X51170000Y-22666666D01*
X51122380Y-22571428D01*
X51122380Y-22333333D01*
X51170000Y-22190476D01*
X51122380Y-21857142D02*
X51122380Y-21238095D01*
X51503333Y-21571428D01*
X51503333Y-21428571D01*
X51550952Y-21333333D01*
X51598571Y-21285714D01*
X51693809Y-21238095D01*
X51931904Y-21238095D01*
X52027142Y-21285714D01*
X52074761Y-21333333D01*
X52122380Y-21428571D01*
X52122380Y-21714285D01*
X52074761Y-21809523D01*
X52027142Y-21857142D01*
G04 #@! TO.C,U1*
X49248095Y-67842380D02*
X49248095Y-68651904D01*
X49295714Y-68747142D01*
X49343333Y-68794761D01*
X49438571Y-68842380D01*
X49629047Y-68842380D01*
X49724285Y-68794761D01*
X49771904Y-68747142D01*
X49819523Y-68651904D01*
X49819523Y-67842380D01*
X50819523Y-68842380D02*
X50248095Y-68842380D01*
X50533809Y-68842380D02*
X50533809Y-67842380D01*
X50438571Y-67985238D01*
X50343333Y-68080476D01*
X50248095Y-68128095D01*
G04 #@! TO.C,U2*
X49218095Y-46192380D02*
X49218095Y-47001904D01*
X49265714Y-47097142D01*
X49313333Y-47144761D01*
X49408571Y-47192380D01*
X49599047Y-47192380D01*
X49694285Y-47144761D01*
X49741904Y-47097142D01*
X49789523Y-47001904D01*
X49789523Y-46192380D01*
X50218095Y-46287619D02*
X50265714Y-46240000D01*
X50360952Y-46192380D01*
X50599047Y-46192380D01*
X50694285Y-46240000D01*
X50741904Y-46287619D01*
X50789523Y-46382857D01*
X50789523Y-46478095D01*
X50741904Y-46620952D01*
X50170476Y-47192380D01*
X50789523Y-47192380D01*
G04 #@! TO.C,U3*
X34388095Y-33952380D02*
X34388095Y-34761904D01*
X34435714Y-34857142D01*
X34483333Y-34904761D01*
X34578571Y-34952380D01*
X34769047Y-34952380D01*
X34864285Y-34904761D01*
X34911904Y-34857142D01*
X34959523Y-34761904D01*
X34959523Y-33952380D01*
X35340476Y-33952380D02*
X35959523Y-33952380D01*
X35626190Y-34333333D01*
X35769047Y-34333333D01*
X35864285Y-34380952D01*
X35911904Y-34428571D01*
X35959523Y-34523809D01*
X35959523Y-34761904D01*
X35911904Y-34857142D01*
X35864285Y-34904761D01*
X35769047Y-34952380D01*
X35483333Y-34952380D01*
X35388095Y-34904761D01*
X35340476Y-34857142D01*
G04 #@! TO.C,U4*
X34388095Y-23952380D02*
X34388095Y-24761904D01*
X34435714Y-24857142D01*
X34483333Y-24904761D01*
X34578571Y-24952380D01*
X34769047Y-24952380D01*
X34864285Y-24904761D01*
X34911904Y-24857142D01*
X34959523Y-24761904D01*
X34959523Y-23952380D01*
X35864285Y-24285714D02*
X35864285Y-24952380D01*
X35626190Y-23904761D02*
X35388095Y-24619047D01*
X36007142Y-24619047D01*
G04 #@! TO.C,Y1*
X75026190Y-22206190D02*
X75502380Y-22206190D01*
X74502380Y-22539523D02*
X75026190Y-22206190D01*
X74502380Y-21872857D01*
X75502380Y-21015714D02*
X75502380Y-21587142D01*
X75502380Y-21301428D02*
X74502380Y-21301428D01*
X74645238Y-21396666D01*
X74740476Y-21491904D01*
X74788095Y-21587142D01*
G04 #@! TO.C,Z1*
X111960476Y-60352380D02*
X112627142Y-60352380D01*
X111960476Y-61352380D01*
X112627142Y-61352380D01*
X113531904Y-61352380D02*
X112960476Y-61352380D01*
X113246190Y-61352380D02*
X113246190Y-60352380D01*
X113150952Y-60495238D01*
X113055714Y-60590476D01*
X112960476Y-60638095D01*
G04 #@! TO.C,12V*
X120080952Y-107252380D02*
X119509523Y-107252380D01*
X119795238Y-107252380D02*
X119795238Y-106252380D01*
X119700000Y-106395238D01*
X119604761Y-106490476D01*
X119509523Y-106538095D01*
X120461904Y-106347619D02*
X120509523Y-106300000D01*
X120604761Y-106252380D01*
X120842857Y-106252380D01*
X120938095Y-106300000D01*
X120985714Y-106347619D01*
X121033333Y-106442857D01*
X121033333Y-106538095D01*
X120985714Y-106680952D01*
X120414285Y-107252380D01*
X121033333Y-107252380D01*
X121319047Y-106252380D02*
X121652380Y-107252380D01*
X121985714Y-106252380D01*
G04 #@! TO.C,C4*
X28533333Y-30257142D02*
X28485714Y-30304761D01*
X28342857Y-30352380D01*
X28247619Y-30352380D01*
X28104761Y-30304761D01*
X28009523Y-30209523D01*
X27961904Y-30114285D01*
X27914285Y-29923809D01*
X27914285Y-29780952D01*
X27961904Y-29590476D01*
X28009523Y-29495238D01*
X28104761Y-29400000D01*
X28247619Y-29352380D01*
X28342857Y-29352380D01*
X28485714Y-29400000D01*
X28533333Y-29447619D01*
X29390476Y-29685714D02*
X29390476Y-30352380D01*
X29152380Y-29304761D02*
X28914285Y-30019047D01*
X29533333Y-30019047D01*
G04 #@! TD*
M02*
