M48
;DRILL file {KiCad (5.0.1)-3} date 11/14/2019 10:07:20 PM
;FORMAT={-:-/ absolute / inch / decimal}
FMAT,2
INCH,TZ
T1C0.0157
T2C0.0236
T3C0.0300
T4C0.0315
T5C0.0350
T6C0.0394
T7C0.0433
T8C0.0512
%
G90
G05
M72
T1
X1.063Y-1.2323
X1.1142Y-1.7402
X1.2795Y-1.7815
X1.5256Y-2.6083
X1.9488Y-2.5984
X1.9783Y-2.3524
X1.998Y-1.5453
X2.0866Y-1.9685
X2.1161Y-2.9724
X2.3031Y-4.4587
X2.313Y-3.5925
X2.3327Y-0.7087
X2.3622Y-1.1024
X2.3974Y-0.9449
X2.4016Y-1.1811
X2.4016Y-1.2205
X2.4016Y-1.2598
X2.4409Y-1.063
X2.4803Y-0.9449
X2.4819Y-1.0522
X2.5085Y-1.6226
X2.5984Y-1.1024
X2.6378Y-1.9291
X2.6383Y-2.5989
X2.6772Y-1.9291
X2.688Y-3.2085
X2.7165Y-1.8898
X2.7165Y-3.8189
X2.8155Y-1.1225
X2.8433Y-1.1504
X2.874Y-0.6299
X2.874Y-1.2992
X2.9134Y-0.6693
X2.9203Y-0.7092
X2.9626Y-4.3799
X3.1102Y-2.0921
X3.1299Y-2.7854
X3.1299Y-3.3661
X3.1496Y-1.378
X3.1496Y-1.7717
X3.1496Y-2.6433
X3.1803Y-3.2339
X3.189Y-1.2992
X3.2283Y-3.8189
X3.2519Y-1.3363
X3.3465Y-1.253
X3.3465Y-1.3386
X3.3858Y-1.5945
X3.4439Y-1.5157
X3.4591Y-1.5694
X3.4646Y-1.3386
X3.5044Y-1.4956
X3.5433Y-1.5748
X3.5748Y-2.3425
X3.5827Y-1.253
X3.622Y-1.4961
X3.6609Y-1.4168
X3.6619Y-1.5753
X3.7008Y-1.6535
X3.7008Y-2.126
X3.7008Y-2.6772
X3.7402Y-1.378
X3.7402Y-3.2339
X3.7795Y-1.8898
X3.7795Y-3.8189
X3.8184Y-1.3381
X3.8189Y-1.6535
X3.8633Y-1.8948
X3.937Y-1.2598
X3.9764Y-1.4567
X4.0157Y-2.3425
X4.0551Y-1.3386
X4.0945Y-2.4213
X4.099Y-1.6187
X4.1374Y-1.2992
X4.1696Y-3.7759
X4.2323Y-2.5591
X4.252Y-3.2283
X4.256Y-1.4214
X4.2618Y-2.3622
X4.2913Y-1.2205
X4.2913Y-1.3386
X4.2913Y-2.8346
X4.2997Y-1.8588
X4.3209Y-2.1555
X4.4094Y-1.2598
X4.4882Y-1.3386
X4.6457Y-1.6929
T2
X2.5591Y-2.2441
X2.5591Y-2.7953
X2.6772Y-3.3858
X2.6772Y-3.9764
X3.2677Y-1.4961
X3.2677Y-2.2441
X3.2677Y-2.7953
X3.2677Y-3.3858
X3.2677Y-3.9764
X3.8583Y-2.2441
X3.8583Y-3.9764
X3.874Y-3.374
X3.878Y-2.7874
X4.0512Y-2.1811
X4.3701Y-1.4961
X4.3701Y-2.0472
T3
X1.7189Y-2.5122
X1.7177Y-1.6598
T4
X1.378Y-2.4016
X1.5157Y-2.4016
X1.4173Y-1.9094
X1.4173Y-2.0472
T5
X1.7189Y-1.9122
X1.7189Y-2.0122
X1.7189Y-2.1122
X1.7189Y-2.2122
X1.7189Y-2.3122
X1.7189Y-2.4122
X1.7189Y-2.6122
X2.2189Y-1.9122
X2.2189Y-2.0122
X2.2189Y-2.1122
X2.2189Y-2.2122
X2.2189Y-2.3122
X2.2189Y-2.4122
X2.2189Y-2.5122
X2.2189Y-2.6122
X1.7177Y-1.0598
X1.7177Y-1.1598
X1.7177Y-1.2598
X1.7177Y-1.3598
X1.7177Y-1.4598
X1.7177Y-1.5598
X1.7177Y-1.7598
X2.2177Y-1.0598
X2.2177Y-1.1598
X2.2177Y-1.2598
X2.2177Y-1.3598
X2.2177Y-1.4598
X2.2177Y-1.5598
X2.2177Y-1.6598
X2.2177Y-1.7598
T6
X2.5984Y-1.3961
X2.5984Y-1.4961
X2.4165Y-0.7087
X2.5165Y-0.7087
X2.6165Y-0.7087
X2.7165Y-0.7087
X1.1992Y-0.7087
X1.1992Y-0.8087
X1.2992Y-0.7087
X1.2992Y-0.8087
X4.3898Y-2.4803
X4.3898Y-2.5803
X4.3898Y-2.6803
X4.3898Y-2.7803
X4.3898Y-2.8803
X4.3898Y-2.9803
X4.3898Y-3.0803
X4.3898Y-3.1803
X4.3898Y-3.2803
X4.3898Y-3.3803
X4.3898Y-3.4803
X4.3898Y-3.5803
X4.3898Y-3.6803
X4.3898Y-3.7803
X4.4898Y-2.4803
X4.4898Y-2.5803
X4.4898Y-2.6803
X4.4898Y-2.7803
X4.4898Y-2.8803
X4.4898Y-2.9803
X4.4898Y-3.0803
X4.4898Y-3.1803
X4.4898Y-3.2803
X4.4898Y-3.3803
X4.4898Y-3.4803
X4.4898Y-3.5803
X4.4898Y-3.6803
X4.4898Y-3.7803
X2.7575Y-1.3961
X2.7575Y-1.4961
X2.6165Y-0.8661
X2.7165Y-0.8661
X2.8575Y-1.3961
X2.8575Y-1.4961
X1.9441Y-0.7087
X2.0441Y-0.7087
X2.1441Y-0.7087
X2.2441Y-0.7087
X2.126Y-0.8661
X2.226Y-0.8661
X2.326Y-0.8661
X2.426Y-0.8661
X1.4929Y-0.7087
X1.4929Y-0.8087
X1.5929Y-0.7087
X1.5929Y-0.8087
X1.6929Y-0.7087
X1.6929Y-0.8087
X3.0465Y-0.8055
X3.0465Y-0.9055
X3.1465Y-0.8055
X3.1465Y-0.9055
X3.2465Y-0.8055
X3.2465Y-0.9055
X3.3465Y-0.8055
X3.3465Y-0.9055
X3.4465Y-0.8055
X3.4465Y-0.9055
X3.5465Y-0.8055
X3.5465Y-0.9055
X3.6465Y-0.8055
X3.6465Y-0.9055
X3.7465Y-0.8055
X3.7465Y-0.9055
X3.8465Y-0.8055
X3.8465Y-0.9055
X3.9465Y-0.8055
X3.9465Y-0.9055
X4.0465Y-0.8055
X4.0465Y-0.9055
X4.1465Y-0.8055
X4.1465Y-0.9055
X4.2465Y-0.8055
X4.2465Y-0.9055
X4.3465Y-0.8055
X4.3465Y-0.9055
X4.4465Y-0.8055
X4.4465Y-0.9055
X4.5465Y-0.8055
X4.5465Y-0.9055
X4.6465Y-0.8055
X4.6465Y-0.9055
X4.7465Y-0.8055
X4.7465Y-0.9055
X2.9575Y-1.3961
X2.9575Y-1.4961
X2.4409Y-1.3961
X2.4409Y-1.4961
T7
X3.5598Y-1.3717
X3.5598Y-1.7717
X2.9528Y-3.2614
X2.9528Y-3.6614
X4.6457Y-1.3717
X4.6457Y-1.7717
X4.6457Y-1.9228
X4.6457Y-2.3228
X4.1339Y-3.2614
X4.1339Y-3.6614
X4.1339Y-2.6709
X4.1339Y-3.0709
X3.5433Y-3.852
X3.5433Y-4.252
X2.9528Y-3.852
X2.9528Y-4.252
X2.9528Y-2.1197
X2.9528Y-2.5197
X3.5433Y-2.1197
X3.5433Y-2.5197
X2.9528Y-2.6709
X2.9528Y-3.0709
X4.1339Y-3.852
X4.1339Y-4.252
X3.5433Y-2.6709
X3.5433Y-3.0709
X4.1339Y-2.1197
X4.1339Y-2.5197
X3.5433Y-3.2614
X3.5433Y-3.6614
T8
X3.7795Y-1.5748
X3.9764Y-1.5748
X4.4094Y-4.0945
X4.6063Y-4.0945
T0
M30
